<svg width="289" height="289" viewBox="0 0 289 289" fill="none" xmlns="http://www.w3.org/2000/svg">
<circle cx="144.176" cy="144.176" r="144.176" fill="#0A84FF"/>
<path d="M22.9449 228.428C15.0199 244.159 10.2779 253.571 18.0253 261.319C27.4832 270.777 47.4869 257.867 66.6428 245.505C83.9882 234.311 100.639 223.566 108.135 230.281C135.168 243.297 153.19 243.297 180.223 230.281C187.72 223.566 204.37 234.311 221.716 245.505C240.871 257.867 260.875 270.777 270.333 261.319C278.08 253.571 273.338 244.159 265.413 228.428C254.903 207.565 238.795 175.59 238.795 121.648H180.223H49.5638C49.5638 175.59 33.4551 207.565 22.9449 228.428Z" fill="#E43434"/>
<path d="M143.783 48.2227C87.1632 48.2227 41.3491 63.9388 44.6797 122.45C47.5662 172.329 64.3672 207.819 79.3919 229.143C94.8606 251.057 110.477 257.477 120.025 237.038C125.576 225.085 133.94 212.468 143.709 212.468C153.479 212.468 161.843 225.159 167.394 237.038C176.941 257.477 192.558 251.057 208.027 229.143C223.051 207.819 239.926 172.255 242.739 122.45C246.218 63.9388 200.329 48.2227 143.783 48.2227Z" fill="white"/>
<path d="M23.9092 147.485C28.3855 140.203 40.6954 136.36 46.2907 135.348L46.2908 117.143C37.8977 119.166 19.4329 125.639 12.7184 135.348C6.00392 145.058 9.9207 153.553 12.7184 156.587C28.3855 163.869 37.8977 173.781 40.6954 177.827C45.1717 192.391 57.4815 189.963 63.0769 186.929L54.6838 159.622C45.7312 159.622 45.3582 163.667 46.2907 165.69C41.8144 155.981 29.5046 149.508 23.9092 147.485Z" fill="white"/>
<path d="M263.545 147.485C259.069 140.203 246.759 136.36 241.164 135.348L241.164 117.143C249.557 119.166 268.022 125.639 274.736 135.348C281.45 145.058 277.534 153.553 274.736 156.587C259.069 163.869 249.557 173.781 246.759 177.827C242.283 192.391 229.973 189.963 224.377 186.929L232.771 159.622C241.723 159.622 242.096 163.667 241.164 165.69C245.64 155.981 257.95 149.508 263.545 147.485Z" fill="white"/>
<path d="M171.209 135.165L126.154 138.383C126.154 143.747 130.016 154.474 145.463 154.474C160.911 154.474 169.063 141.601 171.209 135.165Z" fill="#FF9061"/>
<ellipse cx="184.722" cy="100.231" rx="13.5165" ry="18.022" transform="rotate(5 184.722 100.231)" fill="#7C7B8A"/>
<circle cx="188.047" cy="93.2839" r="4.50549" transform="rotate(5 188.047 93.2839)" fill="white"/>
<path d="M126.461 107.057C121.844 100.599 109.99 91.9826 99.5109 109.178" stroke="#7C7B8A" stroke-width="9.01099" stroke-linecap="round" stroke-linejoin="bevel"/>
<path d="M46.2239 139.67C64.0289 150.652 144.174 175.714 144.173 184.724C120.573 184.724 74.108 170.27 49.7653 159.798C45.0523 157.691 45.0528 153.185 46.2239 139.67Z" fill="#E43434"/>
<path d="M242.128 139.802C224.323 150.784 144.178 175.846 144.178 184.857C167.779 184.857 214.244 170.402 238.586 159.93C243.299 157.823 243.299 153.318 242.128 139.802Z" fill="#E43434"/>
</svg>
