<svg width="374" height="254" viewBox="0 0 374 254" fill="none" xmlns="http://www.w3.org/2000/svg">
<path d="M296.431 96.4828C296.516 96.6636 296.659 96.8049 296.865 96.9038L296.431 96.4828C294.389 92.1588 325.52 65.2658 330.001 57.5C333.823 53.86 340.649 46.904 347.546 38.7346C351.191 45.0393 357.989 43.149 362.811 36.0468L371.654 24.1091C375.389 18.0941 355.846 14.0827 347.658 26.932C343.885 30.0879 329.609 39.2732 315 47C311.496 49.1809 306.5 51.9999 294.85 65.2742C287.063 74.1466 276.456 80.2623 284.009 84.4443L296.431 96.4828Z" fill="white"/>
<path d="M296.865 96.9038C291.74 94.4408 325.333 65.5904 330.001 57.5C333.823 53.86 340.649 46.904 347.546 38.7346C351.191 45.0393 357.989 43.149 362.811 36.0468L371.654 24.1091C375.389 18.0941 355.846 14.0827 347.658 26.932C343.885 30.0879 329.609 39.2732 315 47C311.496 49.1809 306.5 51.9999 294.85 65.2742C287.063 74.1466 276.456 80.2623 284.009 84.4443L296.865 96.9038Z" stroke="black" stroke-opacity="0.2"/>
<path d="M0 250C13.5 222 61.9997 176.5 66.4997 156.5C71.6805 133.475 75.4997 128.5 109 107L242.222 91.6484H300.793C300.793 145.59 129.99 155.638 140.5 176.5C148.425 192.231 127.747 183.753 120 191.5C110.542 200.958 94.0001 185.5 82.0001 202.5C66.5001 219.5 78.9966 200.785 71.5 207.5C68.4864 208.951 66.4678 209.818 65.2099 210.249C64.0945 211.083 62.8609 211.998 61.5001 213L61.3147 213.247C53.9963 223.006 53.7015 223.399 36.5001 234.5C17.3442 246.862 9.45793 259.458 0 250Z" fill="#E43434"/>
<path d="M205.783 18.2229C149.163 18.2229 103.349 33.9391 106.68 92.4505C109.566 142.329 126.367 177.82 141.392 199.143C156.861 221.058 172.477 227.477 182.025 207.038C187.576 195.085 195.939 182.468 205.709 182.468C215.479 182.468 223.842 195.159 229.393 207.038C238.941 227.477 254.558 221.058 270.027 199.143C285.051 177.82 301.926 142.255 304.739 92.4505C308.217 33.9391 262.329 18.2229 205.783 18.2229Z" fill="white"/>
<path d="M304.24 92.4208L304.24 92.4223C301.433 142.125 284.594 177.6 269.618 198.855C265.766 204.313 261.914 208.791 258.162 212.122C254.408 215.457 250.777 217.621 247.366 218.489C243.973 219.352 240.785 218.937 237.862 217.086C234.923 215.226 232.21 211.887 229.846 206.827L229.393 207.038L229.846 206.827C227.062 200.868 223.561 194.679 219.512 189.972C215.476 185.279 210.816 181.968 205.709 181.968C200.604 181.968 195.944 185.26 191.906 189.944C187.857 194.643 184.356 200.832 181.572 206.828C179.208 211.887 176.495 215.226 173.556 217.086C170.633 218.937 167.446 219.352 164.052 218.489C160.642 217.621 157.011 215.457 153.256 212.122C149.504 208.791 145.653 204.313 141.801 198.855C126.825 177.601 110.059 142.199 107.179 92.4218C106.35 77.8604 108.58 65.9958 113.247 56.3863C117.912 46.7795 125.027 39.3974 134.014 33.8197C152.007 22.6522 177.499 18.7229 205.783 18.7229C234.03 18.7229 259.523 22.6522 277.507 33.8197C286.489 39.3973 293.596 46.7792 298.246 56.3858C302.898 65.995 305.105 77.8594 304.24 92.4208Z" stroke="black" stroke-opacity="0.2"/>
<path d="M303 101.5L281.822 110.249C283.192 114.477 295.868 126.975 301 115C304 108 302.922 107.131 303 101.5Z" fill="#FF9061"/>
<ellipse cx="271.014" cy="76.4654" rx="8.89981" ry="15.3994" transform="rotate(-0.427322 271.014 76.4654)" fill="#7C7B8A"/>
<ellipse cx="272.75" cy="70.2912" rx="2.9666" ry="3.84985" transform="rotate(-0.427322 272.75 70.2912)" fill="white"/>
<path d="M108.224 109.67C126.029 120.652 206.174 145.714 206.173 154.724C182.573 154.724 136.108 140.27 111.765 129.798C107.052 127.691 107.053 123.186 108.224 109.67Z" fill="#E43434"/>
<path d="M121.277 138.528C118.053 130.612 122.236 118.413 124.73 113.303L110.051 102.535C106.718 110.498 101.015 129.215 104.872 140.372C108.729 151.529 117.896 153.397 121.997 152.936C137.136 144.611 150.754 142.804 155.671 142.941C170.062 147.946 175.386 136.585 176.249 130.279L149.266 120.894C143.971 128.112 147.012 130.806 149.195 131.25C138.718 129.117 126.218 135.213 121.277 138.528Z" fill="white" stroke="black" stroke-opacity="0.2"/>
</svg>
