<svg width="684" height="373" viewBox="0 0 684 373" fill="none" xmlns="http://www.w3.org/2000/svg">
<path d="M227.515 301.72C188.198 237.241 208.587 153.105 273.009 113.789C337.487 74.4726 421.624 94.8608 460.94 159.283C500.256 223.761 479.868 307.898 415.445 347.214C350.967 386.586 266.831 366.198 227.515 301.72Z" fill="white"/>
<path d="M373.365 109.184C371.86 106.717 371.498 103.691 372.358 100.773C373.218 97.8544 375.23 95.2821 377.952 93.6219C380.673 91.9618 383.881 91.3496 386.869 91.9201C389.858 92.4907 392.382 94.1972 393.888 96.6642C395.393 99.1313 395.755 102.157 394.895 105.075C394.035 107.994 392.023 110.566 389.301 112.226C386.58 113.886 383.372 114.498 380.383 113.928C377.395 113.357 374.87 111.651 373.365 109.184Z" fill="white"/>
<path d="M299.576 102.05C298.228 97.3322 303.002 91.8279 310.135 89.8621C317.268 87.8401 324.176 90.0868 325.524 94.8047C326.872 99.5226 322.098 105.027 314.965 106.993C307.776 108.959 300.924 106.768 299.576 102.05Z" fill="white"/>
<path d="M238.579 128.279C234.929 122.27 243.073 110.587 256.833 102.162C270.594 93.7936 284.748 91.8278 288.399 97.8376C295.981 110.306 289.353 124.516 275.593 132.885C261.832 141.366 247.847 143.5 238.579 128.279Z" fill="white"/>
<path d="M371.692 367.153C368.435 359.009 375.006 342.665 391.35 336.093C416.063 326.152 424.376 343.282 425.275 345.473C428.532 353.617 419.546 358.953 403.201 365.524C386.857 372.095 374.95 375.297 371.692 367.153Z" fill="white"/>
<path d="M201.903 256.001C199.825 248.98 201.454 242.24 205.554 241.061C209.654 239.825 214.709 244.599 216.787 251.62C218.865 258.64 217.236 265.38 213.136 266.56C209.036 267.795 204.037 263.021 201.903 256.001Z" fill="white"/>
<path d="M349.395 318.569C349.675 326.432 335.971 333.229 318.84 333.734C301.71 334.296 287.612 328.398 287.388 320.591C287.331 318.457 288.286 316.379 290.084 314.525C294.858 309.527 305.473 305.876 317.886 305.483C335.016 304.921 349.114 310.762 349.395 318.569Z" fill="#DDDDDD"/>
<path d="M349.395 318.569C344.621 323.568 334.005 327.219 321.593 327.612C304.462 328.174 290.42 322.332 290.14 314.525C294.914 309.527 305.529 305.876 317.942 305.483C335.016 304.921 349.114 310.762 349.395 318.569Z" fill="#A3A3A3"/>
<path d="M353.045 217.752C343.89 222.807 333.612 222.694 327.49 217.976C325.973 216.797 324.682 215.337 323.727 213.652C318.953 205.058 324.345 192.926 335.802 186.58C346.474 180.626 358.662 181.862 364.11 189.107C364.503 189.613 364.84 190.118 365.121 190.68C369.895 199.329 364.503 211.405 353.045 217.752Z" fill="#DDDDDD"/>
<path d="M353.045 217.752C343.89 222.807 333.612 222.694 327.49 217.977C327.097 217.471 326.76 216.966 326.479 216.404C321.705 207.811 327.097 195.679 338.555 189.332C347.71 184.277 357.988 184.389 364.11 189.107C364.503 189.613 364.84 190.118 365.121 190.68C369.895 199.329 364.503 211.405 353.045 217.752Z" fill="#DDDDDD"/>
<path d="M287.781 142.433C286.994 139.232 290.701 135.525 296.093 134.177C301.485 132.829 306.484 134.345 307.326 137.547C308.113 140.748 304.406 144.455 299.014 145.803C293.622 147.151 288.567 145.635 287.781 142.433Z" fill="#DDDDDD"/>
<path d="M297.048 198.655C291.993 197.476 289.41 189.613 291.375 181.075C293.341 172.538 299.014 166.528 304.125 167.708C309.18 168.887 311.764 176.751 309.798 185.288C307.832 193.825 302.103 199.835 297.048 198.655Z" fill="#EAEAEA"/>
<path d="M450.942 193.263C449.538 195.117 447.572 196.409 445.157 197.195C435.946 200.34 420.557 195.791 406.628 185.063C391.238 173.156 382.701 157.654 385.621 147.938C386.015 146.59 386.633 145.354 387.475 144.287C394.44 135.3 414.266 138.951 431.79 152.487C449.314 165.967 457.907 184.221 450.942 193.263Z" fill="#BBBBBB"/>
<path d="M445.213 197.195C436.002 200.34 420.613 195.791 406.684 185.063C391.294 173.156 382.757 157.654 385.678 147.938C394.889 144.792 410.278 149.342 424.264 160.069C439.597 171.977 448.078 187.478 445.213 197.195Z" fill="#A3A3A3"/>
<path d="M440.72 213.427C439.148 210.843 439.934 207.473 442.518 205.901C445.101 204.328 448.471 205.114 450.044 207.698C451.617 210.282 450.83 213.652 448.247 215.224C445.663 216.853 442.293 216.011 440.72 213.427Z" fill="#DDDDDD"/>
<path d="M414.098 253.979C415.109 246.733 419.602 241.341 424.151 241.959C428.701 242.577 431.621 248.98 430.61 256.225C429.599 263.471 425.106 268.863 420.557 268.245C416.007 267.627 413.087 261.224 414.098 253.979Z" fill="#DDDDDD"/>
<path d="M360.459 244.206C357.482 239.263 357.595 233.703 360.74 231.849C363.829 229.996 368.772 232.523 371.749 237.466C374.725 242.409 374.557 247.969 371.468 249.822C368.322 251.676 363.436 249.205 360.459 244.206Z" fill="#EAEAEA"/>
<path d="M342.542 239.151C341.363 237.241 341.981 234.714 343.89 233.478C345.8 232.299 348.327 232.916 349.563 234.826C350.743 236.792 350.125 239.263 348.215 240.443C346.249 241.678 343.722 241.061 342.542 239.151Z" fill="#EAEAEA"/>
<path d="M278.85 301.214C276.941 298.069 279.075 293.351 283.568 290.599C288.061 287.847 293.285 288.127 295.194 291.273C297.104 294.418 294.97 299.136 290.477 301.888C285.983 304.64 280.76 304.359 278.85 301.214Z" fill="#EAEAEA"/>
<path d="M259.361 272.345C258.237 272.907 257.114 273.3 255.878 273.412C245.151 274.872 234.255 259.764 231.502 239.656C228.75 219.549 235.266 202.082 245.993 200.621C248.184 200.34 250.43 200.734 252.565 201.745C260.877 205.62 268.235 218.426 270.369 234.433C272.784 252.238 267.954 267.964 259.361 272.345Z" fill="#BBBBBB"/>
<path d="M259.361 272.345C251.048 268.47 243.69 255.664 241.556 239.657C239.141 221.852 243.971 206.069 252.565 201.745C260.877 205.62 268.235 218.426 270.369 234.433C272.784 252.238 267.954 267.964 259.361 272.345Z" fill="#A3A3A3"/>
<path d="M351.023 336.43C350.125 333.285 354.113 329.353 359.898 327.724C365.683 326.039 371.131 327.275 372.086 330.42C372.984 333.566 368.997 337.497 363.211 339.126C357.37 340.755 351.922 339.575 351.023 336.43Z" fill="#DDDDDD"/>
<path d="M367.031 299.979C366.188 296.159 370.569 291.947 376.86 290.543C383.15 289.139 388.879 291.104 389.778 294.924C390.62 298.743 386.239 302.955 379.949 304.36C373.602 305.764 367.873 303.798 367.031 299.979Z" fill="#DDDDDD"/>
<path d="M379.612 368.389C379.219 367.434 387.419 363.277 397.922 359.121C408.425 354.909 417.243 352.269 417.58 353.224C417.973 354.179 409.773 358.335 399.27 362.491C388.767 366.704 380.005 369.343 379.612 368.389Z" fill="#DDDDDD"/>
<path d="M244.14 120.81C243.185 119.237 250.431 113.059 260.316 107.049C270.201 100.983 279.019 97.3885 279.974 98.9611C280.929 100.534 273.683 106.712 263.798 112.722C253.857 118.732 245.095 122.382 244.14 120.81Z" fill="#DDDDDD"/>
<path d="M361.583 145.41C359.785 142.489 361.807 138.052 366.02 135.469C370.232 132.885 375.119 133.166 376.916 136.03C378.713 138.951 376.691 143.388 372.479 145.972C368.266 148.612 363.38 148.331 361.583 145.41Z" fill="#EAEAEA"/>
<path d="M222.123 266.728C219.652 262.684 219.989 257.91 222.909 256.169C225.83 254.372 230.211 256.281 232.682 260.325C235.153 264.369 234.816 269.143 231.896 270.885C228.975 272.626 224.594 270.772 222.123 266.728Z" fill="#DDDDDD"/>
<path d="M397.978 329.185C396.405 326.657 399.101 322.22 403.932 319.243C408.762 316.267 413.929 315.93 415.502 318.513C417.074 321.041 414.378 325.534 409.548 328.455C404.662 331.375 399.494 331.712 397.978 329.185Z" fill="#EAEAEA"/>
<path d="M383.88 324.86C382.869 323.175 383.487 320.872 385.284 319.805C387.082 318.682 389.385 319.187 390.452 320.872C391.463 322.557 390.845 324.86 389.048 325.927C387.194 326.994 384.891 326.545 383.88 324.86Z" fill="#DDDDDD"/>
<path d="M451.897 283.354C449.145 281.893 448.696 277.288 450.886 273.019C453.133 268.75 457.177 266.448 459.929 267.908C462.681 269.368 463.13 273.974 460.94 278.242C458.693 282.455 454.649 284.758 451.897 283.354Z" fill="#EAEAEA"/>
<path d="M336.196 122.438C336.196 123.198 336.046 123.95 335.755 124.652C335.465 125.354 335.038 125.992 334.501 126.529C333.964 127.066 333.326 127.492 332.624 127.783C331.923 128.074 331.17 128.223 330.411 128.223C328.876 128.223 327.405 127.614 326.32 126.529C325.235 125.444 324.625 123.973 324.625 122.438C324.625 121.679 324.775 120.926 325.066 120.225C325.357 119.523 325.783 118.885 326.32 118.348C326.857 117.811 327.495 117.384 328.197 117.094C328.899 116.803 329.651 116.653 330.411 116.653C331.17 116.653 331.923 116.803 332.624 117.094C333.326 117.384 333.964 117.811 334.501 118.348C335.038 118.885 335.465 119.523 335.755 120.225C336.046 120.926 336.196 121.679 336.196 122.438V122.438Z" fill="#DDDDDD"/>
<path d="M323.771 115.899C323.771 116.445 323.449 116.986 322.822 117.49C322.195 117.995 321.276 118.453 320.118 118.839C318.96 119.225 317.585 119.531 316.071 119.74C314.558 119.949 312.936 120.057 311.298 120.057C309.66 120.057 308.038 119.949 306.525 119.74C305.011 119.531 303.636 119.225 302.478 118.839C301.32 118.453 300.401 117.995 299.774 117.49C299.147 116.986 298.824 116.445 298.824 115.899C298.824 114.796 300.139 113.739 302.478 112.959C304.817 112.179 307.99 111.741 311.298 111.741C314.606 111.741 317.779 112.179 320.118 112.959C322.457 113.739 323.771 114.796 323.771 115.899Z" fill="#F7F7F7"/>
<path d="M381.661 116.602C381.661 117.705 380.347 118.763 378.008 119.542C375.668 120.322 372.496 120.76 369.188 120.76C365.879 120.76 362.707 120.322 360.368 119.542C358.028 118.763 356.714 117.705 356.714 116.602C356.714 115.5 358.028 114.442 360.368 113.662C362.707 112.883 365.879 112.445 369.188 112.445C372.496 112.445 375.668 112.883 378.008 113.662C380.347 114.442 381.661 115.5 381.661 116.602Z" fill="#F7F7F7"/>
<path d="M301.51 86.1569C298.873 91.4214 297.296 94.5711 299.873 97.1641C303.019 100.329 309.673 96.0088 316.046 91.8718C321.816 88.1257 327.355 84.5298 329.848 86.777C338.841 91.1329 344.836 91.1329 353.828 86.777C356.322 84.5298 361.861 88.1257 367.631 91.8718C374.003 96.0088 380.657 100.329 383.803 97.1641C386.38 94.5711 384.803 91.4214 382.167 86.1569C378.671 79.175 373.312 68.4744 373.312 50.4224H353.828H310.364C310.364 68.4744 305.006 79.175 301.51 86.1569Z" fill="#E43434"/>
<path d="M367.908 69.0754L384.284 50.2692C384.284 50.2692 390.041 47.1989 390.68 43.2329C390.68 43.2329 390.744 41.6977 387.61 44.7042C387.61 44.7042 390.936 41.9536 390.68 40.7383C390.36 39.5229 388.25 41.25 387.226 42.2734C386.203 43.2969 392.024 37.9237 390.233 36.6444C388.442 35.3651 386.586 39.6508 386.139 40.0986C386.139 40.0986 389.465 36.5165 387.482 36.0047C385.499 35.493 384.731 39.0112 383.452 39.0112C383.452 39.0112 384.54 36.6444 383.388 36.2606C382.173 35.8128 382.045 36.0687 381.149 38.1156C380.702 39.1391 379.614 38.1156 379.038 40.6743L379.102 41.25C379.102 41.25 372.642 44.3843 368.612 43.9366C368.612 43.9366 361.767 50.4611 355.819 52.7C355.819 52.7 341.106 58.5849 320.765 49.4377C320.765 49.4377 309.699 45.7916 307.588 43.6807C307.588 43.6807 308.611 39.4589 307.588 39.4589C306.884 39.4589 306.309 39.7787 306.309 41.8896C306.309 41.8896 306.756 36.5804 304.198 37.412C304.198 37.412 303.43 38.4354 303.302 41.186C303.302 41.186 303.75 35.429 301.575 36.1966C299.4 36.9003 301.063 40.3544 301.063 41.5058C301.063 41.5058 299.72 36.5804 298.505 37.7958C297.289 39.0112 298.057 42.2095 298.441 42.5933C298.825 42.9771 298.441 45.1519 297.737 45.8556C297.034 46.5592 294.347 46.1114 294.347 47.5187C294.347 47.5187 294.603 49.8854 298.121 49.4377C298.121 49.4377 299.592 49.0539 304.262 54.8748C308.995 60.6318 316.032 63.1905 316.735 67.6041C317.439 72.0178 316.671 86.5382 316.671 86.5382C316.671 86.5382 313.537 102.594 308.931 106.624C298.249 115.899 315.072 119.097 319.806 114.3C324.603 109.502 329.209 102.658 332.919 100.355C336.629 98.1161 343.857 98.7558 347.631 99.7153C351.405 100.739 356.778 107.199 359.465 112.892C362.151 118.585 371.235 119.481 373.857 115.451C376.48 111.357 370.211 107.647 369.252 105.408C368.228 103.169 367.141 87.6896 367.141 84.1714C367.205 80.6533 366.693 70.3547 367.908 69.0754Z" fill="#DFEDF0"/>
<path d="M319.933 107.455C319.933 107.455 324.027 98.2441 327.993 96.9008C331.959 95.4935 343.985 96.0053 348.015 94.9818C351.981 93.9584 359.465 107.391 361.575 109.502H357.674C357.674 109.502 353.324 101.762 347.759 99.7793C342.13 97.7963 333.814 99.3955 331.831 101.251C329.848 103.042 324.923 108.735 324.923 108.735C324.923 108.735 320.381 109.054 319.933 107.455Z" fill="#CCDAE1"/>
<path d="M378.527 56.922L375.968 51.8047C375.968 51.8047 363.686 59.7365 362.407 63.6385C361.128 67.5404 360.232 81.3572 360.616 87.8817C361 94.4063 364.774 108.607 367.396 108.607C370.019 108.607 367.652 108.607 367.652 108.607L369.955 106.304C369.955 106.304 367.972 104.577 367.844 93.4468C367.716 82.3806 366.245 71.4424 367.716 69.5873C369.124 67.7323 378.527 56.922 378.527 56.922Z" fill="#CCDAE1"/>
<path d="M307.332 51.3567C307.332 51.3567 321.469 55.4506 321.469 63.7662C321.469 72.0818 322.94 92.1673 319.55 99.2036C316.223 106.24 315.008 107.455 315.008 107.455L311.874 102.082C311.874 102.082 316.863 91.9114 316.863 81.9966C316.863 72.0179 318.142 67.3483 313.345 62.9346L306.181 57.0497C306.245 56.9857 304.645 53.2757 307.332 51.3567Z" fill="#CCDAE1"/>
<path d="M374.881 27.1134C374.881 47.2629 360.36 55.3226 342.45 55.3226C324.539 55.3226 308.995 47.2629 310.019 27.1134C311.106 6.0685 323.324 0.311523 341.17 0.311523C359.145 0.311523 374.881 11.5056 374.881 27.1134Z" fill="#CCDAE1"/>
<path d="M372.258 26.4098C372.258 46.0475 358.313 53.9154 341.17 53.9154C323.963 53.9154 309.059 46.0475 310.083 26.4098C311.106 5.94056 322.812 0.311523 340.019 0.311523C357.226 0.311523 372.258 11.2498 372.258 26.4098Z" fill="#DFEDF0"/>
<path d="M367.141 25.8982C367.141 41.1222 354.347 47.263 338.548 47.263C322.748 47.263 309.059 41.1862 309.955 25.8982C310.914 10.0345 321.661 5.62085 337.46 5.62085C353.26 5.62085 367.141 14.0644 367.141 25.8982Z" fill="#466D91"/>
<path d="M362.855 25.3864C362.855 39.0752 351.021 44.5124 336.437 44.5124C321.852 44.5124 309.187 39.0113 310.019 25.3864C310.914 11.1219 320.829 7.21997 335.413 7.21997C349.998 7.21997 362.855 14.768 362.855 25.3864Z" fill="#5F96C9"/>
<path d="M316.479 87.4338C316.479 87.4338 330.04 90.5042 341.874 90.5042C354.347 90.5042 366.565 86.2185 367.205 85.5148C367.844 84.8752 368.42 83.276 367.588 82.3805C366.693 81.4849 355.243 86.7302 342.066 86.7302C328.889 86.7302 317.886 83.7238 316.799 83.7238C315.648 83.7238 316.287 87.2419 316.479 87.4338Z" fill="#5F96C9"/>
<path d="M312.449 100.931C312.449 100.931 313.601 103.873 317.119 106.112C320.637 108.351 325.051 107.967 325.435 107.967C325.818 107.967 320.189 114.811 319.166 115.387C318.142 115.963 313.153 119.161 307.268 115.707C307.268 115.707 301.639 112.828 305.925 108.926C307.844 107.199 309.443 107.135 312.449 100.931Z" fill="#5F96C9"/>
<path d="M356.778 108.351C356.778 108.351 360.872 110.654 365.222 108.735C369.571 106.816 369.316 105.472 369.316 105.472C369.316 105.472 371.171 107.711 372.194 108.863C373.217 110.014 376.544 112.893 373.921 115.515C371.298 118.138 368.1 120.057 361.895 115.899C361.959 115.835 358.313 112.765 356.778 108.351Z" fill="#5F96C9"/>
<path d="M313.345 62.8707C313.345 62.8707 310.658 53.4677 317.247 48.1584C317.247 48.1584 317.055 47.4548 315.392 47.4548C315.392 47.4548 309.187 53.4037 311.618 61.4635C311.682 61.4635 312.513 62.8707 313.345 62.8707Z" fill="#5F96C9"/>
<path d="M310.146 60.3121C310.146 60.3121 308.931 52.828 314.56 47.135C314.56 47.135 314.304 46.4314 313.217 46.4314C313.217 46.4314 308.035 51.2928 308.611 59.0967C308.611 59.0967 309.379 60.3121 310.146 60.3121Z" fill="#5F96C9"/>
<path d="M373.985 62.1669C373.985 62.1669 366.309 54.9387 367.781 46.751C367.781 46.751 366.373 48.0943 365.99 48.4141C365.606 48.7339 366.565 59.1605 371.938 64.5336C371.938 64.4697 373.985 63.3822 373.985 62.1669Z" fill="#5F96C9"/>
<path d="M374.944 61.0156C374.944 61.0156 368.484 55.6424 369.443 44.7681L370.147 43.8726L371.49 43.6807C371.49 43.6807 369.699 52.3801 376.48 59.2245C376.48 59.2885 376.224 60.6957 374.944 61.0156Z" fill="#5F96C9"/>
<path d="M321.338 52.1626C321.338 52.1626 324.257 62.3518 334.181 62.3518C344.105 62.3518 357.467 66.4077 362.332 53.3991C362.332 53.3991 362.592 51.7174 359.738 52.954C353.186 55.7239 332.754 56.5152 324.192 52.2615C324.128 52.212 321.338 50.7776 321.338 52.1626Z" fill="#CCDAE1"/>
<path d="M303.494 54.3632C303.494 54.3632 303.174 51.6767 306.82 48.4144C310.466 45.1521 310.658 45.5359 310.658 45.5359C310.658 45.5359 307.588 43.7448 307.716 43.2331C307.844 42.7853 309.123 39.651 307.396 39.2672C307.396 39.2672 306.628 39.2672 306.373 40.2906C306.373 40.2906 306.948 37.0923 304.965 37.0923C302.982 37.0923 303.43 39.587 303.43 39.9708C303.43 40.3546 304.198 34.9814 301.447 36.0049C301.447 36.0049 299.4 36.7085 300.871 40.4186C300.871 40.4186 300.296 36.4527 298.057 37.796C295.818 39.1392 298.633 41.9538 298.633 43.6808C298.633 45.4079 296.842 46.3674 295.882 46.3674C294.987 46.3674 293.963 46.4314 293.963 47.8387C293.963 49.3099 296.458 50.0775 298.313 49.6937C300.04 49.3099 301.703 54.3632 303.494 54.3632Z" fill="#5F96C9"/>
<path d="M376.48 42.2734C376.48 42.2734 375.456 44.1284 378.015 48.8619C380.574 53.5954 381.917 52.6999 382.173 52.6999C382.429 52.6999 383.068 51.3566 384.348 50.7809C385.627 50.2052 391 45.7915 391 43.8725C391 41.9536 390.233 42.2734 388.569 43.9365C388.569 43.9365 391.64 41.2499 390.68 40.2904C389.721 39.3309 388.186 41.5698 387.482 42.2094C387.482 42.2094 392.215 38.0516 390.169 36.5164C388.186 34.9812 387.802 38.6273 386.267 39.9066C386.267 39.9066 389.785 36.4524 387.61 35.6848C387.61 35.6848 386.522 35.0452 385.051 37.1561C385.051 37.1561 384.156 38.7552 383.516 38.8832C383.516 38.8832 384.859 36.3885 383.196 35.8767C381.533 35.365 381.405 37.348 380.957 38.1156C380.574 38.8192 379.998 37.7318 378.91 40.0985C377.951 42.4653 377.311 41.4418 376.48 42.2734Z" fill="#5F96C9"/>
<path d="M382.685 41.4419C382.685 41.4419 380.638 43.9366 381.981 45.8556C383.26 47.7745 385.627 48.9899 386.842 47.3907C388.058 45.7916 384.348 45.6636 384.092 43.169C383.772 40.6103 383.196 40.8662 382.685 41.4419Z" fill="#466D91"/>
<path d="M356.644 78.7566C356.644 81.3104 354.503 83.4502 351.792 83.4502H331.885C329.245 83.4502 327.033 81.3795 327.033 78.7566V69.9216C327.033 67.3677 329.173 65.228 331.885 65.228H351.792C354.432 65.228 356.644 67.2987 356.644 69.9216V78.7566Z" fill="#0458A4"/>
<path d="M313.343 41.3619C318.368 45.9901 342.706 59.6333 342.07 62.2912C334.382 60.4509 320.266 52.5635 313.075 47.576C311.688 46.5869 312.007 45.2576 313.343 41.3619Z" fill="#E43434"/>
<path d="M372.65 39.7723C367.363 44.8899 341.903 59.0778 342.516 62.3491C350.515 60.8503 365.281 52.6519 372.819 47.3044C374.273 46.2402 373.967 44.6047 372.65 39.7723Z" fill="#E43434"/>
<g opacity="0.23">
<path d="M336.715 7.14478C321.909 7.14478 310.519 11.7003 310.519 27.0753C311.372 41.8174 322.479 41.8807 324.187 43.0196C326.465 43.589 324.136 42.9873 328.743 44.1585C332.158 45.2974 337.244 44.7279 340.132 44.7279C343.019 44.7279 345.826 43.589 348.673 43.0196C354.368 40.7418 351.52 41.8807 356.076 39.6029C358.354 37.8946 362.909 33.3391 362.909 27.6446C362.909 12.2697 353.428 7.14478 336.715 7.14478Z" fill="white"/>
<path d="M339.909 31.415L329.368 31.4263C329.227 33.0054 329.84 36.2434 333.425 36.5644C337.01 36.8853 339.241 33.2651 339.909 31.415Z" fill="#FF9061"/>
<path d="M341.678 26.6836C343.876 26.8759 345.865 24.6561 346.122 21.7255C346.378 18.795 344.804 16.2634 342.606 16.0711C340.408 15.8788 338.419 18.0986 338.162 21.0292C337.906 23.9598 339.48 26.4913 341.678 26.6836Z" fill="#7C7B8A"/>
<path d="M325.504 26.7C327.599 26.8832 329.495 24.768 329.739 21.9756C329.983 19.1831 328.483 16.7709 326.389 16.5876C324.295 16.4044 322.399 18.5196 322.155 21.312C321.91 24.1045 323.41 26.5168 325.504 26.7Z" fill="#7C7B8A"/>
<path d="M343.009 20.6505C343.741 20.7146 344.387 20.1727 344.451 19.44C344.515 18.7074 343.973 18.0615 343.241 17.9974C342.508 17.9333 341.862 18.4753 341.798 19.2079C341.734 19.9406 342.276 20.5864 343.009 20.6505Z" fill="white"/>
<path d="M326.772 20.9512C327.47 21.0123 328.086 20.4958 328.147 19.7977C328.208 19.0996 327.692 18.4842 326.994 18.4231C326.295 18.362 325.68 18.8784 325.619 19.5765C325.558 20.2747 326.074 20.8901 326.772 20.9512Z" fill="white"/>
</g>
<path d="M333.16 81.09C333.136 81.066 333.112 81.054 333.088 81.054C333.052 81.054 333.022 81.06 332.998 81.072C332.974 81.084 332.95 81.09 332.926 81.09C332.614 81.09 332.338 80.982 332.098 80.766C331.87 80.538 331.702 80.28 331.594 79.992C331.774 79.992 331.9 79.92 331.972 79.776C332.056 79.62 332.134 79.41 332.206 79.146C332.254 78.894 332.308 78.768 332.368 78.768L333.916 79.668C333.94 79.668 333.976 79.662 334.024 79.65C334.084 79.638 334.156 79.632 334.24 79.632C334.384 79.632 334.462 79.668 334.474 79.74L334.906 79.722C335.122 79.722 335.278 79.746 335.374 79.794C335.47 79.842 335.542 79.866 335.59 79.866C336.31 79.866 337.006 79.74 337.678 79.488C338.362 79.224 338.704 78.78 338.704 78.156C338.704 77.892 338.626 77.598 338.47 77.274C338.314 76.95 338.128 76.746 337.912 76.662L333.034 74.538C332.578 74.346 332.242 74.04 332.026 73.62C331.81 73.188 331.702 72.696 331.702 72.144C331.702 71.892 331.75 71.658 331.846 71.442C331.954 71.214 332.068 71.01 332.188 70.83C332.32 70.638 332.41 70.506 332.458 70.434C332.83 69.942 333.352 69.594 334.024 69.39C334.708 69.186 335.44 69.084 336.22 69.084C336.316 69.084 336.46 69.108 336.652 69.156C336.856 69.192 337.132 69.21 337.48 69.21C337.78 69.258 338.128 69.324 338.524 69.408C338.932 69.48 339.142 69.522 339.154 69.534L339.478 69.876V71.208C339.478 71.268 339.424 71.382 339.316 71.55C339.208 71.706 339.13 71.784 339.082 71.784C338.95 71.724 338.638 71.574 338.146 71.334C337.594 71.058 337.144 70.854 336.796 70.722C336.46 70.578 336.112 70.506 335.752 70.506C335.092 70.506 334.492 70.65 333.952 70.938C333.424 71.214 333.16 71.658 333.16 72.27C333.16 72.45 333.25 72.66 333.43 72.9C333.622 73.128 333.844 73.332 334.096 73.512C334.348 73.68 334.546 73.764 334.69 73.764L334.924 73.746C335.236 73.842 335.578 74.016 335.95 74.268C336.238 74.472 336.502 74.622 336.742 74.718C336.994 74.814 337.312 74.862 337.696 74.862C338.104 74.946 338.512 75.12 338.92 75.384C339.34 75.648 339.688 75.972 339.964 76.356C340.24 76.728 340.378 77.118 340.378 77.526C340.378 77.706 340.354 77.88 340.306 78.048C340.258 78.204 340.228 78.3 340.216 78.336C340.144 78.492 340.09 78.672 340.054 78.876C339.898 79.452 339.778 79.836 339.694 80.028C339.622 80.208 339.484 80.358 339.28 80.478C339.076 80.598 338.734 80.694 338.254 80.766C338.242 80.778 338.224 80.796 338.2 80.82C338.176 80.844 338.158 80.862 338.146 80.874C337.738 81.03 337.36 81.144 337.012 81.216C336.664 81.3 336.304 81.342 335.932 81.342C335.5 81.342 335.008 81.312 334.456 81.252C333.904 81.204 333.472 81.15 333.16 81.09ZM338.578 70.65C338.578 70.746 338.602 70.818 338.65 70.866C338.698 70.914 338.788 70.956 338.92 70.992L339.154 70.11C339.154 70.014 338.74 69.894 337.912 69.75C337.096 69.606 336.508 69.534 336.148 69.534C336.124 69.546 336.094 69.576 336.058 69.624C336.034 69.66 336.022 69.69 336.022 69.714C336.022 69.834 336.112 69.894 336.292 69.894H336.382C336.574 69.894 336.676 69.846 336.688 69.75C336.712 69.858 336.766 69.948 336.85 70.02C336.934 70.092 337.024 70.128 337.12 70.128C337.204 70.128 337.258 70.122 337.282 70.11C337.318 70.086 337.342 70.044 337.354 69.984L337.696 70.308L338.038 69.984V70.344C338.074 70.332 338.14 70.308 338.236 70.272C338.344 70.224 338.458 70.17 338.578 70.11L338.704 70.128C338.704 70.188 338.68 70.278 338.632 70.398C338.596 70.518 338.578 70.602 338.578 70.65ZM335.248 69.75C335.272 69.774 335.308 69.798 335.356 69.822C335.404 69.846 335.44 69.864 335.464 69.876C335.536 69.876 335.62 69.858 335.716 69.822C335.812 69.774 335.86 69.72 335.86 69.66C335.8 69.66 335.71 69.672 335.59 69.696C335.47 69.708 335.356 69.726 335.248 69.75ZM334.402 69.858C334.246 69.858 334.054 69.906 333.826 70.002C333.598 70.086 333.484 70.182 333.484 70.29C333.484 70.314 333.532 70.326 333.628 70.326C333.748 70.326 333.904 70.278 334.096 70.182C334.3 70.074 334.402 69.966 334.402 69.858ZM338.416 70.308C338.38 70.32 338.338 70.35 338.29 70.398C338.254 70.434 338.236 70.47 338.236 70.506L338.254 70.542L338.47 70.308H338.416ZM333.25 70.542C333.106 70.59 332.974 70.686 332.854 70.83C332.746 70.962 332.692 71.1 332.692 71.244C332.86 71.244 332.992 71.178 333.088 71.046C333.196 70.914 333.25 70.746 333.25 70.542ZM332.8 71.388C332.536 71.388 332.392 71.442 332.368 71.55H332.8V71.388ZM332.242 71.766C332.242 71.85 332.26 71.934 332.296 72.018C332.344 72.09 332.398 72.126 332.458 72.126C332.542 72.126 332.608 72.09 332.656 72.018C332.704 71.934 332.728 71.85 332.728 71.766H332.242ZM332.224 72.414C332.224 72.654 332.29 72.774 332.422 72.774C332.554 72.774 332.62 72.654 332.62 72.414H332.224ZM332.458 72.99C332.53 72.99 332.59 72.978 332.638 72.954C332.698 72.918 332.728 72.87 332.728 72.81L332.71 72.774L332.368 72.972L332.458 72.99ZM332.458 73.314H332.71V73.206H332.458V73.314ZM332.98 73.296C332.956 73.296 332.92 73.326 332.872 73.386C332.836 73.434 332.812 73.488 332.8 73.548L332.926 73.566C333.046 73.566 333.124 73.524 333.16 73.44C333.136 73.392 333.106 73.356 333.07 73.332C333.034 73.308 333.004 73.296 332.98 73.296ZM332.998 73.836C332.998 73.86 333.034 73.89 333.106 73.926C333.178 73.95 333.226 73.974 333.25 73.998C333.43 73.998 333.52 73.878 333.52 73.638C333.412 73.638 333.298 73.656 333.178 73.692C333.07 73.728 333.016 73.77 333.016 73.818L332.998 73.836ZM333.754 73.854C333.694 73.854 333.652 73.884 333.628 73.944C333.616 74.004 333.604 74.046 333.592 74.07H334.078C334.078 74.01 334.042 73.962 333.97 73.926C333.898 73.878 333.826 73.854 333.754 73.854ZM334.132 74.322C334.168 74.358 334.24 74.406 334.348 74.466C334.468 74.514 334.552 74.538 334.6 74.538C334.624 74.538 334.666 74.514 334.726 74.466C334.786 74.406 334.816 74.358 334.816 74.322L334.69 74.214L334.132 74.322ZM334.906 74.412C334.906 74.556 334.954 74.64 335.05 74.664C335.158 74.688 335.314 74.7 335.518 74.7C335.518 74.508 335.314 74.412 334.906 74.412ZM336.022 74.988C336.178 75.144 336.334 75.222 336.49 75.222L336.598 75.204C336.286 75.06 336.094 74.988 336.022 74.988ZM337.264 75.546L337.354 75.42H337.12L337.264 75.546ZM337.48 75.654C337.576 75.774 337.696 75.888 337.84 75.996C337.984 76.092 338.122 76.14 338.254 76.14V75.978H338.146C338.17 75.954 338.194 75.924 338.218 75.888C338.242 75.852 338.254 75.822 338.254 75.798C338.254 75.618 338.122 75.528 337.858 75.528H337.768C337.588 75.528 337.492 75.57 337.48 75.654ZM338.758 76.086C338.542 76.086 338.434 76.158 338.434 76.302H339.208C339.208 76.158 339.058 76.086 338.758 76.086ZM339.352 77.094C339.184 77.118 339.1 77.214 339.1 77.382C339.208 77.382 339.316 77.352 339.424 77.292C339.532 77.22 339.622 77.142 339.694 77.058C339.766 76.974 339.802 76.92 339.802 76.896C339.802 76.776 339.754 76.686 339.658 76.626C339.562 76.566 339.46 76.536 339.352 76.536C339.28 76.548 339.172 76.578 339.028 76.626C338.884 76.674 338.812 76.716 338.812 76.752V76.878L339.352 77.094ZM339.244 77.706C339.244 77.826 339.328 77.886 339.496 77.886C339.724 77.886 339.856 77.838 339.892 77.742C339.94 77.634 339.964 77.442 339.964 77.166C339.844 77.166 339.694 77.232 339.514 77.364C339.334 77.484 339.244 77.598 339.244 77.706ZM339.352 78.768C339.184 78.792 339.1 78.882 339.1 79.038C339.316 79.038 339.472 78.954 339.568 78.786C339.676 78.618 339.73 78.414 339.73 78.174C339.646 78.174 339.544 78.21 339.424 78.282C339.304 78.342 339.244 78.408 339.244 78.48C339.244 78.552 339.28 78.648 339.352 78.768ZM336.022 80.316C336.022 80.448 336.082 80.562 336.202 80.658C336.322 80.742 336.448 80.784 336.58 80.784H336.634C336.802 80.784 336.898 80.736 336.922 80.64C337.594 80.544 338.152 80.412 338.596 80.244C339.052 80.076 339.304 79.764 339.352 79.308C339.268 79.236 339.154 79.2 339.01 79.2C338.962 79.2 338.89 79.302 338.794 79.506C338.71 79.698 338.62 79.848 338.524 79.956C338.44 80.064 338.332 80.118 338.2 80.118C338.176 80.118 338.134 80.1 338.074 80.064C338.014 80.016 337.96 79.992 337.912 79.992C337.744 79.992 337.504 80.016 337.192 80.064C337.108 80.076 337.018 80.088 336.922 80.1C336.826 80.112 336.73 80.118 336.634 80.118C336.418 80.118 336.292 80.112 336.256 80.1C336.22 80.124 336.172 80.16 336.112 80.208C336.064 80.244 336.034 80.28 336.022 80.316ZM332.566 80.244C332.566 80.364 332.596 80.448 332.656 80.496C332.716 80.532 332.806 80.55 332.926 80.55C333.01 80.55 333.088 80.52 333.16 80.46C333.232 80.388 333.268 80.28 333.268 80.136L333.25 80.1L332.8 80.316L332.71 80.28V80.208C332.734 80.196 332.818 80.16 332.962 80.1C333.118 80.028 333.214 79.95 333.25 79.866C333.238 79.842 333.196 79.818 333.124 79.794C333.064 79.758 333.004 79.74 332.944 79.74C332.824 79.74 332.728 79.8 332.656 79.92C332.596 80.04 332.566 80.148 332.566 80.244ZM333.826 79.992C333.658 79.992 333.532 80.046 333.448 80.154C333.376 80.25 333.34 80.376 333.34 80.532H333.592L333.484 80.442C333.568 80.382 333.646 80.304 333.718 80.208C333.79 80.112 333.826 80.04 333.826 79.992ZM333.826 80.532C333.862 80.544 333.916 80.568 333.988 80.604C334.072 80.64 334.168 80.658 334.276 80.658C334.408 80.658 334.516 80.598 334.6 80.478C334.684 80.358 334.726 80.226 334.726 80.082C334.126 80.082 333.826 80.232 333.826 80.532ZM335.464 80.208C335.212 80.208 335.05 80.25 334.978 80.334C334.906 80.406 334.87 80.55 334.87 80.766H335.806C335.818 80.754 335.836 80.736 335.86 80.712C335.884 80.688 335.902 80.664 335.914 80.64C335.914 80.472 335.878 80.358 335.806 80.298C335.734 80.238 335.62 80.208 335.464 80.208ZM336.652 80.424C336.676 80.424 336.724 80.46 336.796 80.532H336.598V80.442L336.652 80.424ZM351.44 71.262C351.668 71.418 351.884 71.718 352.088 72.162C352.304 72.606 352.478 73.092 352.61 73.62C352.742 74.136 352.808 74.556 352.808 74.88C352.808 75.552 352.724 76.176 352.556 76.752C352.4 77.328 352.142 77.91 351.782 78.498C351.746 78.546 351.71 78.618 351.674 78.714C351.638 78.81 351.596 78.894 351.548 78.966C351.5 79.026 351.434 79.056 351.35 79.056L351.44 79.164L351.224 79.29L351.35 79.362C351.158 79.638 350.81 79.878 350.306 80.082C349.802 80.274 349.34 80.412 348.92 80.496C348.488 80.544 347.12 80.658 344.816 80.838L343.25 80.946C343.118 80.958 342.98 81 342.836 81.072C342.716 81.144 342.602 81.18 342.494 81.18C342.398 81.18 342.326 81.168 342.278 81.144C342.242 81.12 342.224 81.054 342.224 80.946L342.206 79.092C342.206 78.588 342.23 77.844 342.278 76.86C342.326 75.828 342.35 75.06 342.35 74.556C342.35 74.4 342.326 74.178 342.278 73.89C342.23 73.602 342.206 73.386 342.206 73.242C342.206 73.002 342.224 72.744 342.26 72.468C342.296 72.192 342.32 72.012 342.332 71.928C342.416 71.448 342.458 71.028 342.458 70.668C342.458 70.5 342.44 70.338 342.404 70.182C342.368 69.894 342.35 69.738 342.35 69.714C342.35 69.39 343.832 69.228 346.796 69.228H347.786C348.182 69.276 348.644 69.414 349.172 69.642C349.7 69.87 350.18 70.14 350.612 70.452C351.044 70.752 351.32 71.022 351.44 71.262ZM345.788 69.822C345.824 69.894 345.926 69.954 346.094 70.002C346.262 70.038 346.382 70.056 346.454 70.056C346.538 70.056 346.796 69.948 347.228 69.732H347.12L345.788 69.822ZM347.894 69.93C347.762 69.93 347.654 69.972 347.57 70.056V69.804C347.534 69.804 347.456 69.834 347.336 69.894C347.228 69.942 347.156 69.996 347.12 70.056C347.168 70.116 347.252 70.164 347.372 70.2C347.504 70.236 347.63 70.254 347.75 70.254C347.798 70.242 347.864 70.218 347.948 70.182C348.032 70.146 348.092 70.104 348.128 70.056C348.104 69.996 348.074 69.96 348.038 69.948C348.002 69.936 347.954 69.93 347.894 69.93ZM344.168 69.93C344.108 69.93 343.946 69.93 343.682 69.93C343.418 69.918 343.214 69.972 343.07 70.092C342.938 70.212 342.872 70.398 342.872 70.65C343.064 70.65 343.4 70.56 343.88 70.38C344.36 70.188 344.666 70.038 344.798 69.93H344.168ZM349.352 70.488C349.352 70.38 349.232 70.302 348.992 70.254C348.752 70.194 348.572 70.164 348.452 70.164C348.392 70.188 348.308 70.224 348.2 70.272C348.092 70.32 348.026 70.362 348.002 70.398C348.218 70.53 348.488 70.596 348.812 70.596C348.812 70.836 348.974 70.956 349.298 70.956C349.454 70.956 349.538 70.914 349.55 70.83V71.172H350.126L349.892 71.388C349.952 71.376 350.114 71.496 350.378 71.748C350.642 72 350.774 72.156 350.774 72.216H351.008C350.984 72.264 350.948 72.318 350.9 72.378C350.852 72.426 350.816 72.462 350.792 72.486C350.852 72.558 350.906 72.642 350.954 72.738C351.002 72.834 351.032 72.9 351.044 72.936C351.164 73.2 351.296 73.386 351.44 73.494C351.284 73.494 351.206 73.56 351.206 73.692C351.206 73.8 351.224 73.872 351.26 73.908C351.308 73.944 351.386 73.974 351.494 73.998C351.614 74.01 351.674 74.094 351.674 74.25C351.674 74.262 351.632 74.292 351.548 74.34C351.464 74.376 351.422 74.4 351.422 74.412C351.422 74.424 351.428 74.43 351.44 74.43C351.44 74.634 351.53 74.736 351.71 74.736C351.998 74.736 352.142 74.67 352.142 74.538C352.142 74.514 352.022 74.442 351.782 74.322H352.358V74.16L351.908 73.926C351.932 73.926 351.956 73.908 351.98 73.872C352.004 73.824 352.016 73.788 352.016 73.764C352.016 73.716 351.98 73.686 351.908 73.674C351.848 73.65 351.806 73.632 351.782 73.62C351.878 73.56 351.938 73.506 351.962 73.458C351.998 73.41 352.016 73.344 352.016 73.26C352.016 73.116 351.938 73.044 351.782 73.044C351.65 73.044 351.542 73.08 351.458 73.152C351.518 73.104 351.59 72.996 351.674 72.828C351.674 72.504 351.56 72.198 351.332 71.91C351.116 71.622 350.894 71.37 350.666 71.154C350.438 70.926 350.288 70.776 350.216 70.704H350.126L349.352 70.488ZM350.018 72.288C349.97 72.276 349.898 72.264 349.802 72.252C349.718 72.24 349.646 72.216 349.586 72.18C349.538 72.144 349.514 72.084 349.514 72C349.514 71.928 349.526 71.868 349.55 71.82C349.382 71.724 349.16 71.592 348.884 71.424C348.62 71.244 348.44 71.118 348.344 71.046C347.78 70.854 347.324 70.716 346.976 70.632C346.64 70.536 346.28 70.488 345.896 70.488C345.62 70.488 345.248 70.524 344.78 70.596C344.312 70.668 344.06 70.746 344.024 70.83L343.898 71.046C343.898 71.706 343.892 72.282 343.88 72.774C343.868 73.266 343.856 73.68 343.844 74.016C343.796 75.36 343.772 76.362 343.772 77.022V77.598C343.772 78.678 343.814 79.242 343.898 79.29L344.114 79.362C344.234 79.374 344.402 79.386 344.618 79.398C344.834 79.41 345.02 79.416 345.176 79.416C346.328 79.416 347.312 79.326 348.128 79.146C348.944 78.966 349.61 78.564 350.126 77.94L350.162 77.958C350.282 77.958 350.408 77.76 350.54 77.364C350.672 76.968 350.78 76.524 350.864 76.032C350.96 75.54 351.008 75.192 351.008 74.988C351.008 74.808 350.954 74.502 350.846 74.07C350.738 73.638 350.606 73.248 350.45 72.9C350.294 72.54 350.15 72.336 350.018 72.288ZM342.8 71.604C342.8 71.652 342.812 71.724 342.836 71.82C342.872 71.916 342.89 72 342.89 72.072C342.89 72.216 342.836 72.39 342.728 72.594H343.466C343.466 72.498 343.43 72.366 343.358 72.198C343.274 72.03 343.232 71.886 343.232 71.766C343.232 71.694 343.25 71.598 343.286 71.478C343.322 71.358 343.34 71.256 343.34 71.172V71.046C343.34 70.89 343.31 70.776 343.25 70.704C342.95 70.824 342.8 71.124 342.8 71.604ZM343.322 73.836C343.322 73.74 343.274 73.656 343.178 73.584C343.082 73.512 342.986 73.464 342.89 73.44H343.484C343.472 73.368 343.448 73.248 343.412 73.08C343.388 72.912 343.358 72.828 343.322 72.828H342.746C342.746 73.188 342.776 73.59 342.836 74.034C342.884 74.514 342.908 74.886 342.908 75.15H343.322V73.836ZM351.44 73.17L351.458 73.152L351.44 73.17ZM352.394 74.7C352.142 74.7 351.908 74.832 351.692 75.096C351.488 75.348 351.386 75.6 351.386 75.852C351.722 75.852 351.974 75.75 352.142 75.546C352.31 75.342 352.394 75.06 352.394 74.7ZM349.82 79.668C349.82 79.644 349.79 79.614 349.73 79.578C349.67 79.542 349.61 79.512 349.55 79.488C350.09 79.488 350.504 79.38 350.792 79.164C350.78 79.128 350.69 79.074 350.522 79.002C350.366 78.93 350.216 78.894 350.072 78.894C350 78.894 349.85 78.99 349.622 79.182C349.406 79.374 349.28 79.476 349.244 79.488C348.956 79.608 348.626 79.686 348.254 79.722C347.882 79.758 347.408 79.782 346.832 79.794L346.328 79.812C346.136 79.836 345.86 79.86 345.5 79.884C345.152 79.908 344.876 79.926 344.672 79.938C344.384 79.938 344.084 79.92 343.772 79.884C343.46 79.836 343.286 79.746 343.25 79.614L343.232 79.218C343.232 79.038 343.244 78.888 343.268 78.768C343.304 78.648 343.322 78.558 343.322 78.498C343.322 78.426 343.304 78.342 343.268 78.246C343.232 78.15 343.184 78.084 343.124 78.048C343.184 78.024 343.232 77.91 343.268 77.706C343.304 77.502 343.322 77.358 343.322 77.274C343.322 77.082 343.304 76.896 343.268 76.716C343.244 76.5 343.232 76.344 343.232 76.248C343.232 76.128 343.25 76.026 343.286 75.942C343.322 75.858 343.34 75.786 343.34 75.726C343.34 75.57 343.298 75.462 343.214 75.402C343.13 75.33 342.998 75.294 342.818 75.294C342.818 75.786 342.812 76.176 342.8 76.464C342.788 76.752 342.746 77.022 342.674 77.274L342.8 77.382V78.156C342.776 78.156 342.746 78.174 342.71 78.21C342.686 78.234 342.674 78.252 342.674 78.264C342.686 78.336 342.704 78.42 342.728 78.516C342.764 78.6 342.788 78.666 342.8 78.714C342.788 78.774 342.764 78.852 342.728 78.948C342.704 79.032 342.686 79.104 342.674 79.164C342.686 79.2 342.704 79.254 342.728 79.326C342.752 79.398 342.776 79.452 342.8 79.488C342.8 79.644 342.83 79.902 342.89 80.262C343.238 80.262 343.628 80.268 344.06 80.28C344.504 80.292 344.786 80.328 344.906 80.388C344.918 80.352 344.936 80.31 344.96 80.262C344.984 80.214 345.002 80.178 345.014 80.154C345.062 80.154 345.134 80.172 345.23 80.208C345.326 80.244 345.404 80.262 345.464 80.262C345.728 80.262 346.004 80.238 346.292 80.19C346.592 80.142 346.784 80.112 346.868 80.1C347.408 79.992 347.87 79.938 348.254 79.938H348.92C349.016 79.842 349.148 79.776 349.316 79.74C349.484 79.692 349.652 79.668 349.82 79.668ZM352.124 76.626C352.148 76.482 352.172 76.344 352.196 76.212C352.22 76.068 352.232 75.966 352.232 75.906C351.704 75.906 351.44 75.99 351.44 76.158C351.452 76.182 351.47 76.218 351.494 76.266C351.53 76.302 351.554 76.332 351.566 76.356C351.554 76.392 351.518 76.446 351.458 76.518C351.41 76.578 351.374 76.614 351.35 76.626L351.44 76.716C351.32 76.716 351.242 76.77 351.206 76.878C351.17 76.986 351.146 77.124 351.134 77.292C351.134 77.46 351.128 77.562 351.116 77.598C351.116 77.622 351.074 77.676 350.99 77.76C350.918 77.832 350.882 77.874 350.882 77.886C350.882 77.922 350.888 77.94 350.9 77.94L350.126 78.714C350.198 78.798 350.324 78.84 350.504 78.84C350.768 78.84 351.008 78.756 351.224 78.588C351.452 78.42 351.566 78.204 351.566 77.94C351.566 77.856 351.554 77.796 351.53 77.76C351.506 77.724 351.446 77.706 351.35 77.706C351.542 77.706 351.698 77.646 351.818 77.526C351.938 77.406 351.998 77.25 351.998 77.058C351.998 77.01 351.962 76.968 351.89 76.932C351.83 76.896 351.77 76.872 351.71 76.86C351.65 76.848 351.602 76.836 351.566 76.824C351.614 76.812 351.68 76.776 351.764 76.716C351.86 76.644 351.944 76.608 352.016 76.608C352.064 76.608 352.1 76.614 352.124 76.626ZM350.882 78.228C351.038 78.228 351.116 78.24 351.116 78.264C351.08 78.3 351.008 78.318 350.9 78.318C350.744 78.318 350.666 78.3 350.666 78.264C350.666 78.24 350.738 78.228 350.882 78.228Z" fill="white"/>
<path d="M114.022 322.11C114.022 309.374 113.359 299.955 112.032 293.852C110.971 287.749 108.848 283.637 105.664 281.514C102.48 279.126 97.5713 277.932 90.938 277.932V275.146C90.6727 275.677 90.0093 276.34 88.948 277.136C87.8867 277.667 86.958 277.932 86.162 277.932L84.172 275.146C83.1107 275.146 81.784 275.677 80.192 276.738C78.6 277.799 77.1407 278.33 75.814 278.33C72.0993 278.33 69.844 277.269 69.048 275.146C69.048 276.473 62.8127 277.799 50.342 279.126C38.1367 280.187 29.5133 280.718 24.472 280.718V277.932C24.2067 278.463 23.5433 278.993 22.482 279.524C21.686 280.055 20.89 280.32 20.094 280.32C19.8287 279.789 19.298 279.259 18.502 278.728C17.9713 278.197 17.4407 277.932 16.91 277.932C15.5833 277.932 14.3893 278.33 13.328 279.126C12.2667 279.657 11.2053 280.055 10.144 280.32V277.136C6.96 277.136 4.572 276.738 2.98 275.942C1.388 274.881 0.592 272.625 0.592 269.176C0.592 266.257 5.50067 259.359 15.318 248.48C21.9513 240.785 25.9313 235.744 27.258 233.356C29.1153 231.499 31.3707 228.315 34.024 223.804C35.0853 222.477 36.1467 221.018 37.208 219.426C38.5347 217.569 39.4633 216.507 39.994 216.242C43.7087 206.69 47.4233 198.465 51.138 191.566C55.118 184.402 59.894 176.707 65.466 168.482C72.8953 157.869 79.1307 147.653 84.172 137.836L84.57 135.448L84.172 133.06C88.948 119.263 94.52 106.394 100.888 94.454C107.521 82.514 112.961 76.544 117.206 76.544C119.859 76.544 122.38 76.942 124.768 77.738C127.421 78.534 129.146 79.0647 129.942 79.33C134.718 81.1873 138.831 82.116 142.28 82.116C142.28 83.4426 143.209 85.698 145.066 88.882C146.923 92.066 147.852 95.25 147.852 98.434C147.852 112.497 147.719 125.365 147.454 137.04C147.189 148.449 146.923 158.267 146.658 166.492C145.597 197.801 145.066 221.018 145.066 236.142L147.852 240.52H174.518C175.579 240.52 176.641 244.5 177.702 252.46C178.763 260.155 179.427 265.461 179.692 268.38C179.692 272.625 169.079 274.748 147.852 274.748V346.388H116.012L113.624 344.398L114.022 322.11ZM135.514 133.06V94.056C135.514 91.9333 133.657 90.872 129.942 90.872C124.105 90.872 119.063 92.9947 114.818 97.24C110.573 101.485 108.45 106.792 108.45 113.16C110.307 113.16 112.297 112.762 114.42 111.966C116.543 111.17 118.002 110.639 118.798 110.374C123.574 108.782 127.023 107.986 129.146 107.986L133.126 108.384C131.534 109.976 124.105 113.293 110.838 118.334L123.176 120.722L126.758 120.324C126.758 122.712 125.829 124.437 123.972 125.498C122.38 126.294 119.992 126.957 116.808 127.488C116.277 127.488 115.083 127.753 113.226 128.284C111.634 128.815 110.175 129.478 108.848 130.274C107.787 131.07 106.991 131.999 106.46 133.06L130.738 135.448L135.514 133.06ZM104.868 125.1C100.357 125.1 98.102 127.09 98.102 131.07C99.694 131.07 101.551 130.274 103.674 128.682C105.797 127.09 107.389 126.029 108.45 125.498L104.868 125.1ZM76.212 172.064C74.0893 172.064 72.63 172.595 71.834 173.656C71.3033 174.452 71.038 176.575 71.038 180.024C76.0793 180.024 80.192 178.697 83.376 176.044C86.8253 173.125 90.8053 168.482 95.316 162.114C99.296 156.542 102.878 152.164 106.062 148.98C109.511 145.796 113.491 143.806 118.002 143.01V140.224H96.51C94.918 140.224 93.1933 141.816 91.336 145C89.744 148.184 88.948 150.572 88.948 152.164C88.948 153.756 89.6113 154.552 90.938 154.552L86.162 160.124L84.172 157.338C83.1107 160.522 81.386 163.043 78.998 164.9C80.59 165.431 81.386 166.227 81.386 167.288C81.386 167.553 81.2533 168.084 80.988 168.88C80.7227 169.676 80.59 170.737 80.59 172.064H76.212ZM118.002 164.9C119.594 166.492 122.247 167.288 125.962 167.288C130.473 167.288 133.259 166.492 134.32 164.9C135.647 163.308 136.31 160.655 136.31 156.94C136.31 155.083 136.177 153.093 135.912 150.97C135.647 148.582 135.514 146.592 135.514 145L133.126 143.01L120.39 147.786C120.655 149.909 122.911 150.97 127.156 150.97C128.483 150.97 129.677 150.837 130.738 150.572C132.065 150.307 132.861 150.174 133.126 150.174C132.861 152.297 131.932 154.154 130.34 155.746C129.013 157.073 126.891 158.665 123.972 160.522C121.053 162.114 119.063 163.573 118.002 164.9ZM110.042 154.552C110.042 160.124 111.501 162.91 114.42 162.91C114.951 162.91 116.012 161.981 117.604 160.124C119.461 158.267 120.39 156.409 120.39 154.552H110.042ZM117.206 177.636C123.574 177.636 126.758 176.044 126.758 172.86L125.962 172.462L116.012 170.074L113.624 177.238L117.206 177.636ZM66.66 230.968C73.824 236.275 83.376 238.928 95.316 238.928C100.888 238.928 104.205 236.54 105.266 231.764C106.327 226.988 106.858 219.691 106.858 209.874C106.858 202.179 106.46 195.546 105.664 189.974C104.868 184.402 103.276 179.228 100.888 174.452C99.5613 175.248 93.1933 185.463 81.784 205.098C74.8853 217.834 69.844 226.457 66.66 230.968ZM117.604 184.402C117.604 187.055 119.329 188.913 122.778 189.974C126.227 191.035 129.677 191.566 133.126 191.566V176.84C131.003 176.84 127.819 177.769 123.574 179.626C119.594 181.483 117.604 183.075 117.604 184.402ZM67.058 195.944C67.058 196.475 65.9967 197.138 63.874 197.934C62.0167 198.73 60.5573 199.128 59.496 199.128L63.078 199.526C68.1193 199.526 72.8953 197.536 77.406 193.556C81.9167 189.311 84.172 184.667 84.172 179.626C83.1107 180.157 79.9267 181.483 74.62 183.606C69.5787 185.729 66.1293 188.382 64.272 191.566C65.068 191.566 65.7313 192.097 66.262 193.158C66.7927 194.219 67.058 195.148 67.058 195.944ZM115.614 201.914C115.614 205.363 117.206 207.088 120.39 207.088C122.778 207.088 125.431 206.027 128.35 203.904C131.534 201.781 133.126 199.659 133.126 197.536C133.126 195.148 129.809 193.954 123.176 193.954C120.257 193.954 118.267 194.617 117.206 195.944C116.145 197.005 115.614 198.995 115.614 201.914ZM71.834 201.914C67.854 202.445 64.67 203.373 62.282 204.7C59.894 205.761 58.7 207.751 58.7 210.67C61.6187 210.67 64.5373 210.007 67.456 208.68C70.3747 207.353 71.834 205.098 71.834 201.914ZM125.962 219.426C123.043 219.426 120.523 220.089 118.4 221.416C116.543 222.743 115.614 224.733 115.614 227.386C115.614 228.713 116.941 229.376 119.594 229.376C125.166 229.376 129.279 226.855 131.932 221.814C134.851 216.773 136.31 211.333 136.31 205.496C133.391 205.496 129.942 206.557 125.962 208.68C122.247 210.537 120.39 212.66 120.39 215.048C120.39 215.579 121.053 216.507 122.38 217.834C123.707 218.895 124.901 219.426 125.962 219.426ZM61.486 213.058C58.0367 213.058 55.3833 213.589 53.526 214.65C51.934 215.711 50.6073 217.834 49.546 221.018C50.8727 220.753 53.128 220.089 56.312 219.028C59.7613 217.967 61.486 217.038 61.486 216.242V213.058ZM55.118 226.192C47.158 226.192 43.178 228.049 43.178 231.764C51.138 231.764 55.118 229.907 55.118 226.192ZM133.126 230.57C131.269 230.57 129.411 231.101 127.554 232.162C125.697 233.223 124.237 234.55 123.176 236.142H133.126V230.57ZM50.342 238.132C44.5047 238.132 40.79 238.663 39.198 239.724C37.606 240.52 35.218 243.439 32.034 248.48C36.014 248.48 39.994 247.684 43.974 246.092C48.2193 244.5 50.342 241.847 50.342 238.132ZM116.012 243.704C115.481 246.888 113.889 249.011 111.236 250.072C108.848 250.868 105.531 251.266 101.286 251.266C97.306 251.266 94.122 251.797 91.734 252.858C89.6113 253.654 88.55 255.511 88.55 258.43C93.5913 258.43 100.755 256.971 110.042 254.052C119.329 251.133 125.166 247.684 127.554 243.704H116.012ZM130.738 248.48C128.881 248.48 123.176 251.664 113.624 258.032L118.002 258.43C123.574 258.43 129.411 256.705 135.514 253.256C135.514 252.46 134.851 251.531 133.524 250.47C132.463 249.143 131.534 248.48 130.738 248.48ZM37.606 255.644C33.626 255.644 29.1153 256.971 24.074 259.624C19.298 262.012 16.91 265.063 16.91 268.778C18.2367 268.778 21.0227 268.778 25.268 268.778C29.7787 268.778 33.4933 268.247 36.412 267.186C39.596 265.859 42.2493 263.737 44.372 260.818C43.576 261.879 43.178 262.808 43.178 263.604C43.178 266.523 47.556 267.982 56.312 267.982C61.6187 267.982 65.466 267.717 67.854 267.186C70.5073 266.39 72.7627 265.196 74.62 263.604C76.4773 261.747 79.6613 258.297 84.172 253.256C81.784 253.256 76.8753 254.848 69.446 258.032C62.0167 261.216 57.904 262.941 57.108 263.206L54.72 262.808C55.516 262.012 56.9753 260.951 59.098 259.624C61.2207 258.032 63.078 256.573 64.67 255.246C66.5273 253.654 67.456 252.062 67.456 250.47C63.476 250.47 59.7613 251.133 56.312 252.46C53.128 253.521 49.2807 255.113 44.77 257.236L37.208 260.818H34.82C36.6773 259.226 37.606 257.501 37.606 255.644ZM156.21 253.256C154.618 253.521 152.23 254.317 149.046 255.644C146.127 256.705 144.137 257.501 143.076 258.032V260.818H166.558C166.558 255.777 163.109 253.256 156.21 253.256ZM86.162 265.594C89.0807 266.39 93.326 267.053 98.898 267.584C104.735 267.849 108.715 267.982 110.838 267.982V265.594C108.45 265.063 105.929 264.267 103.276 263.206C100.888 262.145 99.296 261.349 98.5 260.818C97.704 260.818 95.8467 261.349 92.928 262.41C90.2747 263.471 88.0193 264.533 86.162 265.594ZM125.962 267.982C124.37 267.982 122.911 268.115 121.584 268.38C120.523 268.645 119.329 269.309 118.002 270.37L120.39 270.768C123.309 270.768 125.697 269.839 127.554 267.982H125.962ZM130.738 272.758C128.881 272.758 127.156 273.156 125.564 273.952C124.237 274.748 122.513 276.075 120.39 277.932L125.166 278.33C130.473 278.33 133.126 277.136 133.126 274.748C133.126 273.421 132.33 272.758 130.738 272.758ZM118.002 287.484C118.533 288.811 119.196 289.607 119.992 289.872C120.788 290.137 121.849 290.27 123.176 290.27C125.564 290.27 127.687 289.607 129.544 288.28C131.401 286.953 132.33 284.963 132.33 282.31C124.635 282.31 119.859 284.035 118.002 287.484ZM133.126 292.26C130.473 292.26 128.217 293.056 126.36 294.648C124.768 295.975 123.707 297.699 123.176 299.822H133.126V292.26ZM123.176 322.508C123.176 330.733 125.697 334.846 130.738 334.846C135.514 334.846 137.902 333.387 137.902 330.468C137.902 328.876 137.371 327.815 136.31 327.284C135.514 326.753 133.789 326.355 131.136 326.09C128.748 325.559 127.554 324.365 127.554 322.508C127.554 320.385 128.615 317.732 130.738 314.548C131.003 314.017 131.534 313.089 132.33 311.762C133.126 310.17 133.524 308.578 133.524 306.986H125.962C125.431 306.986 124.768 308.976 123.972 312.956C123.441 316.936 123.176 320.12 123.176 322.508Z" fill="white"/>
<path d="M618.022 322.11C618.022 309.374 617.359 299.955 616.032 293.852C614.971 287.749 612.848 283.637 609.664 281.514C606.48 279.126 601.571 277.932 594.938 277.932V275.146C594.673 275.677 594.009 276.34 592.948 277.136C591.887 277.667 590.958 277.932 590.162 277.932L588.172 275.146C587.111 275.146 585.784 275.677 584.192 276.738C582.6 277.799 581.141 278.33 579.814 278.33C576.099 278.33 573.844 277.269 573.048 275.146C573.048 276.473 566.813 277.799 554.342 279.126C542.137 280.187 533.513 280.718 528.472 280.718V277.932C528.207 278.463 527.543 278.993 526.482 279.524C525.686 280.055 524.89 280.32 524.094 280.32C523.829 279.789 523.298 279.259 522.502 278.728C521.971 278.197 521.441 277.932 520.91 277.932C519.583 277.932 518.389 278.33 517.328 279.126C516.267 279.657 515.205 280.055 514.144 280.32V277.136C510.96 277.136 508.572 276.738 506.98 275.942C505.388 274.881 504.592 272.625 504.592 269.176C504.592 266.257 509.501 259.359 519.318 248.48C525.951 240.785 529.931 235.744 531.258 233.356C533.115 231.499 535.371 228.315 538.024 223.804C539.085 222.477 540.147 221.018 541.208 219.426C542.535 217.569 543.463 216.507 543.994 216.242C547.709 206.69 551.423 198.465 555.138 191.566C559.118 184.402 563.894 176.707 569.466 168.482C576.895 157.869 583.131 147.653 588.172 137.836L588.57 135.448L588.172 133.06C592.948 119.263 598.52 106.394 604.888 94.454C611.521 82.514 616.961 76.544 621.206 76.544C623.859 76.544 626.38 76.942 628.768 77.738C631.421 78.534 633.146 79.0647 633.942 79.33C638.718 81.1873 642.831 82.116 646.28 82.116C646.28 83.4426 647.209 85.698 649.066 88.882C650.923 92.066 651.852 95.25 651.852 98.434C651.852 112.497 651.719 125.365 651.454 137.04C651.189 148.449 650.923 158.267 650.658 166.492C649.597 197.801 649.066 221.018 649.066 236.142L651.852 240.52H678.518C679.579 240.52 680.641 244.5 681.702 252.46C682.763 260.155 683.427 265.461 683.692 268.38C683.692 272.625 673.079 274.748 651.852 274.748V346.388H620.012L617.624 344.398L618.022 322.11ZM639.514 133.06V94.056C639.514 91.9333 637.657 90.872 633.942 90.872C628.105 90.872 623.063 92.9947 618.818 97.24C614.573 101.485 612.45 106.792 612.45 113.16C614.307 113.16 616.297 112.762 618.42 111.966C620.543 111.17 622.002 110.639 622.798 110.374C627.574 108.782 631.023 107.986 633.146 107.986L637.126 108.384C635.534 109.976 628.105 113.293 614.838 118.334L627.176 120.722L630.758 120.324C630.758 122.712 629.829 124.437 627.972 125.498C626.38 126.294 623.992 126.957 620.808 127.488C620.277 127.488 619.083 127.753 617.226 128.284C615.634 128.815 614.175 129.478 612.848 130.274C611.787 131.07 610.991 131.999 610.46 133.06L634.738 135.448L639.514 133.06ZM608.868 125.1C604.357 125.1 602.102 127.09 602.102 131.07C603.694 131.07 605.551 130.274 607.674 128.682C609.797 127.09 611.389 126.029 612.45 125.498L608.868 125.1ZM580.212 172.064C578.089 172.064 576.63 172.595 575.834 173.656C575.303 174.452 575.038 176.575 575.038 180.024C580.079 180.024 584.192 178.697 587.376 176.044C590.825 173.125 594.805 168.482 599.316 162.114C603.296 156.542 606.878 152.164 610.062 148.98C613.511 145.796 617.491 143.806 622.002 143.01V140.224H600.51C598.918 140.224 597.193 141.816 595.336 145C593.744 148.184 592.948 150.572 592.948 152.164C592.948 153.756 593.611 154.552 594.938 154.552L590.162 160.124L588.172 157.338C587.111 160.522 585.386 163.043 582.998 164.9C584.59 165.431 585.386 166.227 585.386 167.288C585.386 167.553 585.253 168.084 584.988 168.88C584.723 169.676 584.59 170.737 584.59 172.064H580.212ZM622.002 164.9C623.594 166.492 626.247 167.288 629.962 167.288C634.473 167.288 637.259 166.492 638.32 164.9C639.647 163.308 640.31 160.655 640.31 156.94C640.31 155.083 640.177 153.093 639.912 150.97C639.647 148.582 639.514 146.592 639.514 145L637.126 143.01L624.39 147.786C624.655 149.909 626.911 150.97 631.156 150.97C632.483 150.97 633.677 150.837 634.738 150.572C636.065 150.307 636.861 150.174 637.126 150.174C636.861 152.297 635.932 154.154 634.34 155.746C633.013 157.073 630.891 158.665 627.972 160.522C625.053 162.114 623.063 163.573 622.002 164.9ZM614.042 154.552C614.042 160.124 615.501 162.91 618.42 162.91C618.951 162.91 620.012 161.981 621.604 160.124C623.461 158.267 624.39 156.409 624.39 154.552H614.042ZM621.206 177.636C627.574 177.636 630.758 176.044 630.758 172.86L629.962 172.462L620.012 170.074L617.624 177.238L621.206 177.636ZM570.66 230.968C577.824 236.275 587.376 238.928 599.316 238.928C604.888 238.928 608.205 236.54 609.266 231.764C610.327 226.988 610.858 219.691 610.858 209.874C610.858 202.179 610.46 195.546 609.664 189.974C608.868 184.402 607.276 179.228 604.888 174.452C603.561 175.248 597.193 185.463 585.784 205.098C578.885 217.834 573.844 226.457 570.66 230.968ZM621.604 184.402C621.604 187.055 623.329 188.913 626.778 189.974C630.227 191.035 633.677 191.566 637.126 191.566V176.84C635.003 176.84 631.819 177.769 627.574 179.626C623.594 181.483 621.604 183.075 621.604 184.402ZM571.058 195.944C571.058 196.475 569.997 197.138 567.874 197.934C566.017 198.73 564.557 199.128 563.496 199.128L567.078 199.526C572.119 199.526 576.895 197.536 581.406 193.556C585.917 189.311 588.172 184.667 588.172 179.626C587.111 180.157 583.927 181.483 578.62 183.606C573.579 185.729 570.129 188.382 568.272 191.566C569.068 191.566 569.731 192.097 570.262 193.158C570.793 194.219 571.058 195.148 571.058 195.944ZM619.614 201.914C619.614 205.363 621.206 207.088 624.39 207.088C626.778 207.088 629.431 206.027 632.35 203.904C635.534 201.781 637.126 199.659 637.126 197.536C637.126 195.148 633.809 193.954 627.176 193.954C624.257 193.954 622.267 194.617 621.206 195.944C620.145 197.005 619.614 198.995 619.614 201.914ZM575.834 201.914C571.854 202.445 568.67 203.373 566.282 204.7C563.894 205.761 562.7 207.751 562.7 210.67C565.619 210.67 568.537 210.007 571.456 208.68C574.375 207.353 575.834 205.098 575.834 201.914ZM629.962 219.426C627.043 219.426 624.523 220.089 622.4 221.416C620.543 222.743 619.614 224.733 619.614 227.386C619.614 228.713 620.941 229.376 623.594 229.376C629.166 229.376 633.279 226.855 635.932 221.814C638.851 216.773 640.31 211.333 640.31 205.496C637.391 205.496 633.942 206.557 629.962 208.68C626.247 210.537 624.39 212.66 624.39 215.048C624.39 215.579 625.053 216.507 626.38 217.834C627.707 218.895 628.901 219.426 629.962 219.426ZM565.486 213.058C562.037 213.058 559.383 213.589 557.526 214.65C555.934 215.711 554.607 217.834 553.546 221.018C554.873 220.753 557.128 220.089 560.312 219.028C563.761 217.967 565.486 217.038 565.486 216.242V213.058ZM559.118 226.192C551.158 226.192 547.178 228.049 547.178 231.764C555.138 231.764 559.118 229.907 559.118 226.192ZM637.126 230.57C635.269 230.57 633.411 231.101 631.554 232.162C629.697 233.223 628.237 234.55 627.176 236.142H637.126V230.57ZM554.342 238.132C548.505 238.132 544.79 238.663 543.198 239.724C541.606 240.52 539.218 243.439 536.034 248.48C540.014 248.48 543.994 247.684 547.974 246.092C552.219 244.5 554.342 241.847 554.342 238.132ZM620.012 243.704C619.481 246.888 617.889 249.011 615.236 250.072C612.848 250.868 609.531 251.266 605.286 251.266C601.306 251.266 598.122 251.797 595.734 252.858C593.611 253.654 592.55 255.511 592.55 258.43C597.591 258.43 604.755 256.971 614.042 254.052C623.329 251.133 629.166 247.684 631.554 243.704H620.012ZM634.738 248.48C632.881 248.48 627.176 251.664 617.624 258.032L622.002 258.43C627.574 258.43 633.411 256.705 639.514 253.256C639.514 252.46 638.851 251.531 637.524 250.47C636.463 249.143 635.534 248.48 634.738 248.48ZM541.606 255.644C537.626 255.644 533.115 256.971 528.074 259.624C523.298 262.012 520.91 265.063 520.91 268.778C522.237 268.778 525.023 268.778 529.268 268.778C533.779 268.778 537.493 268.247 540.412 267.186C543.596 265.859 546.249 263.737 548.372 260.818C547.576 261.879 547.178 262.808 547.178 263.604C547.178 266.523 551.556 267.982 560.312 267.982C565.619 267.982 569.466 267.717 571.854 267.186C574.507 266.39 576.763 265.196 578.62 263.604C580.477 261.747 583.661 258.297 588.172 253.256C585.784 253.256 580.875 254.848 573.446 258.032C566.017 261.216 561.904 262.941 561.108 263.206L558.72 262.808C559.516 262.012 560.975 260.951 563.098 259.624C565.221 258.032 567.078 256.573 568.67 255.246C570.527 253.654 571.456 252.062 571.456 250.47C567.476 250.47 563.761 251.133 560.312 252.46C557.128 253.521 553.281 255.113 548.77 257.236L541.208 260.818H538.82C540.677 259.226 541.606 257.501 541.606 255.644ZM660.21 253.256C658.618 253.521 656.23 254.317 653.046 255.644C650.127 256.705 648.137 257.501 647.076 258.032V260.818H670.558C670.558 255.777 667.109 253.256 660.21 253.256ZM590.162 265.594C593.081 266.39 597.326 267.053 602.898 267.584C608.735 267.849 612.715 267.982 614.838 267.982V265.594C612.45 265.063 609.929 264.267 607.276 263.206C604.888 262.145 603.296 261.349 602.5 260.818C601.704 260.818 599.847 261.349 596.928 262.41C594.275 263.471 592.019 264.533 590.162 265.594ZM629.962 267.982C628.37 267.982 626.911 268.115 625.584 268.38C624.523 268.645 623.329 269.309 622.002 270.37L624.39 270.768C627.309 270.768 629.697 269.839 631.554 267.982H629.962ZM634.738 272.758C632.881 272.758 631.156 273.156 629.564 273.952C628.237 274.748 626.513 276.075 624.39 277.932L629.166 278.33C634.473 278.33 637.126 277.136 637.126 274.748C637.126 273.421 636.33 272.758 634.738 272.758ZM622.002 287.484C622.533 288.811 623.196 289.607 623.992 289.872C624.788 290.137 625.849 290.27 627.176 290.27C629.564 290.27 631.687 289.607 633.544 288.28C635.401 286.953 636.33 284.963 636.33 282.31C628.635 282.31 623.859 284.035 622.002 287.484ZM637.126 292.26C634.473 292.26 632.217 293.056 630.36 294.648C628.768 295.975 627.707 297.699 627.176 299.822H637.126V292.26ZM627.176 322.508C627.176 330.733 629.697 334.846 634.738 334.846C639.514 334.846 641.902 333.387 641.902 330.468C641.902 328.876 641.371 327.815 640.31 327.284C639.514 326.753 637.789 326.355 635.136 326.09C632.748 325.559 631.554 324.365 631.554 322.508C631.554 320.385 632.615 317.732 634.738 314.548C635.003 314.017 635.534 313.089 636.33 311.762C637.126 310.17 637.524 308.578 637.524 306.986H629.962C629.431 306.986 628.768 308.976 627.972 312.956C627.441 316.936 627.176 320.12 627.176 322.508Z" fill="white"/>
</svg>
