<svg width="684" height="386" viewBox="0 0 684 386" fill="none" xmlns="http://www.w3.org/2000/svg">
<path d="M227.515 314.72C188.198 250.241 208.587 166.105 273.009 126.789C337.487 87.4726 421.624 107.861 460.94 172.283C500.256 236.761 479.868 320.898 415.445 360.214C350.967 399.586 266.831 379.198 227.515 314.72Z" fill="white"/>
<path d="M373.365 122.184C371.86 119.717 371.498 116.691 372.358 113.773C373.218 110.854 375.23 108.282 377.952 106.622C380.673 104.962 383.881 104.35 386.869 104.92C389.858 105.491 392.382 107.197 393.888 109.664C395.393 112.131 395.755 115.157 394.895 118.075C394.035 120.994 392.023 123.566 389.301 125.226C386.58 126.886 383.372 127.498 380.383 126.928C377.395 126.357 374.87 124.651 373.365 122.184Z" fill="white"/>
<path d="M299.576 115.05C298.228 110.332 303.002 104.828 310.135 102.862C317.268 100.84 324.176 103.087 325.524 107.805C326.872 112.523 322.098 118.027 314.965 119.993C307.776 121.959 300.924 119.768 299.576 115.05Z" fill="white"/>
<path d="M238.579 141.279C234.929 135.27 243.073 123.587 256.833 115.162C270.594 106.794 284.748 104.828 288.399 110.838C295.981 123.306 289.353 137.516 275.593 145.885C261.832 154.366 247.847 156.5 238.579 141.279Z" fill="white"/>
<path d="M371.692 380.153C368.435 372.009 375.006 355.665 391.35 349.093C416.063 339.152 424.376 356.282 425.275 358.473C428.532 366.617 419.546 371.953 403.201 378.524C386.857 385.095 374.95 388.297 371.692 380.153Z" fill="white"/>
<path d="M201.903 269.001C199.825 261.98 201.454 255.24 205.554 254.061C209.654 252.825 214.709 257.599 216.787 264.62C218.865 271.64 217.236 278.38 213.136 279.56C209.036 280.795 204.037 276.021 201.903 269.001Z" fill="white"/>
<path d="M349.395 331.569C349.675 339.432 335.971 346.229 318.84 346.734C301.71 347.296 287.612 341.398 287.388 333.591C287.331 331.457 288.286 329.379 290.084 327.525C294.858 322.527 305.473 318.876 317.886 318.483C335.016 317.921 349.114 323.762 349.395 331.569Z" fill="#DDDDDD"/>
<path d="M349.395 331.569C344.621 336.568 334.005 340.219 321.593 340.612C304.462 341.174 290.42 335.332 290.14 327.525C294.914 322.527 305.529 318.876 317.942 318.483C335.016 317.921 349.114 323.762 349.395 331.569Z" fill="#A3A3A3"/>
<path d="M353.045 230.752C343.89 235.807 333.612 235.694 327.49 230.976C325.973 229.797 324.682 228.337 323.727 226.652C318.953 218.058 324.345 205.926 335.802 199.58C346.474 193.626 358.662 194.862 364.11 202.107C364.503 202.613 364.84 203.118 365.121 203.68C369.895 212.329 364.503 224.405 353.045 230.752Z" fill="#DDDDDD"/>
<path d="M353.045 230.752C343.89 235.807 333.612 235.694 327.49 230.977C327.097 230.471 326.76 229.966 326.479 229.404C321.705 220.811 327.097 208.679 338.555 202.332C347.71 197.277 357.988 197.389 364.11 202.107C364.503 202.613 364.84 203.118 365.121 203.68C369.895 212.329 364.503 224.405 353.045 230.752Z" fill="#DDDDDD"/>
<path d="M287.781 155.433C286.994 152.232 290.701 148.525 296.093 147.177C301.485 145.829 306.484 147.345 307.326 150.547C308.113 153.748 304.406 157.455 299.014 158.803C293.622 160.151 288.567 158.635 287.781 155.433Z" fill="#DDDDDD"/>
<path d="M297.048 211.655C291.993 210.476 289.41 202.613 291.375 194.075C293.341 185.538 299.014 179.528 304.125 180.708C309.18 181.887 311.764 189.751 309.798 198.288C307.832 206.825 302.103 212.835 297.048 211.655Z" fill="#EAEAEA"/>
<path d="M450.942 206.263C449.538 208.117 447.572 209.409 445.157 210.195C435.946 213.34 420.557 208.791 406.628 198.063C391.238 186.156 382.701 170.654 385.621 160.938C386.015 159.59 386.633 158.354 387.475 157.287C394.44 148.3 414.266 151.951 431.79 165.487C449.314 178.967 457.907 197.221 450.942 206.263Z" fill="#BBBBBB"/>
<path d="M445.213 210.195C436.002 213.34 420.613 208.791 406.684 198.063C391.294 186.156 382.757 170.654 385.678 160.938C394.889 157.792 410.278 162.342 424.264 173.069C439.597 184.977 448.078 200.478 445.213 210.195Z" fill="#A3A3A3"/>
<path d="M440.72 226.427C439.148 223.843 439.934 220.473 442.518 218.901C445.101 217.328 448.471 218.114 450.044 220.698C451.617 223.282 450.83 226.652 448.247 228.224C445.663 229.853 442.293 229.011 440.72 226.427Z" fill="#DDDDDD"/>
<path d="M414.098 266.979C415.109 259.733 419.602 254.341 424.151 254.959C428.701 255.577 431.621 261.98 430.61 269.225C429.599 276.471 425.106 281.863 420.557 281.245C416.007 280.627 413.087 274.224 414.098 266.979Z" fill="#DDDDDD"/>
<path d="M360.459 257.206C357.482 252.263 357.595 246.703 360.74 244.849C363.829 242.996 368.772 245.523 371.749 250.466C374.725 255.409 374.557 260.969 371.468 262.822C368.322 264.676 363.436 262.205 360.459 257.206Z" fill="#EAEAEA"/>
<path d="M342.542 252.151C341.363 250.241 341.981 247.714 343.89 246.478C345.8 245.299 348.327 245.916 349.563 247.826C350.743 249.792 350.125 252.263 348.215 253.443C346.249 254.678 343.722 254.061 342.542 252.151Z" fill="#EAEAEA"/>
<path d="M278.85 314.214C276.941 311.069 279.075 306.351 283.568 303.599C288.061 300.847 293.285 301.127 295.194 304.273C297.104 307.418 294.97 312.136 290.477 314.888C285.983 317.64 280.76 317.359 278.85 314.214Z" fill="#EAEAEA"/>
<path d="M259.361 285.345C258.237 285.907 257.114 286.3 255.878 286.412C245.151 287.872 234.255 272.764 231.502 252.656C228.75 232.549 235.266 215.082 245.993 213.621C248.184 213.34 250.43 213.734 252.565 214.745C260.877 218.62 268.235 231.426 270.369 247.433C272.784 265.238 267.954 280.964 259.361 285.345Z" fill="#BBBBBB"/>
<path d="M259.361 285.345C251.048 281.47 243.69 268.664 241.556 252.657C239.141 234.852 243.971 219.069 252.565 214.745C260.877 218.62 268.235 231.426 270.369 247.433C272.784 265.238 267.954 280.964 259.361 285.345Z" fill="#A3A3A3"/>
<path d="M351.023 349.43C350.125 346.285 354.113 342.353 359.898 340.724C365.683 339.039 371.131 340.275 372.086 343.42C372.984 346.566 368.997 350.497 363.211 352.126C357.37 353.755 351.922 352.575 351.023 349.43Z" fill="#DDDDDD"/>
<path d="M367.031 312.979C366.188 309.159 370.569 304.947 376.86 303.543C383.15 302.139 388.879 304.104 389.778 307.924C390.62 311.743 386.239 315.955 379.949 317.36C373.602 318.764 367.873 316.798 367.031 312.979Z" fill="#DDDDDD"/>
<path d="M379.612 381.389C379.219 380.434 387.419 376.277 397.922 372.121C408.425 367.909 417.243 365.269 417.58 366.224C417.973 367.179 409.773 371.335 399.27 375.491C388.767 379.704 380.005 382.343 379.612 381.389Z" fill="#DDDDDD"/>
<path d="M244.14 133.81C243.185 132.237 250.431 126.059 260.316 120.049C270.201 113.983 279.019 110.388 279.974 111.961C280.929 113.534 273.683 119.712 263.798 125.722C253.857 131.732 245.095 135.382 244.14 133.81Z" fill="#DDDDDD"/>
<path d="M361.583 158.41C359.785 155.489 361.807 151.052 366.02 148.469C370.232 145.885 375.119 146.166 376.916 149.03C378.713 151.951 376.691 156.388 372.479 158.972C368.266 161.612 363.38 161.331 361.583 158.41Z" fill="#EAEAEA"/>
<path d="M222.123 279.728C219.652 275.684 219.989 270.91 222.909 269.169C225.83 267.372 230.211 269.281 232.682 273.325C235.153 277.369 234.816 282.143 231.896 283.885C228.975 285.626 224.594 283.772 222.123 279.728Z" fill="#DDDDDD"/>
<path d="M397.978 342.185C396.405 339.657 399.101 335.22 403.932 332.243C408.762 329.267 413.929 328.93 415.502 331.513C417.074 334.041 414.378 338.534 409.548 341.455C404.662 344.375 399.494 344.712 397.978 342.185Z" fill="#EAEAEA"/>
<path d="M383.88 337.86C382.869 336.175 383.487 333.872 385.284 332.805C387.082 331.682 389.385 332.187 390.452 333.872C391.463 335.557 390.845 337.86 389.048 338.927C387.194 339.994 384.891 339.545 383.88 337.86Z" fill="#DDDDDD"/>
<path d="M451.897 296.354C449.145 294.893 448.696 290.288 450.886 286.019C453.133 281.75 457.177 279.448 459.929 280.908C462.681 282.368 463.13 286.974 460.94 291.242C458.693 295.455 454.649 297.758 451.897 296.354Z" fill="#EAEAEA"/>
<path d="M336.196 135.438C336.196 136.198 336.046 136.95 335.755 137.652C335.465 138.354 335.038 138.992 334.501 139.529C333.964 140.066 333.326 140.492 332.624 140.783C331.923 141.074 331.17 141.223 330.411 141.223C328.876 141.223 327.405 140.614 326.32 139.529C325.235 138.444 324.625 136.973 324.625 135.438C324.625 134.679 324.775 133.926 325.066 133.225C325.357 132.523 325.783 131.885 326.32 131.348C326.857 130.811 327.495 130.384 328.197 130.094C328.899 129.803 329.651 129.653 330.411 129.653C331.17 129.653 331.923 129.803 332.624 130.094C333.326 130.384 333.964 130.811 334.501 131.348C335.038 131.885 335.465 132.523 335.755 133.225C336.046 133.926 336.196 134.679 336.196 135.438V135.438Z" fill="#DDDDDD"/>
<path d="M326.771 115.899C326.771 116.445 326.449 116.986 325.822 117.49C325.195 117.995 324.276 118.453 323.118 118.839C321.96 119.225 320.585 119.531 319.071 119.74C317.558 119.949 315.936 120.057 314.298 120.057C312.66 120.057 311.038 119.949 309.525 119.74C308.011 119.531 306.636 119.225 305.478 118.839C304.32 118.453 303.401 117.995 302.774 117.49C302.147 116.986 301.824 116.445 301.824 115.899C301.824 114.796 303.139 113.739 305.478 112.959C307.817 112.179 310.99 111.741 314.298 111.741C317.606 111.741 320.779 112.179 323.118 112.959C325.457 113.739 326.771 114.796 326.771 115.899Z" fill="#F7F7F7"/>
<path d="M384.661 116.602C384.661 117.705 383.347 118.763 381.008 119.542C378.668 120.322 375.496 120.76 372.188 120.76C368.879 120.76 365.707 120.322 363.368 119.542C361.028 118.763 359.714 117.705 359.714 116.602C359.714 115.5 361.028 114.442 363.368 113.662C365.707 112.883 368.879 112.445 372.188 112.445C375.496 112.445 378.668 112.883 381.008 113.662C383.347 114.442 384.661 115.5 384.661 116.602Z" fill="#F7F7F7"/>
<path d="M304.51 86.1569C301.873 91.4214 300.296 94.5711 302.873 97.1641C306.019 100.329 312.673 96.0088 319.046 91.8718C324.816 88.1257 330.355 84.5298 332.848 86.777C341.841 91.1329 347.836 91.1329 356.828 86.777C359.322 84.5298 364.861 88.1257 370.631 91.8718C377.003 96.0088 383.657 100.329 386.803 97.1641C389.38 94.5711 387.803 91.4214 385.167 86.1569C381.671 79.175 376.312 68.4744 376.312 50.4224H356.828H313.364C313.364 68.4744 308.006 79.175 304.51 86.1569Z" fill="#E43434"/>
<path d="M370.908 69.0754L387.284 50.2692C387.284 50.2692 393.041 47.1989 393.68 43.2329C393.68 43.2329 393.744 41.6977 390.61 44.7042C390.61 44.7042 393.936 41.9536 393.68 40.7383C393.36 39.5229 391.25 41.25 390.226 42.2734C389.203 43.2969 395.024 37.9237 393.233 36.6444C391.442 35.3651 389.586 39.6508 389.139 40.0986C389.139 40.0986 392.465 36.5165 390.482 36.0047C388.499 35.493 387.731 39.0112 386.452 39.0112C386.452 39.0112 387.54 36.6444 386.388 36.2606C385.173 35.8128 385.045 36.0687 384.149 38.1156C383.702 39.1391 382.614 38.1156 382.038 40.6743L382.102 41.25C382.102 41.25 375.642 44.3843 371.612 43.9366C371.612 43.9366 364.767 50.4611 358.819 52.7C358.819 52.7 344.106 58.5849 323.765 49.4377C323.765 49.4377 312.699 45.7916 310.588 43.6807C310.588 43.6807 311.611 39.4589 310.588 39.4589C309.884 39.4589 309.309 39.7787 309.309 41.8896C309.309 41.8896 309.756 36.5804 307.198 37.412C307.198 37.412 306.43 38.4354 306.302 41.186C306.302 41.186 306.75 35.429 304.575 36.1966C302.4 36.9003 304.063 40.3544 304.063 41.5058C304.063 41.5058 302.72 36.5804 301.505 37.7958C300.289 39.0112 301.057 42.2095 301.441 42.5933C301.825 42.9771 301.441 45.1519 300.737 45.8556C300.034 46.5592 297.347 46.1114 297.347 47.5187C297.347 47.5187 297.603 49.8854 301.121 49.4377C301.121 49.4377 302.592 49.0539 307.262 54.8748C311.995 60.6318 319.032 63.1905 319.735 67.6041C320.439 72.0178 319.671 86.5382 319.671 86.5382C319.671 86.5382 316.537 102.594 311.931 106.624C301.249 115.899 318.072 119.097 322.806 114.3C327.603 109.502 332.209 102.658 335.919 100.355C339.629 98.1161 346.857 98.7558 350.631 99.7153C354.405 100.739 359.778 107.199 362.465 112.892C365.151 118.585 374.235 119.481 376.857 115.451C379.48 111.357 373.211 107.647 372.252 105.408C371.228 103.169 370.141 87.6896 370.141 84.1714C370.205 80.6533 369.693 70.3547 370.908 69.0754Z" fill="#DFEDF0"/>
<path d="M322.933 107.455C322.933 107.455 327.027 98.2441 330.993 96.9008C334.959 95.4935 346.985 96.0053 351.015 94.9818C354.981 93.9584 362.465 107.391 364.575 109.502H360.674C360.674 109.502 356.324 101.762 350.759 99.7793C345.13 97.7963 336.814 99.3955 334.831 101.251C332.848 103.042 327.923 108.735 327.923 108.735C327.923 108.735 323.381 109.054 322.933 107.455Z" fill="#CCDAE1"/>
<path d="M381.527 56.922L378.968 51.8047C378.968 51.8047 366.686 59.7365 365.407 63.6385C364.128 67.5404 363.232 81.3572 363.616 87.8817C364 94.4063 367.774 108.607 370.396 108.607C373.019 108.607 370.652 108.607 370.652 108.607L372.955 106.304C372.955 106.304 370.972 104.577 370.844 93.4468C370.716 82.3806 369.245 71.4424 370.716 69.5873C372.124 67.7323 381.527 56.922 381.527 56.922Z" fill="#CCDAE1"/>
<path d="M310.332 51.3567C310.332 51.3567 324.469 55.4506 324.469 63.7662C324.469 72.0818 325.94 92.1673 322.55 99.2036C319.223 106.24 318.008 107.455 318.008 107.455L314.874 102.082C314.874 102.082 319.863 91.9114 319.863 81.9966C319.863 72.0179 321.142 67.3483 316.345 62.9346L309.181 57.0497C309.245 56.9857 307.645 53.2757 310.332 51.3567Z" fill="#CCDAE1"/>
<path d="M377.881 27.1134C377.881 47.2629 363.36 55.3226 345.45 55.3226C327.539 55.3226 311.995 47.2629 313.019 27.1134C314.106 6.0685 326.324 0.311523 344.17 0.311523C362.145 0.311523 377.881 11.5056 377.881 27.1134Z" fill="#CCDAE1"/>
<path d="M375.258 26.4098C375.258 46.0475 361.313 53.9154 344.17 53.9154C326.963 53.9154 312.059 46.0475 313.083 26.4098C314.106 5.94056 325.812 0.311523 343.019 0.311523C360.226 0.311523 375.258 11.2498 375.258 26.4098Z" fill="#DFEDF0"/>
<path d="M370.141 25.8982C370.141 41.1222 357.347 47.263 341.548 47.263C325.748 47.263 312.059 41.1862 312.955 25.8982C313.914 10.0345 324.661 5.62085 340.46 5.62085C356.26 5.62085 370.141 14.0644 370.141 25.8982Z" fill="#466D91"/>
<path d="M365.855 25.3864C365.855 39.0752 354.021 44.5124 339.437 44.5124C324.852 44.5124 312.187 39.0113 313.019 25.3864C313.914 11.1219 323.829 7.21997 338.413 7.21997C352.998 7.21997 365.855 14.768 365.855 25.3864Z" fill="#5F96C9"/>
<path d="M319.479 87.4338C319.479 87.4338 333.04 90.5042 344.874 90.5042C357.347 90.5042 369.565 86.2185 370.205 85.5148C370.844 84.8752 371.42 83.276 370.588 82.3805C369.693 81.4849 358.243 86.7302 345.066 86.7302C331.889 86.7302 320.886 83.7238 319.799 83.7238C318.648 83.7238 319.287 87.2419 319.479 87.4338Z" fill="#5F96C9"/>
<path d="M315.449 100.931C315.449 100.931 316.601 103.873 320.119 106.112C323.637 108.351 328.051 107.967 328.435 107.967C328.818 107.967 323.189 114.811 322.166 115.387C321.142 115.963 316.153 119.161 310.268 115.707C310.268 115.707 304.639 112.828 308.925 108.926C310.844 107.199 312.443 107.135 315.449 100.931Z" fill="#5F96C9"/>
<path d="M359.778 108.351C359.778 108.351 363.872 110.654 368.222 108.735C372.571 106.816 372.316 105.472 372.316 105.472C372.316 105.472 374.171 107.711 375.194 108.863C376.217 110.014 379.544 112.893 376.921 115.515C374.298 118.138 371.1 120.057 364.895 115.899C364.959 115.835 361.313 112.765 359.778 108.351Z" fill="#5F96C9"/>
<path d="M316.345 62.8707C316.345 62.8707 313.658 53.4677 320.247 48.1584C320.247 48.1584 320.055 47.4548 318.392 47.4548C318.392 47.4548 312.187 53.4037 314.618 61.4635C314.682 61.4635 315.513 62.8707 316.345 62.8707Z" fill="#5F96C9"/>
<path d="M313.146 60.3121C313.146 60.3121 311.931 52.828 317.56 47.135C317.56 47.135 317.304 46.4314 316.217 46.4314C316.217 46.4314 311.035 51.2928 311.611 59.0967C311.611 59.0967 312.379 60.3121 313.146 60.3121Z" fill="#5F96C9"/>
<path d="M376.985 62.1669C376.985 62.1669 369.309 54.9387 370.781 46.751C370.781 46.751 369.373 48.0943 368.99 48.4141C368.606 48.7339 369.565 59.1605 374.938 64.5336C374.938 64.4697 376.985 63.3822 376.985 62.1669Z" fill="#5F96C9"/>
<path d="M377.944 61.0156C377.944 61.0156 371.484 55.6424 372.443 44.7681L373.147 43.8726L374.49 43.6807C374.49 43.6807 372.699 52.3801 379.48 59.2245C379.48 59.2885 379.224 60.6957 377.944 61.0156Z" fill="#5F96C9"/>
<path d="M324.338 52.1626C324.338 52.1626 327.257 62.3518 337.181 62.3518C347.105 62.3518 360.467 66.4077 365.332 53.3991C365.332 53.3991 365.592 51.7174 362.738 52.954C356.186 55.7239 335.754 56.5152 327.192 52.2615C327.128 52.212 324.338 50.7776 324.338 52.1626Z" fill="#CCDAE1"/>
<path d="M306.494 54.3632C306.494 54.3632 306.174 51.6767 309.82 48.4144C313.466 45.1521 313.658 45.5359 313.658 45.5359C313.658 45.5359 310.588 43.7448 310.716 43.2331C310.844 42.7853 312.123 39.651 310.396 39.2672C310.396 39.2672 309.628 39.2672 309.373 40.2906C309.373 40.2906 309.948 37.0923 307.965 37.0923C305.982 37.0923 306.43 39.587 306.43 39.9708C306.43 40.3546 307.198 34.9814 304.447 36.0049C304.447 36.0049 302.4 36.7085 303.871 40.4186C303.871 40.4186 303.296 36.4527 301.057 37.796C298.818 39.1392 301.633 41.9538 301.633 43.6808C301.633 45.4079 299.842 46.3674 298.882 46.3674C297.987 46.3674 296.963 46.4314 296.963 47.8387C296.963 49.3099 299.458 50.0775 301.313 49.6937C303.04 49.3099 304.703 54.3632 306.494 54.3632Z" fill="#5F96C9"/>
<path d="M379.48 42.2734C379.48 42.2734 378.456 44.1284 381.015 48.8619C383.574 53.5954 384.917 52.6999 385.173 52.6999C385.429 52.6999 386.068 51.3566 387.348 50.7809C388.627 50.2052 394 45.7915 394 43.8725C394 41.9536 393.233 42.2734 391.569 43.9365C391.569 43.9365 394.64 41.2499 393.68 40.2904C392.721 39.3309 391.186 41.5698 390.482 42.2094C390.482 42.2094 395.215 38.0516 393.169 36.5164C391.186 34.9812 390.802 38.6273 389.267 39.9066C389.267 39.9066 392.785 36.4524 390.61 35.6848C390.61 35.6848 389.522 35.0452 388.051 37.1561C388.051 37.1561 387.156 38.7552 386.516 38.8832C386.516 38.8832 387.859 36.3885 386.196 35.8767C384.533 35.365 384.405 37.348 383.957 38.1156C383.574 38.8192 382.998 37.7318 381.91 40.0985C380.951 42.4653 380.311 41.4418 379.48 42.2734Z" fill="#5F96C9"/>
<path d="M385.685 41.4419C385.685 41.4419 383.638 43.9366 384.981 45.8556C386.26 47.7745 388.627 48.9899 389.842 47.3907C391.058 45.7916 387.348 45.6636 387.092 43.169C386.772 40.6103 386.196 40.8662 385.685 41.4419Z" fill="#466D91"/>
<path d="M359.644 78.7566C359.644 81.3104 357.503 83.4502 354.792 83.4502H334.885C332.245 83.4502 330.033 81.3795 330.033 78.7566V69.9216C330.033 67.3677 332.173 65.228 334.885 65.228H354.792C357.432 65.228 359.644 67.2987 359.644 69.9216V78.7566Z" fill="#0458A4"/>
<path d="M316.343 41.3619C321.368 45.9901 345.706 59.6333 345.07 62.2912C337.382 60.4509 323.266 52.5635 316.075 47.576C314.688 46.5869 315.007 45.2576 316.343 41.3619Z" fill="#E43434"/>
<path d="M375.65 39.7723C370.363 44.8899 344.903 59.0778 345.516 62.3491C353.515 60.8503 368.281 52.6519 375.819 47.3044C377.273 46.2402 376.967 44.6047 375.65 39.7723Z" fill="#E43434"/>
<g opacity="0.23">
<path d="M340.715 9.14478C325.909 9.14478 314.519 13.7003 314.519 29.0753C315.372 43.8174 326.479 43.8807 328.187 45.0196C330.465 45.589 328.136 44.9873 332.743 46.1585C336.158 47.2974 341.244 46.7279 344.132 46.7279C347.019 46.7279 349.826 45.589 352.673 45.0196C358.368 42.7418 355.52 43.8807 360.076 41.6029C362.354 39.8946 366.909 35.3391 366.909 29.6446C366.909 14.2697 357.428 9.14478 340.715 9.14478Z" fill="white"/>
<path d="M343.909 33.415L333.368 33.4263C333.227 35.0054 333.84 38.2434 337.425 38.5644C341.01 38.8853 343.241 35.2651 343.909 33.415Z" fill="#FF9061"/>
<path d="M345.678 28.6836C347.876 28.8759 349.865 26.6561 350.122 23.7255C350.378 20.795 348.804 18.2634 346.606 18.0711C344.408 17.8788 342.419 20.0986 342.162 23.0292C341.906 25.9598 343.48 28.4913 345.678 28.6836Z" fill="#7C7B8A"/>
<path d="M329.504 28.7C331.599 28.8832 333.495 26.768 333.739 23.9756C333.983 21.1831 332.483 18.7709 330.389 18.5876C328.295 18.4044 326.399 20.5196 326.155 23.312C325.91 26.1045 327.41 28.5168 329.504 28.7Z" fill="#7C7B8A"/>
<path d="M347.009 22.6505C347.741 22.7146 348.387 22.1727 348.451 21.44C348.515 20.7074 347.973 20.0615 347.241 19.9974C346.508 19.9333 345.862 20.4753 345.798 21.2079C345.734 21.9406 346.276 22.5864 347.009 22.6505Z" fill="white"/>
<path d="M330.772 22.9512C331.47 23.0123 332.086 22.4958 332.147 21.7977C332.208 21.0996 331.692 20.4842 330.994 20.4231C330.295 20.362 329.68 20.8784 329.619 21.5765C329.558 22.2747 330.074 22.8901 330.772 22.9512Z" fill="white"/>
</g>
<path d="M336.16 81.09C336.136 81.066 336.112 81.054 336.088 81.054C336.052 81.054 336.022 81.06 335.998 81.072C335.974 81.084 335.95 81.09 335.926 81.09C335.614 81.09 335.338 80.982 335.098 80.766C334.87 80.538 334.702 80.28 334.594 79.992C334.774 79.992 334.9 79.92 334.972 79.776C335.056 79.62 335.134 79.41 335.206 79.146C335.254 78.894 335.308 78.768 335.368 78.768L336.916 79.668C336.94 79.668 336.976 79.662 337.024 79.65C337.084 79.638 337.156 79.632 337.24 79.632C337.384 79.632 337.462 79.668 337.474 79.74L337.906 79.722C338.122 79.722 338.278 79.746 338.374 79.794C338.47 79.842 338.542 79.866 338.59 79.866C339.31 79.866 340.006 79.74 340.678 79.488C341.362 79.224 341.704 78.78 341.704 78.156C341.704 77.892 341.626 77.598 341.47 77.274C341.314 76.95 341.128 76.746 340.912 76.662L336.034 74.538C335.578 74.346 335.242 74.04 335.026 73.62C334.81 73.188 334.702 72.696 334.702 72.144C334.702 71.892 334.75 71.658 334.846 71.442C334.954 71.214 335.068 71.01 335.188 70.83C335.32 70.638 335.41 70.506 335.458 70.434C335.83 69.942 336.352 69.594 337.024 69.39C337.708 69.186 338.44 69.084 339.22 69.084C339.316 69.084 339.46 69.108 339.652 69.156C339.856 69.192 340.132 69.21 340.48 69.21C340.78 69.258 341.128 69.324 341.524 69.408C341.932 69.48 342.142 69.522 342.154 69.534L342.478 69.876V71.208C342.478 71.268 342.424 71.382 342.316 71.55C342.208 71.706 342.13 71.784 342.082 71.784C341.95 71.724 341.638 71.574 341.146 71.334C340.594 71.058 340.144 70.854 339.796 70.722C339.46 70.578 339.112 70.506 338.752 70.506C338.092 70.506 337.492 70.65 336.952 70.938C336.424 71.214 336.16 71.658 336.16 72.27C336.16 72.45 336.25 72.66 336.43 72.9C336.622 73.128 336.844 73.332 337.096 73.512C337.348 73.68 337.546 73.764 337.69 73.764L337.924 73.746C338.236 73.842 338.578 74.016 338.95 74.268C339.238 74.472 339.502 74.622 339.742 74.718C339.994 74.814 340.312 74.862 340.696 74.862C341.104 74.946 341.512 75.12 341.92 75.384C342.34 75.648 342.688 75.972 342.964 76.356C343.24 76.728 343.378 77.118 343.378 77.526C343.378 77.706 343.354 77.88 343.306 78.048C343.258 78.204 343.228 78.3 343.216 78.336C343.144 78.492 343.09 78.672 343.054 78.876C342.898 79.452 342.778 79.836 342.694 80.028C342.622 80.208 342.484 80.358 342.28 80.478C342.076 80.598 341.734 80.694 341.254 80.766C341.242 80.778 341.224 80.796 341.2 80.82C341.176 80.844 341.158 80.862 341.146 80.874C340.738 81.03 340.36 81.144 340.012 81.216C339.664 81.3 339.304 81.342 338.932 81.342C338.5 81.342 338.008 81.312 337.456 81.252C336.904 81.204 336.472 81.15 336.16 81.09ZM341.578 70.65C341.578 70.746 341.602 70.818 341.65 70.866C341.698 70.914 341.788 70.956 341.92 70.992L342.154 70.11C342.154 70.014 341.74 69.894 340.912 69.75C340.096 69.606 339.508 69.534 339.148 69.534C339.124 69.546 339.094 69.576 339.058 69.624C339.034 69.66 339.022 69.69 339.022 69.714C339.022 69.834 339.112 69.894 339.292 69.894H339.382C339.574 69.894 339.676 69.846 339.688 69.75C339.712 69.858 339.766 69.948 339.85 70.02C339.934 70.092 340.024 70.128 340.12 70.128C340.204 70.128 340.258 70.122 340.282 70.11C340.318 70.086 340.342 70.044 340.354 69.984L340.696 70.308L341.038 69.984V70.344C341.074 70.332 341.14 70.308 341.236 70.272C341.344 70.224 341.458 70.17 341.578 70.11L341.704 70.128C341.704 70.188 341.68 70.278 341.632 70.398C341.596 70.518 341.578 70.602 341.578 70.65ZM338.248 69.75C338.272 69.774 338.308 69.798 338.356 69.822C338.404 69.846 338.44 69.864 338.464 69.876C338.536 69.876 338.62 69.858 338.716 69.822C338.812 69.774 338.86 69.72 338.86 69.66C338.8 69.66 338.71 69.672 338.59 69.696C338.47 69.708 338.356 69.726 338.248 69.75ZM337.402 69.858C337.246 69.858 337.054 69.906 336.826 70.002C336.598 70.086 336.484 70.182 336.484 70.29C336.484 70.314 336.532 70.326 336.628 70.326C336.748 70.326 336.904 70.278 337.096 70.182C337.3 70.074 337.402 69.966 337.402 69.858ZM341.416 70.308C341.38 70.32 341.338 70.35 341.29 70.398C341.254 70.434 341.236 70.47 341.236 70.506L341.254 70.542L341.47 70.308H341.416ZM336.25 70.542C336.106 70.59 335.974 70.686 335.854 70.83C335.746 70.962 335.692 71.1 335.692 71.244C335.86 71.244 335.992 71.178 336.088 71.046C336.196 70.914 336.25 70.746 336.25 70.542ZM335.8 71.388C335.536 71.388 335.392 71.442 335.368 71.55H335.8V71.388ZM335.242 71.766C335.242 71.85 335.26 71.934 335.296 72.018C335.344 72.09 335.398 72.126 335.458 72.126C335.542 72.126 335.608 72.09 335.656 72.018C335.704 71.934 335.728 71.85 335.728 71.766H335.242ZM335.224 72.414C335.224 72.654 335.29 72.774 335.422 72.774C335.554 72.774 335.62 72.654 335.62 72.414H335.224ZM335.458 72.99C335.53 72.99 335.59 72.978 335.638 72.954C335.698 72.918 335.728 72.87 335.728 72.81L335.71 72.774L335.368 72.972L335.458 72.99ZM335.458 73.314H335.71V73.206H335.458V73.314ZM335.98 73.296C335.956 73.296 335.92 73.326 335.872 73.386C335.836 73.434 335.812 73.488 335.8 73.548L335.926 73.566C336.046 73.566 336.124 73.524 336.16 73.44C336.136 73.392 336.106 73.356 336.07 73.332C336.034 73.308 336.004 73.296 335.98 73.296ZM335.998 73.836C335.998 73.86 336.034 73.89 336.106 73.926C336.178 73.95 336.226 73.974 336.25 73.998C336.43 73.998 336.52 73.878 336.52 73.638C336.412 73.638 336.298 73.656 336.178 73.692C336.07 73.728 336.016 73.77 336.016 73.818L335.998 73.836ZM336.754 73.854C336.694 73.854 336.652 73.884 336.628 73.944C336.616 74.004 336.604 74.046 336.592 74.07H337.078C337.078 74.01 337.042 73.962 336.97 73.926C336.898 73.878 336.826 73.854 336.754 73.854ZM337.132 74.322C337.168 74.358 337.24 74.406 337.348 74.466C337.468 74.514 337.552 74.538 337.6 74.538C337.624 74.538 337.666 74.514 337.726 74.466C337.786 74.406 337.816 74.358 337.816 74.322L337.69 74.214L337.132 74.322ZM337.906 74.412C337.906 74.556 337.954 74.64 338.05 74.664C338.158 74.688 338.314 74.7 338.518 74.7C338.518 74.508 338.314 74.412 337.906 74.412ZM339.022 74.988C339.178 75.144 339.334 75.222 339.49 75.222L339.598 75.204C339.286 75.06 339.094 74.988 339.022 74.988ZM340.264 75.546L340.354 75.42H340.12L340.264 75.546ZM340.48 75.654C340.576 75.774 340.696 75.888 340.84 75.996C340.984 76.092 341.122 76.14 341.254 76.14V75.978H341.146C341.17 75.954 341.194 75.924 341.218 75.888C341.242 75.852 341.254 75.822 341.254 75.798C341.254 75.618 341.122 75.528 340.858 75.528H340.768C340.588 75.528 340.492 75.57 340.48 75.654ZM341.758 76.086C341.542 76.086 341.434 76.158 341.434 76.302H342.208C342.208 76.158 342.058 76.086 341.758 76.086ZM342.352 77.094C342.184 77.118 342.1 77.214 342.1 77.382C342.208 77.382 342.316 77.352 342.424 77.292C342.532 77.22 342.622 77.142 342.694 77.058C342.766 76.974 342.802 76.92 342.802 76.896C342.802 76.776 342.754 76.686 342.658 76.626C342.562 76.566 342.46 76.536 342.352 76.536C342.28 76.548 342.172 76.578 342.028 76.626C341.884 76.674 341.812 76.716 341.812 76.752V76.878L342.352 77.094ZM342.244 77.706C342.244 77.826 342.328 77.886 342.496 77.886C342.724 77.886 342.856 77.838 342.892 77.742C342.94 77.634 342.964 77.442 342.964 77.166C342.844 77.166 342.694 77.232 342.514 77.364C342.334 77.484 342.244 77.598 342.244 77.706ZM342.352 78.768C342.184 78.792 342.1 78.882 342.1 79.038C342.316 79.038 342.472 78.954 342.568 78.786C342.676 78.618 342.73 78.414 342.73 78.174C342.646 78.174 342.544 78.21 342.424 78.282C342.304 78.342 342.244 78.408 342.244 78.48C342.244 78.552 342.28 78.648 342.352 78.768ZM339.022 80.316C339.022 80.448 339.082 80.562 339.202 80.658C339.322 80.742 339.448 80.784 339.58 80.784H339.634C339.802 80.784 339.898 80.736 339.922 80.64C340.594 80.544 341.152 80.412 341.596 80.244C342.052 80.076 342.304 79.764 342.352 79.308C342.268 79.236 342.154 79.2 342.01 79.2C341.962 79.2 341.89 79.302 341.794 79.506C341.71 79.698 341.62 79.848 341.524 79.956C341.44 80.064 341.332 80.118 341.2 80.118C341.176 80.118 341.134 80.1 341.074 80.064C341.014 80.016 340.96 79.992 340.912 79.992C340.744 79.992 340.504 80.016 340.192 80.064C340.108 80.076 340.018 80.088 339.922 80.1C339.826 80.112 339.73 80.118 339.634 80.118C339.418 80.118 339.292 80.112 339.256 80.1C339.22 80.124 339.172 80.16 339.112 80.208C339.064 80.244 339.034 80.28 339.022 80.316ZM335.566 80.244C335.566 80.364 335.596 80.448 335.656 80.496C335.716 80.532 335.806 80.55 335.926 80.55C336.01 80.55 336.088 80.52 336.16 80.46C336.232 80.388 336.268 80.28 336.268 80.136L336.25 80.1L335.8 80.316L335.71 80.28V80.208C335.734 80.196 335.818 80.16 335.962 80.1C336.118 80.028 336.214 79.95 336.25 79.866C336.238 79.842 336.196 79.818 336.124 79.794C336.064 79.758 336.004 79.74 335.944 79.74C335.824 79.74 335.728 79.8 335.656 79.92C335.596 80.04 335.566 80.148 335.566 80.244ZM336.826 79.992C336.658 79.992 336.532 80.046 336.448 80.154C336.376 80.25 336.34 80.376 336.34 80.532H336.592L336.484 80.442C336.568 80.382 336.646 80.304 336.718 80.208C336.79 80.112 336.826 80.04 336.826 79.992ZM336.826 80.532C336.862 80.544 336.916 80.568 336.988 80.604C337.072 80.64 337.168 80.658 337.276 80.658C337.408 80.658 337.516 80.598 337.6 80.478C337.684 80.358 337.726 80.226 337.726 80.082C337.126 80.082 336.826 80.232 336.826 80.532ZM338.464 80.208C338.212 80.208 338.05 80.25 337.978 80.334C337.906 80.406 337.87 80.55 337.87 80.766H338.806C338.818 80.754 338.836 80.736 338.86 80.712C338.884 80.688 338.902 80.664 338.914 80.64C338.914 80.472 338.878 80.358 338.806 80.298C338.734 80.238 338.62 80.208 338.464 80.208ZM339.652 80.424C339.676 80.424 339.724 80.46 339.796 80.532H339.598V80.442L339.652 80.424ZM354.44 71.262C354.668 71.418 354.884 71.718 355.088 72.162C355.304 72.606 355.478 73.092 355.61 73.62C355.742 74.136 355.808 74.556 355.808 74.88C355.808 75.552 355.724 76.176 355.556 76.752C355.4 77.328 355.142 77.91 354.782 78.498C354.746 78.546 354.71 78.618 354.674 78.714C354.638 78.81 354.596 78.894 354.548 78.966C354.5 79.026 354.434 79.056 354.35 79.056L354.44 79.164L354.224 79.29L354.35 79.362C354.158 79.638 353.81 79.878 353.306 80.082C352.802 80.274 352.34 80.412 351.92 80.496C351.488 80.544 350.12 80.658 347.816 80.838L346.25 80.946C346.118 80.958 345.98 81 345.836 81.072C345.716 81.144 345.602 81.18 345.494 81.18C345.398 81.18 345.326 81.168 345.278 81.144C345.242 81.12 345.224 81.054 345.224 80.946L345.206 79.092C345.206 78.588 345.23 77.844 345.278 76.86C345.326 75.828 345.35 75.06 345.35 74.556C345.35 74.4 345.326 74.178 345.278 73.89C345.23 73.602 345.206 73.386 345.206 73.242C345.206 73.002 345.224 72.744 345.26 72.468C345.296 72.192 345.32 72.012 345.332 71.928C345.416 71.448 345.458 71.028 345.458 70.668C345.458 70.5 345.44 70.338 345.404 70.182C345.368 69.894 345.35 69.738 345.35 69.714C345.35 69.39 346.832 69.228 349.796 69.228H350.786C351.182 69.276 351.644 69.414 352.172 69.642C352.7 69.87 353.18 70.14 353.612 70.452C354.044 70.752 354.32 71.022 354.44 71.262ZM348.788 69.822C348.824 69.894 348.926 69.954 349.094 70.002C349.262 70.038 349.382 70.056 349.454 70.056C349.538 70.056 349.796 69.948 350.228 69.732H350.12L348.788 69.822ZM350.894 69.93C350.762 69.93 350.654 69.972 350.57 70.056V69.804C350.534 69.804 350.456 69.834 350.336 69.894C350.228 69.942 350.156 69.996 350.12 70.056C350.168 70.116 350.252 70.164 350.372 70.2C350.504 70.236 350.63 70.254 350.75 70.254C350.798 70.242 350.864 70.218 350.948 70.182C351.032 70.146 351.092 70.104 351.128 70.056C351.104 69.996 351.074 69.96 351.038 69.948C351.002 69.936 350.954 69.93 350.894 69.93ZM347.168 69.93C347.108 69.93 346.946 69.93 346.682 69.93C346.418 69.918 346.214 69.972 346.07 70.092C345.938 70.212 345.872 70.398 345.872 70.65C346.064 70.65 346.4 70.56 346.88 70.38C347.36 70.188 347.666 70.038 347.798 69.93H347.168ZM352.352 70.488C352.352 70.38 352.232 70.302 351.992 70.254C351.752 70.194 351.572 70.164 351.452 70.164C351.392 70.188 351.308 70.224 351.2 70.272C351.092 70.32 351.026 70.362 351.002 70.398C351.218 70.53 351.488 70.596 351.812 70.596C351.812 70.836 351.974 70.956 352.298 70.956C352.454 70.956 352.538 70.914 352.55 70.83V71.172H353.126L352.892 71.388C352.952 71.376 353.114 71.496 353.378 71.748C353.642 72 353.774 72.156 353.774 72.216H354.008C353.984 72.264 353.948 72.318 353.9 72.378C353.852 72.426 353.816 72.462 353.792 72.486C353.852 72.558 353.906 72.642 353.954 72.738C354.002 72.834 354.032 72.9 354.044 72.936C354.164 73.2 354.296 73.386 354.44 73.494C354.284 73.494 354.206 73.56 354.206 73.692C354.206 73.8 354.224 73.872 354.26 73.908C354.308 73.944 354.386 73.974 354.494 73.998C354.614 74.01 354.674 74.094 354.674 74.25C354.674 74.262 354.632 74.292 354.548 74.34C354.464 74.376 354.422 74.4 354.422 74.412C354.422 74.424 354.428 74.43 354.44 74.43C354.44 74.634 354.53 74.736 354.71 74.736C354.998 74.736 355.142 74.67 355.142 74.538C355.142 74.514 355.022 74.442 354.782 74.322H355.358V74.16L354.908 73.926C354.932 73.926 354.956 73.908 354.98 73.872C355.004 73.824 355.016 73.788 355.016 73.764C355.016 73.716 354.98 73.686 354.908 73.674C354.848 73.65 354.806 73.632 354.782 73.62C354.878 73.56 354.938 73.506 354.962 73.458C354.998 73.41 355.016 73.344 355.016 73.26C355.016 73.116 354.938 73.044 354.782 73.044C354.65 73.044 354.542 73.08 354.458 73.152C354.518 73.104 354.59 72.996 354.674 72.828C354.674 72.504 354.56 72.198 354.332 71.91C354.116 71.622 353.894 71.37 353.666 71.154C353.438 70.926 353.288 70.776 353.216 70.704H353.126L352.352 70.488ZM353.018 72.288C352.97 72.276 352.898 72.264 352.802 72.252C352.718 72.24 352.646 72.216 352.586 72.18C352.538 72.144 352.514 72.084 352.514 72C352.514 71.928 352.526 71.868 352.55 71.82C352.382 71.724 352.16 71.592 351.884 71.424C351.62 71.244 351.44 71.118 351.344 71.046C350.78 70.854 350.324 70.716 349.976 70.632C349.64 70.536 349.28 70.488 348.896 70.488C348.62 70.488 348.248 70.524 347.78 70.596C347.312 70.668 347.06 70.746 347.024 70.83L346.898 71.046C346.898 71.706 346.892 72.282 346.88 72.774C346.868 73.266 346.856 73.68 346.844 74.016C346.796 75.36 346.772 76.362 346.772 77.022V77.598C346.772 78.678 346.814 79.242 346.898 79.29L347.114 79.362C347.234 79.374 347.402 79.386 347.618 79.398C347.834 79.41 348.02 79.416 348.176 79.416C349.328 79.416 350.312 79.326 351.128 79.146C351.944 78.966 352.61 78.564 353.126 77.94L353.162 77.958C353.282 77.958 353.408 77.76 353.54 77.364C353.672 76.968 353.78 76.524 353.864 76.032C353.96 75.54 354.008 75.192 354.008 74.988C354.008 74.808 353.954 74.502 353.846 74.07C353.738 73.638 353.606 73.248 353.45 72.9C353.294 72.54 353.15 72.336 353.018 72.288ZM345.8 71.604C345.8 71.652 345.812 71.724 345.836 71.82C345.872 71.916 345.89 72 345.89 72.072C345.89 72.216 345.836 72.39 345.728 72.594H346.466C346.466 72.498 346.43 72.366 346.358 72.198C346.274 72.03 346.232 71.886 346.232 71.766C346.232 71.694 346.25 71.598 346.286 71.478C346.322 71.358 346.34 71.256 346.34 71.172V71.046C346.34 70.89 346.31 70.776 346.25 70.704C345.95 70.824 345.8 71.124 345.8 71.604ZM346.322 73.836C346.322 73.74 346.274 73.656 346.178 73.584C346.082 73.512 345.986 73.464 345.89 73.44H346.484C346.472 73.368 346.448 73.248 346.412 73.08C346.388 72.912 346.358 72.828 346.322 72.828H345.746C345.746 73.188 345.776 73.59 345.836 74.034C345.884 74.514 345.908 74.886 345.908 75.15H346.322V73.836ZM354.44 73.17L354.458 73.152L354.44 73.17ZM355.394 74.7C355.142 74.7 354.908 74.832 354.692 75.096C354.488 75.348 354.386 75.6 354.386 75.852C354.722 75.852 354.974 75.75 355.142 75.546C355.31 75.342 355.394 75.06 355.394 74.7ZM352.82 79.668C352.82 79.644 352.79 79.614 352.73 79.578C352.67 79.542 352.61 79.512 352.55 79.488C353.09 79.488 353.504 79.38 353.792 79.164C353.78 79.128 353.69 79.074 353.522 79.002C353.366 78.93 353.216 78.894 353.072 78.894C353 78.894 352.85 78.99 352.622 79.182C352.406 79.374 352.28 79.476 352.244 79.488C351.956 79.608 351.626 79.686 351.254 79.722C350.882 79.758 350.408 79.782 349.832 79.794L349.328 79.812C349.136 79.836 348.86 79.86 348.5 79.884C348.152 79.908 347.876 79.926 347.672 79.938C347.384 79.938 347.084 79.92 346.772 79.884C346.46 79.836 346.286 79.746 346.25 79.614L346.232 79.218C346.232 79.038 346.244 78.888 346.268 78.768C346.304 78.648 346.322 78.558 346.322 78.498C346.322 78.426 346.304 78.342 346.268 78.246C346.232 78.15 346.184 78.084 346.124 78.048C346.184 78.024 346.232 77.91 346.268 77.706C346.304 77.502 346.322 77.358 346.322 77.274C346.322 77.082 346.304 76.896 346.268 76.716C346.244 76.5 346.232 76.344 346.232 76.248C346.232 76.128 346.25 76.026 346.286 75.942C346.322 75.858 346.34 75.786 346.34 75.726C346.34 75.57 346.298 75.462 346.214 75.402C346.13 75.33 345.998 75.294 345.818 75.294C345.818 75.786 345.812 76.176 345.8 76.464C345.788 76.752 345.746 77.022 345.674 77.274L345.8 77.382V78.156C345.776 78.156 345.746 78.174 345.71 78.21C345.686 78.234 345.674 78.252 345.674 78.264C345.686 78.336 345.704 78.42 345.728 78.516C345.764 78.6 345.788 78.666 345.8 78.714C345.788 78.774 345.764 78.852 345.728 78.948C345.704 79.032 345.686 79.104 345.674 79.164C345.686 79.2 345.704 79.254 345.728 79.326C345.752 79.398 345.776 79.452 345.8 79.488C345.8 79.644 345.83 79.902 345.89 80.262C346.238 80.262 346.628 80.268 347.06 80.28C347.504 80.292 347.786 80.328 347.906 80.388C347.918 80.352 347.936 80.31 347.96 80.262C347.984 80.214 348.002 80.178 348.014 80.154C348.062 80.154 348.134 80.172 348.23 80.208C348.326 80.244 348.404 80.262 348.464 80.262C348.728 80.262 349.004 80.238 349.292 80.19C349.592 80.142 349.784 80.112 349.868 80.1C350.408 79.992 350.87 79.938 351.254 79.938H351.92C352.016 79.842 352.148 79.776 352.316 79.74C352.484 79.692 352.652 79.668 352.82 79.668ZM355.124 76.626C355.148 76.482 355.172 76.344 355.196 76.212C355.22 76.068 355.232 75.966 355.232 75.906C354.704 75.906 354.44 75.99 354.44 76.158C354.452 76.182 354.47 76.218 354.494 76.266C354.53 76.302 354.554 76.332 354.566 76.356C354.554 76.392 354.518 76.446 354.458 76.518C354.41 76.578 354.374 76.614 354.35 76.626L354.44 76.716C354.32 76.716 354.242 76.77 354.206 76.878C354.17 76.986 354.146 77.124 354.134 77.292C354.134 77.46 354.128 77.562 354.116 77.598C354.116 77.622 354.074 77.676 353.99 77.76C353.918 77.832 353.882 77.874 353.882 77.886C353.882 77.922 353.888 77.94 353.9 77.94L353.126 78.714C353.198 78.798 353.324 78.84 353.504 78.84C353.768 78.84 354.008 78.756 354.224 78.588C354.452 78.42 354.566 78.204 354.566 77.94C354.566 77.856 354.554 77.796 354.53 77.76C354.506 77.724 354.446 77.706 354.35 77.706C354.542 77.706 354.698 77.646 354.818 77.526C354.938 77.406 354.998 77.25 354.998 77.058C354.998 77.01 354.962 76.968 354.89 76.932C354.83 76.896 354.77 76.872 354.71 76.86C354.65 76.848 354.602 76.836 354.566 76.824C354.614 76.812 354.68 76.776 354.764 76.716C354.86 76.644 354.944 76.608 355.016 76.608C355.064 76.608 355.1 76.614 355.124 76.626ZM353.882 78.228C354.038 78.228 354.116 78.24 354.116 78.264C354.08 78.3 354.008 78.318 353.9 78.318C353.744 78.318 353.666 78.3 353.666 78.264C353.666 78.24 353.738 78.228 353.882 78.228Z" fill="white"/>
<path d="M114.022 335.11C114.022 322.374 113.359 312.955 112.032 306.852C110.971 300.749 108.848 296.637 105.664 294.514C102.48 292.126 97.5713 290.932 90.938 290.932V288.146C90.6727 288.677 90.0093 289.34 88.948 290.136C87.8867 290.667 86.958 290.932 86.162 290.932L84.172 288.146C83.1107 288.146 81.784 288.677 80.192 289.738C78.6 290.799 77.1407 291.33 75.814 291.33C72.0993 291.33 69.844 290.269 69.048 288.146C69.048 289.473 62.8127 290.799 50.342 292.126C38.1367 293.187 29.5133 293.718 24.472 293.718V290.932C24.2067 291.463 23.5433 291.993 22.482 292.524C21.686 293.055 20.89 293.32 20.094 293.32C19.8287 292.789 19.298 292.259 18.502 291.728C17.9713 291.197 17.4407 290.932 16.91 290.932C15.5833 290.932 14.3893 291.33 13.328 292.126C12.2667 292.657 11.2053 293.055 10.144 293.32V290.136C6.96 290.136 4.572 289.738 2.98 288.942C1.388 287.881 0.592 285.625 0.592 282.176C0.592 279.257 5.50067 272.359 15.318 261.48C21.9513 253.785 25.9313 248.744 27.258 246.356C29.1153 244.499 31.3707 241.315 34.024 236.804C35.0853 235.477 36.1467 234.018 37.208 232.426C38.5347 230.569 39.4633 229.507 39.994 229.242C43.7087 219.69 47.4233 211.465 51.138 204.566C55.118 197.402 59.894 189.707 65.466 181.482C72.8953 170.869 79.1307 160.653 84.172 150.836L84.57 148.448L84.172 146.06C88.948 132.263 94.52 119.394 100.888 107.454C107.521 95.514 112.961 89.544 117.206 89.544C119.859 89.544 122.38 89.942 124.768 90.738C127.421 91.534 129.146 92.0647 129.942 92.33C134.718 94.1873 138.831 95.116 142.28 95.116C142.28 96.4426 143.209 98.698 145.066 101.882C146.923 105.066 147.852 108.25 147.852 111.434C147.852 125.497 147.719 138.365 147.454 150.04C147.189 161.449 146.923 171.267 146.658 179.492C145.597 210.801 145.066 234.018 145.066 249.142L147.852 253.52H174.518C175.579 253.52 176.641 257.5 177.702 265.46C178.763 273.155 179.427 278.461 179.692 281.38C179.692 285.625 169.079 287.748 147.852 287.748V359.388H116.012L113.624 357.398L114.022 335.11ZM135.514 146.06V107.056C135.514 104.933 133.657 103.872 129.942 103.872C124.105 103.872 119.063 105.995 114.818 110.24C110.573 114.485 108.45 119.792 108.45 126.16C110.307 126.16 112.297 125.762 114.42 124.966C116.543 124.17 118.002 123.639 118.798 123.374C123.574 121.782 127.023 120.986 129.146 120.986L133.126 121.384C131.534 122.976 124.105 126.293 110.838 131.334L123.176 133.722L126.758 133.324C126.758 135.712 125.829 137.437 123.972 138.498C122.38 139.294 119.992 139.957 116.808 140.488C116.277 140.488 115.083 140.753 113.226 141.284C111.634 141.815 110.175 142.478 108.848 143.274C107.787 144.07 106.991 144.999 106.46 146.06L130.738 148.448L135.514 146.06ZM104.868 138.1C100.357 138.1 98.102 140.09 98.102 144.07C99.694 144.07 101.551 143.274 103.674 141.682C105.797 140.09 107.389 139.029 108.45 138.498L104.868 138.1ZM76.212 185.064C74.0893 185.064 72.63 185.595 71.834 186.656C71.3033 187.452 71.038 189.575 71.038 193.024C76.0793 193.024 80.192 191.697 83.376 189.044C86.8253 186.125 90.8053 181.482 95.316 175.114C99.296 169.542 102.878 165.164 106.062 161.98C109.511 158.796 113.491 156.806 118.002 156.01V153.224H96.51C94.918 153.224 93.1933 154.816 91.336 158C89.744 161.184 88.948 163.572 88.948 165.164C88.948 166.756 89.6113 167.552 90.938 167.552L86.162 173.124L84.172 170.338C83.1107 173.522 81.386 176.043 78.998 177.9C80.59 178.431 81.386 179.227 81.386 180.288C81.386 180.553 81.2533 181.084 80.988 181.88C80.7227 182.676 80.59 183.737 80.59 185.064H76.212ZM118.002 177.9C119.594 179.492 122.247 180.288 125.962 180.288C130.473 180.288 133.259 179.492 134.32 177.9C135.647 176.308 136.31 173.655 136.31 169.94C136.31 168.083 136.177 166.093 135.912 163.97C135.647 161.582 135.514 159.592 135.514 158L133.126 156.01L120.39 160.786C120.655 162.909 122.911 163.97 127.156 163.97C128.483 163.97 129.677 163.837 130.738 163.572C132.065 163.307 132.861 163.174 133.126 163.174C132.861 165.297 131.932 167.154 130.34 168.746C129.013 170.073 126.891 171.665 123.972 173.522C121.053 175.114 119.063 176.573 118.002 177.9ZM110.042 167.552C110.042 173.124 111.501 175.91 114.42 175.91C114.951 175.91 116.012 174.981 117.604 173.124C119.461 171.267 120.39 169.409 120.39 167.552H110.042ZM117.206 190.636C123.574 190.636 126.758 189.044 126.758 185.86L125.962 185.462L116.012 183.074L113.624 190.238L117.206 190.636ZM66.66 243.968C73.824 249.275 83.376 251.928 95.316 251.928C100.888 251.928 104.205 249.54 105.266 244.764C106.327 239.988 106.858 232.691 106.858 222.874C106.858 215.179 106.46 208.546 105.664 202.974C104.868 197.402 103.276 192.228 100.888 187.452C99.5613 188.248 93.1933 198.463 81.784 218.098C74.8853 230.834 69.844 239.457 66.66 243.968ZM117.604 197.402C117.604 200.055 119.329 201.913 122.778 202.974C126.227 204.035 129.677 204.566 133.126 204.566V189.84C131.003 189.84 127.819 190.769 123.574 192.626C119.594 194.483 117.604 196.075 117.604 197.402ZM67.058 208.944C67.058 209.475 65.9967 210.138 63.874 210.934C62.0167 211.73 60.5573 212.128 59.496 212.128L63.078 212.526C68.1193 212.526 72.8953 210.536 77.406 206.556C81.9167 202.311 84.172 197.667 84.172 192.626C83.1107 193.157 79.9267 194.483 74.62 196.606C69.5787 198.729 66.1293 201.382 64.272 204.566C65.068 204.566 65.7313 205.097 66.262 206.158C66.7927 207.219 67.058 208.148 67.058 208.944ZM115.614 214.914C115.614 218.363 117.206 220.088 120.39 220.088C122.778 220.088 125.431 219.027 128.35 216.904C131.534 214.781 133.126 212.659 133.126 210.536C133.126 208.148 129.809 206.954 123.176 206.954C120.257 206.954 118.267 207.617 117.206 208.944C116.145 210.005 115.614 211.995 115.614 214.914ZM71.834 214.914C67.854 215.445 64.67 216.373 62.282 217.7C59.894 218.761 58.7 220.751 58.7 223.67C61.6187 223.67 64.5373 223.007 67.456 221.68C70.3747 220.353 71.834 218.098 71.834 214.914ZM125.962 232.426C123.043 232.426 120.523 233.089 118.4 234.416C116.543 235.743 115.614 237.733 115.614 240.386C115.614 241.713 116.941 242.376 119.594 242.376C125.166 242.376 129.279 239.855 131.932 234.814C134.851 229.773 136.31 224.333 136.31 218.496C133.391 218.496 129.942 219.557 125.962 221.68C122.247 223.537 120.39 225.66 120.39 228.048C120.39 228.579 121.053 229.507 122.38 230.834C123.707 231.895 124.901 232.426 125.962 232.426ZM61.486 226.058C58.0367 226.058 55.3833 226.589 53.526 227.65C51.934 228.711 50.6073 230.834 49.546 234.018C50.8727 233.753 53.128 233.089 56.312 232.028C59.7613 230.967 61.486 230.038 61.486 229.242V226.058ZM55.118 239.192C47.158 239.192 43.178 241.049 43.178 244.764C51.138 244.764 55.118 242.907 55.118 239.192ZM133.126 243.57C131.269 243.57 129.411 244.101 127.554 245.162C125.697 246.223 124.237 247.55 123.176 249.142H133.126V243.57ZM50.342 251.132C44.5047 251.132 40.79 251.663 39.198 252.724C37.606 253.52 35.218 256.439 32.034 261.48C36.014 261.48 39.994 260.684 43.974 259.092C48.2193 257.5 50.342 254.847 50.342 251.132ZM116.012 256.704C115.481 259.888 113.889 262.011 111.236 263.072C108.848 263.868 105.531 264.266 101.286 264.266C97.306 264.266 94.122 264.797 91.734 265.858C89.6113 266.654 88.55 268.511 88.55 271.43C93.5913 271.43 100.755 269.971 110.042 267.052C119.329 264.133 125.166 260.684 127.554 256.704H116.012ZM130.738 261.48C128.881 261.48 123.176 264.664 113.624 271.032L118.002 271.43C123.574 271.43 129.411 269.705 135.514 266.256C135.514 265.46 134.851 264.531 133.524 263.47C132.463 262.143 131.534 261.48 130.738 261.48ZM37.606 268.644C33.626 268.644 29.1153 269.971 24.074 272.624C19.298 275.012 16.91 278.063 16.91 281.778C18.2367 281.778 21.0227 281.778 25.268 281.778C29.7787 281.778 33.4933 281.247 36.412 280.186C39.596 278.859 42.2493 276.737 44.372 273.818C43.576 274.879 43.178 275.808 43.178 276.604C43.178 279.523 47.556 280.982 56.312 280.982C61.6187 280.982 65.466 280.717 67.854 280.186C70.5073 279.39 72.7627 278.196 74.62 276.604C76.4773 274.747 79.6613 271.297 84.172 266.256C81.784 266.256 76.8753 267.848 69.446 271.032C62.0167 274.216 57.904 275.941 57.108 276.206L54.72 275.808C55.516 275.012 56.9753 273.951 59.098 272.624C61.2207 271.032 63.078 269.573 64.67 268.246C66.5273 266.654 67.456 265.062 67.456 263.47C63.476 263.47 59.7613 264.133 56.312 265.46C53.128 266.521 49.2807 268.113 44.77 270.236L37.208 273.818H34.82C36.6773 272.226 37.606 270.501 37.606 268.644ZM156.21 266.256C154.618 266.521 152.23 267.317 149.046 268.644C146.127 269.705 144.137 270.501 143.076 271.032V273.818H166.558C166.558 268.777 163.109 266.256 156.21 266.256ZM86.162 278.594C89.0807 279.39 93.326 280.053 98.898 280.584C104.735 280.849 108.715 280.982 110.838 280.982V278.594C108.45 278.063 105.929 277.267 103.276 276.206C100.888 275.145 99.296 274.349 98.5 273.818C97.704 273.818 95.8467 274.349 92.928 275.41C90.2747 276.471 88.0193 277.533 86.162 278.594ZM125.962 280.982C124.37 280.982 122.911 281.115 121.584 281.38C120.523 281.645 119.329 282.309 118.002 283.37L120.39 283.768C123.309 283.768 125.697 282.839 127.554 280.982H125.962ZM130.738 285.758C128.881 285.758 127.156 286.156 125.564 286.952C124.237 287.748 122.513 289.075 120.39 290.932L125.166 291.33C130.473 291.33 133.126 290.136 133.126 287.748C133.126 286.421 132.33 285.758 130.738 285.758ZM118.002 300.484C118.533 301.811 119.196 302.607 119.992 302.872C120.788 303.137 121.849 303.27 123.176 303.27C125.564 303.27 127.687 302.607 129.544 301.28C131.401 299.953 132.33 297.963 132.33 295.31C124.635 295.31 119.859 297.035 118.002 300.484ZM133.126 305.26C130.473 305.26 128.217 306.056 126.36 307.648C124.768 308.975 123.707 310.699 123.176 312.822H133.126V305.26ZM123.176 335.508C123.176 343.733 125.697 347.846 130.738 347.846C135.514 347.846 137.902 346.387 137.902 343.468C137.902 341.876 137.371 340.815 136.31 340.284C135.514 339.753 133.789 339.355 131.136 339.09C128.748 338.559 127.554 337.365 127.554 335.508C127.554 333.385 128.615 330.732 130.738 327.548C131.003 327.017 131.534 326.089 132.33 324.762C133.126 323.17 133.524 321.578 133.524 319.986H125.962C125.431 319.986 124.768 321.976 123.972 325.956C123.441 329.936 123.176 333.12 123.176 335.508Z" fill="white"/>
<path d="M618.022 335.11C618.022 322.374 617.359 312.955 616.032 306.852C614.971 300.749 612.848 296.637 609.664 294.514C606.48 292.126 601.571 290.932 594.938 290.932V288.146C594.673 288.677 594.009 289.34 592.948 290.136C591.887 290.667 590.958 290.932 590.162 290.932L588.172 288.146C587.111 288.146 585.784 288.677 584.192 289.738C582.6 290.799 581.141 291.33 579.814 291.33C576.099 291.33 573.844 290.269 573.048 288.146C573.048 289.473 566.813 290.799 554.342 292.126C542.137 293.187 533.513 293.718 528.472 293.718V290.932C528.207 291.463 527.543 291.993 526.482 292.524C525.686 293.055 524.89 293.32 524.094 293.32C523.829 292.789 523.298 292.259 522.502 291.728C521.971 291.197 521.441 290.932 520.91 290.932C519.583 290.932 518.389 291.33 517.328 292.126C516.267 292.657 515.205 293.055 514.144 293.32V290.136C510.96 290.136 508.572 289.738 506.98 288.942C505.388 287.881 504.592 285.625 504.592 282.176C504.592 279.257 509.501 272.359 519.318 261.48C525.951 253.785 529.931 248.744 531.258 246.356C533.115 244.499 535.371 241.315 538.024 236.804C539.085 235.477 540.147 234.018 541.208 232.426C542.535 230.569 543.463 229.507 543.994 229.242C547.709 219.69 551.423 211.465 555.138 204.566C559.118 197.402 563.894 189.707 569.466 181.482C576.895 170.869 583.131 160.653 588.172 150.836L588.57 148.448L588.172 146.06C592.948 132.263 598.52 119.394 604.888 107.454C611.521 95.514 616.961 89.544 621.206 89.544C623.859 89.544 626.38 89.942 628.768 90.738C631.421 91.534 633.146 92.0647 633.942 92.33C638.718 94.1873 642.831 95.116 646.28 95.116C646.28 96.4426 647.209 98.698 649.066 101.882C650.923 105.066 651.852 108.25 651.852 111.434C651.852 125.497 651.719 138.365 651.454 150.04C651.189 161.449 650.923 171.267 650.658 179.492C649.597 210.801 649.066 234.018 649.066 249.142L651.852 253.52H678.518C679.579 253.52 680.641 257.5 681.702 265.46C682.763 273.155 683.427 278.461 683.692 281.38C683.692 285.625 673.079 287.748 651.852 287.748V359.388H620.012L617.624 357.398L618.022 335.11ZM639.514 146.06V107.056C639.514 104.933 637.657 103.872 633.942 103.872C628.105 103.872 623.063 105.995 618.818 110.24C614.573 114.485 612.45 119.792 612.45 126.16C614.307 126.16 616.297 125.762 618.42 124.966C620.543 124.17 622.002 123.639 622.798 123.374C627.574 121.782 631.023 120.986 633.146 120.986L637.126 121.384C635.534 122.976 628.105 126.293 614.838 131.334L627.176 133.722L630.758 133.324C630.758 135.712 629.829 137.437 627.972 138.498C626.38 139.294 623.992 139.957 620.808 140.488C620.277 140.488 619.083 140.753 617.226 141.284C615.634 141.815 614.175 142.478 612.848 143.274C611.787 144.07 610.991 144.999 610.46 146.06L634.738 148.448L639.514 146.06ZM608.868 138.1C604.357 138.1 602.102 140.09 602.102 144.07C603.694 144.07 605.551 143.274 607.674 141.682C609.797 140.09 611.389 139.029 612.45 138.498L608.868 138.1ZM580.212 185.064C578.089 185.064 576.63 185.595 575.834 186.656C575.303 187.452 575.038 189.575 575.038 193.024C580.079 193.024 584.192 191.697 587.376 189.044C590.825 186.125 594.805 181.482 599.316 175.114C603.296 169.542 606.878 165.164 610.062 161.98C613.511 158.796 617.491 156.806 622.002 156.01V153.224H600.51C598.918 153.224 597.193 154.816 595.336 158C593.744 161.184 592.948 163.572 592.948 165.164C592.948 166.756 593.611 167.552 594.938 167.552L590.162 173.124L588.172 170.338C587.111 173.522 585.386 176.043 582.998 177.9C584.59 178.431 585.386 179.227 585.386 180.288C585.386 180.553 585.253 181.084 584.988 181.88C584.723 182.676 584.59 183.737 584.59 185.064H580.212ZM622.002 177.9C623.594 179.492 626.247 180.288 629.962 180.288C634.473 180.288 637.259 179.492 638.32 177.9C639.647 176.308 640.31 173.655 640.31 169.94C640.31 168.083 640.177 166.093 639.912 163.97C639.647 161.582 639.514 159.592 639.514 158L637.126 156.01L624.39 160.786C624.655 162.909 626.911 163.97 631.156 163.97C632.483 163.97 633.677 163.837 634.738 163.572C636.065 163.307 636.861 163.174 637.126 163.174C636.861 165.297 635.932 167.154 634.34 168.746C633.013 170.073 630.891 171.665 627.972 173.522C625.053 175.114 623.063 176.573 622.002 177.9ZM614.042 167.552C614.042 173.124 615.501 175.91 618.42 175.91C618.951 175.91 620.012 174.981 621.604 173.124C623.461 171.267 624.39 169.409 624.39 167.552H614.042ZM621.206 190.636C627.574 190.636 630.758 189.044 630.758 185.86L629.962 185.462L620.012 183.074L617.624 190.238L621.206 190.636ZM570.66 243.968C577.824 249.275 587.376 251.928 599.316 251.928C604.888 251.928 608.205 249.54 609.266 244.764C610.327 239.988 610.858 232.691 610.858 222.874C610.858 215.179 610.46 208.546 609.664 202.974C608.868 197.402 607.276 192.228 604.888 187.452C603.561 188.248 597.193 198.463 585.784 218.098C578.885 230.834 573.844 239.457 570.66 243.968ZM621.604 197.402C621.604 200.055 623.329 201.913 626.778 202.974C630.227 204.035 633.677 204.566 637.126 204.566V189.84C635.003 189.84 631.819 190.769 627.574 192.626C623.594 194.483 621.604 196.075 621.604 197.402ZM571.058 208.944C571.058 209.475 569.997 210.138 567.874 210.934C566.017 211.73 564.557 212.128 563.496 212.128L567.078 212.526C572.119 212.526 576.895 210.536 581.406 206.556C585.917 202.311 588.172 197.667 588.172 192.626C587.111 193.157 583.927 194.483 578.62 196.606C573.579 198.729 570.129 201.382 568.272 204.566C569.068 204.566 569.731 205.097 570.262 206.158C570.793 207.219 571.058 208.148 571.058 208.944ZM619.614 214.914C619.614 218.363 621.206 220.088 624.39 220.088C626.778 220.088 629.431 219.027 632.35 216.904C635.534 214.781 637.126 212.659 637.126 210.536C637.126 208.148 633.809 206.954 627.176 206.954C624.257 206.954 622.267 207.617 621.206 208.944C620.145 210.005 619.614 211.995 619.614 214.914ZM575.834 214.914C571.854 215.445 568.67 216.373 566.282 217.7C563.894 218.761 562.7 220.751 562.7 223.67C565.619 223.67 568.537 223.007 571.456 221.68C574.375 220.353 575.834 218.098 575.834 214.914ZM629.962 232.426C627.043 232.426 624.523 233.089 622.4 234.416C620.543 235.743 619.614 237.733 619.614 240.386C619.614 241.713 620.941 242.376 623.594 242.376C629.166 242.376 633.279 239.855 635.932 234.814C638.851 229.773 640.31 224.333 640.31 218.496C637.391 218.496 633.942 219.557 629.962 221.68C626.247 223.537 624.39 225.66 624.39 228.048C624.39 228.579 625.053 229.507 626.38 230.834C627.707 231.895 628.901 232.426 629.962 232.426ZM565.486 226.058C562.037 226.058 559.383 226.589 557.526 227.65C555.934 228.711 554.607 230.834 553.546 234.018C554.873 233.753 557.128 233.089 560.312 232.028C563.761 230.967 565.486 230.038 565.486 229.242V226.058ZM559.118 239.192C551.158 239.192 547.178 241.049 547.178 244.764C555.138 244.764 559.118 242.907 559.118 239.192ZM637.126 243.57C635.269 243.57 633.411 244.101 631.554 245.162C629.697 246.223 628.237 247.55 627.176 249.142H637.126V243.57ZM554.342 251.132C548.505 251.132 544.79 251.663 543.198 252.724C541.606 253.52 539.218 256.439 536.034 261.48C540.014 261.48 543.994 260.684 547.974 259.092C552.219 257.5 554.342 254.847 554.342 251.132ZM620.012 256.704C619.481 259.888 617.889 262.011 615.236 263.072C612.848 263.868 609.531 264.266 605.286 264.266C601.306 264.266 598.122 264.797 595.734 265.858C593.611 266.654 592.55 268.511 592.55 271.43C597.591 271.43 604.755 269.971 614.042 267.052C623.329 264.133 629.166 260.684 631.554 256.704H620.012ZM634.738 261.48C632.881 261.48 627.176 264.664 617.624 271.032L622.002 271.43C627.574 271.43 633.411 269.705 639.514 266.256C639.514 265.46 638.851 264.531 637.524 263.47C636.463 262.143 635.534 261.48 634.738 261.48ZM541.606 268.644C537.626 268.644 533.115 269.971 528.074 272.624C523.298 275.012 520.91 278.063 520.91 281.778C522.237 281.778 525.023 281.778 529.268 281.778C533.779 281.778 537.493 281.247 540.412 280.186C543.596 278.859 546.249 276.737 548.372 273.818C547.576 274.879 547.178 275.808 547.178 276.604C547.178 279.523 551.556 280.982 560.312 280.982C565.619 280.982 569.466 280.717 571.854 280.186C574.507 279.39 576.763 278.196 578.62 276.604C580.477 274.747 583.661 271.297 588.172 266.256C585.784 266.256 580.875 267.848 573.446 271.032C566.017 274.216 561.904 275.941 561.108 276.206L558.72 275.808C559.516 275.012 560.975 273.951 563.098 272.624C565.221 271.032 567.078 269.573 568.67 268.246C570.527 266.654 571.456 265.062 571.456 263.47C567.476 263.47 563.761 264.133 560.312 265.46C557.128 266.521 553.281 268.113 548.77 270.236L541.208 273.818H538.82C540.677 272.226 541.606 270.501 541.606 268.644ZM660.21 266.256C658.618 266.521 656.23 267.317 653.046 268.644C650.127 269.705 648.137 270.501 647.076 271.032V273.818H670.558C670.558 268.777 667.109 266.256 660.21 266.256ZM590.162 278.594C593.081 279.39 597.326 280.053 602.898 280.584C608.735 280.849 612.715 280.982 614.838 280.982V278.594C612.45 278.063 609.929 277.267 607.276 276.206C604.888 275.145 603.296 274.349 602.5 273.818C601.704 273.818 599.847 274.349 596.928 275.41C594.275 276.471 592.019 277.533 590.162 278.594ZM629.962 280.982C628.37 280.982 626.911 281.115 625.584 281.38C624.523 281.645 623.329 282.309 622.002 283.37L624.39 283.768C627.309 283.768 629.697 282.839 631.554 280.982H629.962ZM634.738 285.758C632.881 285.758 631.156 286.156 629.564 286.952C628.237 287.748 626.513 289.075 624.39 290.932L629.166 291.33C634.473 291.33 637.126 290.136 637.126 287.748C637.126 286.421 636.33 285.758 634.738 285.758ZM622.002 300.484C622.533 301.811 623.196 302.607 623.992 302.872C624.788 303.137 625.849 303.27 627.176 303.27C629.564 303.27 631.687 302.607 633.544 301.28C635.401 299.953 636.33 297.963 636.33 295.31C628.635 295.31 623.859 297.035 622.002 300.484ZM637.126 305.26C634.473 305.26 632.217 306.056 630.36 307.648C628.768 308.975 627.707 310.699 627.176 312.822H637.126V305.26ZM627.176 335.508C627.176 343.733 629.697 347.846 634.738 347.846C639.514 347.846 641.902 346.387 641.902 343.468C641.902 341.876 641.371 340.815 640.31 340.284C639.514 339.753 637.789 339.355 635.136 339.09C632.748 338.559 631.554 337.365 631.554 335.508C631.554 333.385 632.615 330.732 634.738 327.548C635.003 327.017 635.534 326.089 636.33 324.762C637.126 323.17 637.524 321.578 637.524 319.986H629.962C629.431 319.986 628.768 321.976 627.972 325.956C627.441 329.936 627.176 333.12 627.176 335.508Z" fill="white"/>
</svg>
