<svg width="856" height="699" viewBox="0 0 856 699" fill="none" xmlns="http://www.w3.org/2000/svg">
<path d="M16.3 661.8L0.800049 698.2L330.8 682.9L16.3 661.8Z" fill="#FFB300"/>
<path d="M194.8 36.7C194.8 31.2 187.9 35.1 187.9 35.1C187.9 35.1 189.3 23.7 190.3 15C191.3 6.3 176.3 0 165.8 0C155.3 0 140.3 6.3 141.3 15C142.3 23.7 143.7 35.1 143.7 35.1C143.7 35.1 136.8 31.2 136.8 36.7C136.8 42.2 137 48.3 144.9 51.5C146.3 57.2 141.5 80.3 141.5 80.3H165.8H190.1C190.1 80.3 185.2 57.2 186.7 51.5C194.6 48.3 194.8 42.2 194.8 36.7Z" fill="#FFB300"/>
<path d="M278.9 339.7C278.9 330.5 271.1 311.3 263.8 299.2C256.5 287 250 266.4 257.3 243.3C250 236 243.1 222.6 243.1 222.6C243.1 222.6 227.7 244.1 212.7 254.6C212.7 268 209.1 296.8 220 311.8C230.9 326.8 249.5 349.2 248.4 438.4C251.6 454.1 274.3 454.9 282 491.4C286.1 516.1 280.4 538.4 280.4 572.9C280.4 607.4 278.4 611.4 291.3 624.8C298.2 632.1 303.5 634.9 303.5 643.9H294.8C278.4 643.9 250.8 643.9 250.8 643.9C250.8 643.9 255.3 618.4 255.3 594.4C255.3 570.4 243.5 542.5 230.2 526.3C216.8 510.1 220.9 483.3 216.8 476C212.7 468.7 212.3 458.2 205.4 447.6C198.5 437 186.8 422.1 181.9 403.4C177 384.8 165.9 362.7 165.9 362.7C165.9 362.7 154.7 384.7 149.9 403.4C145 422 133.3 437 126.4 447.6C119.5 458.2 119.1 468.7 115 476C110.9 483.3 115 510.1 101.6 526.3C88.2001 542.5 76.5001 570.5 76.5001 594.4C76.5001 618.3 81.0001 643.9 81.0001 643.9C81.0001 643.9 49.8001 643.9 34.0001 643.9H28.3001C28.3001 635 33.6001 632.1 40.5001 624.8C53.5001 611.4 51.4001 607.4 51.4001 572.9C51.4001 538.4 45.7001 516.1 49.8001 491.4C57.5001 454.9 80.2001 454.1 83.4001 438.4C82.3001 349.2 100.8 326.8 111.8 311.8C122.7 296.8 119.1 268 119.1 254.6C104.6 244.4 89.7001 223.9 88.7001 222.6V222.5C88.7001 222.5 81.8001 235.9 74.5001 243.2C81.8001 266.3 75.3001 287 68.0001 299.1C60.7001 311.3 52.9001 330.4 52.9001 339.6C62.9001 339.5 70.9001 347.8 70.9001 347.8V357L74.5001 358.2V369.5C74.5001 369.5 72.2001 372.7 68.3001 376.6C64.0001 380.9 57.7001 385.9 50.6001 387.8C40.9001 387 27.9001 369.2 28.3001 338.8C28.7001 308.4 19.0001 302.3 19.0001 276.8C19.0001 251.3 34.8001 233 32.8001 224.5C30.8001 216 25.9001 197.3 37.3001 171.8C35.3001 127.6 51.5001 108.6 74.6001 112L166 111.6L235.1 127.6C258.2 124.1 296.7 127.6 294.7 171.8C306.1 197.3 301.2 216 299.2 224.5C297.2 233 313 251.3 313 276.8C313 302.3 303.3 308.4 303.7 338.8C304.1 369.2 291.1 387 281.4 387.8C268 384.2 257.5 369.6 257.5 369.6V358.3L261.1 357.1V348C260.9 348 268.9 339.6 278.9 339.7Z" fill="#424242"/>
<path d="M194.8 36.7C194.8 31.2 187.9 35.1001 187.9 35.1001C187.9 35.1001 189.3 23.7 190.3 15C191 8.60005 183 3.40005 174.5 1.20005C163.1 0.500045 152.4 2.90005 148.1 13C144.9 21.1 149.7 29.2001 151.3 37.3001C152.9 43.8001 144.8 40.5 144.8 40.5C149.7 53.5 146.4 64.8001 149.7 76.2001C150.4 78.2001 152.4 79.3 154.9 80.3H165.7H190C190 80.3 185.1 57.2 186.6 51.5C194.6 48.3 194.8 42.2 194.8 36.7Z" fill="#424242"/>
<path d="M835.4 232.7C815.4 233.2 802.2 227 791.4 224.1C781.2 221.3 762.1 220.2 750.5 227.4C749.9 227.8 749.2 228.2 748.7 228.7C746.2 230.6 743.6 232.7 741.1 234.8C737.3 238 733.6 241.2 730.7 243.9C727 247.2 724.4 249.7 724.1 250C724.1 250 739 256.2 752.2 266.2C730.1 257.8 702.1 266.5 681.3 279.8C670.6 286.6 661.8 294.6 656.6 302.1C654.4 305.2 652.5 308.9 650.7 312.9C640.4 336.3 636.1 370.1 622.7 363.8C622.7 363.8 622.6 363.8 622.5 363.7C622.2 363.5 621.9 363.3 621.6 363.2C621.5 363.1 621.3 363 621.2 362.9C604.9 352 639.1 319.6 620.2 315.9C620.2 315.9 620 315.9 619.6 315.8C618.9 315.7 618.2 315.6 617.4 315.6C601.1 314.9 591.8 327.9 581.6 347.9C576.8 357.3 571.9 368.2 565.9 380.1C565.2 381.6 564.4 383 563.6 384.5C543.3 423.7 526.6 439.6 515.5 436.9C513.5 436.4 512.1 435.6 511.3 434.4C507.8 429.4 515.5 419.1 523.9 413.1C534.2 405.8 544.7 401.7 540.9 390.4C540.5 389.1 539.8 388.1 538.9 387.3C532.1 381.4 513.3 390.5 504.7 401.5C500.9 406.4 497.6 410.9 493.3 414.6C486.6 420.4 477.3 424.2 459.3 424.2C429.6 424.2 419.3 437.4 419.3 437.4C398.5 453.3 380.4 473.9 381.4 484.7C381.7 485.5 381.9 486.2 382.1 486.7C382.2 486.9 382.2 487 382.3 487.2C382.4 487.6 382.5 487.9 382.6 488C383.9 489.9 386.2 491.2 389.9 491.7C411.5 495 436.8 479.2 439.7 491.7C439.6 496.5 436.8 500.3 428.5 506.3C413.7 515.2 391.3 522.7 372.9 534.1C356.6 544.2 343.6 557.3 341.8 577.1C337.5 517.6 322.9 424.2 304 385.2C285.1 346.2 239.1 299.3 222.4 282C205.6 264.7 157.5 225.2 140.8 190.1C124.1 155 103.6 126.3 74.6001 111.9C75.6001 104.4 86.1001 95.1 96.7001 102.2C97.1001 95.5 107.2 85.2 118 88.2C120 80.9 130.2 75 137.1 77.9C143.8 73.7 154.5 71 166.1 71C191 71 211.1 75.1 223.2 86.6C234.4 86 235.4 90.1 248.4 102.5C368.7 156.2 359 204.9 433.1 204.9C548.8 204.9 635.5 155.7 675.5 155.7C715.5 155.7 740.4 164.9 755.5 178.7C770.6 192.4 802.7 218.1 835.4 232.7Z" fill="#F55800"/>
<path d="M127.4 253.5C127.4 253.5 132.3 290 120.6 308.1C109 326.2 88.2001 378.1 88.7001 429.2C95.7001 426.8 105.7 426.2 105.7 426.2C94.3001 430 86.5001 447.3 76.3001 455.1C66.0001 462.9 52.5001 488.6 54.1001 518.9C55.7001 549.2 64.9001 609.2 43.8001 627.8C37.7001 633.2 34.8001 638.7 33.8001 643.7H28.1001C28.1001 634.8 33.4001 631.9 40.3001 624.6C53.3001 611.2 51.2001 607.2 51.2001 572.7C51.2001 538.2 45.5001 515.9 49.6001 491.2C57.3001 454.7 80.0001 453.9 83.2001 438.2C82.1001 349 100.6 326.6 111.6 311.6C122.5 296.6 118.9 267.8 118.9 254.4C104.4 244.2 89.5001 223.7 88.5001 222.4C89.7001 223.6 116.2 250.5 142.4 249.3C133.4 254.9 127.4 253.5 127.4 253.5Z" fill="#FFB300"/>
<path d="M250.8 643.7C250.8 643.7 255.3 618.2 255.3 594.2C255.3 570.2 243.5 542.3 230.2 526.1C216.8 509.9 220.9 483.1 216.8 475.8C212.7 468.5 212.3 458 205.4 447.4C198.5 436.8 186.8 421.9 181.9 403.2C177 384.6 165.9 362.5 165.9 362.5C165.9 362.5 186.6 379.4 189.6 403.6C192.6 427.8 213.5 441.7 218 459.5C221.9 452.4 229.7 449.2 230.1 449C223.2 456.3 226.9 494.4 231.3 510.2C235.8 526 262.1 547.5 260.9 584C259.7 620.5 258.9 633.5 258.9 633.5L294.8 643.6C278.4 643.7 250.8 643.7 250.8 643.7Z" fill="#FFB300"/>
<path d="M382.5 488.1C381.8 487.1 381.5 486 381.3 484.8C382.1 487 382.5 488.1 382.5 488.1Z" fill="#A13900"/>
<path d="M523.9 413.2C515.5 419.2 507.8 429.4 511.3 434.5C507.4 430 498.5 420.3 493.3 414.7C497.6 411 500.9 406.5 504.7 401.6C514.4 389.2 537.1 379.2 540.9 390.5C544.7 401.9 534.1 405.9 523.9 413.2Z" fill="#A13900"/>
<path d="M621.1 363C621.2 363.1 621.4 363.2 621.5 363.3C610.2 357 592.8 351.4 581.5 348.1C591.7 328 601 315.1 617.3 315.8C642.2 316.7 604.1 351.6 621.1 363Z" fill="#A13900"/>
<path d="M743.3 298.8C725.7 297.4 707.4 287 681.3 279.8C702.1 266.5 730.1 257.8 752.2 266.2C771.3 279.3 768.8 300.8 743.3 298.8Z" fill="#A13900"/>
<path d="M856 271.6C856 271.6 792.3 251.4 730.7 243.9C733.6 241.2 737.3 237.9 741.1 234.8C743.6 232.7 746.2 230.6 748.7 228.7C760.1 220.1 780.6 221.1 791.4 224.1C802.2 227.1 815.4 233.3 835.4 232.7C835.2 246.6 842.3 256.4 856 271.6Z" fill="#A13900"/>
<path d="M439.6 491.9C436.7 479.4 411.4 495.2 389.8 491.9C386.2 491.3 383.8 490.1 382.5 488.2C382.5 488.1 382.4 487.8 382.2 487.4C382.2 487.3 382.1 487.1 382 486.9C381.8 486.4 381.6 485.7 381.3 484.9C380.3 474.1 398.5 453.6 419.2 437.6C419.2 437.6 429.4 460.5 435 475C436.6 479.1 437.9 482.6 438.4 484.6C439.2 487.4 439.7 489.7 439.6 491.9Z" fill="#A13900"/>
<path d="M480.1 554C443.9 547.5 420.6 562.6 395.2 578.9C369.8 595.1 344.4 596.7 341.7 577.3C343.5 557.5 356.6 544.4 372.8 534.3C391.2 522.9 413.6 515.4 428.4 506.5C428.4 506.5 433.7 508.1 441.1 512.3C441.5 512.5 441.8 512.7 442.2 512.9C442.6 513.1 442.9 513.3 443.3 513.6C443.7 513.8 444.2 514.1 444.6 514.4C445.2 514.8 445.9 515.2 446.5 515.6C447.2 516 447.8 516.5 448.5 517C449.1 517.5 449.8 517.9 450.5 518.4C450.9 518.7 451.2 519 451.6 519.2C452.3 519.7 453 520.3 453.7 520.8C454.4 521.4 455.1 522 455.8 522.6C456.5 523.2 457.2 523.8 457.9 524.5C458.3 524.8 458.6 525.1 459 525.5C459.7 526.2 460.4 526.9 461.1 527.6L462.2 528.7C462.9 529.4 463.6 530.2 464.3 531C467.1 534.1 469.9 537.6 472.6 541.4C472.9 541.9 473.3 542.4 473.6 542.9C476 546.2 478.1 549.9 480.1 554Z" fill="#A13900"/>
<path d="M439.6 491.9C439.5 496.7 436.7 500.5 428.4 506.5C413.6 515.4 391.2 522.9 372.8 534.3C362 476.8 324.3 342.4 285.2 311.4C242.2 277.3 178.2 228.7 169.9 206.8C161.6 184.9 144.2 148.4 96.5001 102.4C97.6001 103 134 121.3 160.6 169.8C187.6 219 180.6 215.7 251.4 270.9C322.2 326 324.9 331.2 345.4 385.6C362.7 431.6 377.2 473.1 381.3 484.8C381.6 485.6 381.8 486.3 382 486.8C382.1 487 382.1 487.1 382.2 487.3C382.3 487.7 382.4 488 382.5 488.1C383.8 490 386.1 491.3 389.8 491.8C411.4 495.1 436.8 479.4 439.6 491.9Z" fill="#CC4E07"/>
<path d="M68.2001 376.8C63.9001 381.1 57.6002 386.1 50.5002 388C40.8002 387.2 27.8001 369.4 28.2001 339C28.6001 308.6 18.9001 302.5 18.9001 277C18.9001 251.5 34.7001 233.2 32.7001 224.7C30.7001 216.2 25.8001 197.5 37.2001 172C35.2001 127.8 51.4002 108.8 74.5001 112.2C74.5001 112.2 54.2001 116.3 46.7001 137.4C39.1001 158.5 43.5002 169.6 43.5002 169.6C54.0002 166.1 63.0001 169.6 63.0001 169.6C47.3002 172.6 35.2002 195.5 37.6002 218C51.1002 214.5 58.4001 215.8 58.4001 215.8C42.7001 222 39.6002 226.5 39.6002 226.5C44.5002 225.7 49.5002 227.9 49.5002 227.9C41.2002 229.7 28.0002 247.4 24.8002 272.3C21.5002 297.2 29.9002 299.2 32.3002 319.5C34.7002 339.8 36.5002 343.6 36.5002 343.6C41.4002 339.3 49.3002 339.9 49.3002 339.9C41.8002 344.6 38.9001 365 46.2001 373.4C50.9001 378.8 60.3001 379.8 68.2001 376.8Z" fill="#FFB300"/>
<path d="M565.8 380.2C565.1 381.7 564.3 383.1 563.5 384.6C543.2 423.8 526.5 439.7 515.4 437C513.4 436.5 512 435.7 511.2 434.5C507.7 429.5 515.4 419.2 523.8 413.2C534.1 405.9 544.6 401.8 540.8 390.5C540.4 389.2 539.7 388.2 538.8 387.4C513.6 354.9 342.7 284.8 289.2 235.7C235.7 186.5 181.4 124.4 117.7 88.3999C186 118.9 256 193.8 292.5 229.2C324.4 260 493.3 328.7 565.8 380.2Z" fill="#CC4E07"/>
<path d="M650.7 312.9C640.4 336.3 636.1 370.1 622.7 363.8C622.7 363.8 622.6 363.8 622.5 363.7C622.2 363.5 621.9 363.3 621.6 363.2C621.5 363.1 621.3 363 621.2 362.9C604.9 352 639.1 319.6 620.2 315.9C620.2 315.9 620 315.9 619.6 315.8C612.8 314.5 548.3 300.9 395.8 235.1C234.2 165.4 185.5 101.6 136.9 78C167.7 92.3 198 109.7 238 138.3C278 167 337.5 198.3 439.7 242.1C523.7 278.2 619.5 304.7 650.7 312.9Z" fill="#CC4E07"/>
<path d="M750.5 227.4C749.9 227.8 749.2 228.2 748.7 228.7C746.2 230.6 743.6 232.7 741.1 234.8C737.3 238 733.6 241.2 730.7 243.9C727 247.2 724.4 249.7 724.1 250C688.7 240.5 571.6 219.6 472.5 216.2C559.9 208.5 699.6 220.2 750.5 227.4Z" fill="#CC4E07"/>
<path d="M357.2 693.9L22.3 673.6L4.80005 639.6H388.8L357.2 693.9Z" fill="#424242"/>
</svg>
