<svg width="1400" height="980" viewBox="0 0 1400 980" fill="none" xmlns="http://www.w3.org/2000/svg">
<g clip-path="url(#clip0)">
<path d="M225.3 597H454.7V980H225.3V597Z" fill="#268BC4"/>
<path d="M454.7 859H684.1V980H454.7V859Z" fill="#268BC4"/>
<path d="M592.2 898.3H644.7V950.8H592.2V898.3Z" fill="#2899E5"/>
<path d="M516.9 898.3H569.4V950.8H516.9V898.3Z" fill="#2899E5"/>
<path d="M644.7 457H1043V980H644.7V457Z" fill="#268BC4"/>
<path d="M764.6 481.1H817.1V533.6H764.6V481.1Z" fill="#2899E5"/>
<path d="M764.6 553.8H817.1V606.3H764.6V553.8Z" fill="#2899E5"/>
<path d="M485.5 355.8C494.6 348 505 356 506.8 366.1C522.4 353.7 528.5 367.8 538.1 377.5C550.5 390.1 579.7 380.1 595.4 387.5C557.3 392.8 505.7 395.6 467.5 393.8C448.8 392.9 429.9 392.1 411.5 391.2C393.1 390.3 374.4 386.7 356.2 391.1C371.8 383 391.8 390.4 406.6 380.8C416.5 374.4 418.7 363 424.3 353.4C441.2 324.5 472.4 326.8 485.5 355.8Z" fill="#1578AF"/>
<path d="M1303.2 236.4C1309.8 230.7 1317.5 236.5 1318.8 244C1330.3 234.9 1334.7 245.3 1341.7 252.3C1350.8 261.5 1372.1 254.2 1383.7 259.6C1355.8 263.5 1318 265.5 1290 264.2C1276.3 263.5 1262.5 263 1249 262.3C1235.5 261.6 1221.8 259 1208.5 262.2C1220 256.2 1234.6 261.7 1245.4 254.6C1252.7 249.9 1254.3 241.5 1258.4 234.5C1270.7 213.4 1293.6 215.2 1303.2 236.4Z" fill="#E6E7E8"/>
<path d="M1455.9 477.8C1410.6 459.9 1332.2 476.3 1335.4 534.4C1311.9 532.9 1279.5 539.7 1258.4 550.5C1225.8 567 1234.3 591.1 1218.9 615.8C1204.6 638.7 1170.1 633.7 1152.1 657.7C1133.4 682.5 1139.9 719.7 1128.2 743.7C1080.6 714.2 1023.5 788.7 1005.9 823.1C991.9 850.4 978.6 883.7 973 912.9C969 933.4 962.5 935.9 981.9 946C997.6 954.2 1029.8 941.9 1045.5 940.5C1161.3 930 1292.2 967.7 1390 886.9C1456.2 832.1 1476.1 730.3 1480 649.8C1481.9 611.4 1485 537.1 1441 519.9L1455.9 477.8Z" fill="#0F6991"/>
<path d="M-23.1 278.7C18.5 255.2 85.7 304.2 82.4 350.3C143.8 353.6 219.2 392.5 194.1 468C247.4 468.1 285.2 566.9 262.3 608.9C307.4 632.4 348.9 686.8 325.5 740.2C418.9 798.6 448.2 925 420.5 1031.5C391.4 1044.7 322.6 1037.2 291.2 1031C241.8 1021.3 195.4 1014.2 145.7 1002.5C66.5 983.8 -15.2 939 -50.1 861.6C-96.3 758.9 -117 655.2 -113.1 542.8C-111.8 506.3 -108.1 469.5 -101.2 434.1C-95.5 405.1 -89.2 346.3 -68.1 326.8L-23.1 278.7Z" fill="#0F6991"/>
<path d="M1188.4 813.5C1159.7 806.5 1131.3 815.3 1107.8 834.7C1094.8 845.5 1086.2 868.4 1074 876.9C1059.3 887.1 1060.3 880.1 1041.7 882.8C970.6 893.2 927.2 983.3 891.9 1038.3C942.2 1057.9 992.1 1056 1045 1063.1C1082.7 1068.1 1118.3 1063.5 1155.1 1075C1186.2 1084.7 1203 1084.2 1234.6 1083.8C1277.8 1083.3 1321.1 1099.5 1362.9 1087C1382.2 1081.2 1402.4 1077.4 1422.9 1071.2C1448.8 1063.4 1448.5 1056.3 1461.1 1032.7C1496 967.1 1507.4 888.4 1509.5 814.9C1511.1 759.1 1517.5 663.5 1452 639.9C1426.5 630.7 1396.4 636.6 1371.2 643.7C1354.7 648.3 1335.5 653.7 1322.2 665.2C1310.5 675.3 1307.1 693 1297.2 700.4C1275 717 1245.4 711.7 1223.3 736.7C1218.3 742.6 1182 811.9 1188.4 813.5Z" fill="#1578AF"/>
<path d="M47.4 567C105 572.3 149.1 631.9 146.4 687C175.3 693.3 198.6 698.5 223.3 718.3C235.6 728.2 244.9 737.3 253.2 750.6C257.7 757.8 260.8 778.8 265.8 783.5C282.4 799 321.5 795.3 344 816.3C363.8 834.7 379.8 860.1 389.5 885.2C468.3 863.5 562.1 985.3 574.5 1053.1C530.4 1054.2 487.7 1055 445.9 1068.6C383.2 1088.9 316.1 1075.4 251.2 1074.6C205.6 1074 160.4 1067.5 115.1 1065.6C68.6 1063.6 -1.29999 1079.5 -40.2 1050.7C-121.6 990.4 -94.2 871.5 -91.2 786.2C-87.8 691.5 -141.8 554.3 -93.4 467.7C-73.8 432.6 -39 414.3 -2.39999 437.2C41.9 464.8 44.9 520.6 47.4 567Z" fill="#1578AF"/>
<path d="M632 838.9C624.1 832.2 615.4 826.9 606.1 822.5C598 818.6 589.7 815.3 581.6 811.5C578.4 810 575.2 808.5 572.3 806.5C569.6 804.7 567.1 802.8 564.5 800.8C564.4 800.7 561.7 798.6 561.7 798.6C560.6 797.7 559.5 796.9 558.4 796C534.9 776.9 514.8 754.6 493.9 732.8C488.7 727.4 483.6 722 479 716.2C478.5 715.5 477.2 713.9 477.1 713.7C476.1 712.3 475 710.9 474 709.5C472 706.6 470 703.8 468.1 700.9C467.8 700.4 467.4 699.9 467.1 699.4C461.8 664.8 471.5 628.8 497.8 601.4C543.2 554.1 489.5 611.1 552.5 593C591.8 581.7 664.9 624.2 680.8 651.8C711 704.2 735.7 742.8 735.7 742.8C781.1 790.2 750.7 772.5 705.3 819.9C686.7 839.3 665.5 848.6 642 851.3C639.6 846.7 636.3 842.5 632 838.9Z" fill="#EA7171"/>
<path d="M549.5 602.1C588.8 590.8 661.9 633.3 677.8 660.9C708 713.3 732.7 751.9 732.7 751.9C746.8 766.6 753.6 775 754.9 781.1C762 773.8 758.1 766.2 735.7 742.9C735.7 742.9 711 704.3 680.8 651.9C664.9 624.3 591.8 581.8 552.5 593.1C489.5 611.2 543.2 554.1 497.8 601.5C484.3 615.6 475.2 632 470.2 649.3C475.5 635.4 483.7 622.2 494.8 610.5C540.2 563.1 486.5 620.1 549.5 602.1Z" fill="#FF9999"/>
<path d="M705.3 819.9C686.7 839.3 665.5 848.6 642 851.3C639.5 846.7 636.2 842.5 632 838.9C624.1 832.2 615.4 826.9 606.1 822.5C598 818.6 589.7 815.3 581.6 811.5C578.4 810 575.2 808.5 572.3 806.5C569.6 804.7 567.1 802.8 564.5 800.8C564.4 800.7 561.7 798.6 561.7 798.6C560.6 797.7 559.5 796.9 558.4 796C534.9 776.9 514.8 754.6 493.9 732.8C488.7 727.4 483.6 722 479 716.2C478.5 715.5 477.2 713.9 477.1 713.7C476.1 712.3 475 710.9 474 709.5C472 706.6 470 703.8 468.1 700.9C467.8 700.4 467.4 699.9 467.1 699.4C464.5 682.6 465.5 665.5 470.2 649.1C463 668.1 461.1 688.4 464.1 708.4C464.4 708.9 464.8 709.4 465.1 709.9C467 712.8 469 715.7 471 718.5C472 719.9 473 721.3 474.1 722.7C474.2 722.8 475.4 724.5 476 725.2C480.6 731 485.7 736.5 490.9 741.8C511.8 763.6 531.9 785.9 555.4 805C556.5 805.9 557.6 806.8 558.7 807.6C558.7 807.6 561.4 809.7 561.5 809.8C564.1 811.7 566.6 813.7 569.3 815.5C572.2 817.5 575.4 819 578.6 820.5C586.7 824.3 595 827.6 603.1 831.5C612.4 835.9 621.1 841.2 629 847.9C633.2 851.5 636.6 855.7 639 860.3C662.4 857.6 683.7 848.3 702.3 828.9C733.6 796.3 757.7 794.5 754.8 781C747.5 788.6 728.3 795.9 705.3 819.9Z" fill="#FF9999"/>
<path d="M665.8 885.5C568.3 858.5 482.9 737.4 482.9 737.4C446.5 699.4 472.2 690 508.7 652C545.1 614 572.6 620.4 609 658.4C609 658.4 655.3 665.2 669.3 706.4C691.7 772.4 712.4 806.5 676 844.5C657.8 863.6 689.7 885.5 665.8 885.5Z" fill="#D85252"/>
<path d="M401.8 772.7C409.7 766 418.4 760.7 427.7 756.3C435.8 752.4 444.1 749.1 452.2 745.3C455.4 743.8 458.6 742.3 461.5 740.3C464.2 738.5 466.7 736.6 469.3 734.6C469.4 734.5 472.1 732.4 472.1 732.4C473.2 731.5 474.3 730.7 475.4 729.8C498.9 710.7 519 688.4 539.9 666.6C545.1 661.2 550.2 655.8 554.8 650C555.3 649.3 556.6 647.7 556.7 647.5C557.7 646.1 558.8 644.7 559.8 643.3C561.8 640.4 563.8 637.6 565.7 634.7C566 634.2 566.4 633.7 566.7 633.2C572 598.6 562.3 562.6 536 535.2C490.6 487.9 544.3 544.9 481.3 526.8C442 515.5 357.3 555.5 341.3 583.1C311.1 635.5 306.5 655.8 298.1 676.6C273.5 737.4 283.1 706.3 328.5 753.7C347.1 773.1 368.3 782.4 391.8 785.1C394.2 780.5 397.6 776.3 401.8 772.7Z" fill="#EA7171"/>
<path d="M540.7 544.5C495.3 497.2 549 554.2 486 536.1C446.7 524.8 362 564.8 346 592.4C324 630.7 315.5 651.8 309.3 668.5C330 658.5 355.1 668 382.4 649C405 671.6 400.1 733.3 377.5 755.9L4.8 1131.4C-6.5 1142.7 -20.5 1149.2 -35.3 1149.2C-50.1 1149.2 -64.1 1144.4 -75.4 1133.1C-78.6 1129.9 -81.3 1126.5 -83.5 1122.9C-80.8 1130 -76.5 1136.7 -70.7 1142.5C-59.4 1153.8 -45.4 1158.6 -30.6 1158.6C-15.8 1158.6 -1.8 1152.2 9.5 1140.8L362.9 785C373.5 790.1 384.7 793.2 396.5 794.5C399 789.9 402.3 785.7 406.5 782.1C414.4 775.4 423.1 770.1 432.4 765.7C440.5 761.8 448.8 758.5 456.9 754.7C460.1 753.2 463.3 751.7 466.2 749.7C468.9 747.9 471.4 746 474 744C474.1 743.9 476.8 741.8 476.8 741.8C477.9 740.9 479 740.1 480.1 739.2C503.6 720.1 523.7 697.8 544.6 676C549.8 670.6 554.9 665.2 559.5 659.4C560 658.7 561.3 657.1 561.4 656.9C562.4 655.5 563.5 654.1 564.5 652.7C566.5 649.8 568.5 647 570.4 644.1C570.7 643.6 571.1 643.1 571.4 642.6C576.7 607.9 567 572 540.7 544.5Z" fill="#EA7171"/>
<path d="M390.4 805.8C450.9 775.8 471.2 750 489.4 731L521.9 720.2C558.3 682.2 561.5 623.8 525.1 585.8C488.7 547.8 461.2 554.2 424.8 592.2C424.8 592.2 378.5 599 364.5 640.2C342.1 706.2 321.4 740.3 357.8 778.3C376 797.4 366.5 805.8 390.4 805.8Z" fill="#D85252"/>
<path d="M-35.4 1149.1C-20.6 1149.1 -6.6 1142.7 4.7 1131.3L377.6 756C400.2 733.4 405.1 671.7 382.5 649.1C350 671.6 320.8 654 298.2 676.6L-74.6 1052C-97.2 1074.6 -98 1110.4 -75.4 1133C-64.2 1144.3 -50.2 1149.1 -35.4 1149.1Z" fill="#EA7171"/>
<path d="M-70 1061.3L302.8 685.9C305.1 680.3 307.1 674.7 309.4 668.5C305.5 670.4 301.8 673 298.2 676.5L-74.6 1052C-94 1071.4 -97.4 1100.6 -83.6 1122.8C-91.5 1102.2 -86.8 1078.1 -70 1061.3Z" fill="#FF9999"/>
<path d="M346 592.4C361.9 564.8 446.6 524.8 486 536.1C549 554.2 495.3 497.1 540.7 544.5C547.8 551.9 553.6 559.9 558.3 568.3C553 556.4 545.6 545.2 536 535.2C490.6 487.9 544.3 544.9 481.3 526.8C442 515.5 357.3 555.5 341.3 583.1C311.1 635.5 306.5 655.8 298.1 676.6C294 686.7 290.9 694.3 288.7 700.1L302.8 685.9C311.2 665.1 315.9 644.8 346 592.4Z" fill="#FF9999"/>
<path d="M394 731.1C409.1 752.9 406 782.3 386.4 801.9L22 1168.9C11 1179.9 -2.6 1186.2 -17.1 1186.2C-28.5 1186.2 -39.4 1183.2 -48.9 1176.5L394 731.1Z" fill="#EA7171"/>
<path d="M155.371 808.729L197.871 762.222L325.727 879.063L283.227 925.569L155.371 808.729Z" fill="#231F20"/>
<path d="M628.8 785.8C628.8 796.8 619.8 805.8 608.8 805.8H405.5C394.5 805.8 385.5 796.8 385.5 785.8V380.4C385.5 369.4 394.5 360.4 405.5 360.4H608.9C619.9 360.4 628.9 369.4 628.9 380.4V785.8H628.8Z" fill="#323132"/>
<path d="M628.8 765.1C628.8 776.1 619.8 785.1 608.8 785.1H405.5C394.5 785.1 385.5 776.1 385.5 765.1V359.6C385.5 348.6 394.5 339.6 405.5 339.6H608.9C619.9 339.6 628.9 348.6 628.9 359.6V765.1H628.8Z" fill="#231F20"/>
<path d="M491.2 367H523.2V373H491.2V367Z" fill="#323132"/>
<path d="M511.2 355.3C511.2 356.361 510.779 357.378 510.028 358.128C509.278 358.879 508.261 359.3 507.2 359.3C506.139 359.3 505.122 358.879 504.372 358.128C503.621 357.378 503.2 356.361 503.2 355.3C503.2 354.239 503.621 353.222 504.372 352.472C505.122 351.721 506.139 351.3 507.2 351.3C508.261 351.3 509.278 351.721 510.028 352.472C510.779 353.222 511.2 354.239 511.2 355.3Z" fill="#323132"/>
<path d="M523.9 756.3C523.9 760.729 522.141 764.977 519.009 768.109C515.877 771.241 511.629 773 507.2 773C505.007 773 502.835 772.568 500.809 771.729C498.783 770.89 496.942 769.66 495.391 768.109C493.841 766.558 492.61 764.717 491.771 762.691C490.932 760.665 490.5 758.493 490.5 756.3C490.5 754.107 490.932 751.935 491.771 749.909C492.61 747.883 493.841 746.042 495.391 744.491C496.942 742.941 498.783 741.711 500.809 740.871C502.835 740.032 505.007 739.6 507.2 739.6C511.629 739.6 515.877 741.36 519.009 744.491C522.141 747.623 523.9 751.871 523.9 756.3V756.3Z" fill="#323132"/>
<path d="M401.2 386.6H613.2V731.1H401.2V386.6Z" fill="#E6E7E8"/>
<path d="M401.2 557.1H613.2V560.6H401.2V557.1Z" fill="#BBBDC0"/>
<path d="M427.1 564.3H587.2V582.1H427.1V564.3Z" fill="#BBBDC0"/>
<path d="M509.3 445.7C509.3 450 505.8 453.5 501.5 453.5H414.3C410 453.5 406.5 450 406.5 445.7V434.4C406.5 430.1 410 426.6 414.3 426.6H501.5C505.8 426.6 509.3 430.1 509.3 434.4V445.7Z" fill="#BBBDC0"/>
<path d="M419.9 452.7L413.1 457.7V452.7H419.9Z" fill="#BBBDC0"/>
<path d="M505 507.1C505 511.4 508.5 514.9 512.8 514.9H600C604.3 514.9 607.8 511.4 607.8 507.1V495.8C607.8 491.5 604.3 488 600 488H512.8C508.5 488 505 491.5 505 495.8V507.1V507.1Z" fill="#2899E5"/>
<path d="M594.4 514.1L601.2 519V514.1H594.4Z" fill="#2899E5"/>
<path d="M419.7 477.5L412.9 482.5V477.5H419.7Z" fill="#BBBDC0"/>
<path d="M492.7 471.4C492.7 475.4 489.5 478.6 485.5 478.6H413.6C409.6 478.6 406.4 475.4 406.4 471.4C406.4 467.4 409.6 464.2 413.6 464.2H485.5C489.5 464.2 492.7 467.4 492.7 471.4Z" fill="#BBBDC0"/>
<path d="M419.7 538L412.9 543V538H419.7Z" fill="#BBBDC0"/>
<path d="M440.7 531.8C440.7 536.1 437.2 539.6 432.9 539.6H414.7C410.4 539.6 406.9 536.1 406.9 531.8C406.9 527.5 410.4 524 414.7 524H433C437.3 524 440.7 527.5 440.7 531.8Z" fill="#BBBDC0"/>
<path d="M417.8 531.8C417.8 532.224 417.631 532.631 417.331 532.931C417.031 533.231 416.624 533.4 416.2 533.4C415.776 533.4 415.369 533.231 415.069 532.931C414.769 532.631 414.6 532.224 414.6 531.8C414.6 531.376 414.769 530.969 415.069 530.669C415.369 530.369 415.776 530.2 416.2 530.2C416.624 530.2 417.031 530.369 417.331 530.669C417.631 530.969 417.8 531.376 417.8 531.8V531.8Z" fill="#E6E7E8"/>
<path d="M433.2 531.8C433.2 532.224 433.031 532.631 432.731 532.931C432.431 533.231 432.024 533.4 431.6 533.4C431.176 533.4 430.769 533.231 430.469 532.931C430.169 532.631 430 532.224 430 531.8C430 531.376 430.169 530.969 430.469 530.669C430.769 530.369 431.176 530.2 431.6 530.2C432.024 530.2 432.431 530.369 432.731 530.669C433.031 530.969 433.2 531.376 433.2 531.8V531.8Z" fill="#E6E7E8"/>
<path d="M425.5 531.8C425.5 532.224 425.331 532.631 425.031 532.931C424.731 533.231 424.324 533.4 423.9 533.4C423.476 533.4 423.069 533.231 422.769 532.931C422.469 532.631 422.3 532.224 422.3 531.8C422.3 531.376 422.469 530.969 422.769 530.669C423.069 530.369 423.476 530.2 423.9 530.2C424.324 530.2 424.731 530.369 425.031 530.669C425.331 530.969 425.5 531.376 425.5 531.8V531.8Z" fill="#E6E7E8"/>
<path d="M401.2 386.6H613.2V413H401.2V386.6Z" fill="#BBBDC0"/>
<path d="M576.5 401.5H607.8V404.8H576.5V401.5Z" fill="#2899E5"/>
<path d="M414.9 401.5H446.2V404.8H414.9V401.5Z" fill="#2899E5"/>
<path d="M409.6 399.8L406.5 403.3L409.6 406.5" stroke="#2899E5" stroke-width="2" stroke-miterlimit="10" stroke-linecap="round" stroke-linejoin="round"/>
<path d="M401.2 586.3H613.2V731H401.2V586.3Z" fill="#BBBDC0"/>
<path d="M406.5 594.4H422.3V617.4H406.5V594.4Z" fill="#E6E7E8"/>
<path d="M427.1 594.4H442.9V617.4H427.1V594.4Z" fill="#E6E7E8"/>
<path d="M447.7 594.4H463.5V617.4H447.7V594.4Z" fill="#E6E7E8"/>
<path d="M468.3 594.4H484.1V617.4H468.3V594.4Z" fill="#E6E7E8"/>
<path d="M488.9 594.4H504.7V617.4H488.9V594.4Z" fill="#E6E7E8"/>
<path d="M509.6 594.4H525.4V617.4H509.6V594.4Z" fill="#E6E7E8"/>
<path d="M530.2 594.4H546V617.4H530.2V594.4Z" fill="#E6E7E8"/>
<path d="M550.8 594.4H566.6V617.4H550.8V594.4Z" fill="#E6E7E8"/>
<path d="M571.4 594.4H587.2V617.4H571.4V594.4Z" fill="#E6E7E8"/>
<path d="M592 594.4H607.8V617.4H592V594.4Z" fill="#E6E7E8"/>
<path d="M416.8 629.5H432.6V652.5H416.8V629.5Z" fill="#E6E7E8"/>
<path d="M437.4 629.5H453.2V652.5H437.4V629.5Z" fill="#E6E7E8"/>
<path d="M458 629.5H473.8V652.5H458V629.5Z" fill="#E6E7E8"/>
<path d="M478.6 629.5H494.4V652.5H478.6V629.5Z" fill="#E6E7E8"/>
<path d="M499.2 629.5H515V652.5H499.2V629.5Z" fill="#E6E7E8"/>
<path d="M519.9 629.5H535.7V652.5H519.9V629.5Z" fill="#E6E7E8"/>
<path d="M540.5 629.5H556.3V652.5H540.5V629.5Z" fill="#E6E7E8"/>
<path d="M561.1 629.5H576.9V652.5H561.1V629.5Z" fill="#E6E7E8"/>
<path d="M581.7 629.5H597.5V652.5H581.7V629.5Z" fill="#E6E7E8"/>
<path d="M406.5 663.7H429.3V686.7H406.5V663.7Z" fill="#E6E7E8"/>
<path d="M406.5 698.8H427.1V721.8H406.5V698.8Z" fill="#9A9A9B"/>
<path d="M432.6 698.8H453.2V721.8H432.6V698.8Z" fill="#9A9A9B"/>
<path d="M458 698.8H473.8V721.8H458V698.8Z" fill="#E6E7E8"/>
<path d="M437.4 663.7H453.2V686.7H437.4V663.7Z" fill="#E6E7E8"/>
<path d="M458 663.7H473.8V686.7H458V663.7Z" fill="#E6E7E8"/>
<path d="M478.6 663.7H494.4V686.7H478.6V663.7Z" fill="#E6E7E8"/>
<path d="M499.2 663.7H515V686.7H499.2V663.7Z" fill="#E6E7E8"/>
<path d="M519.9 663.7H535.7V686.7H519.9V663.7Z" fill="#E6E7E8"/>
<path d="M540.5 663.7H556.3V686.7H540.5V663.7Z" fill="#E6E7E8"/>
<path d="M561.1 663.7H576.9V686.7H561.1V663.7Z" fill="#E6E7E8"/>
<path d="M561.1 698.8H607.9V721.8H561.1V698.8Z" fill="#9A9A9B"/>
<path d="M478.6 698.8H556.3V721.8H478.6V698.8Z" fill="#E6E7E8"/>
<path d="M585.1 663.7H607.9V686.7H585.1V663.7Z" fill="#E6E7E8"/>
<path d="M417.3 568.4V565.6H411.5V568.4H407V577.7H421.8V568.4H417.3Z" fill="#BBBDC0"/>
<path d="M416.8 572.9C416.8 573.722 416.473 574.511 415.892 575.092C415.311 575.674 414.522 576 413.7 576C412.878 576 412.089 575.674 411.508 575.092C410.927 574.511 410.6 573.722 410.6 572.9C410.6 572.078 410.927 571.29 411.508 570.708C412.089 570.127 412.878 569.8 413.7 569.8C414.522 569.8 415.311 570.127 415.892 570.708C416.473 571.29 416.8 572.078 416.8 572.9V572.9Z" fill="#E6E7E8"/>
<path d="M416.1 680.8C422.5 682 429.7 681.3 435.5 677.4L483.5 646.8C495.1 638.9 497.3 621.9 489.4 610.3C481.5 598.7 465.6 595.5 454 603.4L406 634.1C394.4 642 391.7 658.2 399.5 669.8C403.6 675.5 409.8 679.6 416.1 680.8Z" fill="#EA7171"/>
<path d="M431 617.9C400.5 637.9 350.5 665.4 328.1 691.7C307.6 715.7 284.5 738.1 248.6 753.6C254.6 764.3 258 776.3 261.4 788C261.8 789.4 262.3 790.9 262.7 792.4L380.3 770.6C380.3 770.5 449.2 605.9 431 617.9Z" fill="#EA7171"/>
<path d="M406.4 665.8L489.4 610.3L473.7 590L412.2 630.1L406.4 665.8Z" fill="#EA7171"/>
<path d="M470.2 592.2C475.6 600.6 473 610.5 465 615.8L451.7 624.4L442.6 610.2L470.2 592.2Z" fill="#F6B3C7"/>
<path d="M323.4 863.6C323.4 863.6 356.5 851.4 386.9 810.8C416.2 771.7 418.1 700.5 445.2 671.2L300.5 687L323.4 863.6Z" fill="#EA7171"/>
<path d="M1069.2 1215.4C1054.4 1215.4 1040.4 1209 1029.1 1197.6L656.3 822.3C633.7 799.7 628.8 738 651.4 715.4C683.9 737.9 713.1 720.3 735.7 742.9L1108.5 1118.3C1131.1 1140.9 1131.9 1176.7 1109.3 1199.3C1098 1210.6 1084 1215.4 1069.2 1215.4Z" fill="#EA7171"/>
<path d="M1108.5 1118.2L735.7 742.8C723.9 731 710.3 730.2 695.4 728.8C696.7 729.9 698 731 699.3 732.2C702.1 734.6 705.2 737.1 708.1 739.6C716.9 741.2 725.2 744.3 732.7 751.8L1105.5 1127.2C1120.4 1142.1 1125.8 1162.8 1121.3 1181.6C1130.3 1160.6 1125.8 1135.6 1108.5 1118.2Z" fill="#FF9999"/>
<path d="M1109.3 1199.3C1098 1210.6 1084 1215.4 1069.2 1215.4C1054.4 1215.4 1040.4 1209 1029.1 1197.6L656.3 822.3C639.3 805.3 632.3 766.1 639.5 738.1C627.8 765.9 634.3 812.3 653.3 831.3L1026.1 1206.7C1037.4 1218 1051.4 1224.5 1066.2 1224.5C1081 1224.5 1095 1219.7 1106.3 1208.4C1114 1200.7 1119 1191.5 1121.3 1181.7C1118.6 1188 1114.6 1194 1109.3 1199.3Z" fill="#FF9999"/>
<path d="M639.8 797.3C624.7 819.1 627.8 848.5 647.4 868.1L1011.8 1235.1C1022.8 1246.1 1036.4 1252.4 1050.9 1252.4C1062.3 1252.4 1073.2 1249.4 1082.7 1242.7L639.8 797.3Z" fill="#EA7171"/>
<path d="M617.7 747C611.3 748.2 604.1 747.5 598.3 743.6L550.3 713C538.7 705.1 536.5 688.1 544.4 676.5C552.3 664.9 568.2 661.7 579.8 669.6L627.8 700.3C639.4 708.2 642.1 724.4 634.3 736C630.3 741.8 624.1 745.8 617.7 747Z" fill="#EA7171"/>
<path d="M602.8 684.1C633.3 704.1 683.3 731.6 705.7 757.9C726.2 781.9 749.3 804.3 785.2 819.8C779.2 830.5 775.8 842.5 772.4 854.2C772 855.6 771.5 857.1 771.1 858.6L653.5 836.8C653.5 836.8 584.6 672.2 602.8 684.1Z" fill="#EA7171"/>
<path d="M588.1 687.5L574.9 678.8C566.8 673.6 556.7 675.2 551.2 683.5C545.8 691.9 548.4 701.7 556.4 707L569.7 715.6L578.8 701.4L588.1 687.5Z" fill="#F6B3C7"/>
<path d="M710.4 929.9C710.4 929.9 677.3 917.7 646.9 877.1C617.6 838 615.7 766.8 588.6 737.5L733.4 753.3L710.4 929.9Z" fill="#EA7171"/>
<path opacity="0.7" d="M298 2134.7L309.2 2124L325.8 2145.7L336.8 2135.5L349.7 2151.6V2160.4C348.4 2166.1 347.8 2172.1 347.8 2178.2C347.8 2223.9 384.9 2261 430.6 2261C476 2261 512.8 2224.4 513.3 2179.1H534.2H912.7H1028.3H1097.1V1390.5L1029.2 1370.3V1370L876.6 1324.7H846.7L836.6 1313.1H796.4V1201.7C871.6 1171.8 934.2 1098.7 969.8 1014.3C970.4 1014.5 971 1014.7 971.6 1014.9C1008.3 1026 1049.6 996.4 1064 948.9C1078.4 901.3 1060.4 853.8 1023.7 842.7C1016.3 840.4 1008.6 839.9 1001.1 840.8C1001.1 840.6 1001.1 840.5 1001.1 840.3C1001.1 840.2 1001.1 840 1001.1 839.9C1000.9 837 1000.6 834.2 1000.3 831.4C1000.2 830.7 1000.2 830 1000.1 829.3C999.8 826.8 999.5 824.4 999.2 821.9C999.1 821.3 999.1 820.8 999 820.2C998.2 814.2 997.2 808.2 996 802.3C995.9 801.7 995.8 801.1 995.6 800.5C995.1 798.1 994.6 795.7 994 793.3C993.9 792.7 993.7 792.1 993.6 791.6C992.2 785.8 990.7 780 989 774.3C988.8 773.8 988.7 773.3 988.5 772.8C988.1 771.5 987.7 770.2 987.3 768.9C1011.7 746.7 1027.2 715.1 1027.8 679.9C1027.8 679.8 1027.8 679.7 1027.8 679.6C1027.8 679.5 1027.8 679.4 1027.8 679.3C1025.8 556.6 924.7 457.7 800.2 457.7C726.1 457.7 660.2 492.8 618.7 547.1C613.5 544.4 607.2 542.2 600.2 540.9C581.5 537.3 564.8 541.1 561.8 549.4L586.6 554.2C527.7 566.7 483.4 618.1 482.6 679.9H505.1C504.5 680.7 503.9 681.5 503.3 682.3C503.1 682.6 502.8 682.9 502.6 683.3C501.1 685.3 499.7 687.3 498.3 689.4C498 689.8 497.7 690.3 497.4 690.7C495.8 693 494.3 695.4 492.7 697.7C491.1 700.2 489.5 702.7 488 705.3C487.8 705.6 487.7 705.8 487.5 706.1C486.2 708.3 484.9 710.5 483.7 712.8C483.4 713.3 483.2 713.8 482.9 714.3C481.6 716.6 480.4 718.9 479.2 721.3C479.1 721.5 479 721.7 478.9 721.9C477.5 724.6 476.2 727.3 474.9 730C474.8 730.1 474.8 730.3 474.7 730.4C473.5 732.8 472.4 735.3 471.3 737.8C471.1 738.3 470.8 738.8 470.6 739.4C469.6 741.7 468.6 744.1 467.6 746.4C467.5 746.7 467.3 747.1 467.2 747.4C465 752.9 462.9 758.4 461 764.1C460.8 764.6 460.6 765.2 460.5 765.7C459.7 768.1 458.9 770.5 458.2 772.9C458.1 773.4 457.9 773.8 457.8 774.3C456.1 780 454.5 785.8 453.2 791.7C453.1 792.2 453 792.7 452.8 793.2C452.2 795.7 451.7 798.2 451.2 800.7C451.1 801.2 451 801.8 450.9 802.3C449.7 808.3 448.7 814.3 447.9 820.4C447.8 820.9 447.8 821.3 447.7 821.8C447.4 824.4 447 827 446.8 829.6C446.7 830.2 446.7 830.8 446.6 831.4C446.3 834.6 446 837.8 445.7 841C438.1 840.1 430.5 840.6 423.1 842.9C386.4 854 368.4 901.6 382.8 949.1C397.2 996.7 438.6 1026.2 475.2 1015.1C475.8 1014.9 476.4 1014.7 477 1014.5C512.7 1098.9 575.2 1172 650.4 1201.9V1313.3H610.2L600.1 1324.9H572.1L534.2 1336.2V1335.8L490.9 1348.7L349.7 1390.7L41.7 1768.6L298 2134.7ZM349.7 1681V1926.4L266.3 1803.5L349.7 1681Z" fill="#848484"/>
<path opacity="0.8" d="M736.6 85.8H1166.9V785.1H736.6V85.8Z" fill="#E6E7E8"/>
<g opacity="0.8">
<path opacity="0.8" d="M956.1 599C956.1 607.8 949 614.9 940.2 614.9H763.2C754.4 614.9 747.3 607.8 747.3 599V576C747.3 567.2 754.4 560.1 763.2 560.1H940.2C949 560.1 956.1 567.2 956.1 576V599Z" fill="#BBBDC0"/>
<path opacity="0.8" d="M774.6 613.1L760.8 623.2V613.1H774.6Z" fill="#BBBDC0"/>
</g>
<path opacity="0.8" d="M1018.6 359.8C1018.6 368.6 1011.5 375.7 1002.7 375.7H763.2C754.4 375.7 747.3 368.6 747.3 359.8V314C747.3 305.2 754.4 298.1 763.2 298.1H1002.7C1011.5 298.1 1018.6 305.2 1018.6 314V359.8Z" fill="#BBBDC0"/>
<path opacity="0.8" d="M774.6 374L760.8 384.1V374H774.6Z" fill="#BBBDC0"/>
<path opacity="0.8" d="M916.6 252.9C916.6 261.7 909.5 268.8 900.7 268.8H763.2C754.4 268.8 747.3 261.7 747.3 252.9V207C747.3 198.2 754.4 191.1 763.2 191.1H900.7C909.5 191.1 916.6 198.2 916.6 207V252.9Z" fill="#BBBDC0"/>
<path opacity="0.8" d="M774.6 267L760.8 277.1V267H774.6Z" fill="#BBBDC0"/>
<path opacity="0.8" d="M947.4 723.6C947.4 732.4 954.5 739.5 963.3 739.5H1140.3C1149.1 739.5 1156.2 732.4 1156.2 723.6V700.6C1156.2 691.8 1149.1 684.7 1140.3 684.7H963.3C954.5 684.7 947.4 691.8 947.4 700.6V723.6Z" fill="#2899E5"/>
<path opacity="0.8" d="M1128.9 737.7L1142.6 747.8V737.7H1128.9Z" fill="#2899E5"/>
<path opacity="0.8" d="M947.4 521.7C947.4 530.5 954.5 537.6 963.3 537.6H1140.3C1149.1 537.6 1156.2 530.5 1156.2 521.7V425.7C1156.2 416.9 1149.1 409.8 1140.3 409.8H963.3C954.5 409.8 947.4 416.9 947.4 425.7V521.7Z" fill="#2899E5"/>
<path opacity="0.8" d="M1128.9 535.8L1142.6 545.9V535.8H1128.9Z" fill="#2899E5"/>
<path opacity="0.8" d="M991.4 162.8C991.4 171.6 998.5 178.7 1007.3 178.7H1140.3C1149.1 178.7 1156.2 171.6 1156.2 162.8V139C1156.2 130.2 1149.1 123.1 1140.3 123.1H1007.3C998.5 123.1 991.4 130.2 991.4 139V162.8Z" fill="#2899E5"/>
<path opacity="0.8" d="M1128.9 176.9L1142.6 187V176.9H1128.9Z" fill="#2899E5"/>
<path opacity="0.8" d="M774.2 663.6L760.5 673.6V663.6H774.2Z" fill="#BBBDC0"/>
<path opacity="0.8" d="M922.3 651C922.3 659 915.8 665.5 907.8 665.5H761.9C753.9 665.5 747.4 659 747.4 651C747.4 643 753.9 636.5 761.9 636.5H907.8C915.8 636.5 922.3 643 922.3 651Z" fill="#BBBDC0"/>
<path d="M246.9 117.4C253.5 111.7 261.2 117.5 262.5 125C274 115.9 278.4 126.3 285.4 133.3C294.5 142.5 315.8 135.2 327.4 140.6C299.5 144.5 261.7 146.5 233.7 145.2C220 144.5 206.2 144 192.7 143.3C179.2 142.6 165.5 140 152.2 143.2C163.7 137.2 178.3 142.7 189.1 135.6C196.4 130.9 198 122.5 202.1 115.5C214.4 94.3999 237.3 96.1999 246.9 117.4Z" fill="#E6E7E8"/>
</g>
<defs>
<clipPath id="clip0">
<rect width="1400" height="980" fill="white"/>
</clipPath>
</defs>
</svg>
