<svg width="177" height="279" viewBox="0 0 177 279" fill="none" xmlns="http://www.w3.org/2000/svg">
<path d="M174.864 86.8999C173.364 39.1999 136.164 0.399902 88.4635 0.399902C40.7635 0.399902 3.56354 39.0999 2.06354 86.8999C-0.136458 156.5 55.3635 177.5 79.6635 222.2C83.4635 229.2 93.4635 229.2 97.2635 222.2C121.664 177.5 177.064 156.6 174.864 86.8999Z" fill="#0D84FF"/>
<path d="M153.363 87.6C153.363 104.813 146.526 121.32 134.355 133.491C122.184 145.662 105.676 152.5 88.4635 152.5C71.2509 152.5 54.7434 145.662 42.5723 133.491C30.4011 121.32 23.5635 104.813 23.5635 87.6C23.5635 70.3874 30.4011 53.8798 42.5723 41.7087C54.7434 29.5376 71.2509 22.7 88.4635 22.7C105.676 22.7 122.184 29.5376 134.355 41.7087C146.526 53.8798 153.363 70.3874 153.363 87.6V87.6Z" fill="white"/>
<path d="M88.2 56L98.5 76.8L121.4 80.1L104.8 96.3L108.7 119.1L88.2 108.3L67.7 119.1L71.6 96.3L55 80.1L77.9 76.8L88.2 56Z" fill="#0D84FF"/>
<path opacity="0.26" d="M176.6 253.8C176.6 257.044 174.326 260.256 169.909 263.252C165.491 266.249 159.017 268.972 150.854 271.266C142.692 273.559 133.002 275.379 122.338 276.62C111.673 277.861 100.243 278.5 88.6998 278.5C65.3873 278.5 43.0296 275.898 26.5451 271.266C10.0607 266.634 0.799805 260.351 0.799805 253.8C0.799805 247.249 10.0607 240.967 26.5451 236.335C43.0296 231.702 65.3873 229.1 88.6998 229.1C112.012 229.1 134.37 231.702 150.854 236.335C167.339 240.967 176.6 247.249 176.6 253.8V253.8Z" fill="url(#paint0_radial)"/>
<defs>
<radialGradient id="paint0_radial" cx="0" cy="0" r="1" gradientUnits="userSpaceOnUse" gradientTransform="translate(88.7154 253.843) scale(64.566 12.9132)">
<stop/>
<stop offset="1" stop-color="white"/>
</radialGradient>
</defs>
</svg>
