<svg width="229" height="148" viewBox="0 0 229 148" fill="none" xmlns="http://www.w3.org/2000/svg">
<g clip-path="url(#clip0)">
<path fill-rule="evenodd" clip-rule="evenodd" d="M194.921 96.0458C198.921 93.9012 199.935 98.5626 198.383 102.423C196.824 106.283 188.848 119.265 188.428 124.418C188.266 126.411 187.896 126.197 187.583 124.797C186.005 117.814 189.411 98.9915 194.921 96.0458Z" fill="#E6FAFF"/>
<path fill-rule="evenodd" clip-rule="evenodd" d="M186.45 78.3589C181.861 74.1958 178.994 80.0241 179.789 85.6443C180.584 91.2645 186.882 111.083 185.749 118.028C185.311 120.722 185.868 120.558 186.744 118.81C191.108 110.099 192.761 84.0863 186.45 78.3589Z" fill="#E6FAFF"/>
<path fill-rule="evenodd" clip-rule="evenodd" d="M185.648 119.952C185.748 120.211 185.968 120.085 186.256 119.649C191.039 103.603 183.589 79.6205 183.564 79.5448C183.526 79.4123 183.382 79.3366 183.25 79.3808C183.119 79.4186 183.044 79.5637 183.088 79.6962C183.113 79.7782 190.663 104.082 185.648 119.952Z" fill="#E6FAFF"/>
<path fill-rule="evenodd" clip-rule="evenodd" d="M176.427 91.687C171.982 89.738 171.281 94.7968 173.265 98.7833C175.244 102.77 184.835 115.953 185.705 121.409C186.043 123.522 186.419 123.264 186.638 121.743C187.74 114.168 182.55 94.3742 176.427 91.687Z" fill="#E6FAFF"/>
<path fill-rule="evenodd" clip-rule="evenodd" d="M186.106 122.873C186.244 123.043 186.375 122.892 186.488 122.494C186.087 109.343 174.612 93.3461 174.58 93.2957C174.518 93.2073 174.392 93.1884 174.305 93.2515C174.217 93.3146 174.198 93.4407 174.261 93.5227C174.292 93.5858 185.924 109.797 186.106 122.873Z" fill="#E6FAFF"/>
<path fill-rule="evenodd" clip-rule="evenodd" d="M182.687 120.286H191.227L193.456 122.317L191.634 129.382H186.957H182.28L180.458 122.317L182.687 120.286Z" fill="#E6FAFF"/>
<path fill-rule="evenodd" clip-rule="evenodd" d="M180.459 117.334H193.462C193.85 117.334 194.17 117.656 194.17 118.047V121.283C194.17 121.674 193.85 121.996 193.462 121.996H180.459C180.071 121.996 179.751 121.674 179.751 121.283V118.047C179.751 117.65 180.071 117.334 180.459 117.334Z" fill="#E6FAFF"/>
<path fill-rule="evenodd" clip-rule="evenodd" d="M193.456 122.317L193.086 123.768H180.834L180.458 122.317H193.456Z" fill="#E6FAFF"/>
<path d="M37.153 69.1118H35.0557V73.092H37.153V69.1118Z" fill="#E6FAFF"/>
<path d="M37.4722 68.342H34.7363V69.1116H37.4722V68.342Z" fill="#E6FAFF"/>
<path d="M37.4722 69.3071H34.7363V69.4773H37.4722V69.3071Z" fill="#E6FAFF"/>
<path d="M36.6398 70.0767H35.563V72.1267H36.6398V70.0767Z" fill="#E6FAFF"/>
<path d="M39.6383 69.1118H37.541V73.092H39.6383V69.1118Z" fill="#E6FAFF"/>
<path d="M39.9581 68.342H37.2222V69.1116H39.9581V68.342Z" fill="#E6FAFF"/>
<path d="M39.9581 69.3071H37.2222V69.4773H39.9581V69.3071Z" fill="#E6FAFF"/>
<path d="M39.1252 70.0767H38.0483V72.1267H39.1252V70.0767Z" fill="#E6FAFF"/>
<path d="M29.8844 80.2512H27.7871V84.2314H29.8844V80.2512Z" fill="#E6FAFF"/>
<path d="M30.2041 79.4814H27.4683V80.251H30.2041V79.4814Z" fill="#E6FAFF"/>
<path d="M30.2041 80.4529H27.4683V80.6231H30.2041V80.4529Z" fill="#E6FAFF"/>
<path d="M29.3713 81.2227H28.2944V83.2727H29.3713V81.2227Z" fill="#E6FAFF"/>
<path d="M31.0741 66.311H28.1191V73.3315H31.0741V66.311Z" fill="#E6FAFF"/>
<path d="M31.3307 65.283H27.8623V66.3111H31.3307V65.283Z" fill="#E6FAFF"/>
<path d="M31.3307 66.6643H27.8623V66.9605H31.3307V66.6643Z" fill="#E6FAFF"/>
<path d="M28.8394 71.4834C28.8394 71.5654 28.902 71.6348 28.9708 71.6348H30.2229C30.2981 71.6348 30.3544 71.5654 30.3544 71.4834V68.1655C30.3544 68.0835 30.2918 68.0142 30.2229 68.0142H28.9708C28.8957 68.0142 28.8394 68.0835 28.8394 68.1655V71.4834Z" fill="#E6FAFF"/>
<path d="M35.2498 68.2981H33.1274V73.338H35.2498V68.2981Z" fill="#E6FAFF"/>
<path d="M35.4313 67.5601H32.9458V68.2981H35.4313V67.5601Z" fill="#E6FAFF"/>
<path d="M35.4313 68.5439H32.9458V68.7583H35.4313V68.5439Z" fill="#E6FAFF"/>
<path d="M33.6411 72.007C33.6411 72.0638 33.6849 72.1142 33.735 72.1142H34.6366C34.6866 72.1142 34.7305 72.0638 34.7305 72.007V69.629C34.7305 69.5722 34.6866 69.5217 34.6366 69.5217H33.735C33.6849 69.5217 33.6411 69.5722 33.6411 69.629V72.007Z" fill="#E6FAFF"/>
<path d="M34.1918 77.2046H31.2368V84.2251H34.1918V77.2046Z" fill="#E6FAFF"/>
<path d="M34.4484 76.1763H30.98V77.2044H34.4484V76.1763Z" fill="#E6FAFF"/>
<path d="M34.4484 77.5515H30.98V77.8478H34.4484V77.5515Z" fill="#E6FAFF"/>
<path d="M31.9507 82.377C31.9507 82.459 32.0133 82.5284 32.0822 82.5284H33.3343C33.4094 82.5284 33.4658 82.459 33.4658 82.377V79.0591C33.4658 78.9771 33.4031 78.9077 33.3343 78.9077H32.0822C32.007 78.9077 31.9507 78.9771 31.9507 79.0591V82.377Z" fill="#E6FAFF"/>
<path d="M63.3476 79.387H49.0483V84.3259H63.3476V79.387Z" fill="#E6FAFF"/>
<path d="M63.3476 79.387H49.0483V84.3259H63.3476V79.387Z" fill="#E6FAFF"/>
<path d="M63.3476 79.387H49.0483V81.0144H63.3476V79.387Z" fill="#E6FAFF"/>
<path d="M63.3476 81.0144H49.0483V81.2476H63.3476V81.0144Z" fill="#E6FAFF"/>
<path d="M46.1435 79.387H36.3081V84.3259H46.1435V79.387Z" fill="#E6FAFF"/>
<path d="M46.1435 79.387H36.3081V84.3259H46.1435V79.387Z" fill="#E6FAFF"/>
<path d="M46.1435 79.387H36.3081V81.0144H46.1435V79.387Z" fill="#E6FAFF"/>
<path d="M46.1435 81.0144H36.3081V81.2476H46.1435V81.0144Z" fill="#E6FAFF"/>
<path d="M56.9932 68.5251C56.9932 67.7429 57.6255 67.1059 58.4018 67.1059H65.0819C65.8582 67.1059 66.4905 67.7429 66.4905 68.5251V73.0288H67.5736V67.7555C67.5736 66.7905 66.7973 66.0083 65.8394 66.0083H57.638C56.6801 66.0083 55.9038 66.7905 55.9038 67.7555V73.0288H56.9869V68.5251H56.9932Z" fill="#E6FAFF"/>
<path d="M59.6977 127.174C59.6977 128.632 58.527 129.811 57.0808 129.811C55.6346 129.811 54.4639 128.632 54.4639 127.174C54.4639 125.717 55.6346 124.538 57.0808 124.538C58.527 124.544 59.6977 125.724 59.6977 127.174Z" fill="#E6FAFF"/>
<path d="M57.0872 124.544C57.0684 124.544 57.0496 124.55 57.0371 124.55C58.3956 124.582 59.4912 125.699 59.4912 127.074C59.4912 128.468 58.3706 129.603 56.9807 129.603C55.6096 129.603 54.5078 128.499 54.4765 127.13C54.4765 127.149 54.4702 127.162 54.4702 127.181C54.4702 128.638 55.6409 129.817 57.0872 129.817C58.5334 129.817 59.7041 128.638 59.7041 127.181C59.6978 125.724 58.5271 124.544 57.0872 124.544Z" fill="#E6FAFF"/>
<path d="M55.1149 127.288C55.1149 126.146 56.0352 125.219 57.1683 125.219C58.2702 125.219 59.1592 126.09 59.2093 127.187C59.2093 127.156 59.2218 127.118 59.2218 127.086C59.2218 125.831 58.2076 124.809 56.9617 124.809C55.7159 124.809 54.7017 125.831 54.7017 127.086C54.7017 128.341 55.7159 129.363 56.9617 129.363C56.9993 129.363 57.0306 129.357 57.0619 129.351C55.9851 129.294 55.1149 128.398 55.1149 127.288Z" fill="#E6FAFF"/>
<path d="M58.2952 127.275C58.2952 127.894 57.7943 128.398 57.1808 128.398C56.5673 128.398 56.0664 127.894 56.0664 127.275C56.0664 126.657 56.5673 126.153 57.1808 126.153C57.7943 126.146 58.2952 126.651 58.2952 127.275Z" fill="#E6FAFF"/>
<path d="M58.1074 127.174C58.1074 127.742 57.6503 128.203 57.0869 128.203C56.5234 128.203 56.0664 127.742 56.0664 127.174C56.0664 126.607 56.5234 126.146 57.0869 126.146C57.6503 126.146 58.1074 126.607 58.1074 127.174Z" fill="#E6FAFF"/>
<path d="M57.3002 127.174C57.3002 127.294 57.2063 127.389 57.0874 127.389C56.9684 127.389 56.8745 127.294 56.8745 127.174C56.8745 127.055 56.9684 126.96 57.0874 126.96C57.2001 126.96 57.3002 127.061 57.3002 127.174Z" fill="#E6FAFF"/>
<path d="M56.6175 124.355L55.309 125.087C55.0899 125.232 55.0148 125.415 55.1776 125.572L56.8805 126.979C56.9932 127.092 57.1747 127.092 57.2874 126.979L58.9903 125.572C59.1468 125.415 59.0717 125.219 58.8588 125.087L57.5503 124.355C57.2498 124.222 56.9619 124.21 56.6175 124.355Z" fill="#E6FAFF"/>
<path d="M56.2231 124.399C56.2231 125.049 56.605 125.579 57.0808 125.579C57.5567 125.579 57.9386 125.055 57.9386 124.399V73.0288H56.2231V124.399Z" fill="#E6FAFF"/>
<path d="M67.0539 73.0352H26.4663V74.0318H67.0539V73.0352Z" fill="#E6FAFF"/>
<path d="M66.5219 84.8242H26.1284V92.5197H66.5219V84.8242Z" fill="#E6FAFF"/>
<path d="M25.6338 84.3259H67.0227V93.018H25.6338V84.3259ZM66.0335 85.3225H26.623V92.0214H66.0273V85.3225H66.0335Z" fill="#E6FAFF"/>
<path d="M66.5219 92.5198H26.1284V106.258H66.5219V92.5198Z" fill="#E6FAFF"/>
<path d="M25.6338 92.0215H67.0227V106.756H25.6338V92.0215ZM66.0335 93.0181H26.623V105.76H66.0273V93.0181H66.0335Z" fill="#E6FAFF"/>
<path d="M50.7263 94.7905H41.9238V95.7871H50.7263V94.7905Z" fill="#E6FAFF"/>
<path d="M66.5219 106.554H26.1284V120.293H66.5219V106.554Z" fill="#E6FAFF"/>
<path d="M25.6338 106.056H67.0227V120.791H25.6338V106.056ZM66.0335 107.053H26.623V119.794H66.0273V107.053H66.0335Z" fill="#E6FAFF"/>
<path d="M50.7263 108.825H41.9238V109.822H50.7263V108.825Z" fill="#E6FAFF"/>
<path d="M50.7263 86.3381H41.9238V87.3347H50.7263V86.3381Z" fill="#E6FAFF"/>
<path d="M28.7451 127.174C28.7451 128.632 27.5744 129.811 26.1282 129.811C24.682 129.811 23.5112 128.632 23.5112 127.174C23.5112 125.717 24.682 124.538 26.1282 124.538C27.5744 124.544 28.7451 125.724 28.7451 127.174Z" fill="#E6FAFF"/>
<path d="M26.1282 124.544C26.1094 124.544 26.0906 124.55 26.0781 124.55C27.4366 124.582 28.5322 125.699 28.5322 127.074C28.5322 128.468 27.4116 129.603 26.0217 129.603C24.6507 129.603 23.5488 128.499 23.5175 127.13C23.5175 127.149 23.5112 127.162 23.5112 127.181C23.5112 128.638 24.682 129.817 26.1282 129.817C27.5744 129.817 28.7451 128.638 28.7451 127.181C28.7451 125.724 27.5744 124.544 26.1282 124.544Z" fill="#E6FAFF"/>
<path d="M24.1622 127.288C24.1622 126.146 25.0825 125.219 26.2157 125.219C27.3176 125.219 28.2066 126.09 28.2567 127.187C28.2567 127.156 28.2692 127.118 28.2692 127.086C28.2692 125.831 27.255 124.809 26.0091 124.809C24.7632 124.809 23.749 125.831 23.749 127.086C23.749 128.341 24.7632 129.363 26.0091 129.363C26.0467 129.363 26.078 129.357 26.1093 129.351C25.0262 129.294 24.1622 128.398 24.1622 127.288Z" fill="#E6FAFF"/>
<path d="M27.343 127.275C27.343 127.894 26.8422 128.398 26.2286 128.398C25.6151 128.398 25.1143 127.894 25.1143 127.275C25.1143 126.657 25.6151 126.153 26.2286 126.153C26.8422 126.146 27.343 126.651 27.343 127.275Z" fill="#E6FAFF"/>
<path d="M27.1489 127.174C27.1489 127.742 26.6918 128.203 26.1284 128.203C25.5649 128.203 25.1079 127.742 25.1079 127.174C25.1079 126.607 25.5649 126.146 26.1284 126.146C26.6918 126.146 27.1489 126.607 27.1489 127.174Z" fill="#E6FAFF"/>
<path d="M26.3413 127.174C26.3413 127.294 26.2473 127.389 26.1284 127.389C26.0094 127.389 25.9155 127.294 25.9155 127.174C25.9155 127.055 26.0094 126.96 26.1284 126.96C26.2473 126.96 26.3413 127.061 26.3413 127.174Z" fill="#E6FAFF"/>
<path d="M25.6649 124.355L24.3564 125.087C24.1373 125.232 24.0622 125.415 24.2249 125.572L25.9278 126.979C26.0405 127.092 26.2221 127.092 26.3348 126.979L28.0377 125.572C28.1942 125.415 28.119 125.219 27.9062 125.087L26.5977 124.355C26.2972 124.222 26.0092 124.21 25.6649 124.355Z" fill="#E6FAFF"/>
<path d="M25.2705 73.0352V124.481C25.2705 125.131 25.6524 125.654 26.1282 125.654C26.604 125.654 26.9859 125.131 26.9859 124.481V73.0352H25.2705Z" fill="#E6FAFF"/>
<path d="M18.9097 127.174C18.9097 128.632 17.7389 129.811 16.2927 129.811C14.8465 129.811 13.6758 128.632 13.6758 127.174C13.6758 125.717 14.8465 124.538 16.2927 124.538C17.7389 124.544 18.9097 125.724 18.9097 127.174Z" fill="#E6FAFF"/>
<path d="M16.2927 124.544C16.2739 124.544 16.2552 124.55 16.2426 124.55C17.6012 124.582 18.6968 125.699 18.6968 127.074C18.6968 128.468 17.5761 129.603 16.1863 129.603C14.8152 129.603 13.7133 128.499 13.682 127.13C13.682 127.149 13.6758 127.162 13.6758 127.181C13.6758 128.638 14.8465 129.817 16.2927 129.817C17.7389 129.817 18.9097 128.638 18.9097 127.181C18.9097 125.724 17.7389 124.544 16.2927 124.544Z" fill="#E6FAFF"/>
<path d="M14.3273 127.288C14.3273 126.146 15.2476 125.219 16.3807 125.219C17.4826 125.219 18.3716 126.09 18.4217 127.187C18.4217 127.156 18.4342 127.118 18.4342 127.086C18.4342 125.831 17.42 124.809 16.1741 124.809C14.9283 124.809 13.9141 125.831 13.9141 127.086C13.9141 128.341 14.9283 129.363 16.1741 129.363C16.2117 129.363 16.243 129.357 16.2743 129.351C15.1912 129.294 14.3273 128.398 14.3273 127.288Z" fill="#E6FAFF"/>
<path d="M17.5076 127.275C17.5076 127.894 17.0067 128.398 16.3932 128.398C15.7797 128.398 15.2788 127.894 15.2788 127.275C15.2788 126.657 15.7797 126.153 16.3932 126.153C17.0067 126.146 17.5076 126.651 17.5076 127.275Z" fill="#E6FAFF"/>
<path d="M17.3198 127.174C17.3198 127.742 16.8627 128.203 16.2993 128.203C15.7358 128.203 15.2788 127.742 15.2788 127.174C15.2788 126.607 15.7358 126.146 16.2993 126.146C16.8565 126.146 17.3198 126.607 17.3198 127.174Z" fill="#E6FAFF"/>
<path d="M16.5058 127.174C16.5058 127.294 16.4119 127.389 16.2929 127.389C16.174 127.389 16.0801 127.294 16.0801 127.174C16.0801 127.055 16.174 126.96 16.2929 126.96C16.4119 126.96 16.5058 127.061 16.5058 127.174Z" fill="#E6FAFF"/>
<path d="M15.8294 124.355L14.521 125.087C14.3018 125.232 14.2267 125.415 14.3895 125.572L16.0924 126.979C16.2051 127.092 16.3866 127.092 16.4993 126.979L18.2022 125.572C18.3587 125.415 18.2836 125.219 18.0707 125.087L16.7623 124.355C16.4618 124.222 16.1738 124.21 15.8294 124.355Z" fill="#E6FAFF"/>
<path d="M69.3325 127.174C69.3325 128.632 68.1618 129.811 66.7156 129.811C65.2694 129.811 64.0986 128.632 64.0986 127.174C64.0986 125.717 65.2694 124.538 66.7156 124.538C68.1618 124.544 69.3325 125.724 69.3325 127.174Z" fill="#E6FAFF"/>
<path d="M66.7156 124.544C66.6968 124.544 66.678 124.55 66.6655 124.55C68.024 124.582 69.1196 125.699 69.1196 127.074C69.1196 128.468 67.999 129.603 66.6091 129.603C65.2381 129.603 64.1362 128.499 64.1049 127.13C64.1049 127.149 64.0986 127.162 64.0986 127.181C64.0986 128.638 65.2694 129.817 66.7156 129.817C68.1618 129.817 69.3325 128.638 69.3325 127.181C69.3325 125.724 68.1618 124.544 66.7156 124.544Z" fill="#E6FAFF"/>
<path d="M64.7501 127.288C64.7501 126.146 65.6704 125.219 66.8036 125.219C67.9055 125.219 68.7945 126.09 68.8446 127.187C68.8446 127.156 68.8571 127.118 68.8571 127.086C68.8571 125.831 67.8429 124.809 66.597 124.809C65.3511 124.809 64.3369 125.831 64.3369 127.086C64.3369 128.341 65.3511 129.363 66.597 129.363C66.6346 129.363 66.6659 129.357 66.6972 129.351C65.6141 129.294 64.7501 128.398 64.7501 127.288Z" fill="#E6FAFF"/>
<path d="M67.9304 127.275C67.9304 127.894 67.4296 128.398 66.816 128.398C66.2025 128.398 65.7017 127.894 65.7017 127.275C65.7017 126.657 66.2025 126.153 66.816 126.153C67.4296 126.146 67.9304 126.651 67.9304 127.275Z" fill="#E6FAFF"/>
<path d="M67.7363 127.174C67.7363 127.742 67.2792 128.203 66.7158 128.203C66.1523 128.203 65.6953 127.742 65.6953 127.174C65.6953 126.607 66.1523 126.146 66.7158 126.146C67.2792 126.146 67.7363 126.607 67.7363 127.174Z" fill="#E6FAFF"/>
<path d="M66.9287 127.174C66.9287 127.294 66.8347 127.389 66.7158 127.389C66.5968 127.389 66.5029 127.294 66.5029 127.174C66.5029 127.055 66.5968 126.96 66.7158 126.96C66.8347 126.96 66.9287 127.061 66.9287 127.174Z" fill="#E6FAFF"/>
<path d="M66.2523 124.355L64.9438 125.087C64.7247 125.232 64.6496 125.415 64.8123 125.572L66.5152 126.979C66.6279 127.092 66.8095 127.092 66.9222 126.979L68.6251 125.572C68.7816 125.415 68.7064 125.219 68.4936 125.087L67.1851 124.355C66.8846 124.222 66.5966 124.21 66.2523 124.355Z" fill="#E6FAFF"/>
<path d="M15.4351 73.0352V124.481C15.4351 125.131 15.817 125.654 16.2928 125.654C16.7686 125.654 17.1505 125.131 17.1505 124.481V73.0352H15.4351Z" fill="#E6FAFF"/>
<path d="M65.8584 124.399C65.8584 125.049 66.2403 125.579 66.7161 125.579C67.1919 125.579 67.5738 125.055 67.5738 124.399V73.0288H65.8584V124.399Z" fill="#E6FAFF"/>
<path d="M25.9218 84.3828H17.1694V120.791H25.9218V84.3828Z" fill="#E6FAFF"/>
<path d="M16.6934 68.5251C16.6934 67.7429 17.3257 67.1059 18.102 67.1059H24.7821C25.5584 67.1059 26.1907 67.7429 26.1907 68.5251V73.0288H27.2738V67.7555C27.2738 66.7905 26.4975 66.0083 25.5396 66.0083H17.3382C16.3803 66.0083 15.604 66.7905 15.604 67.7555V73.0288H16.6934V68.5251Z" fill="#E6FAFF"/>
<path d="M28.7451 73.0352H15.4351V74.0318H28.7451V73.0352Z" fill="#E6FAFF"/>
<path d="M54.9271 62.2866H49.2612C48.5976 62.2866 48.0654 62.8291 48.0654 63.4914V69.1999C48.0654 69.8685 48.6038 70.4047 49.2612 70.4047H54.9271C55.5907 70.4047 56.1228 69.8622 56.1228 69.1999V63.4914C56.1228 62.8228 55.5844 62.2866 54.9271 62.2866ZM55.3716 68.6637C55.3716 69.2062 54.9333 69.6478 54.3949 69.6478H49.7871C49.2487 69.6478 48.8104 69.2062 48.8104 68.6637V64.0213C48.8104 63.4788 49.2487 63.0372 49.7871 63.0372H54.3949C54.9333 63.0372 55.3716 63.4788 55.3716 64.0213V68.6637Z" fill="#E6FAFF"/>
<path d="M47.12 64.8477H41.4604V68.4935H47.12V64.8477Z" fill="#E6FAFF"/>
<path d="M61.5634 64.8477H47.1201V68.4935H61.5634V64.8477Z" fill="#E6FAFF"/>
<path d="M47.12 68.4937H41.4604V69.6795H47.12V68.4937Z" fill="#E6FAFF"/>
<path d="M47.12 69.6794H41.4604V73.2496H47.12V69.6794Z" fill="#E6FAFF"/>
<path d="M61.5634 68.4937H47.1201V69.6795H61.5634V68.4937Z" fill="#E6FAFF"/>
<path d="M61.5634 69.6794H47.1201V73.2496H61.5634V69.6794Z" fill="#E6FAFF"/>
<path d="M56.8739 68.4934C56.8739 69.6666 55.9286 70.6191 54.7641 70.6191C53.5996 70.6191 52.6543 69.6666 52.6543 68.4934C52.6543 67.3202 53.5996 66.3677 54.7641 66.3677C55.9286 66.3677 56.8739 67.3202 56.8739 68.4934Z" fill="#E6FAFF"/>
<path d="M55.1338 68.9162V69.7615H54.3951V68.9162H53.5562V68.1782H54.3951V67.3267H55.1338V68.1719H55.9728V68.9162H55.1338Z" fill="#E6FAFF"/>
<path d="M207.335 15.0164H150.364V89.3343H207.335V15.0164Z" fill="#E6FAFF"/>
<path d="M74.7671 135.778C74.7671 137.854 62.6841 139.531 47.7776 139.531C32.8711 139.531 20.7881 137.854 20.7881 135.778C20.7881 133.703 32.8711 132.025 47.7776 132.025C62.6841 132.025 74.7671 133.703 74.7671 135.778Z" fill="#E1F5FF"/>
<path d="M164.751 142.219C164.751 145.303 144.066 147.807 118.548 147.807C93.0293 147.807 72.3442 145.303 72.3442 142.219C72.3442 139.134 93.0293 136.63 118.548 136.63C144.066 136.63 164.751 139.134 164.751 142.219Z" fill="#E1F5FF"/>
<path d="M200.543 139.588C200.543 140.282 197.319 140.837 193.337 140.837C189.355 140.837 186.131 140.276 186.131 139.588C186.131 138.901 189.355 138.339 193.337 138.339C197.319 138.339 200.543 138.894 200.543 139.588Z" fill="#E1F5FF"/>
<path d="M206.859 16.0888L206.478 82.4463L152.117 82.1246L152.505 15.7671L206.859 16.0888Z" fill="url(#paint0_linear)"/>
<path d="M206.478 82.1309H152.499V83.8655H206.478V82.1309Z" fill="#A7D2F2"/>
<path d="M202.684 19.9238H156.292V80.0177H202.684V19.9238Z" fill="#E6F5FF"/>
<path d="M148.022 50.3018H185.968C185.968 50.3018 186.606 42.5244 180.089 41.8873C180.089 41.8873 180.728 34.1855 174.285 32.8294C167.843 31.4732 164.093 35.466 164.093 35.466C164.093 35.466 159.135 33.6115 155.241 36.9609C151.346 40.3167 152.204 43.0227 152.204 43.0227C152.204 43.0227 146.037 43.4579 147.665 50.3018" fill="white"/>
<path d="M166.66 70.7455H196.986C196.986 70.7455 197.494 64.5324 192.291 64.0214C192.291 64.0214 192.798 57.8651 187.652 56.7801C182.506 55.6952 179.507 58.8869 179.507 58.8869C179.507 58.8869 175.544 57.4046 172.432 60.0854C169.321 62.7662 170.009 64.9297 170.009 64.9297C170.009 64.9297 165.082 65.2704 166.378 70.7455" fill="white"/>
<path d="M210.854 83.7708H148.329V88.1168H210.854V83.7708Z" fill="#CCEEFF"/>
<path d="M153.187 17.6973H152.574V44.3917H153.187V17.6973Z" fill="#108DF4"/>
<path d="M206.797 17.6973H206.184V44.3917H206.797V17.6973Z" fill="#108DF4"/>
<path d="M210.247 20.9268H149.438V22.4974H210.247V20.9268Z" fill="#A7D2F2"/>
<path d="M210.247 24.7051H149.438V26.2757H210.247V24.7051Z" fill="#A7D2F2"/>
<path d="M210.247 28.4834H149.438V30.054H210.247V28.4834Z" fill="#A7D2F2"/>
<path d="M210.247 32.2681H149.438V33.8387H210.247V32.2681Z" fill="#A7D2F2"/>
<path d="M210.247 36.0464H149.438V37.617H210.247V36.0464Z" fill="#A7D2F2"/>
<path d="M210.247 39.8311H149.438V41.4017H210.247V39.8311Z" fill="#A7D2F2"/>
<path d="M210.247 43.6094H149.438V45.18H210.247V43.6094Z" fill="#A7D2F2"/>
<path d="M210.247 16.1455H149.438V18.7128H210.247V16.1455Z" fill="#43AAEF"/>
<path d="M89.1163 5.06274H48.5601V59.9717H89.1163V5.06274Z" fill="#D4EDFF"/>
<path d="M77.2399 21.9297C74.936 20.8006 72.175 20.9646 70.0026 22.3144C69.6019 22.5604 69.2513 22.7244 68.9383 22.8254C68.6253 22.7181 68.2747 22.5478 67.8803 22.2892C65.7391 20.8952 62.9845 20.6681 60.6555 21.7404C51.9846 25.7396 55.5656 39.2066 59.297 45.2873C60.7432 47.6464 63.7357 49.5891 65.3823 46.1073C66.5655 43.6031 65.7016 42.5938 68.7192 42.3415C71.7243 42.6632 70.8415 43.6472 71.9684 46.183C73.5336 49.6964 76.57 47.823 78.0725 45.5017C81.9353 39.5031 85.8232 26.118 77.2399 21.9297Z" fill="white"/>
<path d="M82.9932 10.9731H54.689V15.7607H82.9932V10.9731Z" fill="#65D0CA"/>
<path d="M82.9932 54.4778H54.689V55.6763H82.9932V54.4778Z" fill="#65D0CA"/>
<path d="M82.9932 51.9231H54.689V53.1216H82.9932V51.9231Z" fill="#65D0CA"/>
<path d="M42.0238 5.06274H8.64844V30.6028H42.0238V5.06274Z" fill="#D4EDFF"/>
<path d="M39.4883 7.32715H11.1841V28.3383H39.4883V7.32715Z" fill="#65D0CA"/>
<path d="M37.0779 12.342H13.6006V13.5405H37.0779V12.342Z" fill="white"/>
<path d="M37.078 24.6926H25.3394V25.8911H37.078V24.6926Z" fill="white"/>
<path d="M37.0779 9.78735H13.6006V10.9858H37.0779V9.78735Z" fill="white"/>
<path d="M20.3307 16.3916H13.6006V25.582H20.3307V16.3916Z" fill="white"/>
<path d="M41.9737 34.6021H8.64844V59.9781H41.9737V34.6021Z" fill="#D4EDFF"/>
<path d="M38.737 38.0776H12.3423V40.8594H38.737V38.0776Z" fill="#65D0CA"/>
<path d="M38.737 41.9631H12.3423V43.1931H38.737V41.9631Z" fill="#65D0CA"/>
<path d="M12.3423 50.8508L15.3161 51.2734L15.3912 48.3403L12.4049 48.5989L12.3423 50.8508Z" fill="#65D0CA"/>
<path d="M35.0183 45.5208L20.3309 45.9118C19.7174 45.8866 19.1226 45.9623 18.578 46.12C18.578 46.12 18.578 46.12 18.5717 46.12C18.4778 46.1452 18.3901 46.1768 18.3025 46.2083C18.2712 46.2209 18.2399 46.2272 18.2086 46.2398C18.1209 46.2714 18.0395 46.3029 17.9519 46.3408C17.9268 46.3534 17.9081 46.3597 17.883 46.3723C17.6201 46.4922 17.3697 46.6309 17.1443 46.7823C17.1067 46.8075 17.0754 46.8328 17.0378 46.8517C16.9752 46.8958 16.9189 46.94 16.8563 46.9905C16.8187 47.022 16.7812 47.0535 16.7436 47.0851C16.6872 47.1292 16.6372 47.1734 16.5871 47.2239C16.5119 47.2995 16.4368 47.3752 16.3617 47.4509C16.3241 47.4951 16.2866 47.5329 16.2553 47.5771C16.2114 47.6275 16.1739 47.678 16.1301 47.7285C16.0987 47.7726 16.0674 47.8168 16.0361 47.8609C15.9923 47.9177 15.9548 47.9808 15.9172 48.0375C15.8921 48.0754 15.8671 48.1196 15.8483 48.1574C15.792 48.2583 15.7419 48.3592 15.6981 48.4602C15.6855 48.4854 15.6793 48.5106 15.6668 48.5359C15.6355 48.6179 15.5979 48.7062 15.5729 48.7945C15.5603 48.8323 15.5478 48.8702 15.5416 48.908C15.5165 48.99 15.4977 49.072 15.4852 49.154C15.4789 49.1919 15.4727 49.2297 15.4664 49.2613C15.4476 49.3811 15.4351 49.4946 15.4289 49.6208C15.4226 49.7406 15.4289 49.8605 15.4351 49.9803C15.4351 50.0182 15.4414 50.056 15.4476 50.0939C15.4539 50.1759 15.4664 50.2579 15.4789 50.3399C15.4852 50.384 15.4915 50.4219 15.504 50.466C15.5228 50.548 15.5416 50.6237 15.5666 50.7057C15.5791 50.7436 15.5854 50.7814 15.5979 50.813C15.6355 50.9202 15.673 51.0274 15.7231 51.1283C15.7419 51.1725 15.7607 51.2103 15.7857 51.2482C15.817 51.3113 15.8483 51.3743 15.8859 51.4374C15.9172 51.4879 15.9485 51.5383 15.9798 51.5888C16.0111 51.6393 16.0424 51.6834 16.0737 51.7276C16.1113 51.7843 16.1488 51.8411 16.1927 51.8916C16.2177 51.9231 16.2427 51.9547 16.274 51.9862C16.4493 52.2007 16.6497 52.4025 16.8688 52.5854C16.8813 52.598 16.8938 52.6044 16.9064 52.617C16.9878 52.68 17.0691 52.7431 17.1505 52.7999C17.1568 52.8062 17.1693 52.8125 17.1756 52.8188C17.5387 53.0711 17.9456 53.2793 18.3839 53.437H18.3901C18.8847 53.6073 19.4169 53.7208 19.9803 53.7397L34.7679 55.1338L36.5584 55.3041L36.9779 45.4451L35.0183 45.5208Z" fill="#65D0CA"/>
<path d="M228.521 128.48H0.478516V130.234H228.521V128.48Z" fill="#B8E4FF"/>
<path d="M42.5997 76.4856H40.5024V80.4658H42.5997V76.4856Z" fill="#FF5E5D"/>
<path d="M42.919 75.7158H40.1831V76.4854H42.919V75.7158Z" fill="#95CDFD"/>
<path d="M42.919 76.6873H40.1831V76.8574H42.919V76.6873Z" fill="#95CDFD"/>
<path d="M42.0866 77.4568H41.0098V79.5068H42.0866V77.4568Z" fill="#F19596"/>
<path d="M45.0856 76.4856H42.9883V80.4658H45.0856V76.4856Z" fill="#FF5E5D"/>
<path d="M45.4048 75.7158H42.6689V76.4854H45.4048V75.7158Z" fill="#95CDFD"/>
<path d="M45.4048 76.6873H42.6689V76.8574H45.4048V76.6873Z" fill="#95CDFD"/>
<path d="M44.5783 77.4568H43.5015V79.5068H44.5783V77.4568Z" fill="#F19596"/>
<path d="M35.3317 87.6313H33.2344V91.6115H35.3317V87.6313Z" fill="#FF5E5D"/>
<path d="M35.6504 86.8616H32.9146V87.6311H35.6504V86.8616Z" fill="#95CDFD"/>
<path d="M35.6504 87.8267H32.9146V87.9968H35.6504V87.8267Z" fill="#95CDFD"/>
<path d="M34.818 88.5962H33.7412V90.6462H34.818V88.5962Z" fill="#F19596"/>
<path d="M36.5209 73.6912H33.5659V80.7117H36.5209V73.6912Z" fill="#42B58B"/>
<path d="M36.7775 72.6631H33.3091V73.6913H36.7775V72.6631Z" fill="#95CDFD"/>
<path d="M36.7775 74.0381H33.3091V74.3343H36.7775V74.0381Z" fill="#95CDFD"/>
<path d="M34.2861 78.8572C34.2861 78.9392 34.3487 79.0086 34.4176 79.0086H35.6697C35.7449 79.0086 35.8012 78.9392 35.8012 78.8572V75.5393C35.8012 75.4573 35.7386 75.3879 35.6697 75.3879H34.4176C34.3425 75.3879 34.2861 75.4573 34.2861 75.5393V78.8572Z" fill="white"/>
<path d="M40.6966 75.6716H38.5742V80.7115H40.6966V75.6716Z" fill="#42B58B"/>
<path d="M40.8785 74.9338H38.3931V75.6718H40.8785V74.9338Z" fill="#95CDFD"/>
<path d="M40.8785 75.9241H38.3931V76.1384H40.8785V75.9241Z" fill="#95CDFD"/>
<path d="M39.0938 79.3808C39.0938 79.4375 39.1376 79.488 39.1877 79.488H40.0892C40.1393 79.488 40.1831 79.4375 40.1831 79.3808V77.0027C40.1831 76.946 40.1393 76.8955 40.0892 76.8955H39.1877C39.1376 76.8955 39.0938 76.946 39.0938 77.0027V79.3808Z" fill="white"/>
<path d="M39.6391 84.5847H36.6841V91.6052H39.6391V84.5847Z" fill="#42B58B"/>
<path d="M39.8951 83.55H36.4268V84.5782H39.8951V83.55Z" fill="#95CDFD"/>
<path d="M39.8951 84.9314H36.4268V85.2276H39.8951V84.9314Z" fill="#95CDFD"/>
<path d="M37.4038 89.7505C37.4038 89.8325 37.4664 89.9019 37.5353 89.9019H38.7874C38.8625 89.9019 38.9189 89.8325 38.9189 89.7505V86.4326C38.9189 86.3506 38.8563 86.2812 38.7874 86.2812H37.5353C37.4602 86.2812 37.4038 86.3506 37.4038 86.4326V89.7505Z" fill="white"/>
<path d="M68.7944 86.7671H54.4951V91.706H68.7944V86.7671Z" fill="#E0AF65"/>
<path d="M68.7944 86.7671H54.4951V91.706H68.7944V86.7671Z" fill="#147CDE"/>
<path d="M68.7944 86.7671H54.4951V88.3945H68.7944V86.7671Z" fill="#147CDE"/>
<path d="M68.7944 88.3882H54.4951V88.6214H68.7944V88.3882Z" fill="#0542BF"/>
<path d="M51.5903 86.7671H41.7549V91.706H51.5903V86.7671Z" fill="#E0AF65"/>
<path d="M51.5903 86.7671H41.7549V91.706H51.5903V86.7671Z" fill="#147CDE"/>
<path d="M51.5903 86.7671H41.7549V88.3945H51.5903V86.7671Z" fill="#147CDE"/>
<path d="M51.5903 88.3882H41.7549V88.6214H51.5903V88.3882Z" fill="#0542BF"/>
<path d="M62.4399 75.8989C62.4399 75.1167 63.0723 74.4796 63.8486 74.4796H70.5286C71.305 74.4796 71.9373 75.1167 71.9373 75.8989V80.4026H73.0204V75.1293C73.0204 74.1642 72.2441 73.3821 71.2862 73.3821H63.0848C62.1269 73.3821 61.3506 74.1642 61.3506 75.1293V80.4026H62.4337V75.8989H62.4399Z" fill="#95CDFD"/>
<path d="M65.1508 134.555C65.1508 136.012 63.9801 137.191 62.5339 137.191C61.0877 137.191 59.917 136.012 59.917 134.555C59.917 133.098 61.0877 131.918 62.5339 131.918C63.9739 131.918 65.1508 133.098 65.1508 134.555Z" fill="#147CDE"/>
<path d="M62.5339 131.918C62.5151 131.918 62.4964 131.924 62.4838 131.924C63.8424 131.956 64.938 133.072 64.938 134.447C64.938 135.841 63.8173 136.977 62.4275 136.977C61.0564 136.977 59.9546 135.873 59.9233 134.504C59.9233 134.523 59.917 134.536 59.917 134.555C59.917 136.012 61.0877 137.191 62.5339 137.191C63.9801 137.191 65.1508 136.012 65.1508 134.555C65.1508 133.098 63.9739 131.918 62.5339 131.918Z" fill="#0542BF"/>
<path d="M60.5616 134.668C60.5616 133.526 61.4819 132.599 62.6151 132.599C63.717 132.599 64.606 133.47 64.6561 134.567C64.6561 134.536 64.6686 134.498 64.6686 134.466C64.6686 133.211 63.6544 132.189 62.4085 132.189C61.1627 132.189 60.1484 133.211 60.1484 134.466C60.1484 135.722 61.1627 136.743 62.4085 136.743C62.4461 136.743 62.4774 136.737 62.5087 136.731C61.4319 136.674 60.5616 135.772 60.5616 134.668Z" fill="#95CDFD"/>
<path d="M63.7483 134.649C63.7483 135.267 63.2475 135.772 62.6339 135.772C62.0141 135.772 61.5195 135.267 61.5195 134.649C61.5195 134.025 62.0204 133.526 62.6339 133.526C63.2475 133.526 63.7483 134.031 63.7483 134.649Z" fill="#6AAEF2"/>
<path d="M63.5541 134.555C63.5541 135.122 63.0971 135.583 62.5337 135.583C61.9702 135.583 61.5132 135.122 61.5132 134.555C61.5132 133.987 61.9702 133.526 62.5337 133.526C63.0971 133.526 63.5541 133.987 63.5541 134.555Z" fill="#95CDFD"/>
<path d="M62.7465 134.554C62.7465 134.674 62.6526 134.769 62.5337 134.769C62.4147 134.769 62.3208 134.674 62.3208 134.554C62.3208 134.435 62.4147 134.34 62.5337 134.34C62.6526 134.34 62.7465 134.435 62.7465 134.554Z" fill="#0542BF"/>
<path d="M62.0706 131.729L60.7622 132.46C60.5431 132.605 60.4679 132.788 60.6307 132.946L62.3336 134.353C62.4463 134.466 62.6278 134.466 62.7405 134.353L64.4434 132.946C64.5999 132.788 64.5248 132.593 64.3119 132.46L63.0035 131.729C62.703 131.596 62.415 131.584 62.0706 131.729Z" fill="#D4EDFF"/>
<path d="M61.6763 131.779C61.6763 132.429 62.0582 132.952 62.534 132.952C63.0098 132.952 63.3917 132.429 63.3917 131.779V80.4087H61.6763V131.779Z" fill="#95CDFD"/>
<path d="M72.5006 80.4087H31.9131V81.4053H72.5006V80.4087Z" fill="#95CDFD"/>
<path d="M31.0806 91.6997H72.4695V100.392H31.0806V91.6997ZM71.4803 92.7026H32.076V99.4015H71.4803V92.7026Z" fill="#95CDFD"/>
<path d="M71.9808 99.8936H31.5811V113.632H71.9808V99.8936Z" fill="#6AAEF2"/>
<path d="M31.0806 99.3953H72.4695V114.13H31.0806V99.3953ZM71.4803 100.392H32.076V113.134H71.4803V100.392Z" fill="#95CDFD"/>
<path d="M56.1794 102.164H47.377V103.161H56.1794V102.164Z" fill="white"/>
<path d="M71.9808 113.935H31.5811V127.673H71.9808V113.935Z" fill="#6AAEF2"/>
<path d="M31.0806 113.43H72.4695V128.171H31.0806V113.43ZM71.4803 114.433H32.076V127.174H71.4803V114.433Z" fill="#95CDFD"/>
<path d="M56.1794 116.205H47.377V117.202H56.1794V116.205Z" fill="white"/>
<path d="M56.1794 93.7119H47.377V94.7085H56.1794V93.7119Z" fill="white"/>
<path d="M34.1919 134.555C34.1919 136.012 33.0212 137.191 31.5749 137.191C30.1287 137.191 28.958 136.012 28.958 134.555C28.958 133.098 30.1287 131.918 31.5749 131.918C33.0212 131.918 34.1919 133.098 34.1919 134.555Z" fill="#147CDE"/>
<path d="M31.5749 131.918C31.5562 131.918 31.5374 131.924 31.5249 131.924C32.8834 131.956 33.979 133.072 33.979 134.447C33.979 135.841 32.8584 136.977 31.4685 136.977C30.0974 136.977 28.9956 135.873 28.9643 134.504C28.9643 134.523 28.958 134.536 28.958 134.555C28.958 136.012 30.1287 137.191 31.5749 137.191C33.0212 137.191 34.1919 136.012 34.1919 134.555C34.1919 133.098 33.0212 131.918 31.5749 131.918Z" fill="#0542BF"/>
<path d="M29.6095 134.668C29.6095 133.526 30.5298 132.599 31.663 132.599C32.7648 132.599 33.6538 133.47 33.7039 134.567C33.7039 134.536 33.7165 134.498 33.7165 134.466C33.7165 133.211 32.7022 132.189 31.4564 132.189C30.2105 132.189 29.1963 133.211 29.1963 134.466C29.1963 135.722 30.2105 136.743 31.4564 136.743C31.4939 136.743 31.5252 136.737 31.5565 136.731C30.4735 136.674 29.6095 135.772 29.6095 134.668Z" fill="#95CDFD"/>
<path d="M32.7898 134.649C32.7898 135.267 32.289 135.772 31.6754 135.772C31.0619 135.772 30.561 135.267 30.561 134.649C30.561 134.025 31.0619 133.526 31.6754 133.526C32.289 133.526 32.7898 134.031 32.7898 134.649Z" fill="#6AAEF2"/>
<path d="M32.602 134.555C32.602 135.122 32.145 135.583 31.5815 135.583C31.0181 135.583 30.561 135.122 30.561 134.555C30.561 133.987 31.0181 133.526 31.5815 133.526C32.145 133.526 32.602 133.987 32.602 134.555Z" fill="#95CDFD"/>
<path d="M31.788 134.554C31.788 134.674 31.6941 134.769 31.5752 134.769C31.4562 134.769 31.3623 134.674 31.3623 134.554C31.3623 134.435 31.4562 134.34 31.5752 134.34C31.6941 134.34 31.788 134.435 31.788 134.554Z" fill="#0542BF"/>
<path d="M31.1117 131.729L29.8032 132.46C29.5841 132.605 29.5089 132.788 29.6717 132.946L31.3746 134.353C31.4873 134.466 31.6689 134.466 31.7815 134.353L33.4844 132.946C33.6409 132.788 33.5658 132.593 33.353 132.46L32.0445 131.729C31.744 131.596 31.456 131.584 31.1117 131.729Z" fill="#D4EDFF"/>
<path d="M30.7173 80.4087V131.855C30.7173 132.504 31.0992 133.028 31.575 133.028C32.0508 133.028 32.4327 132.504 32.4327 131.855V80.4087H30.7173Z" fill="#95CDFD"/>
<path d="M24.3564 134.555C24.3564 136.012 23.1857 137.191 21.7395 137.191C20.2933 137.191 19.1226 136.012 19.1226 134.555C19.1226 133.098 20.2933 131.918 21.7395 131.918C23.1857 131.918 24.3564 133.098 24.3564 134.555Z" fill="#147CDE"/>
<path d="M21.7458 131.918C21.7271 131.918 21.7083 131.924 21.6958 131.924C23.0543 131.956 24.1499 133.072 24.1499 134.447C24.1499 135.841 23.0293 136.977 21.6394 136.977C20.2683 136.977 19.1665 135.873 19.1352 134.504C19.1352 134.523 19.1289 134.536 19.1289 134.555C19.1289 136.012 20.2996 137.191 21.7458 137.191C23.192 137.191 24.3628 136.012 24.3628 134.555C24.3565 133.098 23.1858 131.918 21.7458 131.918Z" fill="#0542BF"/>
<path d="M19.7736 134.668C19.7736 133.526 20.6939 132.599 21.827 132.599C22.9289 132.599 23.8179 133.47 23.868 134.567C23.868 134.536 23.8805 134.498 23.8805 134.466C23.8805 133.211 22.8663 132.189 21.6204 132.189C20.3746 132.189 19.3604 133.211 19.3604 134.466C19.3604 135.722 20.3746 136.743 21.6204 136.743C21.658 136.743 21.6893 136.737 21.7206 136.731C20.6438 136.674 19.7736 135.772 19.7736 134.668Z" fill="#95CDFD"/>
<path d="M22.9544 134.649C22.9544 135.267 22.4535 135.772 21.84 135.772C21.2264 135.772 20.7256 135.267 20.7256 134.649C20.7256 134.025 21.2264 133.526 21.84 133.526C22.4535 133.526 22.9544 134.031 22.9544 134.649Z" fill="#6AAEF2"/>
<path d="M22.7665 134.555C22.7665 135.122 22.3095 135.583 21.7461 135.583C21.1826 135.583 20.7256 135.122 20.7256 134.555C20.7256 133.987 21.1826 133.526 21.7461 133.526C22.3095 133.526 22.7665 133.987 22.7665 134.555Z" fill="#95CDFD"/>
<path d="M21.9584 134.554C21.9584 134.674 21.8645 134.769 21.7456 134.769C21.6266 134.769 21.5327 134.674 21.5327 134.554C21.5327 134.435 21.6266 134.34 21.7456 134.34C21.8583 134.34 21.9584 134.435 21.9584 134.554Z" fill="#0542BF"/>
<path d="M21.2762 131.729L19.9677 132.46C19.7486 132.605 19.6735 132.788 19.8363 132.946L21.5392 134.353C21.6518 134.466 21.8334 134.466 21.9461 134.353L23.649 132.946C23.8055 132.788 23.7304 132.593 23.5175 132.46L22.209 131.729C21.9085 131.596 21.6205 131.584 21.2762 131.729Z" fill="#D4EDFF"/>
<path d="M74.7798 134.555C74.7798 136.012 73.609 137.191 72.1628 137.191C70.7166 137.191 69.5459 136.012 69.5459 134.555C69.5459 133.098 70.7166 131.918 72.1628 131.918C73.609 131.918 74.7798 133.098 74.7798 134.555Z" fill="#147CDE"/>
<path d="M72.1628 131.918C72.1441 131.918 72.1253 131.924 72.1128 131.924C73.4713 131.956 74.5669 133.072 74.5669 134.447C74.5669 135.841 73.4463 136.977 72.0564 136.977C70.6853 136.977 69.5835 135.873 69.5522 134.504C69.5522 134.523 69.5459 134.536 69.5459 134.555C69.5459 136.012 70.7166 137.191 72.1628 137.191C73.609 137.191 74.7798 136.012 74.7798 134.555C74.7798 133.098 73.609 131.918 72.1628 131.918Z" fill="#0542BF"/>
<path d="M70.1969 134.668C70.1969 133.526 71.1172 132.599 72.2504 132.599C73.3522 132.599 74.2412 133.47 74.2913 134.567C74.2913 134.536 74.3039 134.498 74.3039 134.466C74.3039 133.211 73.2896 132.189 72.0438 132.189C70.7979 132.189 69.7837 133.211 69.7837 134.466C69.7837 135.722 70.7979 136.743 72.0438 136.743C72.0813 136.743 72.1126 136.737 72.1439 136.731C71.0609 136.674 70.1969 135.772 70.1969 134.668Z" fill="#95CDFD"/>
<path d="M73.3772 134.649C73.3772 135.267 72.8764 135.772 72.2628 135.772C71.6493 135.772 71.1484 135.267 71.1484 134.649C71.1484 134.025 71.6493 133.526 72.2628 133.526C72.8764 133.526 73.3772 134.031 73.3772 134.649Z" fill="#6AAEF2"/>
<path d="M73.1831 134.555C73.1831 135.122 72.726 135.583 72.1626 135.583C71.5991 135.583 71.1421 135.122 71.1421 134.555C71.1421 133.987 71.5991 133.526 72.1626 133.526C72.726 133.526 73.1831 133.987 73.1831 134.555Z" fill="#95CDFD"/>
<path d="M72.3759 134.554C72.3759 134.674 72.282 134.769 72.1631 134.769C72.0441 134.769 71.9502 134.674 71.9502 134.554C71.9502 134.435 72.0441 134.34 72.1631 134.34C72.282 134.34 72.3759 134.435 72.3759 134.554Z" fill="#0542BF"/>
<path d="M71.6991 131.729L70.3906 132.46C70.1715 132.605 70.0963 132.788 70.2591 132.946L71.962 134.353C72.0747 134.466 72.2563 134.466 72.3689 134.353L74.0718 132.946C74.2283 132.788 74.1532 132.593 73.9404 132.46L72.6319 131.729C72.3314 131.596 72.0434 131.584 71.6991 131.729Z" fill="#D4EDFF"/>
<path d="M20.8818 80.4087V131.855C20.8818 132.504 21.2637 133.028 21.7395 133.028C22.2153 133.028 22.5972 132.504 22.5972 131.855V80.4087H20.8818Z" fill="#95CDFD"/>
<path d="M71.3047 131.779C71.3047 132.429 71.6866 132.952 72.1624 132.952C72.6382 132.952 73.0201 132.429 73.0201 131.779V80.4087H71.3047V131.779Z" fill="#95CDFD"/>
<path d="M31.3681 91.7566H22.6157V128.165H31.3681V91.7566Z" fill="#95CDFD"/>
<path d="M22.1401 75.8989C22.1401 75.1167 22.7725 74.4796 23.5488 74.4796H30.2288C31.0052 74.4796 31.6375 75.1167 31.6375 75.8989V80.4026H32.7206V75.1293C32.7206 74.1642 31.9443 73.3821 30.9864 73.3821H22.785C21.8271 73.3821 21.0508 74.1642 21.0508 75.1293V80.4026H22.1401V75.8989Z" fill="#95CDFD"/>
<path d="M34.1919 80.4087H20.8818V81.4053H34.1919V80.4087Z" fill="#95CDFD"/>
<path d="M60.3738 69.6604H54.708C54.0444 69.6604 53.5122 70.2029 53.5122 70.8652V76.5737C53.5122 77.2423 54.0506 77.7785 54.708 77.7785H60.3738C61.0375 77.7785 61.5696 77.236 61.5696 76.5737V70.8652C61.5696 70.2029 61.0312 69.6604 60.3738 69.6604ZM60.8183 76.0438C60.8183 76.5863 60.3801 77.0279 59.8417 77.0279H55.2339C54.6955 77.0279 54.2572 76.5863 54.2572 76.0438V71.4013C54.2572 70.8589 54.6955 70.4173 55.2339 70.4173H59.8417C60.3801 70.4173 60.8183 70.8589 60.8183 71.4013V76.0438Z" fill="#147CDE"/>
<path d="M52.5668 72.2278H46.9072V75.8737H52.5668V72.2278Z" fill="#FF5E5D"/>
<path d="M67.0096 72.2278H52.5664V75.8737H67.0096V72.2278Z" fill="#FF9999"/>
<path d="M52.5668 75.8735H46.9072V77.0594H52.5668V75.8735Z" fill="#EF4343"/>
<path d="M52.5668 77.0532H46.9072V80.6234H52.5668V77.0532Z" fill="#FF5E5D"/>
<path d="M67.0096 75.8735H52.5664V77.0594H67.0096V75.8735Z" fill="#EF6565"/>
<path d="M67.0096 77.0532H52.5664V80.6234H67.0096V77.0532Z" fill="#FF9999"/>
<path d="M62.3207 75.8735C62.3207 77.0468 61.3754 77.9993 60.2109 77.9993C59.0464 77.9993 58.1011 77.0468 58.1011 75.8735C58.1011 74.7003 59.0464 73.7478 60.2109 73.7478C61.3754 73.7415 62.3207 74.694 62.3207 75.8735Z" fill="white"/>
<path d="M60.5801 76.29V77.1416H59.8476V76.2963H59.0024V75.552H59.8414V74.7068H60.5801V75.552H61.419V76.29H60.5801Z" fill="#FF3939"/>
<path d="M156.518 121.088V144.609H109.082L137.304 121.573L156.518 121.088Z" fill="#0542BF"/>
<path d="M114.24 146.199C114.24 146.199 124.614 137.954 128.984 134.794C133.354 131.64 136.421 127.389 143.458 127.288C150.489 127.193 158.609 127.288 158.609 127.288L158.803 119.782L132.796 120.003L113.407 132.271L107.716 138.976V144.603L114.24 146.199Z" fill="#053DA0"/>
<path d="M120.526 92.4314H107.322V93.9768H118.992C119.837 93.9768 120.526 94.6706 120.526 95.5222V108.768H122.06V93.9768C122.053 93.1189 121.371 92.4314 120.526 92.4314Z" fill="#147CDE"/>
<path d="M84.4771 68.0205V102.322C84.4771 105.608 86.8937 108.277 89.8737 108.277H107.41C107.842 108.277 108.418 108.22 108.818 108.113C108.987 107.532 108.931 106.914 108.931 106.271V71.9692C108.931 68.6828 106.514 66.0146 103.534 66.0146H85.9984C85.5664 66.0146 85.1407 66.0714 84.74 66.1786C84.571 66.759 84.4771 67.3771 84.4771 68.0205Z" fill="#0542BF"/>
<path d="M102.232 136.377C107.66 136.377 112.055 137.803 112.055 139.569V141.133C112.055 142.893 107.654 144.325 102.232 144.325C96.8041 144.325 92.4092 142.9 92.4092 141.133V139.569C92.4029 137.803 96.8041 136.377 102.232 136.377Z" fill="#144BC6"/>
<path d="M92.4028 139.563C92.4028 141.323 96.804 142.755 102.226 142.755C107.647 142.755 112.049 141.329 112.049 139.563C112.049 137.803 107.647 136.371 102.226 136.371C96.804 136.371 92.4028 137.803 92.4028 139.563Z" fill="#68ADF1"/>
<path d="M100.417 118.129V112.017H104.042V116.798C103.09 116.742 101.613 116.887 100.417 118.129Z" fill="#043268"/>
<path d="M104.041 116.798V140.175C104.041 140.175 103.44 140.478 102.232 140.478C101.224 140.478 100.423 140.175 100.423 140.175V118.129C101.612 116.887 103.09 116.742 104.041 116.798Z" fill="#063985"/>
<path d="M101.024 112.225H121.421C124.389 112.225 123.932 110.781 123.932 108.113C123.431 108.22 122.912 108.277 122.373 108.277H101.024C101.688 108.277 102.233 108.819 102.233 109.494V111.008C102.233 111.676 101.688 112.225 101.024 112.225Z" fill="#1891F1"/>
<path d="M79.6562 71.9692V106.271C79.6562 109.557 82.6488 112.225 86.3426 112.225H101.086C101.756 112.225 102.295 111.683 102.295 111.008V109.494C102.295 108.819 101.756 108.277 101.086 108.277H91.1445C87.4507 108.277 84.4581 105.608 84.4581 102.322V68.0206C84.4581 67.3772 84.5708 66.759 84.7837 66.1787C81.8475 66.8032 79.6562 69.156 79.6562 71.9692Z" fill="#147CDE"/>
<path d="M100.16 47.6591C100.16 47.6591 99.8597 46.3282 97.7248 45.8804C95.5899 45.4325 93.9309 47.3185 93.4989 49.0027C93.0669 50.6869 93.6178 53.0775 95.2894 53.5632C96.961 54.0489 97.9063 53.2352 97.9063 53.2352L100.16 47.6591Z" fill="#063985"/>
<path d="M95.7653 54.6166C95.7653 54.6166 95.4898 48.517 99.027 45.6406L101.156 47.4257L99.3651 52.6233L97.9815 55.1338L95.7653 54.6166Z" fill="#05386B"/>
<path fill-rule="evenodd" clip-rule="evenodd" d="M201.3 106.006C205.301 103.861 206.315 108.523 204.762 112.383C203.203 116.243 195.227 129.225 194.808 134.378C194.645 136.371 194.276 136.157 193.963 134.756C192.379 127.774 195.791 108.951 201.3 106.006Z" fill="#288E67"/>
<path fill-rule="evenodd" clip-rule="evenodd" d="M192.823 88.3189C188.234 84.1557 185.367 89.9841 186.162 95.6043C186.957 101.225 193.255 121.043 192.122 127.988C191.684 130.682 192.241 130.518 193.117 128.77C197.487 120.059 199.14 94.0463 192.823 88.3189Z" fill="#42B58B"/>
<path fill-rule="evenodd" clip-rule="evenodd" d="M192.028 129.912C192.128 130.171 192.348 130.045 192.636 129.609C197.419 113.563 189.968 89.5804 189.943 89.5048C189.906 89.3723 189.762 89.2966 189.63 89.3408C189.499 89.3786 189.424 89.5237 189.468 89.6561C189.493 89.7381 197.043 114.042 192.028 129.912Z" fill="#288E67"/>
<path fill-rule="evenodd" clip-rule="evenodd" d="M182.806 101.653C178.361 99.7043 177.66 104.763 179.645 108.75C181.623 112.736 191.214 125.919 192.085 131.375C192.423 133.489 192.798 133.23 193.018 131.71C194.119 124.128 188.923 104.334 182.806 101.653Z" fill="#288E67"/>
<path fill-rule="evenodd" clip-rule="evenodd" d="M192.485 132.839C192.623 133.009 192.755 132.858 192.867 132.46C192.467 119.309 180.991 103.312 180.96 103.262C180.897 103.173 180.772 103.154 180.684 103.218C180.597 103.281 180.578 103.407 180.64 103.489C180.672 103.546 192.298 119.756 192.485 132.839Z" fill="#42B58B"/>
<path fill-rule="evenodd" clip-rule="evenodd" d="M189.067 130.246H197.607L199.835 132.277L198.013 139.348H193.337H188.654L186.832 132.277L189.067 130.246Z" fill="#0542BF"/>
<path fill-rule="evenodd" clip-rule="evenodd" d="M186.832 127.294H199.835C200.223 127.294 200.543 127.616 200.543 128.007V131.243C200.543 131.634 200.223 131.956 199.835 131.956H186.832C186.444 131.956 186.125 131.634 186.125 131.243V128.007C186.125 127.616 186.444 127.294 186.832 127.294Z" fill="#0542BF"/>
<path fill-rule="evenodd" clip-rule="evenodd" d="M199.835 132.277L199.46 133.728H187.208L186.832 132.277H199.835Z" fill="#063985"/>
<path d="M134.994 87.8583C134.994 87.8583 136.233 87.6817 138.763 87.4924C141.292 87.3032 143.014 87.1076 142.845 88.9495C142.669 90.7851 140.728 91.8952 140.728 91.8952L134.894 91.2392L134.994 87.8583Z" fill="#F19596"/>
<path d="M111.098 68.153L111.279 67.9133C111.279 67.9133 114.028 68.6072 114.51 70.4112C114.992 72.2152 117.365 81.7525 118.366 82.8627C119.362 83.9729 124.527 85.184 126.837 85.7075C129.141 86.2247 135.476 87.48 135.476 87.48C135.476 87.48 134.65 90.9808 135.821 91.7755C135.821 91.7755 123.187 91.4665 119.537 90.2869C115.887 89.1074 113.339 84.7739 113.339 84.7739L111.098 68.153Z" fill="#7BC7FF"/>
<path d="M116.1 99.3953L120.526 100.594C120.526 100.594 128.796 102.776 128.971 105.034C129.147 107.286 128.251 115.6 128.251 115.6L110.315 116.205C110.315 116.205 107.729 109.254 105.87 108.762C104.017 108.277 103.153 108.113 103.153 108.113L101.587 105.684L109.088 102.663L116.1 99.3953Z" fill="#282B4F"/>
<path d="M99.4401 66.8472C99.4401 66.8472 97.3052 67.7366 96.0093 68.5124C94.7133 69.2883 93.5989 71.2752 93.7366 74.6751C93.8744 78.075 97.4555 88.344 96.5852 90.8418C95.715 93.3397 93.5113 97.711 94.8197 102.221C96.1282 106.731 98.4008 107.702 103.153 108.119C103.153 108.119 104.855 105.589 107.235 104.34C109.607 103.091 116.532 100.127 120.2 100.909C120.2 100.909 113.282 97.4208 112.299 93.674C111.316 89.9272 114.672 84.7738 114.572 81.5001C114.472 78.22 112.763 73.4892 112.662 70.5183C112.556 67.5536 108.994 66.8535 108.994 66.8535H99.4401V66.8472Z" fill="#D4EDFF"/>
<path d="M95.2832 74.1138L94.5068 74.6878C94.5068 74.6878 94.6571 77.2866 95.471 80.5224C96.2849 83.7583 98.6451 94.7275 101.926 95.352C105.206 95.9827 112.487 92.0467 112.487 92.0467L113.17 89.1956L105.494 90.9555L98.7766 82.9888L95.2832 74.1138Z" fill="#BBE5FF"/>
<path d="M123.655 74.2065L123.46 74.7122L131.286 77.7759L131.481 77.2703L123.655 74.2065Z" fill="#147CDE"/>
<path d="M132.665 78.0184C132.452 78.5671 131.845 78.8384 131.3 78.6239C130.756 78.4094 130.486 77.7976 130.699 77.2488C130.912 76.7 131.519 76.4288 132.064 76.6433C132.609 76.8577 132.878 77.4696 132.665 78.0184Z" fill="#6AAEF2"/>
<path d="M132.383 77.9111C132.233 78.3022 131.795 78.4915 131.413 78.3401C131.025 78.1887 130.837 77.7471 130.987 77.3624C131.138 76.9713 131.576 76.7821 131.958 76.9334C132.34 77.0785 132.534 77.5201 132.383 77.9111Z" fill="#95CDFD"/>
<path d="M120.457 79.3366C120.457 79.3366 121.59 77.6146 122.404 76.3719C123.218 75.1293 126.067 74.2462 127.732 74.1138C129.397 73.9813 129.378 78.0498 128.608 78.6301C127.838 79.2167 122.655 81.7587 122.655 81.7587L120.457 79.3366Z" fill="#FEC3C0"/>
<path d="M94.438 74.3598C94.438 74.3598 95.2268 77.8984 95.8466 79.98C96.4664 82.0616 99.4966 88.9622 100.323 90.5266C101.149 92.0909 102.527 94.2355 104.211 94.3427C105.895 94.45 111.373 91.397 114.472 89.6624C117.571 87.9278 123.731 82.4148 123.731 82.4148C123.731 82.4148 122.323 78.7058 119.944 78.5671C119.944 78.5671 115.367 81.6516 112.819 83.3546C110.271 85.0514 108.38 85.9913 107.279 86.477C106.177 86.9627 105.112 85.1965 104.561 83.9476C104.01 82.6986 101.982 78.1192 101.638 76.7C101.293 75.2807 100.329 70.4238 98.3008 70.0075C96.2598 69.5722 94.2627 70.3039 94.438 74.3598Z" fill="#95CDFD"/>
<path d="M178.418 76.6998L178.794 76.4033C178.794 76.4033 180.828 77.3242 181.548 78.6047C182.268 79.8852 182.112 82.3894 181.285 84.1745C180.459 85.9532 177.128 92.6395 177.128 92.6395C177.128 92.6395 164.294 116.609 162.078 119.996C160.394 122.456 159.48 122.683 155.692 122.683H141.199C139.89 122.683 137.931 122.753 134.105 125.251C130.286 127.748 126.017 131.666 123.331 133.785C120.645 135.898 112.006 142.698 110.04 144.224C108.08 145.751 107.354 146.407 103.842 146.129C100.329 145.852 76.4828 140.717 74.83 140.32C72.3883 139.733 73.7281 135.412 73.7281 135.412L128.84 113.455L178.418 76.6998Z" fill="#95CDFD"/>
<path d="M144.611 123.945L145.087 122.683V117.183H150.734L145.606 123.428L145.087 122.683" fill="#84C1EF"/>
<path d="M120.882 100.392C120.882 100.392 121.784 111.247 122.435 113.329C123.092 115.411 124.326 117.94 125.359 118.117H119.367C119.367 118.117 117.921 116.35 117.37 114.061C116.819 111.771 115.548 100.568 115.548 100.568L120.882 100.392Z" fill="#1067AF"/>
<path d="M140.316 99.8684C140.316 99.0988 139.696 98.4744 138.932 98.4744H106.452C105.688 98.4744 105.068 99.0988 105.068 99.8684C105.068 100.051 105.106 100.228 105.169 100.392H140.215C140.278 100.234 140.316 100.058 140.316 99.8684Z" fill="#147CDE"/>
<path d="M105.168 100.392C105.375 100.903 105.87 101.262 106.452 101.262H138.932C139.514 101.262 140.009 100.903 140.215 100.392H105.168Z" fill="#0A62CC"/>
<path d="M134.832 105.526C134.832 105.526 144.191 85.9849 147.566 79.8412C150.94 73.6974 151.591 72.5999 155.141 73.0036C158.691 73.4073 174.286 75.2933 176.033 75.5267C177.779 75.7601 179.958 76.4034 179.545 78.2075C179.132 80.0115 176.972 84.3386 175.964 86.3508C174.956 88.3629 161.896 113.247 160.657 115.19C159.417 117.133 158.027 118.382 155.329 118.382H141.994C140.479 118.382 137.999 118.773 136.165 119.492C134.331 120.211 125.81 126.386 123.174 128.651C120.532 130.915 110.234 139.506 107.861 141.121C105.488 142.736 104.762 142.212 101.869 142.212C98.977 142.212 79.2999 138.049 75.6813 137.008C72.0689 135.968 74.1349 134.46 76.7143 131.962C79.2936 129.464 103.428 111.361 105.563 109.904C107.698 108.447 111.417 107.822 115.273 107.545C119.13 107.267 133.83 105.823 133.83 105.823L134.832 105.526Z" fill="#D4EDFF"/>
<path d="M169.678 72.6316C169.678 72.6316 171.337 75.5962 168.845 81.1344C166.354 86.6726 164.375 87.6629 165.458 91.7756C166.548 95.8882 160.794 104.208 157.576 107.614C154.365 111.021 148.492 119.082 142.269 119.725C136.046 120.369 129.385 120.097 123.957 122.292C118.529 124.488 105.269 139.437 100.423 140.85C95.5774 142.269 87.52 139.431 86.6247 136.371C85.7295 133.312 95.7026 125.97 95.7026 125.97C95.7026 125.97 111.179 111.185 118.848 110.169C126.517 109.153 136.365 111.185 141.036 103.603C145.706 96.0207 157.583 77.6399 157.583 77.6399C157.583 77.6399 163.029 70.4049 165.909 70.5752C168.783 70.7455 169.678 72.6316 169.678 72.6316Z" fill="#BFE2F7"/>
<path d="M147.766 79.5952C147.766 79.5952 151.191 76.8576 152.036 74.9464C152.28 74.4102 151.779 73.975 152.211 72.6062C152.643 71.2374 153.538 70.2976 154.866 69.6731C156.193 69.0486 158.447 69.0865 159.236 69.8119C159.236 69.8119 160.838 68.8405 163.092 69.8119C165.346 70.7833 167.343 73.8678 167.393 76.107C167.443 78.3463 165.465 82.6986 164.019 84.8117C162.572 86.9248 160.938 89.2524 160.938 89.2524C160.938 89.2524 155.824 88.9937 152.123 85.9219C148.417 82.8563 147.766 79.5952 147.766 79.5952Z" fill="#3E4A60"/>
<path d="M92.2965 127.149C92.2965 127.149 91.996 128.178 89.8173 127.812C87.6386 127.439 84.8276 126.121 83.613 127.149C82.4047 128.178 81.5282 130.455 82.8179 131.306C84.1013 132.158 87.9391 133.684 90.2806 134.7C92.622 135.715 93.6613 134.971 94.8258 133.198C95.9902 131.426 96.5725 130.966 96.5725 130.966L92.2965 127.149Z" fill="#3E4A60"/>
<path d="M97.9625 131.767C97.9625 131.767 97.662 132.795 95.4833 132.429C93.3046 132.057 90.4936 130.738 89.279 131.767C88.0707 132.795 87.1942 135.072 88.4839 135.923C89.7673 136.775 93.6051 138.301 95.9466 139.317C98.288 140.332 99.3273 139.588 100.492 137.816C101.656 136.043 102.238 135.583 102.238 135.583L97.9625 131.767Z" fill="#3E4A60"/>
<path d="M129.729 103.602C129.729 103.602 111.491 105.236 108.029 107.784C104.567 110.333 91.3511 127.338 91.3511 127.338C91.3511 127.338 92.6846 131.249 96.5599 131.615L107.61 122.456L114.446 117.606L128.752 111.474L135.902 108.201L136.64 107.254L129.729 103.602Z" fill="#2F9E77"/>
<path d="M135.645 107.488C135.645 107.488 120.601 109.879 116.5 111.859C112.406 113.834 96.5664 131.615 96.5664 131.615C96.5664 131.615 97.6808 136.661 103.891 136.214C103.891 136.214 116.851 122.582 119.774 120.64C122.698 118.697 130.824 117.845 133.579 117.612C136.334 117.379 138.882 117.208 140.704 116.723C142.526 116.237 142.25 115.72 142.25 115.72L135.645 107.488Z" fill="#42B58B"/>
<path d="M114.34 95.2195C114.34 95.2195 110.365 94.6707 107.973 96.1783C105.582 97.6858 106.02 98.6572 106.671 98.6257C107.322 98.5941 114.553 98.0201 114.553 98.0201L114.34 95.2195Z" fill="#FEC3C0"/>
<path d="M150.708 86.5526L150.364 86.1363C150.364 86.1363 146.802 85.7578 145.443 85.9597C144.084 86.1678 135.407 91.0563 135.407 91.0563C135.407 91.0563 128.865 94.6139 125.008 94.6833C121.152 94.7527 114.353 94.8031 114.353 94.8031C114.353 94.8031 112.994 97.2316 114.353 98.3228C114.353 98.3228 125.904 99.1744 128.571 98.6508C131.238 98.1336 142 93.447 142 93.447C142 93.447 140.228 97.6605 137.711 99.0167C135.201 100.367 128.345 103.874 128.345 103.874C128.345 103.874 136.265 104.113 140.704 116.71C140.704 116.71 143.077 117.019 146.626 114.805C150.17 112.585 154.44 105.615 156.405 103.495C158.365 101.382 161.433 96.3611 161.946 94.3805C162.459 92.4062 160.331 90.2048 158.847 89.4983C157.369 88.7918 155.46 87.9971 155.46 87.9971L150.708 86.5526Z" fill="#FF5E5D"/>
<path d="M155.729 95.1123C155.729 95.1123 149.493 100.039 145.7 100.398C141.636 100.783 133.779 101.079 133.779 101.079C133.779 101.079 144.316 99.4962 146.244 99.1682C148.354 98.8213 155.729 95.1123 155.729 95.1123Z" fill="#F24C4C"/>
<path d="M131.807 101.25C131.807 101.25 127.788 101.363 126.223 102.007C124.658 102.65 122.66 103.76 123.38 105.079C124.1 106.397 125.772 105.962 126.98 105.476C128.182 104.99 132.039 104.265 132.039 104.265L131.807 101.25Z" fill="#FEC3C0"/>
<path d="M112.65 57.9785C112.65 57.9785 113.295 57.8839 113.914 54.6922C114.534 51.5005 113.526 48.17 110.264 46.1137C107.003 44.0573 100.554 45.281 98.8325 48.1006C97.1108 50.9202 96.9293 54.5282 98.3254 57.2594C99.7278 59.9907 102.044 62.1164 104.066 61.7253L112.65 57.9785Z" fill="#063985"/>
<path d="M96.8921 55.3483C96.8921 55.3483 99.0019 56.6793 100.88 55.4114C102.758 54.1435 110.941 50.321 110.941 50.321C110.941 50.321 113.157 53.1785 114.541 52.4026L114.328 56.7613C114.328 56.7613 112.794 61.5299 112.731 61.5299C112.669 61.5299 109.282 62.0219 109.282 62.0219L103.128 64.2675L99.052 62.1481L96.8921 55.3483Z" fill="#05386B"/>
<path d="M106.909 65.3963C106.909 65.3963 106.896 65.3395 106.89 65.226C105.513 64.4438 103.691 64.2735 102.633 64.2483C102.583 65.0935 102.47 65.9072 102.251 66.3929C102.251 66.3929 102.32 69.2125 103.697 69.8622C105.075 70.5119 106.546 71.0417 106.546 71.0417L108.292 70.0703L107.716 66.046L106.909 65.3963Z" fill="#FEC3C0"/>
<path d="M107.003 63.7122L104.273 60.5898L102.621 61.0503C102.621 61.0503 102.727 62.7092 102.633 64.2483C103.691 64.2736 105.513 64.4439 106.89 65.226C106.872 64.9863 106.865 64.488 107.003 63.7122Z" fill="#F19596"/>
<path d="M112.857 56.4078C112.857 56.4078 113.164 65.6676 108.568 64.9927C103.973 64.3178 103.147 60.4637 103.147 60.4637C103.147 60.4637 101.4 59.9149 102.089 57.6946C102.777 55.4743 104.593 56.4709 104.68 56.7232C104.68 56.7232 109.639 55.2409 111.129 52.4907C111.135 52.497 111.661 55.0012 112.857 56.4078Z" fill="#FEC3C0"/>
<path d="M102.808 68.1528C102.808 68.1528 104.893 70.5624 107.391 68.7773L107.585 71.9312L106.909 73.3567L106.74 73.5649L106.483 73.464L104.11 72.0573L102.714 69.5595L102.808 68.1528Z" fill="#42B58B"/>
<path d="M102.633 64.4944C102.633 64.4944 100.392 64.9612 99.1396 66.8724C99.1396 66.8724 102.051 75.268 104.975 77.3811L106.49 73.464C106.49 73.4577 102.239 70.2534 102.633 64.4944Z" fill="white"/>
<path d="M106.909 65.0305V65.4027C106.909 65.4027 107.61 70.5119 106.909 73.3567C106.909 73.3567 109.05 75.8735 109.325 76.9837C109.325 76.9837 111.304 72.4547 109.688 66.803L106.909 65.0305Z" fill="white"/>
<path d="M84.3643 91.9646V93.51H98.4193C99.1957 93.51 99.8217 94.2038 99.8217 95.0554V108.302H101.224V93.51C101.224 93.0811 101.068 92.6963 100.811 92.4188C100.554 92.1412 100.204 91.9646 99.8155 91.9646H84.3643Z" fill="#158FF4"/>
<path d="M134.894 100.997L131.701 101.25C131.701 101.25 130.893 103.243 131.945 104.448H136.647L134.894 100.997Z" fill="#FF5E5D"/>
<path d="M112.856 0.25H111.905V19.7914H112.856V0.25Z" fill="#D3EBFE"/>
<path d="M116.444 27.4426C116.444 29.7008 114.628 31.5301 112.387 31.5301C110.146 31.5301 108.33 29.7008 108.33 27.4426C108.33 25.1845 110.146 23.3552 112.387 23.3552C114.622 23.3552 116.444 25.1845 116.444 27.4426Z" fill="#A7D2F2"/>
<path d="M112.418 17.4324C107.473 17.4324 103.334 20.9269 102.308 25.5946C102.051 26.7615 102.94 27.8591 104.123 27.8591H120.708C121.891 27.8591 122.78 26.7552 122.523 25.5946C121.496 20.9269 117.358 17.4324 112.418 17.4324Z" fill="#147CDE"/>
<path d="M155.729 84.717C156.48 83.5249 157.419 82.2128 157.419 82.2128L155.529 81.9353L153.206 82.5093C153.206 82.5093 152.899 83.3167 152.423 84.1746C153.362 83.9349 154.809 83.7835 155.729 84.717Z" fill="#F19596"/>
<path d="M155.729 84.717C154.809 83.7834 153.363 83.9348 152.417 84.1745C151.879 85.1459 151.121 86.1741 150.364 86.1362C150.364 86.1362 150.483 87.4545 152.067 87.9024C153.651 88.3502 155.51 88.0412 155.51 88.0412C155.51 88.0412 154.496 87.3284 154.859 86.3065C154.984 85.9533 155.328 85.3541 155.729 84.717Z" fill="#FEC3C0"/>
<path d="M154.283 72.8207C154.283 72.8207 151.347 75.9872 150.52 78.0372C149.694 80.0809 149.794 82.5473 152.204 82.9636C154.615 83.3799 156.918 82.2886 156.918 82.2886C156.918 82.2886 158.227 82.9636 159.329 81.5759C160.431 80.1882 158.434 79.2168 158.434 79.2168C158.434 79.2168 157.557 74.8077 157.951 72.3161C157.958 72.3098 156.155 72.4612 154.283 72.8207Z" fill="#FEC3C0"/>
<path d="M145.9 123.996L145.086 124.078V122.69C145.086 122.69 146.119 121.996 146.689 120.192C147.259 118.388 147.478 116.275 147.634 114.83C147.791 113.392 148.48 106.346 148.48 106.346H149.569L150.733 109.399L148.223 121.851L145.9 123.996Z" fill="#147CDE"/>
<path d="M149.569 106.346C149.569 106.346 148.667 117.202 148.016 119.284C147.359 121.365 146.125 123.895 145.092 124.071H151.084C151.084 124.071 152.53 122.305 153.081 120.015C153.632 117.726 154.903 106.523 154.903 106.523L149.569 106.346Z" fill="#6AAEF2"/>
<path d="M132.108 106.346C132.34 106.782 132.797 107.084 133.329 107.084H167.462C167.987 107.084 168.451 106.788 168.682 106.346H132.108Z" fill="#0A62CC"/>
<path d="M168.845 105.69C168.845 104.921 168.226 104.296 167.462 104.296H133.329C132.565 104.296 131.945 104.921 131.945 105.69C131.945 105.93 132.002 106.151 132.108 106.346H168.683C168.783 106.151 168.845 105.93 168.845 105.69Z" fill="#147CDE"/>
</g>
<defs>
<linearGradient id="paint0_linear" x1="179.688" y1="15.9002" x2="179.298" y2="82.2582" gradientUnits="userSpaceOnUse">
<stop stop-color="#A7D2F2"/>
<stop offset="1" stop-color="#CCEEFF"/>
</linearGradient>
<clipPath id="clip0">
<rect width="228.043" height="147.557" fill="white" transform="translate(0.478516 0.25)"/>
</clipPath>
</defs>
</svg>
