<svg width="176" height="176" viewBox="0 0 176 176" fill="none" xmlns="http://www.w3.org/2000/svg">
<path d="M152.775 0.522095H23.9175C11.186 0.522095 0.897949 10.8102 0.897949 23.5416V152.4C0.897949 165.131 11.186 175.419 23.9175 175.419H152.775C165.507 175.419 175.795 165.131 175.795 152.4V23.5416C175.795 10.8102 165.507 0.522095 152.775 0.522095Z" fill="url(#paint0_radial)"/>
<path d="M103.007 106.36H73.5575C71.7571 106.36 70.2139 107.904 70.2139 109.704C70.2139 111.505 71.7571 113.048 73.5575 113.048H103.007C104.807 113.048 106.351 111.505 106.351 109.704C106.479 107.904 104.936 106.36 103.007 106.36Z" fill="white"/>
<path d="M138.501 93.8862H130.013H123.069H53.6243H46.6798H38.1922C36.2632 93.8862 34.72 95.4295 34.72 97.3585V132.209C34.72 134.138 36.2632 135.681 38.1922 135.681H138.501C140.43 135.681 141.973 134.138 141.973 132.209V97.3585C141.973 95.4295 140.43 93.8862 138.501 93.8862ZM135.028 128.737H41.6644V100.831H50.1521H126.541H135.028V128.737Z" fill="white"/>
<path d="M115.224 69.5807H61.4688C60.9544 69.5807 60.5686 69.9665 60.5686 70.4809C60.5686 70.9953 60.9544 71.3811 61.4688 71.3811H115.224C115.738 71.3811 116.124 70.9953 116.124 70.4809C116.124 69.9665 115.738 69.5807 115.224 69.5807Z" fill="white"/>
<path d="M115.224 79.0972H61.4688C60.9544 79.0972 60.5686 79.483 60.5686 79.9974C60.5686 80.5118 60.9544 80.8976 61.4688 80.8976H115.224C115.738 80.8976 116.124 80.5118 116.124 79.9974C116.124 79.483 115.738 79.0972 115.224 79.0972Z" fill="white"/>
<path d="M115.224 88.6135H61.4688C60.9544 88.6135 60.5686 88.9993 60.5686 89.5137C60.5686 90.0281 60.9544 90.414 61.4688 90.414H115.224C115.738 90.414 116.124 90.0281 116.124 89.5137C116.124 88.9993 115.738 88.6135 115.224 88.6135Z" fill="white"/>
<path d="M53.6242 47.0755H105.965V60.0642H61.4688C60.9544 60.0642 60.5686 60.45 60.5686 60.9644C60.5686 61.4788 60.9544 61.8646 61.4688 61.8646H106.093C106.222 62.5076 106.608 63.022 106.993 63.5364C107.636 64.1794 108.537 64.5652 109.437 64.5652L123.069 64.308V93.8862H130.013V60.7072C130.013 60.5786 130.013 60.5786 130.013 60.45C130.013 60.3214 130.013 60.1928 130.013 60.0642C130.013 59.9356 130.013 59.9356 129.884 59.807C129.884 59.6784 129.756 59.5498 129.756 59.4212V59.2926C129.627 58.9068 129.37 58.6496 129.113 58.2638L111.88 41.1599C111.752 41.0313 111.494 40.9027 111.366 40.7741C111.366 40.7741 111.237 40.7741 111.237 40.6455C111.109 40.5169 110.98 40.5169 110.723 40.3883C110.594 40.3883 110.594 40.3883 110.466 40.3883C110.337 40.3883 110.208 40.2597 110.08 40.2597C109.823 40.2597 109.565 40.1311 109.437 40.1311H50.1519C48.2229 40.1311 46.6797 41.6743 46.6797 43.6033V93.8862H53.6242V47.0755ZM112.909 51.9623L118.182 57.235L112.909 57.3636V51.9623Z" fill="white"/>
<defs>
<radialGradient id="paint0_radial" cx="0" cy="0" r="1" gradientUnits="userSpaceOnUse" gradientTransform="translate(88.3487 87.9277) scale(169.282)">
<stop stop-color="#0A9045"/>
<stop offset="1" stop-color="#112213"/>
</radialGradient>
</defs>
</svg>
