<svg width="177" height="278" viewBox="0 0 177 278" fill="none" xmlns="http://www.w3.org/2000/svg">
<path opacity="0.26" d="M176.6 252.8C176.6 256.044 174.326 259.256 169.909 262.252C165.491 265.249 159.017 267.972 150.854 270.266C142.692 272.559 133.002 274.379 122.338 275.62C111.673 276.861 100.243 277.5 88.6998 277.5C65.3873 277.5 43.0296 274.898 26.5451 270.266C10.0607 265.634 0.799805 259.351 0.799805 252.8C0.799805 246.249 10.0607 239.967 26.5451 235.335C43.0296 230.702 65.3873 228.1 88.6998 228.1C112.012 228.1 134.37 230.702 150.854 235.335C167.339 239.967 176.6 246.249 176.6 252.8V252.8Z" fill="url(#paint0_radial)"/>
<path d="M174.7 86.8999C173.2 39.1999 136 0.399902 88.3 0.399902C40.6 0.399902 3.39997 39.0999 1.89997 86.8999C-0.300033 156.5 55.2 177.5 79.5 222.2C83.3 229.2 93.3 229.2 97.1 222.2C121.5 177.5 176.9 156.6 174.7 86.8999Z" fill="#8BC249"/>
<path d="M153.2 87.6C153.2 104.813 146.362 121.32 134.191 133.491C122.02 145.662 105.512 152.5 88.2999 152.5C71.0874 152.5 54.5798 145.662 42.4087 133.491C30.2376 121.32 23.3999 104.813 23.3999 87.6C23.3999 70.3874 30.2376 53.8798 42.4087 41.7087C54.5798 29.5376 71.0874 22.7 88.2999 22.7C105.512 22.7 122.02 29.5376 134.191 41.7087C146.362 53.8798 153.2 70.3874 153.2 87.6V87.6Z" fill="white"/>
<path d="M122 92.7001H114.3V121.3H94.0002V103.5H82.6002V121.3H62.4002V92.7001H54.7002L67.4002 78.2001V59.6001H76.9002V67.3001L88.4002 54.1001L105.2 73.4001L122 92.7001Z" fill="#8BC249"/>
<defs>
<radialGradient id="paint0_radial" cx="0" cy="0" r="1" gradientUnits="userSpaceOnUse" gradientTransform="translate(88.7154 252.843) scale(64.566 12.9132)">
<stop/>
<stop offset="1" stop-color="white"/>
</radialGradient>
</defs>
</svg>
