<svg xmlns="http://www.w3.org/2000/svg">
  <symbol id="sd_message" fill="none" viewBox="0 0 30 30">
    <path d="M19.8193 10.1514L12.7395 17.2784L4.4508 12.1768C3.3647 11.5082 3.58484 9.85871 4.80838 9.50358L24.3777 3.80929C25.4906 3.48723 26.5195 4.53057 26.1863 5.64861L20.3799 25.1978C20.0163 26.4211 18.3853 26.633 17.7261 25.5407L12.7395 17.2784" stroke="white" stroke-width="1.5" stroke-linecap="round" stroke-linejoin="round"/>
  </symbol>
  <symbol id="sd_calendar" fill="white" viewBox="0 0 30 30">
    <path d="M3.86621 11.7553H26.1461" stroke="white" stroke-width="1.5" stroke-linecap="round" stroke-linejoin="round"/>
    <path d="M20.5527 16.6372H20.5643" stroke="white" stroke-width="1.5" stroke-linecap="round" stroke-linejoin="round"/>
    <path d="M15.0058 16.6372H15.0174" stroke="white" stroke-width="1.5" stroke-linecap="round" stroke-linejoin="round"/>
    <path d="M9.44723 16.6372H9.45881" stroke="white" stroke-width="1.5" stroke-linecap="round" stroke-linejoin="round"/>
    <path d="M20.5527 21.4953H20.5643" stroke="white" stroke-width="1.5" stroke-linecap="round" stroke-linejoin="round"/>
    <path d="M15.0058 21.4953H15.0174" stroke="white" stroke-width="1.5" stroke-linecap="round" stroke-linejoin="round"/>
    <path d="M9.44723 21.4953H9.45881" stroke="white" stroke-width="1.5" stroke-linecap="round" stroke-linejoin="round"/>
    <path d="M20.0546 2.5V6.61347" stroke="white" stroke-width="1.5" stroke-linecap="round" stroke-linejoin="round"/>
    <path d="M9.95693 2.5V6.61347" stroke="white" stroke-width="1.5" stroke-linecap="round" stroke-linejoin="round"/>
    <path fill-rule="evenodd" clip-rule="evenodd" d="M20.2978 4.474H9.7137C6.04284 4.474 3.75 6.51892 3.75 10.2778V21.5898C3.75 25.4078 6.04284 27.5 9.7137 27.5H20.2863C23.9687 27.5 26.25 25.4433 26.25 21.6844V10.2778C26.2615 6.51892 23.9803 4.474 20.2978 4.474Z" stroke="white" stroke-width="1.5" stroke-linecap="round" stroke-linejoin="round"/>
  </symbol>
  <symbol id="sd_tooth" viewBox="0 0 30 30">
    <path d="M15.0084 2.5C7.87437 2.5 2.10187 4.45283 2.52152 11.7232C2.88522 17.921 5.00211 22.3309 6.89519 24.9805C8.84423 27.7035 10.8119 28.5011 12.0149 25.9615C12.7143 24.4763 13.7681 22.9085 14.9991 22.9085C16.23 22.9085 17.2838 24.4854 17.9832 25.9615C19.1862 28.5011 21.1539 27.7035 23.1029 24.9805C24.996 22.3309 27.1223 17.9118 27.4766 11.7232C27.9149 4.45283 22.1331 2.5 15.0084 2.5Z" fill="white"/>
    <path d="M20.7632 11.8401C20.6902 11.8801 20.6301 11.9402 20.5901 12.0132L19.763 13.5232C19.5978 13.8248 19.165 13.8258 18.9984 13.5251L18.1599 12.0119C18.1199 11.9397 18.0602 11.8803 17.9878 11.8407L16.4768 11.013C16.1752 10.8478 16.1742 10.415 16.4749 10.2484L17.9891 9.40931C18.0607 9.36965 18.1197 9.31066 18.1593 9.23909L18.9984 7.72493C19.165 7.42419 19.5978 7.42524 19.763 7.7268L20.5907 9.23778C20.6303 9.31018 20.6897 9.36986 20.7619 9.40987L22.2751 10.2484C22.5758 10.415 22.5748 10.8478 22.2732 11.013L20.7632 11.8401Z" fill="#ECECEC"/>
  </symbol>
  <symbol id="sd_emergency_tooth" viewBox="0 0 30 30">
    <path d="M15.0084 2.5C7.87437 2.5 2.10187 4.45283 2.52152 11.7232C2.88522 17.921 5.00211 22.3309 6.89519 24.9805C8.84423 27.7035 10.8119 28.5011 12.0149 25.9615C12.7143 24.4763 13.7681 22.9085 14.9991 22.9085C16.23 22.9085 17.2838 24.4854 17.9832 25.9615C19.1862 28.5011 21.1539 27.7035 23.1029 24.9805C24.996 22.3309 27.1223 17.9118 27.4766 11.7232C27.9149 4.45283 22.1331 2.5 15.0084 2.5Z" fill="white"/>
    <path d="M20.7632 11.8401C20.6902 11.8801 20.6301 11.9402 20.5901 12.0132L19.763 13.5232C19.5978 13.8248 19.165 13.8258 18.9984 13.5251L18.1599 12.0119C18.1199 11.9397 18.0602 11.8803 17.9878 11.8407L16.4768 11.013C16.1752 10.8478 16.1742 10.415 16.4749 10.2484L17.9891 9.40931C18.0607 9.36965 18.1197 9.31066 18.1593 9.23909L18.9984 7.72493C19.165 7.42419 19.5978 7.42524 19.763 7.7268L20.5907 9.23778C20.6303 9.31018 20.6897 9.36986 20.7619 9.40987L22.2751 10.2484C22.5758 10.415 22.5748 10.8478 22.2732 11.013L20.7632 11.8401Z" fill="#FF0000"/>
  </symbol>
  <symbol id="asdf_adsf" viewBox="0 0 50 26">
<line x1="0.227235" y1="0.554619" x2="49.2272" y2="25.5546" stroke="black"/>
</symbol>

</svg>