<svg width="303" height="286" viewBox="0 0 303 286" fill="none" xmlns="http://www.w3.org/2000/svg">
<path d="M83.2498 188.772C83.2498 188.772 48.4482 188.592 42.6944 191.037C37.0527 193.367 40.1873 200.02 45.5105 199.62C45.5105 199.62 24.9744 197.922 27.9454 210.244C27.9454 210.244 9.69896 210.561 15.171 223.536C15.171 223.536 -2.01613 227.354 3.15607 233.758C8.32826 240.161 19.2149 230.405 19.2149 230.405C19.2149 230.405 22.7664 243.968 36.8292 234.403C36.8292 234.403 43.2949 244.987 56.7241 229.421C56.7241 229.421 62.6181 249.759 91.2885 208.292L83.2498 188.772Z" fill="#FCB116"/>
<path d="M83.2498 188.772C83.2498 188.772 52.0776 188.779 50.0955 194.015C47.8867 199.254 60.805 198.884 60.805 198.884C60.805 198.884 38.9215 198.334 37.0439 202.775C35.1664 207.217 47.3843 205.041 47.3843 205.041C47.3843 205.041 17.4035 210.249 20.3139 217.131C20.3139 217.131 26.5565 217.855 31.182 215.876C31.182 215.876 7.9249 224.297 10.2548 229.938C12.5846 235.58 33.6467 223.444 33.6467 223.444C33.6467 223.444 18.9755 229.274 24.3264 231.369C29.5653 233.577 45.6985 226.71 45.6985 226.71C45.6985 226.71 40.5052 228.581 41.9031 231.966C43.301 235.352 63.431 220.958 63.431 220.958C63.431 220.958 58.8458 226.564 63.1729 228.329C67.6146 230.207 89.4109 212.734 91.2835 207.839L83.2498 188.772Z" fill="#FFCB05"/>
<path d="M86.2774 195.993C86.2774 195.993 59.8315 203.089 56.8508 210.263C53.8701 217.437 89.0732 202.763 89.0732 202.763L86.2774 195.993Z" fill="#FFF200"/>
<path d="M206.758 194.435C209.339 196.056 211.469 198.139 213.035 200.574C213.035 200.574 173.615 249.401 123.92 277.793C119.436 273.409 119.436 273.409 119.436 273.409C119.436 273.409 121.028 268.418 122.179 260.738C155.179 246.951 186.075 223.88 206.758 194.435Z" fill="#F4868B"/>
<path d="M206.137 194.549C185.708 223.916 154.894 246.717 121.714 260.25C123.185 249.352 123.805 233.136 117.862 217.903C108.768 194.205 180.109 177.169 206.137 194.549Z" fill="#F05B6F"/>
<path d="M177.421 124.504C167.961 154.423 106.932 188.528 97.7654 165.461C92.2449 151.78 82.3389 140.973 74.0741 134.009C107.953 122.374 142.923 115.835 177.421 124.504Z" fill="#F05B6F"/>
<path d="M61.0599 117.281C116.422 103.778 178.357 112.83 178.357 112.83C179.091 116.46 178.688 120.098 177.496 124.084C142.947 115.383 107.934 121.909 74.0175 133.538C66.656 127.234 60.9272 123.872 60.9272 123.872C60.9272 123.872 60.8119 123.759 61.0599 117.281Z" fill="#CD4C5E"/>
<path d="M116.678 213.445L107.554 217.028L98.2678 193.654C101.426 192.723 104.581 191.565 107.625 190.522L116.678 213.445Z" fill="#53316B"/>
<path d="M99.1871 169.682L107.1 190.343C104.093 191.412 100.862 192.487 97.8548 193.556L90.1646 173.335L99.1871 169.682Z" fill="#492960"/>
<path d="M89.5105 172.806L97.789 193.709C93.4668 195.098 89.028 196.374 84.5893 197.65C89.028 196.374 93.4668 195.098 97.789 193.709L107.262 217.352L89.1565 215.821L76.8158 185.554L89.5105 172.806Z" fill="#F05B6F"/>
<path d="M295.08 126.275C292.624 129.932 289.474 132.237 289.474 132.237L216.441 195.91L212.749 200.602C172.185 193.023 127.041 213.28 118.128 217.579L107.403 190.034C167.172 169.494 221.627 139.717 286.014 126.834C288.843 126.234 292.13 126.082 295.08 126.275Z" fill="white"/>
<path d="M97.348 164.559C106.954 161.628 153.385 145.853 177.936 112.939L183.845 113.788L278.848 108.762C278.848 108.762 293.451 106.235 297.081 115.387C298.722 119.682 297.294 123.439 295.291 126.636C292.339 126.438 289.278 126.582 285.883 127.296C221.492 140.073 167.066 169.767 107.307 190.211L99.1068 169.193C99.1068 169.193 98.4039 167.385 97.348 164.559Z" fill="#D5D7D8"/>
<path d="M217.627 129.445C230.407 123.93 242.136 123.836 247.622 136.762C220.33 144.988 194.428 155.684 168.522 166.155C171.524 163.085 196.216 138.752 217.627 129.445Z" fill="#38194B"/>
<path d="M247.85 137.432C248.087 137.888 248.213 138.458 248.567 139.027C253.76 153.044 245.248 160.584 232.214 164.596C207.959 171.934 167.823 166.869 167.823 166.869C167.823 166.869 167.935 166.755 168.158 166.527C194.177 156.221 220.303 145.574 247.85 137.432Z" fill="#38194B"/>
<path d="M212.778 132.068C219.286 133.556 225.289 137.653 228.384 143.561C207.998 150.448 188.315 158.245 168.522 166.155C171.292 163.322 192.475 142.361 212.778 132.068Z" fill="#53316B"/>
<path d="M228.39 143.578C229.935 146.654 230.921 150.302 230.658 154.295C229.627 159.772 227.548 164.225 223.375 166.629C199.39 170.904 167.823 166.87 167.823 166.87C167.823 166.87 167.935 166.755 168.158 166.527C188.076 158.497 207.882 150.582 228.39 143.578Z" fill="#53316B"/>
<path d="M212.697 132.427C214.42 131.589 216.143 130.751 217.751 130.031C228.554 126.607 237.993 127.811 242.749 138.884C237.807 140.472 233.096 142.057 228.27 143.758C225.142 137.718 219.26 133.8 212.697 132.427Z" fill="#492960"/>
<path d="M242.916 138.201C243.139 138.877 243.477 139.437 243.701 140.113C247.728 152.053 242.005 159.489 231.978 164.087C229.132 164.961 226.172 165.726 223.1 166.379C227.319 163.875 229.616 159.49 230.669 153.89C231.032 149.9 230.142 146.287 228.681 143.257C233.464 141.533 238.247 139.809 242.916 138.201Z" fill="#492960"/>
<path d="M235.084 142.431C234.249 143.285 233.788 144.434 233.801 145.628C233.815 146.821 234.301 147.96 235.155 148.795C236.008 149.629 237.158 150.091 238.351 150.077C239.544 150.064 240.684 149.577 241.518 148.724C242.353 147.871 242.814 146.721 242.801 145.527C242.787 144.334 242.301 143.195 241.447 142.36C240.594 141.526 239.444 141.065 238.251 141.078C237.058 141.091 235.918 141.578 235.084 142.431V142.431Z" fill="white"/>
<path d="M241.071 118.707C241.12 119.251 241.489 119.761 242.159 120.208C242.828 120.654 243.784 121.029 244.972 121.311C246.16 121.593 247.556 121.776 249.082 121.849C250.608 121.923 252.233 121.886 253.865 121.741C255.496 121.595 257.102 121.344 258.591 121.001C260.08 120.659 261.423 120.232 262.542 119.744C263.661 119.257 264.536 118.719 265.115 118.161C265.695 117.603 265.968 117.035 265.92 116.491C265.822 115.393 264.419 114.456 262.02 113.888C259.621 113.319 256.421 113.164 253.126 113.458C249.831 113.752 246.71 114.47 244.449 115.454C242.189 116.439 240.974 117.609 241.071 118.707Z" fill="#F7F7F7"/>
<path d="M183.473 124.549C183.571 125.647 184.974 126.584 187.373 127.153C189.772 127.722 192.972 127.876 196.267 127.582C199.562 127.289 202.683 126.571 204.944 125.586C207.204 124.602 208.419 123.432 208.322 122.333C208.224 121.235 206.821 120.298 204.421 119.729C202.022 119.16 198.823 119.006 195.528 119.3C192.233 119.593 189.112 120.312 186.851 121.296C184.59 122.28 183.375 123.45 183.473 124.549Z" fill="#F7F7F7"/>
<path d="M260.604 87.1055C263.697 92.115 265.548 95.1123 263.211 97.9238C260.359 101.356 253.347 97.6435 246.633 94.0888C240.553 90.8699 234.717 87.7801 232.432 90.2399C223.862 95.3772 217.891 95.9096 208.547 92.3696C205.863 90.3527 200.666 94.4263 195.251 98.67C189.272 103.357 183.028 108.251 179.613 105.378C176.816 103.024 178.107 99.7464 180.265 94.2686C183.128 87.0038 187.515 75.8696 185.911 57.8889L205.318 56.1586L248.611 52.2985C250.214 70.2792 256.501 80.4616 260.604 87.1055Z" fill="#E43434"/>
<path d="M192.951 75.9882L174.97 58.7107C174.97 58.7107 168.963 56.1637 167.974 52.2703C167.974 52.2703 167.774 50.7468 171.163 53.463C171.163 53.463 167.605 51.0187 167.752 49.7855C167.963 48.5465 170.219 50.0793 171.329 51.0078C172.439 51.9363 166.164 47.1013 167.834 45.668C169.505 44.2347 171.733 48.3388 172.219 48.745C172.219 48.745 168.588 45.4724 170.517 44.7866C172.447 44.1008 173.524 47.5369 174.798 47.4232C174.798 47.4232 173.505 45.1624 174.618 44.6779C175.789 44.124 175.939 44.3674 177.012 46.3267C177.549 47.3064 178.542 46.1904 179.342 48.6878L179.33 49.2669C179.33 49.2669 186.043 51.8151 190.017 51.0112C190.017 51.0112 197.414 56.9022 203.538 58.6038C203.538 58.6038 218.715 63.1589 238.164 52.2413C238.164 52.2413 248.862 47.6269 250.777 45.3368C250.777 45.3368 249.383 41.2226 250.402 41.1318C251.103 41.0693 251.705 41.3367 251.893 43.4392C251.893 43.4392 250.975 38.1908 253.597 38.7918C253.597 38.7918 254.453 39.7431 254.825 42.4714C254.825 42.4714 253.867 36.7769 256.102 37.3484C258.331 37.8561 256.981 41.4443 257.083 42.5911C257.083 42.5911 257.984 37.5659 259.302 38.6685C260.621 39.7711 260.14 43.025 259.792 43.4414C259.444 43.8577 260.019 45.9899 260.782 46.6283C261.546 47.2666 264.182 46.582 264.307 47.9837C264.307 47.9837 264.262 50.3639 260.718 50.2303C260.718 50.2303 259.219 49.9787 255.085 56.1913C250.881 62.3459 244.1 65.5194 243.791 69.9781C243.482 74.4369 245.536 88.8317 245.536 88.8317C245.536 88.8317 250.084 104.545 255.029 108.15C266.493 116.44 250.021 121.12 244.88 116.762C239.675 112.409 234.48 106.001 230.58 104.037C226.686 102.136 219.543 103.415 215.869 104.706C212.201 106.061 207.423 112.973 205.252 118.882C203.082 124.791 194.114 126.49 191.144 122.709C188.168 118.864 194.083 114.612 194.839 112.297C195.66 109.976 195.368 94.4607 195.056 90.9565C194.68 87.4579 194.275 77.1546 192.951 75.9882Z" fill="#DFEDF0"/>
<path d="M244.145 109.956C244.145 109.956 239.249 101.145 235.179 100.159C231.104 99.1094 219.171 100.687 215.066 100.026C211.025 99.3583 204.764 113.403 202.849 115.693L206.735 115.346C206.735 115.346 210.38 107.251 215.747 104.781C221.178 102.306 229.603 103.161 231.743 104.832C233.877 106.44 239.289 111.673 239.289 111.673C239.289 111.673 243.841 111.588 244.145 109.956Z" fill="#CCDAE1"/>
<path d="M181.295 64.8258L183.389 59.5015C183.389 59.5015 196.326 66.3113 197.947 70.0842C199.568 73.8571 201.687 87.5397 201.884 94.0726C202.081 100.605 199.583 115.085 196.971 115.318C194.359 115.551 196.716 115.341 196.716 115.341L194.218 113.252C194.218 113.252 196.04 111.355 195.179 100.258C194.323 89.2238 194.817 78.1981 193.187 76.4811C191.621 74.7583 181.295 64.8258 181.295 64.8258Z" fill="#CCDAE1"/>
<path d="M251.714 52.9596C251.714 52.9596 237.997 58.2928 238.735 66.5756C239.474 74.8583 239.792 94.9951 243.794 101.702C247.732 108.416 249.051 109.518 249.051 109.518L251.695 103.888C251.695 103.888 245.822 94.2005 244.942 84.3249C244.056 74.3856 242.367 69.8481 246.753 65.0258L253.366 58.5279C253.297 58.4699 254.56 54.6324 251.714 52.9596Z" fill="#CCDAE1"/>
<path d="M182.279 34.8112C184.069 54.881 199.247 61.6194 217.087 60.0288C234.927 58.4381 249.694 49.0298 246.885 29.0509C243.933 8.18563 231.252 3.53645 213.476 5.12141C195.572 6.71773 180.893 19.2651 182.279 34.8112Z" fill="#CCDAE1"/>
<path d="M184.829 33.8776C186.573 53.4377 201.161 60.036 218.237 58.5136C235.376 56.9854 249.522 47.825 246.759 28.3558C243.921 8.05831 231.762 3.49112 214.623 5.01927C197.484 6.54742 183.483 18.7774 184.829 33.8776Z" fill="#DFEDF0"/>
<path d="M189.881 32.9134C191.233 48.0772 204.521 53.0576 220.258 51.6544C235.995 50.2512 249.09 42.9827 246.841 27.8347C244.476 12.1189 233.38 8.67708 217.643 10.0803C201.906 11.4834 188.83 21.1264 189.881 32.9134Z" fill="#466D91"/>
<path d="M194.104 32.0229C195.32 45.6577 207.59 50.0224 222.116 48.7271C236.643 47.4319 248.77 40.8277 246.732 27.3305C244.573 13.2019 234.351 10.1959 219.824 11.4912C205.297 12.7864 193.161 21.4465 194.104 32.0229Z" fill="#5F96C9"/>
<path d="M245.807 89.7066C245.807 89.7066 232.572 93.9691 220.785 95.0201C208.361 96.1279 195.811 92.9441 195.112 92.3001C194.418 91.7197 193.702 90.178 194.451 89.2122C195.263 88.2406 207.134 92.4483 220.259 91.278C233.384 90.1078 244.076 86.1361 245.159 86.0396C246.306 85.9373 245.981 89.4984 245.807 89.7066Z" fill="#5F96C9"/>
<path d="M251.02 102.792C251.02 102.792 250.134 105.825 246.829 108.368C243.523 110.91 239.093 110.92 238.711 110.954C238.328 110.988 244.543 117.305 245.613 117.788C246.684 118.271 251.938 121.013 257.493 117.05C257.493 117.05 262.844 113.683 258.228 110.177C256.164 108.627 254.565 108.705 251.02 102.792Z" fill="#5F96C9"/>
<path d="M207.525 114.12C207.525 114.12 203.652 116.777 199.149 115.252C194.646 113.727 194.781 112.366 194.781 112.366C194.781 112.366 193.133 114.761 192.215 115.999C191.298 117.237 188.241 120.399 191.086 122.778C193.931 125.158 197.287 126.785 203.098 122.093C203.029 122.035 206.388 118.653 207.525 114.12Z" fill="#5F96C9"/>
<path d="M246.748 64.9623C246.748 64.9623 248.588 55.3578 241.554 50.6547C241.554 50.6547 241.683 49.9368 243.34 49.7891C243.34 49.7891 250.048 55.1634 248.343 63.4072C248.279 63.4129 247.576 64.8885 246.748 64.9623Z" fill="#5F96C9"/>
<path d="M249.706 62.1297C249.706 62.1297 250.252 54.5673 244.14 49.3967C244.14 49.3967 244.332 48.6731 245.415 48.5766C245.415 48.5766 251.008 52.9586 251.127 60.7828C251.127 60.7828 250.471 62.0616 249.706 62.1297Z" fill="#5F96C9"/>
<path d="M186.284 69.6467C186.284 69.6467 193.288 61.7654 191.095 53.7407C191.095 53.7407 192.616 54.9537 193.027 55.2382C193.438 55.5227 193.408 65.9932 188.533 71.8223C188.528 71.7586 186.392 70.8573 186.284 69.6467Z" fill="#5F96C9"/>
<path d="M185.227 68.5851C185.227 68.5851 191.184 62.6594 189.263 51.9133L188.483 51.0838L187.128 51.0119C187.128 51.0119 189.684 59.518 183.538 66.9375C183.544 67.0012 183.924 68.3802 185.227 68.5851Z" fill="#5F96C9"/>
<path d="M237.835 55.0064C237.835 55.0064 235.832 65.4146 225.947 66.296C216.062 67.1773 203.113 72.4039 197.113 59.8787C197.113 59.8787 196.705 58.2267 199.657 59.2049C206.429 61.382 226.85 60.3557 235.001 55.3584C235.061 55.3033 237.712 53.6269 237.835 55.0064Z" fill="#CCDAE1"/>
<path d="M255.804 55.6134C255.804 55.6134 255.884 52.9091 251.962 49.9835C248.041 47.0579 247.884 47.4572 247.884 47.4572C247.884 47.4572 250.783 45.4006 250.61 44.9022C250.443 44.4676 248.89 41.4592 250.577 40.9236C250.577 40.9236 251.341 40.8554 251.687 41.8521C251.687 41.8521 250.829 38.7175 252.805 38.5414C254.78 38.3653 254.555 40.8899 254.589 41.2722C254.623 41.6545 253.382 36.3707 256.212 37.1458C256.212 37.1458 258.314 37.6649 257.178 41.491C257.178 41.491 257.399 37.4896 259.748 38.6287C262.097 39.7679 259.544 42.8212 259.697 44.5415C259.851 46.2618 261.72 47.0584 262.676 46.9732C263.568 46.8937 264.593 46.8665 264.718 48.2682C264.848 49.7336 262.432 50.7197 260.55 50.5022C258.796 50.2733 257.588 55.4544 255.804 55.6134Z" fill="#5F96C9"/>
<path d="M182.033 50.0535C182.033 50.0535 183.217 51.8103 181.089 56.7524C178.961 61.6944 177.543 60.9217 177.288 60.9444C177.033 60.9672 176.277 59.686 174.951 59.2262C173.626 58.7664 167.882 54.8473 167.712 52.9359C167.541 51.0245 168.334 51.2749 170.139 52.7838C170.139 52.7838 166.842 50.3805 167.712 49.3395C168.583 48.2986 170.311 50.3923 171.068 50.9669C171.068 50.9669 165.984 47.2459 167.887 45.535C169.726 43.8298 170.432 47.4273 172.074 48.5653C172.074 48.5653 168.263 45.4372 170.361 44.4795C170.361 44.4795 171.388 43.7458 173.041 45.7177C173.041 45.7177 174.075 47.231 174.723 47.3016C174.723 47.3016 173.164 44.9361 174.775 44.2786C176.386 43.6212 176.689 45.585 177.203 46.3098C177.648 46.9766 178.125 45.8423 179.418 48.1031C180.584 50.3753 181.131 49.2991 182.033 50.0535Z" fill="#5F96C9"/>
<path d="M175.779 49.7761C175.779 49.7761 178.039 52.0791 176.871 54.1098C175.768 56.1349 173.518 57.5556 172.166 56.0707C170.813 54.5858 174.497 54.1289 174.53 51.6213C174.622 49.0444 175.218 49.2481 175.779 49.7761Z" fill="#466D91"/>
<path d="M205.03 84.6307C205.257 87.1745 207.579 89.1157 210.28 88.8749L230.109 87.1069C232.738 86.8725 234.757 84.6135 234.524 82.001L233.74 73.2009C233.513 70.6571 231.191 68.716 228.49 68.9568L208.662 70.7247C206.032 70.9592 204.013 73.2181 204.246 75.8307L205.03 84.6307Z" fill="#0458A4"/>
<path d="M244.839 43.5383C240.245 48.5944 217.214 64.3452 218.084 66.9361C225.579 64.4202 238.939 55.3104 245.658 49.7039C246.951 48.5956 246.516 47.2999 244.839 43.5383Z" fill="#E43434"/>
<path d="M185.625 47.2219C191.346 51.8496 217.965 63.7204 217.645 67.0332C209.544 66.2508 194.109 59.3961 186.126 54.7391C184.583 53.8083 184.743 52.1521 185.625 47.2219Z" fill="#E43434"/>
<g opacity="0.23">
<path d="M217.702 13.6131C232.449 12.2982 244.199 15.8242 245.565 31.1383C246.024 45.898 234.967 46.9474 233.367 48.2335C231.149 49.003 233.415 48.1968 228.93 49.7725C225.629 51.2103 220.513 51.0947 217.637 51.3511C214.761 51.6075 211.864 50.7225 208.977 50.4081C203.103 48.6451 206.04 49.5266 201.301 47.6624C198.88 46.1631 193.938 42.0302 193.432 36.3582C192.067 21.0441 201.056 15.0973 217.702 13.6131Z" fill="white"/>
<path d="M216.676 38.0711L227.177 37.1462C227.458 38.7065 227.134 41.9863 223.592 42.6243C220.05 43.2624 217.506 39.8546 216.676 38.0711Z" fill="#FF9061"/>
<path d="M214.495 33.5156C212.322 33.9023 210.143 31.8679 209.628 28.9717C209.112 26.0755 210.455 23.4141 212.627 23.0274C214.799 22.6407 216.978 24.675 217.494 27.5712C218.01 30.4675 216.667 33.1288 214.495 33.5156Z" fill="#7C7B8A"/>
<path d="M230.605 32.0954C228.536 32.4639 226.459 30.5254 225.968 27.7657C225.477 25.006 226.756 22.4701 228.826 22.1016C230.896 21.7331 232.972 23.6715 233.464 26.4312C233.955 29.191 232.675 31.7269 230.605 32.0954Z" fill="#7C7B8A"/>
<path d="M212.633 27.6245C211.909 27.7534 211.218 27.2709 211.089 26.5469C210.96 25.8228 211.442 25.1314 212.166 25.0025C212.89 24.8735 213.582 25.356 213.711 26.0801C213.84 26.8041 213.357 27.4956 212.633 27.6245Z" fill="white"/>
<path d="M228.832 26.4819C228.142 26.6047 227.483 26.145 227.36 25.455C227.237 24.7651 227.697 24.1062 228.387 23.9834C229.077 23.8606 229.736 24.3203 229.859 25.0102C229.981 25.7001 229.522 26.359 228.832 26.4819Z" fill="white"/>
</g>
<path d="M211.004 85.502C210.978 85.4801 210.953 85.4702 210.929 85.4723C210.893 85.4754 210.863 85.4839 210.841 85.4979C210.818 85.5119 210.794 85.52 210.77 85.522C210.46 85.5488 210.175 85.4649 209.918 85.2703C209.671 85.0627 209.481 84.8201 209.349 84.5424C209.528 84.527 209.648 84.4444 209.707 84.2948C209.777 84.1321 209.837 83.9162 209.886 83.647C209.912 83.3918 209.955 83.2617 210.015 83.2565L211.635 84.0203C211.659 84.0183 211.694 84.0092 211.741 83.9931C211.8 83.976 211.871 83.9638 211.954 83.9566C212.098 83.9443 212.179 83.9734 212.197 84.0442L212.626 83.9891C212.841 83.9706 212.998 83.9811 213.098 84.0207C213.198 84.0603 213.272 84.078 213.32 84.0739C214.037 84.0121 214.719 83.8268 215.367 83.5181C216.026 83.1963 216.329 82.7246 216.275 82.1029C216.253 81.8399 216.15 81.5537 215.966 81.2443C215.783 80.9348 215.58 80.7476 215.358 80.6824L210.316 78.985C209.845 78.8328 209.484 78.5568 209.233 78.1569C208.98 77.745 208.83 77.2641 208.783 76.7141C208.761 76.463 208.789 76.2258 208.866 76.0023C208.954 75.7659 209.05 75.5529 209.154 75.3633C209.27 75.1606 209.348 75.0214 209.389 74.9455C209.718 74.4234 210.208 74.0319 210.86 73.771C211.524 73.509 212.245 73.3446 213.022 73.2776C213.117 73.2694 213.263 73.2809 213.458 73.3123C213.665 73.3306 213.941 73.3249 214.288 73.295C214.591 73.3171 214.943 73.353 215.345 73.4027C215.758 73.4394 215.971 73.4632 215.984 73.4741L216.336 73.787L216.45 75.1141C216.455 75.1739 216.411 75.2921 216.318 75.4688C216.224 75.6335 216.153 75.7179 216.105 75.722C215.968 75.6735 215.645 75.5509 215.134 75.354C214.56 75.1264 214.094 74.9618 213.736 74.8601C213.389 74.7455 213.036 74.7036 212.678 74.7345C212.02 74.7912 211.435 74.9862 210.921 75.3194C210.419 75.6397 210.194 76.1048 210.246 76.7145C210.262 76.8938 210.37 77.0953 210.57 77.319C210.78 77.5297 211.019 77.7139 211.286 77.8716C211.551 78.0173 211.756 78.084 211.899 78.0717L212.131 78.0336C212.45 78.1025 212.805 78.2465 213.198 78.4657C213.502 78.6442 213.778 78.771 214.025 78.846C214.285 78.92 214.606 78.9406 214.988 78.9076C215.402 78.9563 215.823 79.0946 216.253 79.3226C216.694 79.5496 217.068 79.8425 217.376 80.2014C217.683 80.5484 217.854 80.9251 217.889 81.3316C217.904 81.5109 217.895 81.6863 217.862 81.8578C217.828 82.0174 217.806 82.1156 217.797 82.1525C217.739 82.3141 217.7 82.4981 217.682 82.7044C217.576 83.2917 217.489 83.6845 217.422 83.883C217.366 84.0686 217.241 84.2298 217.048 84.3669C216.855 84.504 216.523 84.629 216.051 84.7419C216.04 84.7549 216.024 84.7744 216.002 84.8004C215.98 84.8263 215.964 84.8458 215.953 84.8588C215.56 85.0492 215.193 85.1953 214.852 85.2969C214.513 85.4104 214.158 85.4832 213.787 85.5151C213.357 85.5522 212.864 85.5645 212.309 85.5521C211.755 85.5517 211.32 85.535 211.004 85.502ZM215.505 74.6354C215.514 74.7311 215.544 74.8008 215.596 74.8445C215.648 74.8882 215.741 74.9223 215.876 74.9468L216.033 74.048C216.025 73.9523 215.602 73.8683 214.765 73.7959C213.939 73.7225 213.347 73.7012 212.989 73.7321C212.966 73.7461 212.938 73.7786 212.907 73.8295C212.886 73.8675 212.876 73.8984 212.879 73.9223C212.889 74.0418 212.984 74.0939 213.163 74.0784L213.253 74.0707C213.444 74.0542 213.541 73.9977 213.545 73.901C213.578 74.0065 213.64 74.0916 213.73 74.1561C213.82 74.2206 213.912 74.2488 214.008 74.2405C214.092 74.2333 214.145 74.2227 214.168 74.2087C214.202 74.1817 214.222 74.1378 214.229 74.077L214.597 74.3704L214.91 74.0182L214.941 74.3769C214.976 74.3619 215.04 74.3323 215.132 74.2882C215.236 74.2311 215.345 74.1675 215.459 74.0974L215.586 74.1045C215.591 74.1643 215.575 74.2561 215.538 74.3797C215.512 74.5024 215.501 74.5876 215.505 74.6354ZM212.11 74.0246C212.136 74.0464 212.174 74.0673 212.224 74.087C212.274 74.1068 212.312 74.1217 212.337 74.1316C212.408 74.1254 212.49 74.1003 212.583 74.0561C212.674 74.0001 212.718 73.9422 212.713 73.8824C212.653 73.8875 212.564 73.9072 212.447 73.9414C212.328 73.9637 212.216 73.9914 212.11 74.0246ZM211.277 74.2048C211.121 74.2182 210.934 74.2825 210.715 74.3977C210.495 74.501 210.39 74.6064 210.399 74.714C210.401 74.7379 210.45 74.7458 210.546 74.7375C210.665 74.7272 210.817 74.666 211 74.5539C211.194 74.4288 211.286 74.3124 211.277 74.2048ZM215.315 74.3086C215.28 74.3237 215.241 74.3571 215.197 74.4091C215.164 74.448 215.149 74.4855 215.152 74.5213L215.173 74.5556L215.368 74.304L215.315 74.3086ZM210.188 74.9852C210.048 75.0453 209.925 75.1523 209.818 75.3061C209.722 75.4469 209.68 75.589 209.692 75.7325C209.86 75.718 209.985 75.641 210.07 75.5012C210.166 75.3604 210.205 75.1884 210.188 74.9852ZM209.812 75.8667C209.549 75.8893 209.41 75.9555 209.396 76.0651L209.826 76.0281L209.812 75.8667ZM209.289 76.2912C209.296 76.3749 209.321 76.457 209.364 76.5376C209.418 76.6052 209.475 76.6364 209.535 76.6313C209.618 76.6241 209.681 76.5826 209.723 76.5067C209.763 76.4189 209.78 76.3331 209.773 76.2494L209.289 76.2912ZM209.326 76.9383C209.347 77.1774 209.423 77.2913 209.554 77.28C209.686 77.2687 209.741 77.1434 209.721 76.9043L209.326 76.9383ZM209.609 77.4921C209.681 77.4859 209.739 77.4688 209.785 77.4408C209.842 77.3998 209.868 77.3494 209.862 77.2896L209.841 77.2553L209.518 77.4819L209.609 77.4921ZM209.637 77.8149L209.888 77.7933L209.878 77.6857L209.627 77.7073L209.637 77.8149ZM210.155 77.7522C210.131 77.7542 210.098 77.7872 210.055 77.8511C210.024 77.902 210.004 77.9579 209.998 78.0187L210.125 78.0258C210.244 78.0155 210.318 77.967 210.347 77.8802C210.319 77.8344 210.286 77.8011 210.248 77.7803C210.21 77.7595 210.179 77.7501 210.155 77.7522ZM210.22 78.2886C210.222 78.3125 210.26 78.3393 210.335 78.369C210.409 78.3868 210.459 78.4066 210.484 78.4284C210.664 78.413 210.743 78.2857 210.723 78.0466C210.615 78.0558 210.503 78.0835 210.386 78.1297C210.282 78.1749 210.232 78.2213 210.236 78.2692L210.22 78.2886ZM210.974 78.2417C210.914 78.2468 210.875 78.2803 210.856 78.3422C210.85 78.403 210.841 78.4458 210.831 78.4708L211.316 78.4291C211.31 78.3693 211.27 78.3246 211.196 78.2949C211.12 78.2532 211.046 78.2355 210.974 78.2417ZM211.391 78.6755C211.43 78.7083 211.506 78.7499 211.619 78.8004C211.742 78.838 211.828 78.8547 211.876 78.8505C211.9 78.8485 211.94 78.821 211.995 78.768C212.05 78.7031 212.076 78.6527 212.073 78.6168L211.938 78.52L211.391 78.6755ZM212.17 78.6987C212.182 78.8422 212.237 78.9218 212.335 78.9374C212.445 78.9521 212.601 78.9507 212.804 78.9331C212.788 78.7419 212.576 78.6637 212.17 78.6987ZM213.331 79.1768C213.5 79.3189 213.662 79.3832 213.818 79.3698L213.924 79.3426C213.6 79.2259 213.403 79.1706 213.331 79.1768ZM214.617 79.6262L214.695 79.4929L214.462 79.513L214.617 79.6262ZM214.841 79.7152C214.947 79.8265 215.076 79.9298 215.229 80.0251C215.381 80.1083 215.522 80.1443 215.654 80.133L215.64 79.9716L215.532 79.9809C215.554 79.9549 215.576 79.9229 215.596 79.885C215.617 79.8471 215.627 79.8162 215.625 79.7922C215.609 79.6129 215.47 79.5346 215.207 79.5572L215.117 79.565C214.938 79.5804 214.846 79.6305 214.841 79.7152ZM216.151 80.0359C215.936 80.0545 215.835 80.1355 215.847 80.2789L216.618 80.2125C216.606 80.069 216.45 80.0102 216.151 80.0359ZM216.83 80.9892C216.664 81.0276 216.589 81.1304 216.603 81.2978C216.711 81.2885 216.816 81.2494 216.918 81.1803C217.02 81.0993 217.103 81.0139 217.167 80.924C217.232 80.8341 217.263 80.7772 217.261 80.7533C217.251 80.6338 217.195 80.5482 217.094 80.4967C216.994 80.4451 216.889 80.424 216.782 80.4333C216.711 80.4514 216.606 80.4906 216.467 80.5508C216.327 80.6109 216.259 80.659 216.262 80.6948L216.273 80.8204L216.83 80.9892ZM216.775 81.6082C216.785 81.7278 216.874 81.7804 217.041 81.7659C217.268 81.7464 217.396 81.6872 217.423 81.5885C217.462 81.4768 217.469 81.2834 217.446 81.0084C217.326 81.0187 217.182 81.0974 217.014 81.2443C216.845 81.3793 216.765 81.5006 216.775 81.6082ZM216.973 82.657C216.808 82.6954 216.732 82.7923 216.745 82.9477C216.961 82.9291 217.109 82.8321 217.19 82.6564C217.283 82.4798 217.32 82.2719 217.299 82.0328C217.215 82.04 217.117 82.0846 217.003 82.1667C216.889 82.2367 216.835 82.3076 216.841 82.3794C216.847 82.4511 216.891 82.5437 216.973 82.657ZM213.789 84.4852C213.8 84.6167 213.869 84.7251 213.997 84.8104C214.124 84.8838 214.253 84.9149 214.385 84.9035L214.438 84.8989C214.606 84.8845 214.697 84.8284 214.713 84.7307C215.374 84.5774 215.919 84.398 216.347 84.1925C216.787 83.986 217.011 83.6535 217.02 83.1951C216.93 83.1305 216.813 83.1044 216.67 83.1168C216.622 83.1209 216.559 83.2287 216.481 83.4402C216.414 83.6387 216.337 83.7959 216.25 83.9117C216.176 84.0265 216.073 84.0896 215.942 84.1009C215.918 84.103 215.874 84.0887 215.811 84.058C215.747 84.0153 215.692 83.996 215.644 84.0001C215.476 84.0145 215.239 84.0591 214.933 84.1337C214.85 84.1528 214.761 84.1725 214.667 84.1927C214.572 84.2129 214.477 84.2271 214.381 84.2354C214.166 84.2539 214.04 84.2587 214.003 84.2499C213.969 84.2769 213.925 84.3169 213.869 84.3698C213.824 84.4098 213.797 84.4483 213.789 84.4852ZM210.339 84.7101C210.349 84.8296 210.387 84.9107 210.45 84.9534C210.513 84.9841 210.605 84.9943 210.724 84.984C210.808 84.9768 210.883 84.9402 210.949 84.8743C211.015 84.7964 211.042 84.6857 211.029 84.5422L211.008 84.5079L210.578 84.7617L210.486 84.7336L210.48 84.6618C210.502 84.6478 210.583 84.6047 210.721 84.5326C210.871 84.4475 210.96 84.3615 210.988 84.2747C210.974 84.2519 210.93 84.2316 210.856 84.2138C210.794 84.1831 210.732 84.1703 210.672 84.1755C210.553 84.1858 210.462 84.2538 210.401 84.3795C210.352 84.5042 210.331 84.6144 210.339 84.7101ZM211.573 84.3508C211.405 84.3653 211.285 84.4299 211.21 84.5447C211.147 84.6465 211.122 84.7751 211.135 84.9306L211.386 84.9089L211.271 84.8285C211.349 84.7615 211.42 84.6771 211.484 84.5753C211.547 84.4735 211.577 84.3987 211.573 84.3508ZM211.619 84.8889C211.656 84.8977 211.712 84.917 211.787 84.9467C211.874 84.9753 211.971 84.985 212.078 84.9758C212.21 84.9644 212.312 84.8954 212.386 84.7686C212.459 84.6418 212.49 84.5067 212.477 84.3633C211.879 84.4148 211.593 84.59 211.619 84.8889ZM213.223 84.4255C212.972 84.4471 212.814 84.5028 212.75 84.5927C212.684 84.6706 212.661 84.8172 212.679 85.0324L213.612 84.952C213.623 84.9391 213.639 84.9196 213.661 84.8936C213.683 84.8676 213.699 84.8422 213.709 84.8172C213.694 84.6499 213.649 84.5394 213.572 84.4858C213.495 84.4322 213.379 84.4121 213.223 84.4255ZM214.425 84.5387C214.449 84.5366 214.5 84.5684 214.578 84.6339L214.381 84.6509L214.373 84.5613L214.425 84.5387ZM228.373 74.1412C228.613 74.277 228.854 74.5574 229.096 74.9822C229.349 75.406 229.564 75.8753 229.741 76.39C229.917 76.8928 230.018 77.3056 230.046 77.6284C230.104 78.2979 230.074 78.9268 229.956 79.5151C229.85 80.1024 229.643 80.7044 229.335 81.3211C229.303 81.372 229.273 81.4468 229.246 81.5456C229.218 81.6443 229.183 81.7316 229.142 81.8075C229.099 81.8714 229.036 81.9069 228.952 81.9141L229.051 82.014L228.847 82.1581L228.978 82.219C228.811 82.5105 228.485 82.7794 228 83.0259C227.514 83.2605 227.066 83.4376 226.655 83.5574C226.228 83.6423 224.875 83.8733 222.595 84.2504L221.044 84.4924C220.914 84.5157 220.78 84.5694 220.643 84.6535C220.529 84.7355 220.419 84.7812 220.311 84.7904C220.215 84.7987 220.143 84.7929 220.093 84.7731C220.055 84.7523 220.031 84.6881 220.022 84.5805L219.845 82.7349C219.802 82.2327 219.762 81.4894 219.725 80.5049C219.684 79.4726 219.642 78.7054 219.599 78.2032C219.586 78.0478 219.543 77.8287 219.47 77.5459C219.398 77.2631 219.355 77.0499 219.343 76.9064C219.322 76.6673 219.318 76.4087 219.33 76.1307C219.342 75.8526 219.351 75.6712 219.356 75.5865C219.398 75.101 219.404 74.679 219.373 74.3203C219.359 74.1529 219.327 73.9931 219.277 73.8407C219.217 73.5569 219.186 73.403 219.183 73.3791C219.156 73.0563 220.618 72.7677 223.571 72.5133L224.558 72.4283C224.956 72.4421 225.428 72.54 225.974 72.7218C226.52 72.9037 227.021 73.1315 227.478 73.4052C227.934 73.667 228.233 73.9123 228.373 74.1412ZM222.618 73.1916C222.66 73.2603 222.767 73.3113 222.938 73.3447C223.109 73.3661 223.23 73.3738 223.302 73.3676C223.385 73.3604 223.633 73.2306 224.045 72.9783L223.937 72.9876L222.618 73.1916ZM224.726 73.1184C224.594 73.1298 224.49 73.1809 224.414 73.2718L224.392 73.0207C224.356 73.0238 224.281 73.0604 224.167 73.1305C224.063 73.1876 223.996 73.2475 223.965 73.3104C224.018 73.3661 224.106 73.4067 224.229 73.4323C224.363 73.4568 224.49 73.4639 224.61 73.4536C224.657 73.4375 224.72 73.408 224.801 73.3649C224.882 73.3218 224.938 73.2748 224.969 73.2239C224.94 73.1662 224.907 73.1329 224.871 73.124C224.834 73.1152 224.785 73.1133 224.726 73.1184ZM221.013 73.4383C220.954 73.4434 220.792 73.4573 220.529 73.48C220.265 73.4907 220.066 73.562 219.933 73.6939C219.812 73.8248 219.762 74.0158 219.784 74.2668C219.975 74.2504 220.302 74.1319 220.765 73.9113C221.227 73.6788 221.519 73.5031 221.641 73.3842L221.013 73.4383ZM226.226 73.5492C226.217 73.4416 226.091 73.3742 225.847 73.347C225.603 73.3078 225.421 73.2934 225.302 73.3037C225.244 73.3327 225.163 73.3758 225.06 73.4329C224.956 73.49 224.894 73.5375 224.873 73.5754C225.1 73.6884 225.375 73.731 225.697 73.7032C225.718 73.9423 225.89 74.048 226.212 74.0201C226.368 74.0068 226.448 73.9577 226.453 73.873L226.482 74.2137L227.056 74.1643L226.841 74.3996C226.9 74.3825 227.072 74.4881 227.356 74.7165C227.641 74.9449 227.786 75.089 227.791 75.1488L228.024 75.1287C228.004 75.1786 227.973 75.2355 227.931 75.2994C227.887 75.3513 227.854 75.3903 227.832 75.4163C227.898 75.4829 227.959 75.5619 228.015 75.6534C228.071 75.745 228.107 75.8081 228.122 75.843C228.264 76.0957 228.412 76.2697 228.564 76.3649C228.409 76.3783 228.337 76.4508 228.348 76.5823C228.357 76.6899 228.382 76.7601 228.421 76.7928C228.471 76.8246 228.552 76.8478 228.661 76.8624C228.782 76.8641 228.849 76.9426 228.862 77.0981C228.863 77.11 228.824 77.1435 228.745 77.1985C228.664 77.2416 228.624 77.2691 228.625 77.2811C228.626 77.293 228.633 77.2985 228.645 77.2975C228.662 77.5007 228.761 77.5946 228.94 77.5792C229.227 77.5544 229.365 77.4763 229.353 77.3448C229.351 77.3209 229.226 77.2595 228.976 77.1605L229.55 77.1111L229.536 76.9497L229.068 76.7552C229.092 76.7531 229.114 76.7331 229.135 76.6952C229.155 76.6453 229.163 76.6084 229.161 76.5845C229.157 76.5367 229.119 76.5099 229.046 76.5041C228.984 76.4853 228.941 76.471 228.916 76.4611C229.006 76.3931 229.062 76.3341 229.081 76.2843C229.113 76.2333 229.125 76.166 229.118 76.0823C229.106 75.9389 229.022 75.8738 228.866 75.8872C228.735 75.8986 228.63 75.9437 228.553 76.0226C228.609 75.9697 228.671 75.8559 228.74 75.6813C228.713 75.3585 228.573 75.0634 228.321 74.796C228.081 74.5276 227.838 74.2956 227.592 74.1C227.346 73.8924 227.183 73.7558 227.105 73.6903L227.016 73.698L226.226 73.5492ZM227.044 75.2854C226.995 75.2776 226.922 75.2718 226.826 75.2681C226.741 75.2634 226.667 75.2456 226.604 75.2149C226.554 75.1832 226.524 75.1254 226.517 75.0418C226.511 74.97 226.518 74.9092 226.538 74.8593C226.362 74.7781 226.13 74.6656 225.84 74.522C225.562 74.3653 225.371 74.2552 225.27 74.1917C224.691 74.0488 224.225 73.9505 223.871 73.8967C223.528 73.8298 223.165 73.8129 222.783 73.8459C222.508 73.8696 222.14 73.9374 221.68 74.0493C221.22 74.1612 220.976 74.2605 220.947 74.3473L220.84 74.5733C220.897 75.2309 220.94 75.8053 220.97 76.2965C221.001 76.7877 221.024 77.2012 221.041 77.537C221.109 78.8802 221.171 79.8805 221.227 80.5381L221.277 81.112C221.37 82.188 221.46 82.7463 221.548 82.7869L221.769 82.8401C221.89 82.8417 222.058 82.8393 222.274 82.8327C222.491 82.8261 222.676 82.8161 222.832 82.8027C223.98 82.7039 224.952 82.5297 225.75 82.2803C226.547 82.031 227.176 81.5733 227.637 80.9073L227.674 80.9221C227.794 80.9118 227.902 80.7038 228 80.2979C228.097 79.892 228.167 79.4404 228.208 78.943C228.262 78.4446 228.28 78.0937 228.262 77.8905C228.247 77.7112 228.167 77.4109 228.022 76.9898C227.877 76.5686 227.712 76.1914 227.527 75.8581C227.341 75.5128 227.18 75.3219 227.044 75.2854ZM219.794 75.2235C219.798 75.2713 219.816 75.342 219.848 75.4356C219.893 75.5282 219.918 75.6103 219.924 75.6821C219.936 75.8255 219.897 76.0035 219.807 76.216L220.543 76.1527C220.534 76.057 220.487 75.9286 220.401 75.7674C220.303 75.6072 220.249 75.4674 220.238 75.3478C220.232 75.2761 220.242 75.1789 220.267 75.0563C220.293 74.9336 220.302 74.8304 220.295 74.7467L220.284 74.6212C220.271 74.4658 220.231 74.3548 220.165 74.2882C219.877 74.4335 219.753 74.7453 219.794 75.2235ZM220.506 77.4025C220.497 77.3068 220.442 77.2272 220.341 77.1638C220.239 77.1003 220.139 77.0607 220.041 77.045L220.633 76.994C220.615 76.9233 220.581 76.8058 220.53 76.6415C220.492 76.4762 220.455 76.3951 220.419 76.3982L219.845 76.4476C219.876 76.8063 219.941 77.2042 220.038 77.6414C220.127 78.1156 220.183 78.4841 220.206 78.7471L220.618 78.7116L220.506 77.4025ZM228.537 76.0421L228.553 76.0226L228.537 76.0421ZM229.618 77.4846C229.367 77.5062 229.145 77.6578 228.953 77.9394C228.771 78.208 228.691 78.4678 228.713 78.7189C229.048 78.69 229.29 78.5668 229.44 78.3491C229.59 78.1314 229.649 77.8433 229.618 77.4846ZM227.48 82.6552C227.478 82.6313 227.446 82.604 227.383 82.5732C227.32 82.5425 227.258 82.5178 227.196 82.499C227.734 82.4527 228.137 82.3095 228.405 82.0696C228.39 82.0348 228.296 81.9887 228.123 81.9314C227.961 81.8731 227.808 81.8501 227.665 81.8624C227.593 81.8686 227.452 81.9771 227.241 82.188C227.043 82.3978 226.926 82.5103 226.891 82.5253C226.614 82.6696 226.292 82.7756 225.925 82.8434C225.557 82.9112 225.087 82.9758 224.514 83.0372L224.014 83.0984C223.824 83.1388 223.551 83.1864 223.195 83.2412C222.85 83.295 222.577 83.3366 222.374 83.3661C222.088 83.3908 221.787 83.3986 221.473 83.3895C221.158 83.3685 220.977 83.2937 220.93 83.1653L220.878 82.7723C220.863 82.593 220.862 82.4425 220.875 82.3209C220.901 82.1982 220.911 82.107 220.906 82.0473C220.9 81.9755 220.875 81.8934 220.83 81.8008C220.786 81.7083 220.733 81.6466 220.67 81.6159C220.728 81.5869 220.766 81.4692 220.784 81.2628C220.802 81.0565 220.808 80.9115 220.801 80.8278C220.784 80.6365 220.75 80.4527 220.699 80.2765C220.657 80.0633 220.631 79.9089 220.623 79.8133C220.613 79.6937 220.622 79.5906 220.651 79.5038C220.679 79.417 220.691 79.3437 220.686 79.2839C220.672 79.1285 220.621 79.0245 220.532 78.972C220.443 78.9074 220.308 78.8829 220.129 78.8983C220.171 79.3885 220.198 79.7776 220.211 80.0656C220.224 80.3535 220.205 80.6261 220.155 80.8834L220.29 80.9802L220.356 81.7513C220.332 81.7534 220.304 81.7739 220.271 81.8129C220.25 81.8388 220.239 81.8578 220.24 81.8697C220.258 81.9404 220.283 82.0226 220.316 82.1162C220.359 82.1968 220.388 82.2605 220.404 82.3073C220.397 82.3681 220.38 82.4478 220.353 82.5466C220.336 82.6323 220.324 82.7056 220.317 82.7664C220.332 82.8013 220.355 82.8535 220.385 82.9232C220.415 82.9929 220.444 83.0446 220.471 83.0784C220.484 83.2338 220.536 83.4883 220.627 83.8418C220.974 83.812 221.363 83.7845 221.794 83.7593C222.237 83.7332 222.522 83.7448 222.646 83.7943C222.655 83.7574 222.669 83.714 222.689 83.6642C222.709 83.6143 222.724 83.5769 222.734 83.5519C222.782 83.5478 222.855 83.5595 222.954 83.5872C223.052 83.6148 223.132 83.626 223.191 83.6209C223.454 83.5982 223.727 83.5506 224.01 83.4781C224.305 83.4045 224.494 83.3581 224.576 83.339C225.105 83.185 225.561 83.0916 225.943 83.0586L226.607 83.0014C226.694 82.8976 226.82 82.8205 226.984 82.7702C227.148 82.7079 227.313 82.6696 227.48 82.6552ZM229.515 79.4267C229.526 79.2811 229.538 79.1416 229.551 79.008C229.562 78.8625 229.566 78.7598 229.56 78.7C229.034 78.7454 228.779 78.8517 228.793 79.0191C228.807 79.042 228.828 79.0763 228.856 79.1221C228.895 79.1548 228.922 79.1827 228.936 79.2055C228.927 79.2424 228.895 79.2993 228.842 79.3762C228.799 79.4401 228.766 79.4791 228.744 79.4931L228.841 79.575C228.721 79.5853 228.648 79.6458 228.622 79.7565C228.595 79.8672 228.583 80.0068 228.585 80.1752C228.6 80.3426 228.603 80.4447 228.594 80.4816C228.596 80.5055 228.559 80.5629 228.482 80.6538C228.417 80.7317 228.384 80.7767 228.385 80.7886C228.388 80.8245 228.396 80.8419 228.408 80.8409L227.703 81.6784C227.782 81.756 227.911 81.787 228.091 81.7715C228.354 81.7489 228.586 81.6446 228.786 81.4587C228.999 81.2717 229.094 81.0467 229.072 80.7837C229.064 80.7 229.047 80.6413 229.02 80.6075C228.993 80.5737 228.932 80.5609 228.836 80.5691C229.028 80.5526 229.178 80.4795 229.287 80.3496C229.396 80.2197 229.443 80.0592 229.426 79.8679C229.422 79.8201 229.383 79.7813 229.308 79.7516C229.245 79.7209 229.183 79.7021 229.122 79.6953C229.061 79.6885 229.013 79.6807 228.976 79.6718C229.023 79.6557 229.085 79.6142 229.164 79.5472C229.253 79.4673 229.334 79.4242 229.406 79.418C229.453 79.4139 229.49 79.4168 229.515 79.4267ZM228.415 81.1294C228.57 81.116 228.649 81.1212 228.651 81.1451C228.618 81.1841 228.548 81.2082 228.44 81.2175C228.285 81.2309 228.206 81.2196 228.203 81.1838C228.201 81.1598 228.271 81.1417 228.415 81.1294Z" fill="white"/>
</svg>
