<svg width="231" height="150" viewBox="0 0 231 150" fill="none" xmlns="http://www.w3.org/2000/svg">
<g clip-path="url(#clip0)">
<path d="M108.431 88.9988L116.385 86.0745L125.648 72.3881L125.343 68.4724L124.427 67.1193L124.004 66.5208L119.575 62.1685L119.326 61.8755L110.885 65.2799L99.891 77.0895L98.6514 78.7169L108.431 88.9988Z" fill="#3E4A60"/>
<path fill-rule="evenodd" clip-rule="evenodd" d="M49.5411 10.7149H49.1611V148.508H52.1885V12.6541H73.143V9.70483H49.5411V10.7149Z" fill="#E1F5FF"/>
<path fill-rule="evenodd" clip-rule="evenodd" d="M77.1422 39.7773H20.439C20.0279 39.7773 19.6978 40.114 19.6978 40.5193V73.2108C19.6978 73.6223 20.0341 73.9528 20.439 73.9528H77.1422C77.5533 73.9528 77.8834 73.6161 77.8834 73.2108V40.5193C77.8834 40.114 77.5533 39.7773 77.1422 39.7773Z" fill="white"/>
<path fill-rule="evenodd" clip-rule="evenodd" d="M74.5007 42.2466H23.086C22.7372 42.2466 22.4507 42.5334 22.4507 42.8826V70.8539C22.4507 71.2031 22.7372 71.4899 23.086 71.4899H74.4945C74.8433 71.4899 75.1299 71.2031 75.1299 70.8539V42.8826C75.1299 42.5334 74.8495 42.2466 74.5007 42.2466Z" fill="#0542BF"/>
<path fill-rule="evenodd" clip-rule="evenodd" d="M38.0358 42.2466H22.7995C22.6064 42.2466 22.4507 42.4025 22.4507 42.5958V71.147C22.4507 71.3403 22.6064 71.4962 22.7995 71.4962H38.042C38.2351 71.4962 38.3908 71.3403 38.3908 71.147V42.5895C38.3846 42.4025 38.2289 42.2466 38.0358 42.2466Z" fill="#053DA0"/>
<path fill-rule="evenodd" clip-rule="evenodd" d="M38.036 49.1865C37.5128 49.1865 37.0393 49.3985 36.6967 49.7415C36.3541 49.3985 35.8807 49.1865 35.3575 49.1865C34.311 49.1865 33.4639 50.0345 33.4639 51.082C33.4639 52.0859 34.2487 52.909 35.2391 52.9713V55.322C35.2391 55.6338 35.4945 55.8894 35.806 55.8894C36.1174 55.8894 36.3728 55.6338 36.3728 55.322V53.0212C36.404 52.9589 36.4538 52.909 36.5161 52.8716C36.6469 52.7905 36.8089 52.7905 36.9397 52.8716C37.0518 52.9401 37.1203 53.0524 37.1328 53.1833V53.2519V55.322C37.1328 55.6338 37.3882 55.8894 37.6996 55.8894C38.0111 55.8894 38.2665 55.6338 38.2665 55.322V52.9589C39.1946 52.8404 39.9172 52.0423 39.9172 51.082C39.9296 50.0345 39.0825 49.1865 38.036 49.1865Z" fill="white"/>
<path fill-rule="evenodd" clip-rule="evenodd" d="M46.4642 49.1865C45.941 49.1865 45.4676 49.3985 45.125 49.7415C44.7824 49.3985 44.309 49.1865 43.7857 49.1865C42.7392 49.1865 41.8921 50.0345 41.8921 51.082C41.8921 52.0859 42.677 52.909 43.6674 52.9713V55.322C43.6674 55.6338 43.9228 55.8894 44.2342 55.8894C44.5457 55.8894 44.8011 55.6338 44.8011 55.322V53.0212C44.8322 52.9589 44.882 52.909 44.9443 52.8716C45.0751 52.7905 45.2371 52.7905 45.3679 52.8716C45.48 52.9401 45.5485 53.0524 45.561 53.1833V53.2519V55.322C45.561 55.6338 45.8164 55.8894 46.1279 55.8894C46.4393 55.8894 46.6947 55.6338 46.6947 55.322V52.9589C47.6228 52.8404 48.3454 52.0423 48.3454 51.082C48.3579 50.0345 47.5107 49.1865 46.4642 49.1865Z" fill="white"/>
<path fill-rule="evenodd" clip-rule="evenodd" d="M54.6366 49.1865C54.1133 49.1865 53.6399 49.3985 53.2973 49.7415C52.9547 49.3985 52.4813 49.1865 51.9581 49.1865C50.9116 49.1865 50.0645 50.0345 50.0645 51.082C50.0645 52.0859 50.8493 52.909 51.8397 52.9713V55.322C51.8397 55.6338 52.0951 55.8894 52.4066 55.8894C52.718 55.8894 52.9734 55.6338 52.9734 55.322V53.0212C53.0046 52.9589 53.0544 52.909 53.1167 52.8716C53.2475 52.7905 53.4095 52.7905 53.5403 52.8716C53.6524 52.9401 53.7209 53.0524 53.7334 53.1833V53.2519V55.322C53.7334 55.6338 53.9888 55.8894 54.3002 55.8894C54.6117 55.8894 54.8671 55.6338 54.8671 55.322V52.9589C55.7952 52.8404 56.5178 52.0423 56.5178 51.082C56.5302 50.0345 55.6831 49.1865 54.6366 49.1865Z" fill="white"/>
<path fill-rule="evenodd" clip-rule="evenodd" d="M67.7924 50.4397C67.4685 50.6891 67.045 50.7452 66.6774 50.6143L66.5715 50.5769C65.8614 50.3399 65.55 49.5231 65.9113 48.8746C65.4565 48.9121 65.0454 49.1178 64.7402 49.4233C64.3976 49.0804 63.9242 48.8684 63.401 48.8684C62.3545 48.8684 61.5073 49.7164 61.5073 50.7639C61.5073 51.7678 62.2922 52.5971 63.2826 52.6532V55.0039C63.2826 55.3157 63.538 55.5713 63.8495 55.5713C64.1609 55.5713 64.4163 55.3157 64.4163 55.0039V52.7031C64.5284 52.4973 64.7838 52.4287 64.9831 52.5534C65.0953 52.622 65.1638 52.7343 65.1762 52.8652V52.9338V55.0039C65.1762 55.3157 65.4316 55.5713 65.7431 55.5713C66.0545 55.5713 66.3099 55.3157 66.3099 55.0039V52.6407C67.2381 52.5223 67.9606 51.7241 67.9606 50.7639C67.9606 50.6205 67.9419 50.4833 67.917 50.3524C67.8859 50.3836 67.8423 50.4085 67.7924 50.4397Z" fill="white"/>
<path d="M63.868 58.8323H34.0059V59.7302H63.868V58.8323Z" fill="white"/>
<path d="M63.868 60.9648H34.0059V61.8627H63.868V60.9648Z" fill="white"/>
<path d="M63.868 63.0349H34.0059V63.9328H63.868V63.0349Z" fill="white"/>
<path d="M63.868 65.1675H34.0059V66.0654H63.868V65.1675Z" fill="white"/>
<path d="M64.734 46.1499C63.2141 46.1499 61.8375 46.7672 60.8409 47.7648C59.8442 48.7625 59.2275 50.1405 59.2275 51.6619C59.2275 53.1833 59.8442 54.5613 60.8409 55.5589C61.8375 56.5565 63.2141 57.1738 64.734 57.1738C66.2539 57.1738 67.6305 56.5565 68.6272 55.5589C69.6238 54.5613 70.2405 53.1833 70.2405 51.6619C70.2405 50.1405 69.6238 48.7625 68.6272 47.7648C67.6305 46.7672 66.2539 46.1499 64.734 46.1499ZM68.4465 55.3843C67.4935 56.3383 66.1792 56.9244 64.7278 56.9244C63.2764 56.9244 61.9621 56.3383 61.009 55.3843C60.056 54.4303 59.4705 53.1147 59.4705 51.6619C59.4705 50.2091 60.056 48.8934 61.009 47.9394C61.9621 46.9854 63.2764 46.3993 64.7278 46.3993C66.1792 46.3993 67.4935 46.9854 68.4465 47.9394C69.3996 48.8934 69.9851 50.2091 69.9851 51.6619C69.9851 53.1147 69.3996 54.4303 68.4465 55.3843Z" fill="white"/>
<path d="M67.6992 140.028C67.5372 140.639 67.9982 141.238 68.6273 141.238H78.9177C79.5531 141.238 79.8334 140.421 79.3163 140.047C78.9738 139.797 78.5003 139.523 77.8401 139.218C75.2425 138.033 73.187 136.767 72.8444 136.094L68.8204 135.819L67.6992 140.028Z" fill="#D4EDFF"/>
<path d="M84.4121 140.028C84.2501 140.639 84.7111 141.238 85.3402 141.238H95.6244C96.2597 141.238 96.54 140.421 96.023 140.047C95.6804 139.797 95.207 139.523 94.5467 139.218C91.9492 138.033 89.8936 136.767 89.551 136.094L85.5271 135.819L84.4121 140.028Z" fill="#D4EDFF"/>
<path d="M77.8714 76.1229L78.8929 82.6824L80.6371 90.676L82.9169 105.266L85.3026 136.349C87.8005 137.634 89.937 136.349 89.937 136.349L91.4632 105.952V77.3513L81.3472 76.2726L78.731 75.9982L77.834 75.8984L77.8714 76.1229Z" fill="#3E4A60"/>
<path d="M78.7374 75.9921L77.8778 76.1293L66.9707 77.8627L68.3286 85.1642L70.9012 105.08L68.4844 135.913C68.4844 135.913 71.0632 136.873 73.3119 135.913L79.8088 106.776C79.9583 106.108 80.0455 105.429 80.0766 104.743L80.6435 90.6699L81.1356 81.6101L81.3474 76.2665L81.3723 75.5681L78.7374 75.9921Z" fill="#3E4A60"/>
<path d="M92.1233 30.7365C91.164 31.3351 91.3758 32.2517 91.1765 34.2158C91.0207 35.706 90.1798 37.7449 89.7749 38.6428C89.6503 38.9171 89.7251 39.2414 89.9618 39.4347L90.566 39.9397C90.566 39.9397 98.7012 40.2265 99.8286 39.9397C100.956 39.6529 102.756 37.907 103.074 36.1549C103.392 34.4028 102.227 33.4052 101.062 33.3366C99.8971 33.268 100.202 32.9313 100.52 32.5447C100.838 32.1581 100.62 31.0295 98.1717 30.6554C95.7299 30.2813 93.6743 31.2228 93.6743 31.2228C93.6743 31.2228 93.3068 30.5557 92.6901 30.5557C92.5219 30.5619 92.3288 30.6118 92.1233 30.7365Z" fill="#2B3B51"/>
<path d="M90.4169 35.9242C90.2674 37.1214 91.0834 37.907 91.0834 37.907L88.897 43.9303C88.897 43.9303 89.1524 45.433 90.7906 46.7237C92.4289 48.0144 94.3972 47.023 94.3972 47.023L95.2319 44.5663C95.5496 44.7596 96.7456 45.1524 97.6488 44.373C98.552 43.5936 100.633 38.649 100.633 38.649C96.7207 38.2624 94.6526 34.8954 94.6526 34.8954C93.9051 36.4916 92.3354 37.4706 92.3354 37.4706C92.3354 37.4706 92.5597 36.0988 92.161 35.3568C91.999 35.0513 91.7 34.8892 91.3948 34.8892C90.9526 34.8892 90.5041 35.2196 90.4169 35.9242Z" fill="#FEC3C0"/>
<path d="M92.684 47.3784C93.6433 47.3971 94.397 47.0168 94.397 47.0168L95.2317 44.5601C95.2317 44.5601 92.5781 43.1634 91.8805 40.3638C91.8742 40.37 91.4133 44.3232 92.684 47.3784Z" fill="#F19596"/>
<path d="M88.0927 51.2256C87.501 54.4617 86.6289 57.7788 85.6509 60.9526C84.1124 65.9408 80.6116 74.0528 79.2163 77.3825C81.5148 78.5859 86.1866 78.0683 87.5321 77.8813C88.5474 74.9008 89.8555 67.8113 90.8771 64.5191C92.8393 58.2215 94.5024 51.0323 94.3965 47.0168L88.9025 43.9241C88.8527 46.2311 88.5599 48.7003 88.0927 51.2256Z" fill="#2F9E77"/>
<path d="M77.4041 46.3994C77.0988 47.5155 76.7126 48.8436 76.3015 50.1779C75.934 51.3439 75.5416 52.5162 75.1491 53.5574C73.6853 57.4607 68.4218 72.9491 65.6623 77.0893C65.4879 77.3574 65.5003 77.7003 65.6934 77.9498C66.6589 79.1968 70.0102 82.5701 77.7965 82.3456C78.2824 82.3331 78.7184 82.0463 78.9239 81.6036C79.9517 79.3963 83.1535 69.0708 85.6576 60.9462C86.6355 57.7725 87.5076 54.4553 88.0993 51.2192C88.5603 48.7002 88.8531 46.231 88.9029 43.9177L83.7515 43.7057L81.2474 43.5997C81.1913 43.5997 81.1415 43.5935 81.0917 43.5935C79.3787 43.5997 77.865 44.7408 77.4041 46.3994Z" fill="#D4EDFF"/>
<path d="M90.8773 64.5253C89.2079 69.8876 86.791 80.0698 86.1058 82.0401C86.0124 82.3083 86.2179 82.5888 86.5045 82.5826C88.9276 82.5203 90.9209 81.4852 91.7369 80.9864C91.9923 80.8305 92.1667 80.5811 92.2165 80.288C92.3598 79.5211 92.6837 74.6202 93.1758 72.4566C93.4374 71.3093 94.1849 67.3623 95.0071 62.9665C95.9913 57.6852 97.0814 51.7493 97.5424 49.2365L94.3967 47.0229C94.5026 51.0385 92.8394 58.2277 90.8773 64.5253Z" fill="#D4EDFF"/>
<path d="M112.411 53.5389C112.411 53.8258 112.044 54.5491 111.496 55.1227C110.947 55.6963 111.128 56.5942 111.128 56.5942C111.004 57.6979 113.096 59.1818 113.096 59.1818L114.598 57.966C114.915 57.7103 115.102 57.3175 115.102 56.906V55.1975C115.102 54.9169 115.015 54.6488 114.853 54.4243L114.529 53.9754C114.261 53.6075 113.719 53.6075 113.452 53.9692L113.096 54.4493C113.078 53.6512 112.773 53.3831 112.573 53.3831C112.48 53.3831 112.411 53.4454 112.411 53.5389Z" fill="#FEC3C0"/>
<path d="M110.804 61.1085L100.258 71.9391L83.3589 73.3483C83.3589 73.3483 84.5175 74.0965 83.8697 75.8549L100.333 78.243L119.325 61.8692L116.167 60.4849L115.488 60.1857C115.358 60.1295 115.221 60.0734 115.083 60.0298C113.582 59.5621 111.919 59.9612 110.804 61.1085Z" fill="#2B3B51"/>
<path d="M92.7832 59.3125L95.0007 62.9601L100.084 71.3341C101.168 73.1174 103.734 73.1673 104.893 71.4401L113.096 59.1816C112.237 58.6516 111.128 56.594 111.128 56.594L103.242 65.3794L100.059 52.6969C99.7286 51.375 98.9375 50.2153 97.8225 49.4296L97.536 49.2301L94.3903 47.0166C95.1565 51.1693 92.7832 59.3125 92.7832 59.3125Z" fill="#D4EDFF"/>
<path d="M116.897 49.5046C116.38 49.6355 115.968 50.0408 115.825 50.5584L115.414 52.0548L115.663 52.1234L116.074 50.6269C116.193 50.1967 116.535 49.8662 116.959 49.754L118.093 49.4672L118.03 49.2178L116.897 49.5046Z" fill="#2B3B51"/>
<path d="M115.302 51.7992L111.159 58.3462C111.085 58.4647 111.116 58.6268 111.24 58.7016C111.359 58.7765 111.521 58.7453 111.595 58.6206L115.738 52.0736C115.794 51.9863 115.769 51.8803 115.682 51.8241L115.551 51.7431C115.52 51.7244 115.488 51.7119 115.451 51.7119C115.395 51.7181 115.339 51.7493 115.302 51.7992Z" fill="#2B3B51"/>
<path d="M113.446 53.9691L113.091 54.4492L112.53 55.2099C112.194 55.6651 112.175 56.2886 112.486 56.7625L112.991 57.5357C113.209 57.8662 113.52 58.1218 113.888 58.2714L114.106 58.3587L114.592 57.9659C114.909 57.7103 115.096 57.3174 115.096 56.9059V55.1975C115.096 54.9169 115.009 54.6488 114.847 54.4243L114.523 53.9753C114.392 53.7883 114.187 53.701 113.981 53.701C113.782 53.6948 113.583 53.7821 113.446 53.9691Z" fill="#FEC3C0"/>
<path d="M46.5518 84.6403L48.0405 88.2069L52.6562 87.4649C52.6189 86.9037 52.4071 84.6965 51.2858 83.175L46.5518 84.6403Z" fill="url(#paint0_linear)"/>
<path d="M79.8277 75.2999C78.8809 75.1627 77.9216 75.2375 77.0059 75.5056L51.311 83.1812C52.4198 84.7151 52.6067 86.9286 52.6378 87.4898L78.5383 83.599L100.041 90.4952C101.467 90.9504 103.037 90.6698 104.214 89.7345L106.849 87.6457C106.849 87.6457 103.168 79.7082 100.328 78.2492L79.8277 75.2999Z" fill="url(#paint1_linear)"/>
<path d="M82.6736 78.5422C81.7268 78.405 80.7675 78.4736 79.8519 78.748L53.7085 86.5608C54.1196 87.0783 55.1287 88.5997 54.7799 90.8381L81.3904 86.8413L102.893 93.7375C104.326 94.1989 105.889 93.9121 107.067 92.9768L109.702 90.888C109.702 90.888 106.02 82.9505 103.186 81.4915L82.6736 78.5422Z" fill="#DCF2FF"/>
<path d="M49.4106 87.8514L50.862 91.4304L54.7801 90.8443C55.1227 88.6058 54.1198 87.0844 53.7025 86.5669L49.4106 87.8514Z" fill="url(#paint2_linear)"/>
<path d="M43.0321 77.1332L45.1624 89.5787C45.2247 89.9591 45.6047 90.2022 45.9722 90.1025L50.0834 89.0113C50.3637 88.9365 50.6004 88.7432 50.725 88.4813C50.7623 88.4065 50.725 88.3192 50.644 88.288C50.2516 88.1571 49.23 87.7393 49.0057 86.8601C48.8313 86.1867 49.2238 85.239 49.5539 84.6155C49.7719 84.1977 49.7283 83.6926 49.4418 83.3185C48.2147 81.7348 45.1001 77.7255 44.5457 77.0708C44.3153 76.7964 44.091 76.6156 43.8855 76.5096C43.8543 76.4909 43.8232 76.4785 43.792 76.466C43.3809 76.335 42.9573 76.6904 43.0321 77.1332Z" fill="#3E4A60"/>
<path d="M45.0999 79.9264L47.2303 92.3719C47.2926 92.7523 47.6725 92.9892 48.0401 92.8957L52.1512 91.8045C52.4315 91.7297 52.6683 91.5364 52.7928 91.2745C52.8302 91.1997 52.7928 91.1124 52.7119 91.0812C52.3194 90.9503 51.2979 90.5325 51.0736 89.6534C50.8992 88.98 51.2916 88.0322 51.6218 87.4087C51.8398 86.9909 51.7962 86.4859 51.5096 86.1117C50.2825 84.528 47.168 80.5187 46.6136 79.864C46.3831 79.5897 46.1589 79.4088 45.9533 79.3028C45.9222 79.2841 45.891 79.2717 45.8599 79.2592C45.4488 79.1345 45.0252 79.4837 45.0999 79.9264Z" fill="#2B3B51"/>
<path d="M124.134 49.8912C122.459 51.5062 122.241 54.9792 122.241 54.9792C122.241 54.9792 125.754 59.0384 127.492 60.0422C129.23 61.0461 130.177 60.0422 130.177 60.0422C130.177 60.0422 132.182 59.3688 133.123 58.4522C134.063 57.5357 133.634 56.3884 132.55 56.0766C132.55 56.0766 134.138 54.1499 131.678 51.5498C130.631 50.4399 129.41 49.6855 128.227 49.3051C126.626 48.7876 125.094 48.9622 124.134 49.8912Z" fill="#063985"/>
<path d="M120.011 57.7227C119.17 58.9947 119.432 60.2605 120.478 60.8715L119.575 62.1622L124.004 66.5207L128.414 61.177C128.414 61.177 130.382 61.0523 130.644 60.0609C130.906 59.0695 129.517 58.4959 128.395 59.1818C128.395 59.1818 127.897 57.8349 128.894 56.4694C128.894 56.4694 124.596 55.5778 123.898 52.4976C123.898 52.5038 120.858 56.4569 120.011 57.7227Z" fill="#FEC3C0"/>
<path d="M120.478 60.8716L119.575 62.1623L120.765 63.3283C123.443 63.4779 125.244 61.414 125.244 61.414C122.335 61.9815 120.478 60.8716 120.478 60.8716Z" fill="#F19596"/>
<path d="M120.871 57.7165C120.616 58.0594 120.69 58.4959 120.89 58.8513C121.089 59.2005 121.45 59.5372 121.88 59.531C122.316 59.531 122.74 59.1693 122.777 58.7266C122.777 58.7204 122.777 58.7204 122.777 58.7141C122.808 58.2527 122.335 57.7165 121.774 57.4609C121.749 57.4484 121.724 57.4421 121.699 57.4297C121.388 57.3361 121.064 57.4546 120.871 57.7165Z" fill="#F19596"/>
<path d="M81.758 73.024C80.8237 73.448 79.0172 74.321 78.0704 75.1939C77.8462 75.3997 77.9957 75.7738 78.3071 75.78L85.321 75.9234C85.321 75.9234 86.6665 74.0528 84.0939 73.6663L82.9042 73.0552C82.7235 72.9617 82.5242 72.9118 82.3249 72.9118C82.1318 72.9056 81.9387 72.943 81.758 73.024Z" fill="#FEC3C0"/>
<path d="M93.3441 77.3452C92.2291 77.5011 90.2732 77.8253 89.2329 78.2867C88.9215 78.4239 88.9526 78.879 89.2765 78.985L95.9727 81.13C95.9727 81.13 97.611 79.515 95.381 78.4613L94.7456 77.8128C94.5588 77.6195 94.3283 77.4824 94.0729 77.4013C93.8424 77.3327 93.5933 77.314 93.3441 77.3452Z" fill="#FEC3C0"/>
<path d="M123.966 73.3171L113.9 80.8368L103.828 79.7332L95.375 78.4674C96.7142 79.8891 95.9668 81.1361 95.9668 81.1361L114.859 86.673C115.837 86.9848 116.909 86.7229 117.631 85.9872L127.212 78.7356C128.24 77.688 128.75 76.2976 128.707 74.9196C128.682 73.9593 128.389 72.9991 127.822 72.1511L124.427 67.113C125.524 69.046 124.919 72.0327 123.966 73.3171Z" fill="#2B3B51"/>
<path fill-rule="evenodd" clip-rule="evenodd" d="M228.352 136.754H2.37133C1.53631 136.754 0.861328 136.966 0.861328 137.222V138.494C0.861328 138.75 1.54327 138.962 2.37133 138.962H228.352C229.187 138.962 229.862 138.75 229.862 138.494V137.222C229.862 136.966 229.18 136.754 228.352 136.754Z" fill="#B8E4FF"/>
<path d="M223.678 1.25H165.804V87.0596H223.678V1.25Z" fill="#CCEEFF"/>
<path d="M219.269 6.35034H170.215V81.959H219.269V6.35034Z" fill="#E6F5FF"/>
<path d="M222.57 24.2456H166.907V28.5043H222.57V24.2456Z" fill="#CCEEFF"/>
<path d="M140.411 10.2537H135.515V20.1615H140.411V10.2537Z" fill="white"/>
<path d="M224.627 105.678H165.756V148.483H224.627V105.678Z" fill="#95CDFD"/>
<path d="M222.994 107.443H168.154V118.155H222.994V107.443Z" fill="#6AAEF2"/>
<path d="M222.994 119.664H168.154V130.376H222.994V119.664Z" fill="#6AAEF2"/>
<path d="M222.994 132.072H168.154V142.784H222.994V132.072Z" fill="#6AAEF2"/>
<path fill-rule="evenodd" clip-rule="evenodd" d="M195.512 111.626C194.596 111.626 193.849 112.368 193.849 113.291C193.849 114.208 194.59 114.956 195.512 114.956C196.427 114.956 197.175 114.214 197.175 113.291C197.175 112.375 196.427 111.626 195.512 111.626Z" fill="white"/>
<path d="M197.108 125.501C197.375 124.621 196.878 123.692 195.999 123.425C195.12 123.159 194.191 123.656 193.925 124.536C193.659 125.416 194.156 126.345 195.035 126.612C195.914 126.878 196.842 126.381 197.108 125.501Z" fill="white"/>
<path d="M197.052 137.79C197.403 136.94 197.001 135.966 196.152 135.615C195.303 135.263 194.33 135.666 193.979 136.516C193.627 137.365 194.03 138.339 194.879 138.691C195.728 139.043 196.7 138.639 197.052 137.79Z" fill="white"/>
<path fill-rule="evenodd" clip-rule="evenodd" d="M196.079 101.463H174.582C174.209 101.463 173.903 101.768 173.903 102.143V105.005C173.903 105.379 174.209 105.684 174.582 105.684H196.079C196.453 105.684 196.758 105.379 196.758 105.005V102.143C196.752 101.768 196.453 101.463 196.079 101.463Z" fill="#FF5E5D"/>
<path fill-rule="evenodd" clip-rule="evenodd" d="M198.421 97.4912H176.924C176.55 97.4912 176.245 97.7967 176.245 98.1709V101.033C176.245 101.407 176.55 101.712 176.924 101.712H198.421C198.794 101.712 199.1 101.407 199.1 101.033V98.1709C199.1 97.7967 198.794 97.4912 198.421 97.4912Z" fill="#FF9999"/>
<path fill-rule="evenodd" clip-rule="evenodd" d="M196.913 90.9877C196.695 90.7757 196.34 90.7819 196.128 91.0002L194.503 92.6899C194.291 92.9082 194.297 93.2636 194.515 93.4756L207.204 105.715C207.422 105.927 207.777 105.921 207.989 105.703L209.614 104.013C209.826 103.795 209.82 103.439 209.602 103.227L196.913 90.9877Z" fill="#EF4343"/>
<path d="M182.835 53.3642C187.173 53.3642 190.69 49.844 190.69 45.5016C190.69 41.1592 187.173 37.6389 182.835 37.6389C178.497 37.6389 174.98 41.1592 174.98 45.5016C174.98 49.844 178.497 53.3642 182.835 53.3642Z" fill="white"/>
<path d="M170.115 2.24146H166.166V86.0682H170.115V2.24146Z" fill="#CCEEFF"/>
<path d="M225.105 82.1462H164.372V87.1532H225.105V82.1462Z" fill="#A7D2F2"/>
<path d="M25.4762 25.8353C30.1054 21.2015 30.1054 13.6886 25.4763 9.05484C20.8471 4.42105 13.3417 4.42104 8.71246 9.05484C4.08327 13.6886 4.08327 21.2015 8.71246 25.8353C13.3417 30.4691 20.8471 30.4691 25.4762 25.8353Z" fill="#147CDE"/>
<path d="M22.388 27.2763C28.8012 25.9585 32.9328 19.6861 31.6163 13.2665C30.2997 6.84698 24.0336 2.71124 17.6204 4.02909C11.2072 5.34695 7.07557 11.6194 8.39212 18.0389C9.70867 24.4585 15.9748 28.5942 22.388 27.2763Z" fill="white"/>
<path fill-rule="evenodd" clip-rule="evenodd" d="M20.0027 5.52124C14.4152 5.52124 9.88672 10.0543 9.88672 15.6473C9.88672 21.2403 14.4152 25.7733 20.0027 25.7733C25.5902 25.7733 30.1187 21.2403 30.1187 15.6473C30.1187 10.0543 25.5902 5.52124 20.0027 5.52124Z" fill="#6AAEF2"/>
<path fill-rule="evenodd" clip-rule="evenodd" d="M20.0028 14.7742C19.5169 14.7742 19.1245 15.167 19.1245 15.6533C19.1245 16.1397 19.5169 16.5325 20.0028 16.5325C20.4887 16.5325 20.8811 16.1397 20.8811 15.6533C20.8749 15.167 20.4824 14.7742 20.0028 14.7742Z" fill="white"/>
<path fill-rule="evenodd" clip-rule="evenodd" d="M19.9538 7.3667C19.8167 7.3667 19.7046 7.47893 19.7046 7.61611V14.1008C19.7046 14.238 19.8167 14.3502 19.9538 14.3502C20.0908 14.3502 20.2029 14.238 20.2029 14.1008V7.61611C20.2029 7.47893 20.0908 7.3667 19.9538 7.3667Z" fill="white"/>
<path fill-rule="evenodd" clip-rule="evenodd" d="M19.4426 16.9004C19.3118 16.8567 19.1685 16.9316 19.1249 17.0687L17.2126 23.2603C17.169 23.3913 17.2438 23.5347 17.3808 23.5783C17.5116 23.622 17.6549 23.5472 17.6985 23.41L19.617 17.2184C19.6482 17.0812 19.5734 16.944 19.4426 16.9004Z" fill="white"/>
<path fill-rule="evenodd" clip-rule="evenodd" d="M86.7783 20.8848C84.6542 20.8848 82.9287 22.6119 82.9287 24.7382C82.9287 26.8644 84.6542 28.5915 86.7783 28.5915C88.9024 28.5915 90.6278 26.8644 90.6278 24.7382C90.6278 22.6119 88.9024 20.8848 86.7783 20.8848Z" fill="white"/>
<path d="M76.9879 10.9227L75.0483 12.4177L79.681 18.4398L81.6205 16.9448L76.9879 10.9227Z" fill="#E1F5FF"/>
<path fill-rule="evenodd" clip-rule="evenodd" d="M122.39 143.987L108.83 143.913C108.606 143.913 108.419 144.093 108.412 144.324L108.406 145.621C108.406 145.846 108.587 146.033 108.817 146.039L122.378 146.114C122.602 146.114 122.789 145.933 122.795 145.702L122.802 144.405C122.802 144.174 122.621 143.987 122.39 143.987Z" fill="#F0EDE8"/>
<path fill-rule="evenodd" clip-rule="evenodd" d="M92.896 137.179L92.9396 140.938L94.7273 140.633L94.69 136.873L92.896 137.179Z" fill="#BB734F"/>
<path fill-rule="evenodd" clip-rule="evenodd" d="M105.323 143.987L91.7624 143.913C91.5382 143.913 91.3513 144.093 91.3451 144.324L91.3389 145.621C91.3389 145.846 91.5195 146.033 91.75 146.039L105.311 146.114C105.535 146.114 105.722 145.933 105.728 145.702L105.734 144.405C105.734 144.174 105.547 143.987 105.323 143.987Z" fill="#F0EDE8"/>
<path fill-rule="evenodd" clip-rule="evenodd" d="M103.928 99.1125C104.002 99.1313 104.015 99.0876 103.946 98.9751C103.953 98.9751 103.94 99.0188 103.928 99.1125Z" fill="#446C5E"/>
<path fill-rule="evenodd" clip-rule="evenodd" d="M91.8247 99.5425C91.8247 99.5425 91.9119 112.244 92.0863 137.64C94.5032 137.603 95.7116 137.59 95.7116 137.59C96.6709 114.513 97.2004 101.656 97.3125 99.0312C96.9575 99.6984 95.1323 99.8668 91.8247 99.5425Z" fill="#234037"/>
<path fill-rule="evenodd" clip-rule="evenodd" d="M97.3307 98.52C97.3307 98.52 97.3245 98.6884 97.312 99.0251C97.3868 98.8817 97.393 98.7071 97.3307 98.52Z" fill="#234037"/>
<path fill-rule="evenodd" clip-rule="evenodd" d="M115.189 98.52C115.189 98.52 115.189 98.6946 115.196 99.0375C115.339 98.8879 115.339 98.7133 115.189 98.52Z" fill="#446C5E"/>
<path fill-rule="evenodd" clip-rule="evenodd" d="M110.998 98.52C110.998 98.52 111.01 98.6884 111.029 99.0251C111.085 98.8817 111.079 98.7071 110.998 98.52Z" fill="#234037"/>
<path d="M98.8429 105.003L82.29 132.005L86.7602 134.751L103.313 107.749L98.8429 105.003Z" fill="#0542BF"/>
<path fill-rule="evenodd" clip-rule="evenodd" d="M113.321 99.4676L113.302 99.4614C113.065 99.4427 112.841 99.399 112.623 99.3367C112.492 99.3242 112.361 99.3055 112.237 99.2743C112.143 99.2618 112.05 99.2494 111.957 99.2307C111.589 99.2307 111.234 99.1621 110.904 99.0436C110.748 99.0124 110.605 98.9688 110.462 98.9127C110.169 98.8815 109.882 98.8129 109.621 98.7069C109.571 98.7007 109.527 98.6882 109.477 98.682C109.154 98.6695 108.842 98.6009 108.556 98.4949C108.269 98.4762 107.989 98.4139 107.733 98.3203C107.665 98.2954 107.602 98.2767 107.534 98.2517C107.353 98.2393 107.173 98.2081 106.998 98.1644C106.818 98.1395 106.637 98.0959 106.463 98.0335C106.313 98.0086 106.17 97.9711 106.033 97.9275C105.846 97.9026 105.665 97.8651 105.491 97.809C105.217 97.7716 104.955 97.703 104.706 97.597C104.613 97.5783 104.519 97.5596 104.432 97.5284C104.027 97.5284 103.647 97.4474 103.292 97.304C103.155 97.2666 103.018 97.2229 102.887 97.1668H102.875C102.706 97.1606 102.538 97.1481 102.376 97.1169L102.065 97.067C101.903 97.0421 101.741 96.9985 101.585 96.9548C101.436 96.9174 101.292 96.8675 101.149 96.8114C101.112 96.8052 101.074 96.7989 101.037 96.7864C100.894 96.774 100.751 96.7428 100.607 96.7116C100.508 96.6992 100.402 96.6742 100.308 96.6493C100.103 96.6181 99.8971 96.5682 99.704 96.4934C99.567 96.4622 99.4362 96.4248 99.3054 96.3812L99.1808 96.3375L99.0002 96.2752C98.8818 96.2377 98.7697 96.1879 98.6576 96.138C98.6077 96.1255 98.5517 96.1068 98.5018 96.0881C98.3212 96.0569 98.1468 96.0133 97.9724 95.9509L97.5924 95.8262C97.3868 95.8138 97.1813 95.7826 96.9819 95.7389C96.658 95.689 96.3466 95.5893 96.06 95.4459C95.9417 95.4209 95.8296 95.3835 95.7174 95.3461C95.3624 95.3274 95.0136 95.2401 94.6585 95.1715C94.4343 95.1279 94.2225 95.0593 94.0231 94.972C93.8051 94.9221 93.5996 94.8473 93.4002 94.7538L93.3691 94.7475C93.2196 94.7163 93.0763 94.6727 92.9393 94.6228C92.8022 94.5916 92.6714 94.5542 92.5406 94.5106C92.3849 94.4607 92.2229 94.4108 92.0734 94.3485C92.0423 94.3422 92.0111 94.3298 91.9862 94.3235C91.9053 94.3048 91.8243 94.2861 91.7433 94.2612C91.6997 94.2549 91.6561 94.2425 91.6125 94.23C91.3073 94.1863 91.0207 94.0928 90.7529 93.9681C90.703 93.9556 90.6594 93.9369 90.6096 93.9245C90.4726 93.8995 90.3418 93.8683 90.2047 93.8247C89.9867 93.806 89.7687 93.7561 89.5694 93.6938C89.3451 93.6626 89.1271 93.6127 88.9215 93.5379H88.772L88.853 93.5129L88.8406 93.5067C88.8094 93.5129 88.772 93.5254 88.7409 93.5316L88.7533 93.5379H88.7035C88.5042 93.5753 88.3049 93.6002 88.0931 93.6002H87.1899C86.9282 93.6002 86.6728 93.5691 86.4361 93.5067C85.9378 93.4319 85.4831 93.2386 85.0969 92.958C85.0221 93.3072 85.1031 93.7374 85.3647 94.2051C88.4606 99.7918 91.5627 105.379 94.6585 110.965C95.2814 112.094 96.3715 113.017 97.0691 113.017C102.551 113.017 108.032 113.017 113.514 113.017C114.218 113.017 114.791 112.094 114.791 110.965V99.505C114.311 99.6297 113.807 99.611 113.321 99.4676Z" fill="#95CDFD"/>
<path fill-rule="evenodd" clip-rule="evenodd" d="M99.7973 106.102C99.0872 106.102 98.5142 106.676 98.5142 107.387C98.5142 108.097 99.0872 108.671 99.7973 108.671C100.507 108.671 101.081 108.097 101.081 107.387C101.081 106.682 100.507 106.102 99.7973 106.102Z" fill="#EEE4F0"/>
<path fill-rule="evenodd" clip-rule="evenodd" d="M99.7972 106.863C99.5106 106.863 99.2739 107.1 99.2739 107.387C99.2739 107.673 99.5106 107.91 99.7972 107.91C100.084 107.91 100.32 107.673 100.32 107.387C100.327 107.1 100.09 106.863 99.7972 106.863Z" fill="#0542BF"/>
<path fill-rule="evenodd" clip-rule="evenodd" d="M92.0178 130.588C89.2397 130.588 86.4615 130.588 83.6896 130.588C80.9114 130.588 78.1332 130.588 75.3613 130.588C74.3522 130.588 72.9943 131.729 72.334 133.126C71.437 135.021 70.54 136.91 69.643 138.806C68.746 140.695 67.8553 142.591 66.9583 144.486C66.298 145.877 66.896 147.018 68.2913 147.018C72.1284 147.018 75.9655 147.018 79.8026 147.018C83.6397 147.018 87.4768 147.018 91.3202 147.018C92.7155 147.018 93.8554 145.877 93.8554 144.486C93.8554 142.591 93.8554 140.701 93.8554 138.806C93.8554 136.91 93.8554 135.021 93.8554 133.126C93.8554 131.729 93.0269 130.588 92.0178 130.588Z" fill="#053DA0"/>
<path fill-rule="evenodd" clip-rule="evenodd" d="M94.9392 132.028C92.4039 132.028 89.8687 132.028 87.3397 132.028C84.8045 132.028 82.2692 132.028 79.7402 132.028C78.8183 132.028 77.5788 133.07 76.9808 134.342C76.1648 136.069 75.3425 137.796 74.5265 139.523C73.7105 141.25 72.8945 142.977 72.0785 144.705C71.4743 145.977 72.0224 147.018 73.2932 147.018C76.7939 147.018 80.2946 147.018 83.7954 147.018C87.2961 147.018 90.7968 147.018 94.3038 147.018C95.5745 147.018 96.6148 145.977 96.6148 144.705C96.6148 142.977 96.6148 141.25 96.6148 139.523C96.6148 137.796 96.6148 136.069 96.6148 134.342C96.6085 133.07 95.8611 132.028 94.9392 132.028Z" fill="#0542BF"/>
<path fill-rule="evenodd" clip-rule="evenodd" d="M80.9794 133.961C79.8706 133.961 78.9736 134.859 78.9736 135.969C78.9736 137.079 79.8706 137.977 80.9794 137.977C82.0882 137.977 82.9851 137.079 82.9851 135.969C82.9851 134.865 82.0882 133.961 80.9794 133.961Z" fill="#EEE4F0"/>
<path fill-rule="evenodd" clip-rule="evenodd" d="M80.98 135.152C80.5252 135.152 80.1577 135.52 80.1577 135.975C80.1577 136.43 80.5252 136.798 80.98 136.798C81.4347 136.798 81.8022 136.43 81.8022 135.975C81.796 135.52 81.4284 135.152 80.98 135.152Z" fill="#0542BF"/>
<path fill-rule="evenodd" clip-rule="evenodd" d="M135.334 143.208H46.6326C46.1031 143.208 45.6733 143.638 45.6733 144.168V148.022C45.6733 148.552 46.1031 148.982 46.6326 148.982H135.334C135.864 148.982 136.294 148.552 136.294 148.022V144.168C136.294 143.644 135.864 143.208 135.334 143.208Z" fill="#95CDFD"/>
<path d="M145.766 61.2456L132.023 75.1592L135.885 78.982L149.629 65.0685L145.766 61.2456Z" fill="#331F42"/>
<path fill-rule="evenodd" clip-rule="evenodd" d="M156.738 59.562C156.65 59.668 156.557 59.774 156.457 59.8613C156.289 60.0484 156.09 60.2042 155.878 60.3289C155.641 60.5721 155.361 60.7592 155.056 60.8776C154.931 60.9649 154.807 61.046 154.67 61.1084L154.47 61.2081C154.277 61.3765 154.072 61.5074 153.847 61.6009C153.766 61.6446 153.685 61.682 153.604 61.7256C153.486 61.8316 153.355 61.9189 153.224 62C152.988 62.2307 152.707 62.399 152.402 62.5175C152.234 62.6298 152.053 62.7108 151.866 62.7732C151.729 62.8854 151.586 62.9852 151.443 63.0849C151.343 63.166 151.244 63.2408 151.138 63.3032C151.013 63.3905 150.888 63.4715 150.751 63.5339L150.695 63.5588C150.589 63.6336 150.484 63.696 150.365 63.7521L150.228 63.8207C150.185 63.8581 150.141 63.8893 150.091 63.9205C149.954 64.0576 149.798 64.1823 149.63 64.2821C149.418 64.438 149.182 64.5564 148.933 64.6313L148.796 64.6749C148.627 64.731 148.465 64.7684 148.297 64.7872C148.204 64.8183 148.11 64.8433 148.011 64.8682C147.855 64.943 147.693 65.0054 147.537 65.074C147.319 65.1675 147.126 65.2112 146.896 65.2486L146.846 65.2673C146.671 65.3359 146.491 65.3857 146.31 65.4107C146.08 65.4481 145.849 65.4917 145.612 65.4917H144.921C144.491 65.4917 144.086 65.3795 143.738 65.18C143.576 65.1114 143.42 65.0179 143.277 64.9181C143.214 64.8807 143.158 64.8433 143.102 64.8059C143.04 64.7684 142.984 64.731 142.928 64.6936C142.884 64.6687 142.841 64.6375 142.797 64.6063C142.031 64.2135 141.501 63.4216 141.489 62.4988L140.586 63.0662C139.502 63.7459 139.172 65.1924 139.851 66.2711L143.183 71.5836C143.862 72.6685 145.307 72.999 146.385 72.3193L157.554 65.3047C158.637 64.625 158.968 63.1785 158.289 62.0998L156.738 59.562Z" fill="#0542BF"/>
<path fill-rule="evenodd" clip-rule="evenodd" d="M140.012 72.4003C139.221 71.5773 137.901 71.5586 137.078 72.3505L110.3 98.2954L89.7687 92.852C89.3887 92.7522 89.0025 92.7647 88.6474 92.8707C88.5727 92.8894 88.4979 92.9143 88.4232 92.9455L66.2103 101.762C65.1514 102.18 64.6282 103.396 65.0455 104.456L66.0609 107.025C66.4844 108.085 67.6929 108.608 68.7518 108.191L89.5257 99.9477L111.097 105.665C111.184 105.69 111.271 105.703 111.359 105.715C111.988 105.821 112.654 105.634 113.14 105.16L141.875 77.32C142.697 76.5281 142.716 75.2062 141.925 74.3832L140.012 72.4003Z" fill="#95CDFD"/>
<path fill-rule="evenodd" clip-rule="evenodd" d="M138.137 67.0631C137.328 66.2213 135.97 66.2026 135.135 67.0132L105.696 95.5395C104.856 96.3563 104.837 97.7093 105.647 98.5448L107.615 100.578C108.431 101.419 109.783 101.438 110.617 100.627L140.062 72.1011C140.903 71.2843 140.922 69.9313 140.112 69.0957L138.137 67.0631Z" fill="#D4EDFF"/>
<path fill-rule="evenodd" clip-rule="evenodd" d="M110.331 94.3299L86.6664 88.051C86.274 87.945 85.8815 87.9637 85.5202 88.0697C85.4455 88.0884 85.3645 88.1133 85.2898 88.1445L62.5288 97.1732C61.4449 97.6034 60.903 98.8442 61.339 99.9354L62.3793 102.567C62.8091 103.652 64.0549 104.194 65.1388 103.758L86.4235 95.3151L108.524 101.176C109.652 101.475 110.823 100.796 111.122 99.661L111.844 96.9238C112.143 95.8014 111.458 94.6292 110.331 94.3299Z" fill="#D4EDFF"/>
<path fill-rule="evenodd" clip-rule="evenodd" d="M154.657 51.824C153.978 50.7391 152.533 50.4086 151.455 51.0882L140.286 58.1029C139.202 58.7826 138.872 60.2291 139.551 61.3078L142.884 66.6203C143.563 67.7052 145.008 68.0357 146.086 67.356L157.254 60.3414C158.338 59.6617 158.668 58.2151 157.989 57.1364L154.657 51.824Z" fill="#D4EDFF"/>
<path d="M118.898 103.554C122.323 100.126 122.323 94.5674 118.898 91.1389C115.473 87.7104 109.92 87.7104 106.495 91.1389C103.07 94.5674 103.07 100.126 106.495 103.554C109.92 106.983 115.473 106.983 118.898 103.554Z" fill="#95CDFD"/>
<path fill-rule="evenodd" clip-rule="evenodd" d="M112.698 91.4055C109.422 91.4055 106.762 94.0617 106.762 97.3415C106.762 100.621 109.415 103.277 112.698 103.277C115.974 103.277 118.628 100.621 118.628 97.3415C118.628 94.068 115.974 91.4055 112.698 91.4055Z" fill="#0542BF"/>
<path fill-rule="evenodd" clip-rule="evenodd" d="M112.698 94.8911C111.34 94.8911 110.244 95.9885 110.244 97.3478C110.244 98.7071 111.34 99.8045 112.698 99.8045C114.056 99.8045 115.152 98.7071 115.152 97.3478C115.152 95.9885 114.05 94.8911 112.698 94.8911Z" fill="#95CDFD"/>
<path fill-rule="evenodd" clip-rule="evenodd" d="M97.7482 81.7036H96.4027C96.1847 81.7036 96.0103 81.8844 96.0103 82.0964V93.3698C96.0103 93.588 96.1909 93.7626 96.4027 93.7626H97.7482C97.9662 93.7626 98.1406 93.5818 98.1406 93.3698V82.0964C98.1406 81.8844 97.96 81.7036 97.7482 81.7036Z" fill="#6AAEF2"/>
<path fill-rule="evenodd" clip-rule="evenodd" d="M105.809 83.3371L86.7789 78.2117C86.5734 78.1556 86.3554 78.2803 86.2993 78.486L85.9505 79.7767C85.8944 79.9825 86.019 80.2007 86.2245 80.2569L105.254 85.3822C105.46 85.4384 105.678 85.3137 105.734 85.1079L106.083 83.8172C106.145 83.6114 106.02 83.3932 105.809 83.3371Z" fill="#147CDE"/>
<path fill-rule="evenodd" clip-rule="evenodd" d="M62.9094 94.4858C59.6827 94.4858 57.0728 97.1046 57.0728 100.328C57.0728 103.558 59.689 106.171 62.9094 106.171C66.136 106.171 68.746 103.552 68.746 100.328C68.746 97.1046 66.1298 94.4858 62.9094 94.4858Z" fill="#95CDFD"/>
<path d="M63.5001 103.959C65.5036 103.634 66.8642 101.744 66.5391 99.7385C66.2139 97.733 64.3261 96.3711 62.3226 96.6965C60.319 97.022 58.9584 98.9117 59.2836 100.917C59.6087 102.923 61.4965 104.285 63.5001 103.959Z" fill="#0542BF"/>
<path fill-rule="evenodd" clip-rule="evenodd" d="M62.909 98.8069C62.0681 98.8069 61.3892 99.4865 61.3892 100.328C61.3892 101.17 62.0681 101.85 62.909 101.85C63.75 101.85 64.4289 101.17 64.4289 100.328C64.4289 99.4928 63.7437 98.8069 62.909 98.8069Z" fill="#95CDFD"/>
<path fill-rule="evenodd" clip-rule="evenodd" d="M134.799 144.287H109.017C108.674 144.287 108.4 144.567 108.4 144.904V147.386C108.4 147.728 108.681 148.003 109.017 148.003H134.793C135.136 148.003 135.41 147.722 135.41 147.386V144.904C135.416 144.561 135.142 144.287 134.799 144.287Z" fill="#6AAEF2"/>
<path fill-rule="evenodd" clip-rule="evenodd" d="M84.6486 12.0495C80.0952 12.5732 76.1896 15.5412 74.4703 19.7936C72.7449 24.0461 73.4799 28.8971 76.3827 32.4512C76.3827 32.4512 83.0291 27.3944 96.3157 17.2808C93.6808 13.5334 89.2021 11.5257 84.6486 12.0495Z" fill="#95CDFD"/>
<path d="M51.3732 15.9587C53.9269 15.484 55.6126 13.0269 55.1384 10.4706C54.6641 7.91432 52.2094 6.22692 49.6557 6.70167C47.1019 7.17642 45.4162 9.63354 45.8905 12.1898C46.3648 14.7461 48.8195 16.4335 51.3732 15.9587Z" fill="#95CDFD"/>
<path fill-rule="evenodd" clip-rule="evenodd" d="M50.5133 8.71973C49.0682 8.71973 47.9033 9.89195 47.9033 11.3323C47.9033 12.7789 49.0744 13.9449 50.5133 13.9449C51.9584 13.9449 53.1233 12.7726 53.1233 11.3323C53.1233 9.88572 51.9522 8.71973 50.5133 8.71973Z" fill="#6AAEF2"/>
<path d="M74.698 14.5224C76.4583 14.4637 77.8378 12.9877 77.7792 11.2256C77.7206 9.46354 76.246 8.08265 74.4857 8.14132C72.7254 8.19999 71.3459 9.67601 71.4045 11.4381C71.4631 13.2002 72.9376 14.5811 74.698 14.5224Z" fill="#95CDFD"/>
<path fill-rule="evenodd" clip-rule="evenodd" d="M74.5947 9.55542C73.6168 9.55542 72.8257 10.3473 72.8257 11.3325C72.8257 12.3114 73.6168 13.1095 74.5947 13.1095C75.5727 13.1095 76.37 12.3176 76.37 11.3325C76.37 10.3535 75.5727 9.55542 74.5947 9.55542Z" fill="#6AAEF2"/>
<path fill-rule="evenodd" clip-rule="evenodd" d="M76.7687 17.9854C76.2579 18.6712 75.8281 19.4257 75.498 20.2425C74.1089 23.6657 74.7006 27.5689 77.0365 30.4309L81.8267 26.7895C79.0111 24.7818 77.0926 21.6143 76.7687 17.9854Z" fill="#6AAEF2"/>
<path fill-rule="evenodd" clip-rule="evenodd" d="M50.5134 10.4719C50.04 10.4719 49.6538 10.8585 49.6538 11.3324C49.6538 11.8063 50.04 12.1929 50.5134 12.1929C50.9868 12.1929 51.373 11.8063 51.373 11.3324C51.3668 10.8585 50.9868 10.4719 50.5134 10.4719Z" fill="white"/>
<path fill-rule="evenodd" clip-rule="evenodd" d="M74.5947 10.6653C74.2272 10.6653 73.9282 10.9646 73.9282 11.3325C73.9282 11.7003 74.2272 11.9996 74.5947 11.9996C74.9623 11.9996 75.2612 11.7003 75.2612 11.3325C75.2675 10.9646 74.9685 10.6653 74.5947 10.6653Z" fill="white"/>
<path fill-rule="evenodd" clip-rule="evenodd" d="M17.9726 102.324C17.792 102.454 17.7421 102.704 17.8667 102.891C21.3425 108.004 22.2769 117.768 20.676 132.178C21.5979 132.334 22.0589 132.415 22.0589 132.415C23.8466 117.288 22.6756 107.281 18.5457 102.398C18.4087 102.224 18.1595 102.193 17.9726 102.324Z" fill="#42B58B"/>
<path fill-rule="evenodd" clip-rule="evenodd" d="M29.8018 130.769C27.2915 130.769 24.7749 130.769 22.2646 130.769C19.7543 130.769 17.244 130.769 14.7337 130.769C14.1606 130.769 13.7433 131.236 13.7931 131.81C14.0485 134.547 14.3101 137.278 14.5655 140.009C14.8209 142.74 15.0763 145.478 15.3379 148.209C15.394 148.782 15.8051 149.244 16.2598 149.244C18.2656 149.244 20.2651 149.244 22.2646 149.244C24.2704 149.244 26.2699 149.244 28.2757 149.244C28.7304 149.244 29.1477 148.776 29.1976 148.209C29.453 145.478 29.7083 142.74 29.97 140.009C30.2254 137.278 30.4807 134.541 30.7424 131.81C30.7922 131.236 30.3749 130.769 29.8018 130.769Z" fill="white"/>
<path fill-rule="evenodd" clip-rule="evenodd" d="M27.7333 132.134C26.9173 132.134 26.1076 132.134 25.2916 132.134C24.4755 132.134 23.6658 132.134 22.8498 132.134C22.2206 132.134 21.7036 132.602 21.7036 133.176C21.7036 135.433 21.7036 137.69 21.7036 139.947C21.7036 142.204 21.7036 144.461 21.7036 146.719C21.7036 147.292 22.1272 147.754 22.6504 147.754C23.3169 147.754 23.9897 147.754 24.6624 147.754C25.3289 147.754 26.0017 147.754 26.6744 147.754C27.1976 147.754 27.6586 147.286 27.7022 146.719C27.8828 144.461 28.0697 142.204 28.2504 139.947C28.431 137.69 28.6179 135.433 28.7985 133.176C28.8421 132.602 28.3625 132.134 27.7333 132.134Z" fill="#CCEEFF"/>
<path fill-rule="evenodd" clip-rule="evenodd" d="M21.1624 101.525C20.2281 102.635 19.8357 103.845 20.2841 104.219C20.7326 104.599 21.8539 104.007 22.7882 102.891C23.7226 101.781 24.115 100.571 23.6665 100.197C23.218 99.8168 22.0968 100.409 21.1624 101.525Z" fill="#288E67"/>
<path fill-rule="evenodd" clip-rule="evenodd" d="M22.9183 104.088C21.7846 105.435 21.3112 106.894 21.8531 107.349C22.395 107.811 23.753 107.087 24.8867 105.747C26.0204 104.4 26.4938 102.941 25.9518 102.486C25.4099 102.024 24.052 102.741 22.9183 104.088Z" fill="#288E67"/>
<path fill-rule="evenodd" clip-rule="evenodd" d="M24.1456 107.68C22.7192 109.376 22.1149 111.215 22.8001 111.795C23.4853 112.375 25.1983 111.464 26.6248 109.775C28.0512 108.079 28.6554 106.239 27.9702 105.659C27.2851 105.08 25.5721 105.984 24.1456 107.68Z" fill="#288E67"/>
<path fill-rule="evenodd" clip-rule="evenodd" d="M16.5207 102.473C15.2686 101.737 14.0166 101.55 13.7176 102.062C13.4186 102.567 14.191 103.577 15.4431 104.312C16.6951 105.048 17.9471 105.235 18.2461 104.724C18.5451 104.219 17.7727 103.209 16.5207 102.473Z" fill="#42B58B"/>
<path fill-rule="evenodd" clip-rule="evenodd" d="M16.6706 105.921C14.9826 105.447 13.4564 105.616 13.2633 106.302C13.0702 106.987 14.2849 107.923 15.9792 108.397C17.6673 108.87 19.1934 108.702 19.3865 108.016C19.5796 107.337 18.3587 106.395 16.6706 105.921Z" fill="#42B58B"/>
<path fill-rule="evenodd" clip-rule="evenodd" d="M17.7358 109.675C15.7052 108.789 13.7679 108.746 13.4129 109.569C13.0578 110.392 14.4157 111.776 16.4464 112.655C18.4771 113.541 20.4143 113.584 20.7694 112.761C21.1244 111.938 19.7665 110.554 17.7358 109.675Z" fill="#42B58B"/>
<path fill-rule="evenodd" clip-rule="evenodd" d="M25.1674 112.774C23.4731 114.782 22.763 116.97 23.5728 117.656C24.3826 118.342 26.4132 117.269 28.1075 115.255C29.8018 113.248 30.5119 111.059 29.7022 110.373C28.8924 109.687 26.8617 110.76 25.1674 112.774Z" fill="#288E67"/>
<path fill-rule="evenodd" clip-rule="evenodd" d="M17.1192 113.796C14.6276 112.967 12.3353 113.11 11.9989 114.121C11.6625 115.131 13.4129 116.621 15.9045 117.45C18.3962 118.279 20.6885 118.136 21.0248 117.126C21.3612 116.116 19.6108 114.626 17.1192 113.796Z" fill="#42B58B"/>
<path fill-rule="evenodd" clip-rule="evenodd" d="M26.8865 117.556C24.2641 119.371 22.7318 121.696 23.4668 122.763C24.2018 123.823 26.9177 123.218 29.5401 121.403C32.1626 119.589 33.6949 117.263 32.9599 116.197C32.2311 115.137 29.509 115.742 26.8865 117.556Z" fill="#288E67"/>
<path fill-rule="evenodd" clip-rule="evenodd" d="M16.528 118.884C13.6128 117.6 10.8284 117.513 10.3052 118.691C9.78817 119.869 11.7254 121.871 14.6406 123.155C17.5558 124.44 20.3402 124.527 20.8634 123.349C21.3804 122.17 19.4432 120.175 16.528 118.884Z" fill="#42B58B"/>
<path fill-rule="evenodd" clip-rule="evenodd" d="M27.9143 123.162C24.6814 124.508 22.495 126.666 23.0432 127.975C23.5913 129.285 26.656 129.253 29.8889 127.907C33.1218 126.56 35.3082 124.402 34.76 123.093C34.2181 121.777 31.1534 121.809 27.9143 123.162Z" fill="#288E67"/>
<path fill-rule="evenodd" clip-rule="evenodd" d="M15.4122 124.334C12.0921 123.205 9.03366 123.38 8.57894 124.721C8.12421 126.067 10.4414 128.069 13.7615 129.197C17.0816 130.326 20.1401 130.151 20.5948 128.811C21.0495 127.47 18.7323 125.463 15.4122 124.334Z" fill="#42B58B"/>
<path d="M184.031 74.7699H214.205C214.205 74.7699 214.709 68.6282 209.533 68.1231C209.533 68.1231 210.037 62.0375 204.917 60.9651C199.797 59.8926 196.813 63.0476 196.813 63.0476C196.813 63.0476 192.87 61.5823 189.774 64.2323C186.678 66.8823 187.364 69.021 187.364 69.021C187.364 69.021 182.461 69.3577 183.751 74.7699" fill="white"/>
<path d="M77.4038 46.3995C77.0986 47.5156 76.7124 48.8437 76.3013 50.178L85.6573 60.9526L88.9587 64.7561C89.538 65.4232 90.3478 65.8472 91.2261 65.947L112.704 62.7857C112.704 62.7857 114.205 61.732 113.551 59.3065L93.3938 60.3852L88.0929 51.238L83.745 43.7121L81.2409 43.6061C81.1848 43.6061 81.135 43.5999 81.0852 43.5999C79.3784 43.5999 77.8648 44.7409 77.4038 46.3995Z" fill="url(#paint3_linear)"/>
<path d="M117.438 60.0485C117.344 60.4226 117.157 60.7718 117.157 60.7718L119.649 59.5061L121.468 58.5832L121.231 58.1218L117.438 60.0485Z" fill="#2B3B51"/>
<path d="M121.481 57.8599C121.051 57.9285 121.095 58.4585 121.095 58.4585L121.207 58.8638C122.079 58.7079 121.936 57.916 121.575 57.8599C121.543 57.8537 121.512 57.8537 121.481 57.8599Z" fill="#D4EDFF"/>
<path d="M115.389 57.5107C115.314 57.7663 114.99 58.1342 114.187 58.5333C113.383 58.9323 113.29 59.4374 113.29 59.4374L111.396 62.9728C111.396 62.9728 112.573 63.4217 114.386 63.297C115.445 63.2222 116.635 62.5799 117.432 62.0624C118.036 61.6696 118.46 61.0585 118.591 60.354C118.653 60.036 118.715 59.6681 118.777 59.2628C118.952 58.0718 118.329 58.0033 118.329 58.0033L115.464 59.3064C115.464 59.3064 115.931 58.4896 115.893 57.9721C115.868 57.6042 115.663 57.3984 115.52 57.3984C115.464 57.3984 115.414 57.4358 115.389 57.5107Z" fill="#FEC3C0"/>
</g>
<defs>
<linearGradient id="paint0_linear" x1="46.5413" y1="84.6831" x2="52.8999" y2="86.7182" gradientUnits="userSpaceOnUse">
<stop stop-color="#FFC0AC"/>
<stop offset="1" stop-color="#FFD6C7"/>
</linearGradient>
<linearGradient id="paint1_linear" x1="53.7533" y1="75.5766" x2="105.42" y2="92.1133" gradientUnits="userSpaceOnUse">
<stop stop-color="#D5D7FC"/>
<stop offset="1" stop-color="#FAF1FC"/>
</linearGradient>
<linearGradient id="paint2_linear" x1="49.3487" y1="88.0531" x2="55.0899" y2="89.8906" gradientUnits="userSpaceOnUse">
<stop stop-color="#FFC0AC"/>
<stop offset="1" stop-color="#FFD6C7"/>
</linearGradient>
<linearGradient id="paint3_linear" x1="76.2955" y1="54.7725" x2="113.716" y2="54.7725" gradientUnits="userSpaceOnUse">
<stop stop-color="#D5D7FC"/>
<stop offset="1" stop-color="#FAF1FC"/>
</linearGradient>
<clipPath id="clip0">
<rect width="229.5" height="148.5" fill="white" transform="translate(0.75 0.75)"/>
</clipPath>
</defs>
</svg>
