<svg width="2297" height="179" viewBox="0 0 2297 179" fill="none" xmlns="http://www.w3.org/2000/svg">
  <path d="M0.0625 142.055L16.8281 136.164C26.9479 153.685 42.6562 162.445 63.9531 162.445C75.7344 162.445 85.3255 159.576 92.7266 153.836C100.128 148.096 103.828 140.242 103.828 130.273C103.828 125.289 102.771 120.909 100.656 117.133C98.5417 113.206 95.1432 109.807 90.4609 106.938C85.9297 104.068 81.7005 101.802 77.7734 100.141C73.8464 98.4792 68.4844 96.5156 61.6875 94.25C56.25 92.4375 52.3984 91.1536 50.1328 90.3984C47.8672 89.6432 44.2422 88.2839 39.2578 86.3203C34.4245 84.3568 30.7995 82.6198 28.3828 81.1094C26.1172 79.599 23.2474 77.5599 19.7734 74.9922C16.2995 72.2734 13.7318 69.5547 12.0703 66.8359C10.5599 64.1172 9.125 60.8698 7.76562 57.0938C6.55729 53.1667 5.95312 49.013 5.95312 44.6328C5.95312 31.1901 11.0885 20.4661 21.3594 12.4609C31.6302 4.30469 45.375 0.226562 62.5938 0.226562C75.7344 0.226562 87.138 3.2474 96.8047 9.28906C106.622 15.3307 113.646 22.8828 117.875 31.9453L102.469 37.3828C93.5573 22.8828 80.1146 15.6328 62.1406 15.6328C50.3594 15.6328 41.1458 18.276 34.5 23.5625C27.8542 28.849 24.5312 35.8724 24.5312 44.6328C24.5312 48.5599 25.4375 52.2604 27.25 55.7344C29.0625 59.0573 31.026 61.776 33.1406 63.8906C35.4062 65.8542 38.9557 68.0443 43.7891 70.4609C48.7734 72.7266 52.625 74.388 55.3438 75.4453C58.2135 76.3516 62.8203 77.862 69.1641 79.9766C70.6745 80.4297 71.8073 80.8073 72.5625 81.1094C79.9635 83.526 86.1562 85.8672 91.1406 88.1328C96.125 90.3984 101.26 93.4193 106.547 97.1953C111.833 100.971 115.76 105.578 118.328 111.016C121.047 116.302 122.406 122.495 122.406 129.594C122.406 144.849 117.044 156.781 106.32 165.391C95.7474 173.849 81.474 178.078 63.5 178.078C48.0938 178.078 35.0286 174.831 24.3047 168.336C13.5807 161.841 5.5 153.081 0.0625 142.055ZM212.805 112.602V4.30469H230.93V112.148C230.93 129.065 234.781 141.677 242.484 149.984C250.339 158.292 260.383 162.445 272.617 162.445C285.154 162.445 295.273 158.216 302.977 149.758C310.831 141.148 314.758 128.612 314.758 112.148V4.30469H332.883V112.602C332.883 133.143 327.672 149.229 317.25 160.859C306.828 172.339 291.951 178.078 272.617 178.078C253.737 178.078 239.01 172.414 228.438 161.086C218.016 149.758 212.805 133.596 212.805 112.602ZM437.328 174V4.30469H501.219C517.682 4.30469 530.672 8.83594 540.188 17.8984C549.854 26.9609 554.688 38.9688 554.688 53.9219C554.688 69.3281 549.779 81.487 539.961 90.3984C530.143 99.3099 517.229 103.766 501.219 103.766H455.453V174H437.328ZM455.453 88.5859H498.5C510.432 88.5859 519.646 85.7161 526.141 79.9766C532.786 74.0859 536.109 65.401 536.109 53.9219C536.109 42.7448 532.786 34.2865 526.141 28.5469C519.646 22.6562 510.281 19.7109 498.047 19.7109H455.453V88.5859ZM645.312 174V4.30469H751.344V19.7109H663.438V78.6172H742.734V93.7969H663.438V158.594H753.156V174H645.312ZM861.906 85.1875H907.672C919 85.1875 927.685 82.1667 933.727 76.125C939.919 70.0833 943.016 62.0781 943.016 52.1094C943.016 42.4427 939.768 34.6641 933.273 28.7734C926.93 22.7318 917.792 19.7109 905.859 19.7109H861.906V85.1875ZM843.781 174V4.30469H909.938C926.552 4.30469 939.315 8.83594 948.227 17.8984C957.138 26.8099 961.594 37.8359 961.594 50.9766C961.594 62.9089 958.573 72.5755 952.531 79.9766C946.49 87.3776 939.844 92.0599 932.594 94.0234C938.938 97.3464 943.544 101.424 946.414 106.258C949.284 111.091 951.625 117.812 953.438 126.422C955.401 134.88 956.76 140.695 957.516 143.867C958.422 146.888 959.932 151.268 962.047 157.008C964.312 162.747 967.031 168.411 970.203 174H949.812C947.245 169.167 944.904 164.031 942.789 158.594C940.826 153.005 939.391 148.474 938.484 145C937.578 141.375 936.219 135.635 934.406 127.781C932.443 119.323 929.422 112.677 925.344 107.844C921.417 103.01 915.073 100.594 906.312 100.594H861.906V174H843.781ZM1054.94 174V4.30469H1100.7C1125.17 4.30469 1144.43 11.5547 1158.48 26.0547C1172.52 40.4036 1179.55 61.474 1179.55 89.2656C1179.55 115.698 1172.75 136.466 1159.16 151.57C1145.56 166.523 1125.93 174 1100.25 174H1054.94ZM1073.06 158.594H1097.53C1117.17 158.594 1132.65 153.081 1143.98 142.055C1155.3 130.878 1160.97 113.281 1160.97 89.2656C1160.97 64.9479 1155.3 47.276 1143.98 36.25C1132.65 25.224 1117.32 19.7109 1097.98 19.7109H1073.06V158.594ZM1271.76 174V4.30469H1377.79V19.7109H1289.88V78.6172H1369.18V93.7969H1289.88V158.594H1379.6V174H1271.76ZM1470.23 174V4.30469H1491.07L1553.6 112.602L1573.99 148.398H1575.35C1573.54 134.352 1572.63 118.341 1572.63 100.367V4.30469H1590.76V174H1569.91L1507.16 65.0234L1486.99 30.1328H1486.09C1487.6 45.237 1488.35 61.1719 1488.35 77.9375V174H1470.23ZM1675.04 19.7109V4.30469H1796.48V19.7109H1744.82V174H1726.7V19.7109H1675.04ZM1880.3 174V4.30469H1898.43V174H1880.3ZM1988.83 142.055L2005.59 136.164C2015.71 153.685 2031.42 162.445 2052.72 162.445C2064.5 162.445 2074.09 159.576 2081.49 153.836C2088.89 148.096 2092.59 140.242 2092.59 130.273C2092.59 125.289 2091.54 120.909 2089.42 117.133C2087.31 113.206 2083.91 109.807 2079.23 106.938C2074.7 104.068 2070.47 101.802 2066.54 100.141C2062.61 98.4792 2057.25 96.5156 2050.45 94.25C2045.02 92.4375 2041.16 91.1536 2038.9 90.3984C2036.63 89.6432 2033.01 88.2839 2028.02 86.3203C2023.19 84.3568 2019.57 82.6198 2017.15 81.1094C2014.88 79.599 2012.01 77.5599 2008.54 74.9922C2005.07 72.2734 2002.5 69.5547 2000.84 66.8359C1999.33 64.1172 1997.89 60.8698 1996.53 57.0938C1995.32 53.1667 1994.72 49.013 1994.72 44.6328C1994.72 31.1901 1999.85 20.4661 2010.12 12.4609C2020.4 4.30469 2034.14 0.226562 2051.36 0.226562C2064.5 0.226562 2075.9 3.2474 2085.57 9.28906C2095.39 15.3307 2102.41 22.8828 2106.64 31.9453L2091.23 37.3828C2082.32 22.8828 2068.88 15.6328 2050.91 15.6328C2039.12 15.6328 2029.91 18.276 2023.27 23.5625C2016.62 28.849 2013.3 35.8724 2013.3 44.6328C2013.3 48.5599 2014.2 52.2604 2016.02 55.7344C2017.83 59.0573 2019.79 61.776 2021.91 63.8906C2024.17 65.8542 2027.72 68.0443 2032.55 70.4609C2037.54 72.7266 2041.39 74.388 2044.11 75.4453C2046.98 76.3516 2051.59 77.862 2057.93 79.9766C2059.44 80.4297 2060.57 80.8073 2061.33 81.1094C2068.73 83.526 2074.92 85.8672 2079.91 88.1328C2084.89 90.3984 2090.03 93.4193 2095.31 97.1953C2100.6 100.971 2104.53 105.578 2107.09 111.016C2109.81 116.302 2111.17 122.495 2111.17 129.594C2111.17 144.849 2105.81 156.781 2095.09 165.391C2084.51 173.849 2070.24 178.078 2052.27 178.078C2036.86 178.078 2023.79 174.831 2013.07 168.336C2002.35 161.841 1994.27 153.081 1988.83 142.055ZM2175.52 19.7109V4.30469H2296.95V19.7109H2245.3V174H2227.17V19.7109H2175.52Z" fill="black"/>
</svg>
