<svg width="318" height="25" viewBox="0 0 318 25" fill="none" xmlns="http://www.w3.org/2000/svg">
<path d="M0.25 19.5938L2.5625 18.7812C3.95833 21.1979 6.125 22.4062 9.0625 22.4062C10.6875 22.4062 12.0104 22.0104 13.0312 21.2188C14.0521 20.4271 14.5625 19.3438 14.5625 17.9688C14.5625 17.2812 14.4167 16.6771 14.125 16.1562C13.8333 15.6146 13.3646 15.1458 12.7188 14.75C12.0938 14.3542 11.5104 14.0417 10.9688 13.8125C10.4271 13.5833 9.6875 13.3125 8.75 13C8 12.75 7.46875 12.5729 7.15625 12.4688C6.84375 12.3646 6.34375 12.1771 5.65625 11.9062C4.98958 11.6354 4.48958 11.3958 4.15625 11.1875C3.84375 10.9792 3.44792 10.6979 2.96875 10.3438C2.48958 9.96875 2.13542 9.59375 1.90625 9.21875C1.69792 8.84375 1.5 8.39583 1.3125 7.875C1.14583 7.33333 1.0625 6.76042 1.0625 6.15625C1.0625 4.30208 1.77083 2.82292 3.1875 1.71875C4.60417 0.59375 6.5 0.03125 8.875 0.03125C10.6875 0.03125 12.2604 0.447917 13.5938 1.28125C14.9479 2.11458 15.9167 3.15625 16.5 4.40625L14.375 5.15625C13.1458 3.15625 11.2917 2.15625 8.8125 2.15625C7.1875 2.15625 5.91667 2.52083 5 3.25C4.08333 3.97917 3.625 4.94792 3.625 6.15625C3.625 6.69792 3.75 7.20833 4 7.6875C4.25 8.14583 4.52083 8.52083 4.8125 8.8125C5.125 9.08333 5.61458 9.38542 6.28125 9.71875C6.96875 10.0312 7.5 10.2604 7.875 10.4062C8.27083 10.5312 8.90625 10.7396 9.78125 11.0312C9.98958 11.0938 10.1458 11.1458 10.25 11.1875C11.2708 11.5208 12.125 11.8438 12.8125 12.1562C13.5 12.4688 14.2083 12.8854 14.9375 13.4062C15.6667 13.9271 16.2083 14.5625 16.5625 15.3125C16.9375 16.0417 17.125 16.8958 17.125 17.875C17.125 19.9792 16.3854 21.625 14.9062 22.8125C13.4479 23.9792 11.4792 24.5625 9 24.5625C6.875 24.5625 5.07292 24.1146 3.59375 23.2188C2.11458 22.3229 1 21.1146 0.25 19.5938ZM29.5938 15.5312V0.59375H32.0938V15.4688C32.0938 17.8021 32.625 19.5417 33.6875 20.6875C34.7708 21.8333 36.1562 22.4062 37.8438 22.4062C39.5729 22.4062 40.9688 21.8229 42.0312 20.6562C43.1146 19.4688 43.6562 17.7396 43.6562 15.4688V0.59375H46.1562V15.5312C46.1562 18.3646 45.4375 20.5833 44 22.1875C42.5625 23.7708 40.5104 24.5625 37.8438 24.5625C35.2396 24.5625 33.2083 23.7812 31.75 22.2188C30.3125 20.6562 29.5938 18.4271 29.5938 15.5312ZM60.5625 24V0.59375H69.375C71.6458 0.59375 73.4375 1.21875 74.75 2.46875C76.0833 3.71875 76.75 5.375 76.75 7.4375C76.75 9.5625 76.0729 11.2396 74.7188 12.4688C73.3646 13.6979 71.5833 14.3125 69.375 14.3125H63.0625V24H60.5625ZM63.0625 12.2188H69C70.6458 12.2188 71.9167 11.8229 72.8125 11.0312C73.7292 10.2188 74.1875 9.02083 74.1875 7.4375C74.1875 5.89583 73.7292 4.72917 72.8125 3.9375C71.9167 3.125 70.625 2.71875 68.9375 2.71875H63.0625V12.2188ZM89.25 24V0.59375H103.875V2.71875H91.75V10.8438H102.688V12.9375H91.75V21.875H104.125V24H89.25ZM119.125 11.75H125.438C127 11.75 128.198 11.3333 129.031 10.5C129.885 9.66667 130.312 8.5625 130.312 7.1875C130.312 5.85417 129.865 4.78125 128.969 3.96875C128.094 3.13542 126.833 2.71875 125.188 2.71875H119.125V11.75ZM116.625 24V0.59375H125.75C128.042 0.59375 129.802 1.21875 131.031 2.46875C132.26 3.69792 132.875 5.21875 132.875 7.03125C132.875 8.67708 132.458 10.0104 131.625 11.0312C130.792 12.0521 129.875 12.6979 128.875 12.9688C129.75 13.4271 130.385 13.9896 130.781 14.6562C131.177 15.3229 131.5 16.25 131.75 17.4375C132.021 18.6042 132.208 19.4062 132.312 19.8438C132.438 20.2604 132.646 20.8646 132.938 21.6562C133.25 22.4479 133.625 23.2292 134.062 24H131.25C130.896 23.3333 130.573 22.625 130.281 21.875C130.01 21.1042 129.812 20.4792 129.688 20C129.562 19.5 129.375 18.7083 129.125 17.625C128.854 16.4583 128.438 15.5417 127.875 14.875C127.333 14.2083 126.458 13.875 125.25 13.875H119.125V24H116.625ZM145.75 24V0.59375H152.062C155.438 0.59375 158.094 1.59375 160.031 3.59375C161.969 5.57292 162.938 8.47917 162.938 12.3125C162.938 15.9583 162 18.8229 160.125 20.9062C158.25 22.9688 155.542 24 152 24H145.75ZM148.25 21.875H151.625C154.333 21.875 156.469 21.1146 158.031 19.5938C159.594 18.0521 160.375 15.625 160.375 12.3125C160.375 8.95833 159.594 6.52083 158.031 5C156.469 3.47917 154.354 2.71875 151.688 2.71875H148.25V21.875ZM175.656 24V0.59375H190.281V2.71875H178.156V10.8438H189.094V12.9375H178.156V21.875H190.531V24H175.656ZM203.031 24V0.59375H205.906L214.531 15.5312L217.344 20.4688H217.531C217.281 18.5312 217.156 16.3229 217.156 13.8438V0.59375H219.656V24H216.781L208.125 8.96875L205.344 4.15625H205.219C205.427 6.23958 205.531 8.4375 205.531 10.75V24H203.031ZM231.281 2.71875V0.59375H248.031V2.71875H240.906V24H238.406V2.71875H231.281ZM259.594 24V0.59375H262.094V24H259.594ZM274.562 19.5938L276.875 18.7812C278.271 21.1979 280.438 22.4062 283.375 22.4062C285 22.4062 286.323 22.0104 287.344 21.2188C288.365 20.4271 288.875 19.3438 288.875 17.9688C288.875 17.2812 288.729 16.6771 288.438 16.1562C288.146 15.6146 287.677 15.1458 287.031 14.75C286.406 14.3542 285.823 14.0417 285.281 13.8125C284.74 13.5833 284 13.3125 283.062 13C282.312 12.75 281.781 12.5729 281.469 12.4688C281.156 12.3646 280.656 12.1771 279.969 11.9062C279.302 11.6354 278.802 11.3958 278.469 11.1875C278.156 10.9792 277.76 10.6979 277.281 10.3438C276.802 9.96875 276.448 9.59375 276.219 9.21875C276.01 8.84375 275.812 8.39583 275.625 7.875C275.458 7.33333 275.375 6.76042 275.375 6.15625C275.375 4.30208 276.083 2.82292 277.5 1.71875C278.917 0.59375 280.812 0.03125 283.188 0.03125C285 0.03125 286.573 0.447917 287.906 1.28125C289.26 2.11458 290.229 3.15625 290.812 4.40625L288.688 5.15625C287.458 3.15625 285.604 2.15625 283.125 2.15625C281.5 2.15625 280.229 2.52083 279.312 3.25C278.396 3.97917 277.938 4.94792 277.938 6.15625C277.938 6.69792 278.062 7.20833 278.312 7.6875C278.562 8.14583 278.833 8.52083 279.125 8.8125C279.438 9.08333 279.927 9.38542 280.594 9.71875C281.281 10.0312 281.812 10.2604 282.188 10.4062C282.583 10.5312 283.219 10.7396 284.094 11.0312C284.302 11.0938 284.458 11.1458 284.562 11.1875C285.583 11.5208 286.438 11.8438 287.125 12.1562C287.812 12.4688 288.521 12.8854 289.25 13.4062C289.979 13.9271 290.521 14.5625 290.875 15.3125C291.25 16.0417 291.438 16.8958 291.438 17.875C291.438 19.9792 290.698 21.625 289.219 22.8125C287.76 23.9792 285.792 24.5625 283.312 24.5625C281.188 24.5625 279.385 24.1146 277.906 23.2188C276.427 22.3229 275.312 21.1146 274.562 19.5938ZM300.312 2.71875V0.59375H317.062V2.71875H309.938V24H307.438V2.71875H300.312Z" fill="white"/>
</svg>
