<svg width="1361" height="1690" viewBox="0 0 1361 1690" fill="none" xmlns="http://www.w3.org/2000/svg">
<path d="M418.077 1621.18C418.077 1628.84 413.552 1636.42 404.76 1643.5C395.968 1650.57 383.082 1657 366.836 1662.42C350.591 1667.83 331.305 1672.13 310.08 1675.06C288.854 1677.99 266.105 1679.5 243.13 1679.5C220.156 1679.5 197.407 1677.99 176.181 1675.06C154.956 1672.13 135.67 1667.83 119.425 1662.42C103.179 1657 90.293 1650.57 81.5011 1643.5C72.7092 1636.42 68.1838 1628.84 68.1838 1621.18C68.1838 1605.71 86.6157 1590.88 119.425 1579.95C152.233 1569.01 196.732 1562.86 243.13 1562.86C289.529 1562.86 334.027 1569.01 366.836 1579.95C399.645 1590.88 418.077 1605.71 418.077 1621.18Z" fill="#F7F7F7"/>
<path d="M1230 1631.03C1230 1646.5 1211.57 1661.33 1178.76 1672.27C1145.95 1683.21 1101.45 1689.35 1055.05 1689.35C1008.66 1689.35 964.157 1683.21 931.348 1672.27C898.54 1661.33 880.108 1646.5 880.108 1631.03C880.108 1615.57 898.54 1600.74 931.348 1589.8C964.157 1578.86 1008.66 1572.72 1055.05 1572.72C1101.45 1572.72 1145.95 1578.86 1178.76 1589.8C1211.57 1600.74 1230 1615.57 1230 1631.03Z" fill="#F7F7F7"/>
<path d="M105.841 1204.02C68.866 1277.86 46.7418 1322.04 82.888 1358.4C127.015 1402.8 220.344 1342.2 309.718 1284.18C390.644 1231.64 468.33 1181.2 503.303 1212.72C629.429 1273.81 713.512 1273.81 839.637 1212.72C874.615 1181.2 952.297 1231.64 1033.23 1284.18C1122.6 1342.2 1215.93 1402.8 1260.05 1358.4C1296.2 1322.04 1274.07 1277.86 1237.1 1204.02C1188.06 1106.1 1112.91 956.015 1112.91 702.827H839.637H230.034C230.034 956.015 154.877 1106.1 105.841 1204.02Z" fill="#E43434"/>
<path d="M1037.13 964.458L1266.8 700.692C1266.8 700.692 1347.55 657.628 1356.52 602.004C1356.52 602.004 1357.41 580.472 1313.45 622.639C1313.45 622.639 1360.11 584.061 1356.52 567.015C1352.03 549.969 1322.43 574.192 1308.07 588.547C1293.72 602.901 1375.36 527.54 1350.24 509.596C1325.12 491.653 1299.1 551.763 1292.82 558.043C1292.82 558.043 1339.47 507.802 1311.66 500.625C1283.85 493.447 1273.08 542.791 1255.14 542.791C1255.14 542.791 1270.39 509.597 1254.24 504.214C1237.2 497.933 1235.4 501.522 1222.84 530.231C1216.56 544.586 1201.31 530.231 1193.23 566.118L1194.13 574.192C1194.13 574.192 1103.52 618.153 1047 611.873C1047 611.873 951 703.383 867.564 734.784C867.564 734.784 661.217 817.323 375.919 689.029C375.919 689.029 220.711 637.891 191.104 608.284C191.104 608.284 205.459 549.072 191.104 549.072C181.235 549.072 173.161 553.557 173.161 583.164C173.161 583.164 179.441 508.699 143.555 520.362C143.555 520.362 132.789 534.717 130.994 573.295C130.994 573.295 137.274 492.55 106.771 503.316C76.2673 513.185 99.5936 561.632 99.5936 577.781C99.5936 577.781 80.7532 508.699 63.7071 525.745C46.6611 542.792 57.4272 587.65 62.8102 593.033C68.1932 598.416 62.8099 628.919 52.9411 638.788C43.0723 648.657 5.3916 642.376 5.3916 662.114C5.3916 662.114 8.98047 695.309 58.3244 689.029C58.3244 689.029 78.9589 683.646 144.452 765.288C210.842 846.032 309.53 881.919 319.398 943.823C329.267 1005.73 318.501 1209.38 318.501 1209.38C318.501 1209.38 274.54 1434.57 209.944 1491.09C60.1184 1621.18 296.072 1666.04 362.462 1598.75C429.749 1531.46 494.345 1435.47 546.38 1403.17C598.416 1371.77 699.795 1380.74 752.728 1394.2C805.66 1408.55 881.022 1499.17 918.703 1579.01C956.383 1658.86 1083.78 1671.42 1120.56 1614.9C1157.35 1557.48 1069.43 1505.45 1055.97 1474.05C1041.61 1442.65 1026.36 1225.53 1026.36 1176.19C1027.26 1126.84 1020.08 982.401 1037.13 964.458Z" fill="#DFEDF0"/>
<path d="M364.248 1502.75C364.248 1502.75 421.666 1373.56 477.29 1354.72C532.914 1334.98 701.581 1342.16 758.102 1327.81C813.726 1313.45 918.694 1501.86 948.3 1531.46H893.573C893.573 1531.46 832.566 1422.9 754.513 1395.09C675.563 1367.28 558.932 1389.71 531.12 1415.73C503.307 1440.85 434.226 1520.7 434.226 1520.7C434.226 1520.7 370.528 1525.18 364.248 1502.75Z" fill="#CCDAE1"/>
<path d="M1186.04 793.985L1150.15 722.212C1150.15 722.212 977.896 833.46 959.953 888.187C942.01 942.914 929.449 1136.7 934.832 1228.21C940.215 1319.72 993.148 1518.89 1029.93 1518.89C1066.72 1518.89 1033.52 1518.89 1033.52 1518.89L1065.82 1486.59C1065.82 1486.59 1038.01 1462.37 1036.21 1306.26C1034.42 1151.06 1013.78 997.641 1034.42 971.623C1054.16 945.605 1186.04 793.985 1186.04 793.985Z" fill="#CCDAE1"/>
<path d="M187.511 715.927C187.511 715.927 385.784 773.346 385.784 889.977C385.784 1006.61 406.419 1288.32 358.869 1387C312.217 1485.69 295.17 1502.74 295.17 1502.74L251.21 1427.38C251.21 1427.38 321.188 1284.73 321.188 1145.67C321.188 1005.71 339.131 940.218 271.844 878.314L171.362 795.775C172.259 794.878 149.83 742.842 187.511 715.927Z" fill="#CCDAE1"/>
<path d="M1134.91 375.912C1134.91 658.518 931.258 771.56 680.053 771.56C428.848 771.56 210.837 658.518 225.192 375.912C240.443 80.7451 411.801 0.000610352 662.11 0.000610352C914.212 0.000610352 1134.91 157.004 1134.91 375.912Z" fill="#CCDAE1"/>
<path d="M1098.14 366.043C1098.14 641.471 902.555 751.822 662.115 751.822C420.779 751.822 211.74 641.471 226.094 366.043C240.449 78.9508 404.63 0.000610352 645.967 0.000610352C887.303 0.000610352 1098.14 153.415 1098.14 366.043Z" fill="#DFEDF0"/>
<path d="M1026.35 358.868C1026.35 572.393 846.92 658.52 625.321 658.52C403.722 658.52 211.73 573.29 224.29 358.868C237.748 136.372 388.471 74.468 610.07 74.468C831.669 74.468 1026.35 192.893 1026.35 358.868Z" fill="#466D91"/>
<path d="M966.235 351.686C966.235 543.678 800.26 619.937 595.707 619.937C391.154 619.937 213.516 542.781 225.179 351.686C237.739 151.618 376.8 96.8915 581.353 96.8915C785.905 96.8915 966.235 202.757 966.235 351.686Z" fill="#5F96C9"/>
<path d="M315.793 1221.93C315.793 1221.93 505.991 1264.99 671.966 1264.99C846.913 1264.99 1018.27 1204.88 1027.24 1195.01C1036.21 1186.04 1044.29 1163.61 1032.63 1151.05C1020.07 1138.49 859.473 1212.06 674.657 1212.06C489.842 1212.06 335.53 1169.89 320.278 1169.89C304.129 1169.89 313.101 1219.24 315.793 1221.93Z" fill="#5F96C9"/>
<path d="M259.279 1411.23C259.279 1411.23 275.428 1452.5 324.772 1483.9C374.116 1515.31 436.02 1509.92 441.403 1509.92C446.786 1509.92 367.836 1605.92 353.481 1613.99C339.127 1622.07 269.148 1666.93 186.609 1618.48C186.609 1618.48 107.659 1578.11 167.768 1523.38C194.683 1499.16 217.113 1498.26 259.279 1411.23Z" fill="#5F96C9"/>
<path d="M881.019 1515.31C881.019 1515.31 938.437 1547.61 999.444 1520.69C1060.45 1493.78 1056.86 1474.94 1056.86 1474.94C1056.86 1474.94 1082.88 1506.34 1097.24 1522.49C1111.59 1538.63 1158.24 1579.01 1121.46 1615.79C1084.68 1652.57 1039.82 1679.49 952.792 1621.17C953.689 1620.28 902.551 1577.21 881.019 1515.31Z" fill="#5F96C9"/>
<path d="M271.837 877.422C271.837 877.422 234.156 745.54 326.563 671.075C326.563 671.075 323.872 661.207 300.546 661.207C300.546 661.207 213.521 744.643 247.613 857.685C248.51 857.685 260.173 877.422 271.837 877.422Z" fill="#5F96C9"/>
<path d="M226.971 841.537C226.971 841.537 209.925 736.569 288.875 656.721C288.875 656.721 285.287 646.853 270.035 646.853C270.035 646.853 197.365 715.037 205.439 824.491C205.439 824.491 216.205 841.537 226.971 841.537Z" fill="#5F96C9"/>
<path d="M1122.36 867.549C1122.36 867.549 1014.7 766.17 1035.33 651.333C1035.33 651.333 1015.6 670.173 1010.21 674.659C1004.83 679.145 1018.29 825.382 1093.65 900.744C1093.65 899.847 1122.36 884.595 1122.36 867.549Z" fill="#5F96C9"/>
<path d="M1135.81 851.402C1135.81 851.402 1045.2 776.04 1058.66 623.522L1068.53 610.962L1087.37 608.271C1087.37 608.271 1062.25 730.285 1157.35 826.281C1157.35 827.178 1153.76 846.916 1135.81 851.402Z" fill="#5F96C9"/>
<path d="M383.955 727.246C383.955 727.246 424.893 870.156 564.084 870.156C703.275 870.156 890.682 927.043 958.913 744.59C958.913 744.59 962.552 721.003 922.523 738.346C830.639 777.196 544.07 788.295 423.984 728.634C423.074 727.94 383.955 707.822 383.955 727.246Z" fill="#CCDAE1"/>
<path d="M133.677 758.099C133.677 758.099 129.191 720.418 180.329 674.663C231.468 628.907 234.159 634.29 234.159 634.29C234.159 634.29 191.096 609.17 192.89 601.992C194.684 595.712 212.627 551.751 188.404 546.368C188.404 546.368 177.638 546.368 174.049 560.723C174.049 560.723 182.123 515.865 154.311 515.865C126.499 515.865 132.78 550.854 132.78 556.237C132.78 561.62 143.546 486.258 104.968 500.613C104.968 500.613 76.2587 510.482 96.8934 562.517C96.8934 562.517 88.8187 506.893 57.4181 525.734C26.0174 544.574 65.4927 584.049 65.4927 608.272C65.4927 632.496 40.3723 645.953 26.9149 645.953C14.3546 645.953 0 646.85 0 666.588C0 687.223 34.9892 697.989 61.0069 692.606C85.2303 687.223 108.556 758.099 133.677 758.099Z" fill="#5F96C9"/>
<path d="M1157.34 588.546C1157.34 588.546 1142.99 614.564 1178.88 680.954C1214.76 747.344 1233.6 734.783 1237.19 734.783C1240.78 734.783 1249.75 715.943 1267.7 707.868C1285.64 699.794 1361 637.89 1361 610.975C1361 584.06 1350.23 588.546 1326.91 611.872C1326.91 611.872 1369.97 574.191 1356.51 560.734C1343.06 547.276 1321.53 578.677 1311.66 587.649C1311.66 587.649 1378.05 529.333 1349.34 507.801C1321.53 486.269 1316.14 537.408 1294.61 555.351C1294.61 555.351 1343.95 506.904 1313.45 496.138C1313.45 496.138 1298.2 487.167 1277.56 516.773C1277.56 516.773 1265 539.202 1256.03 540.996C1256.03 540.996 1274.87 506.007 1251.55 498.83C1228.22 491.652 1226.43 519.464 1220.15 530.23C1214.76 540.099 1206.69 524.847 1191.44 558.042C1177.98 591.237 1169.01 576.883 1157.34 588.546Z" fill="#5F96C9"/>
<path d="M1244.36 576.878C1244.36 576.878 1215.65 611.868 1234.49 638.782C1252.43 665.697 1285.63 682.743 1302.68 660.314C1319.72 637.885 1267.69 636.091 1264.1 601.102C1259.61 565.215 1251.54 568.804 1244.36 576.878Z" fill="#466D91"/>
<path d="M879.125 1100.23C879.125 1136.05 849.102 1166.06 811.074 1166.06H531.866C494.838 1166.06 463.815 1137.02 463.815 1100.23V976.318C463.815 940.499 493.837 910.488 531.866 910.488H811.074C848.102 910.488 879.125 939.53 879.125 976.318V1100.23Z" fill="#0458A4"/>
<path d="M271.807 575.754C342.282 640.666 683.646 832.019 674.718 869.298C566.888 843.486 368.903 732.861 268.052 662.908C248.605 649.036 253.07 630.392 271.807 575.754Z" fill="#E43434"/>
<path d="M1103.64 553.457C1029.47 625.233 672.392 824.227 680.988 870.108C793.182 849.087 1000.28 734.1 1106 659.098C1126.4 644.172 1122.1 621.233 1103.64 553.457Z" fill="#E43434"/>
<g opacity="0.23">
<path d="M613.636 123.89C405.981 123.89 246.225 187.784 246.225 403.425C258.191 610.192 413.967 611.079 437.927 627.053C469.874 635.039 437.206 626.6 501.821 643.026C549.726 659.001 621.06 651.013 661.556 651.013C702.052 651.013 741.423 635.039 781.357 627.053C861.224 595.106 821.29 611.079 885.184 579.132C917.131 555.172 981.025 491.278 981.025 411.411C981.025 195.77 848.039 123.89 613.636 123.89Z" fill="white"/>
<path d="M658.43 464.299L510.588 464.457C508.605 486.604 517.211 532.02 567.491 536.521C617.773 541.022 649.066 490.247 658.43 464.299Z" fill="#FF9061"/>
<path d="M683.248 397.941C714.075 400.638 741.981 369.504 745.577 328.401C749.173 287.299 727.098 251.792 696.271 249.095C665.443 246.398 637.538 277.532 633.942 318.635C630.346 359.738 652.421 395.244 683.248 397.941Z" fill="#7C7B8A"/>
<path d="M456.406 398.158C485.781 400.727 512.371 371.061 515.797 331.895C519.224 292.73 498.189 258.896 468.815 256.326C439.441 253.756 412.851 283.423 409.424 322.589C405.998 361.754 427.032 395.588 456.406 398.158Z" fill="#7C7B8A"/>
<path d="M701.903 313.316C712.179 314.215 721.238 306.614 722.137 296.338C723.036 286.062 715.434 277.003 705.159 276.104C694.883 275.205 685.824 282.807 684.925 293.082C684.026 303.358 691.627 312.417 701.903 313.316Z" fill="white"/>
<path d="M474.19 317.543C483.982 318.399 492.614 311.156 493.47 301.365C494.327 291.573 487.084 282.941 477.292 282.085C467.501 281.228 458.869 288.471 458.012 298.263C457.156 308.054 464.399 316.686 474.19 317.543Z" fill="white"/>
</g>
<path d="M549.969 1082.91L564.711 1077.73C573.609 1093.14 587.422 1100.84 606.148 1100.84C616.508 1100.84 624.941 1098.32 631.449 1093.27C637.957 1088.22 641.211 1081.32 641.211 1072.55C641.211 1068.17 640.281 1064.32 638.422 1061C636.562 1057.54 633.574 1054.55 629.457 1052.03C625.473 1049.51 621.754 1047.52 618.301 1046.05C614.848 1044.59 610.133 1042.87 604.156 1040.88C599.375 1039.28 595.988 1038.15 593.996 1037.49C592.004 1036.82 588.816 1035.63 584.434 1033.9C580.184 1032.18 576.996 1030.65 574.871 1029.32C572.879 1027.99 570.355 1026.2 567.301 1023.94C564.246 1021.55 561.988 1019.16 560.527 1016.77C559.199 1014.38 557.938 1011.52 556.742 1008.2C555.68 1004.75 555.148 1001.1 555.148 997.246C555.148 985.426 559.664 975.996 568.695 968.957C577.727 961.785 589.812 958.199 604.953 958.199C616.508 958.199 626.535 960.855 635.035 966.168C643.668 971.48 649.844 978.121 653.562 986.09L640.016 990.871C632.18 978.121 620.359 971.746 604.555 971.746C594.195 971.746 586.094 974.07 580.25 978.719C574.406 983.367 571.484 989.543 571.484 997.246C571.484 1000.7 572.281 1003.95 573.875 1007.01C575.469 1009.93 577.195 1012.32 579.055 1014.18C581.047 1015.91 584.168 1017.83 588.418 1019.96C592.801 1021.95 596.188 1023.41 598.578 1024.34C601.102 1025.14 605.152 1026.46 610.73 1028.32C612.059 1028.72 613.055 1029.05 613.719 1029.32C620.227 1031.45 625.672 1033.5 630.055 1035.5C634.438 1037.49 638.953 1040.14 643.602 1043.46C648.25 1046.79 651.703 1050.84 653.961 1055.62C656.352 1060.27 657.547 1065.71 657.547 1071.95C657.547 1085.37 652.832 1095.86 643.402 1103.43C634.105 1110.87 621.555 1114.59 605.75 1114.59C592.203 1114.59 580.715 1111.73 571.285 1106.02C561.855 1100.31 554.75 1092.61 549.969 1082.91ZM686.434 1111V961.785H726.676C748.191 961.785 765.125 968.16 777.477 980.91C789.828 993.527 796.004 1012.05 796.004 1036.49C796.004 1059.73 790.027 1078 778.074 1091.28C766.121 1104.43 748.855 1111 726.277 1111H686.434ZM702.371 1097.45H723.887C741.152 1097.45 754.766 1092.61 764.727 1082.91C774.688 1073.08 779.668 1057.61 779.668 1036.49C779.668 1015.11 774.688 999.57 764.727 989.875C754.766 980.18 741.285 975.332 724.285 975.332H702.371V1097.45Z" fill="white"/>
</svg>
